<svg id="Ahalf" data-name="图层 1" xmlns="http://www.w3.org/2000/svg" viewBox="0 0 64.36 219.89"><defs><style>.cls-1{fill:#fff;}</style></defs><title>Ahalf</title>
    <path d="M69.54,235.48l-5-3.55-.25.14c.59,1,1.12,2.12,1.77,3.12s1.45,2,2.16,3,1.43,2,2.15,3l-.3.25-2-2.08c-.51,2.63-1,5.13-1.47,7.64l.22.16,3.69-5.42.32.13a5.33,5.33,0,0,1-.3,1.16,20.21,20.21,0,0,1-1.65,2.82c-2.71,3.64-5,7.48-5.58,12.09a12.11,12.11,0,0,1-3.12,6.24c-3.49,4.16-5.13,9-6,14.21-.23,1.43-.56,2.84-.87,4.35H50.41c.09-.44.13-.83.24-1.2.88-2.91,1.71-5.84,2.69-8.71a21.89,21.89,0,0,1,5-7.87c1.54-1.65,3.08-3.38,3.3-5.79a3.9,3.9,0,0,0-.2-1.83,194.5,194.5,0,0,1-8.21-24.79,69.14,69.14,0,0,0-3.84-10.47c-2.4-5.33-5.08-10.54-7.68-15.89L34,210.27l-.29-.55,30.23-17c-.26-.58-.51-1.14-.82-1.85L32.78,204.13l-.16-.34L62.55,189c-.42-1-1.07-.7-1.74-.5-8.13,2.43-16.26,4.88-24.4,7.27a76,76,0,0,1-8.84,2.07c.13-.21.22-.55.4-.61Q44,192.07,60,187c.77-.25,1.2-.53,1.34-1.42a12.44,12.44,0,0,1,1.06-2.52c-.45-1.14-1.57-.71-2.55-.64-9.82.75-19.65,1.53-29.48,2.26-1.52.11-3.06,0-4.78,0l.41-3.84h.11v3.21L61,180.69c.1-.61.21-1.13.28-1.66.13-1-.16-1.59-1.3-1.76Q46,175.19,32.06,173c-1.25-.2-2.49-.51-3.73-.75a6,6,0,0,1-1.47-.32c.37-.17.75-.52,1.1-.48,5.5.62,11,1.25,16.49,2,5.17.68,10.34,1.48,15.5,2.22.71.1,2.08-1,2-1.83s.27-1.82-1.11-2.26C52.22,168.84,43.59,166,35,163.19c-1.36-.45-2.67-1-4-1.57l.12-.54a17.12,17.12,0,0,1,2.5.38c5.65,1.69,11.3,3.42,16.94,5.15L62,170.12c.4-.51.76-1,1.11-1.42a1.89,1.89,0,0,0-.64-3l-24.12-13c-.81-.44-1.57-1-2.36-1.48l.2-.51a10.19,10.19,0,0,1,1.85.57c5,2.57,10,5.19,15,7.78,3.51,1.81,7,3.55,10.54,5.41a2.17,2.17,0,0,0,2.73-.74c.63-.65.56-1.65-.46-2.5-6.93-5.8-13.79-11.68-20.65-17.56a29.67,29.67,0,0,1-2.31-2.48l1.13-.82.15.05a.73.73,0,0,0-.1.25.85.85,0,0,0,0,.39c0,.07.11.13.18.19L67.74,161c.6-.36,1.45-.6,1.83-1.16a2.07,2.07,0,0,0-.07-2.76c-5-6.54-10-13.18-14.93-19.79-.87-1.17-1.54-2.49-2.51-3.56a1.71,1.71,0,0,1-.09-2.42A52.74,52.74,0,0,1,55.06,127c2.44-3,4.78-5.94,5.93-9.67a3.12,3.12,0,0,1,.54-.78l.46.17a10.24,10.24,0,0,1-.77,2.71c-1.3,2.12-2.76,4.14-4.21,6.17-1.32,1.84-2.74,3.61-4.07,5.45a1.92,1.92,0,0,0,.18,2.82c2.76,3.12,5.3,6.45,7.92,9.71Q66.2,150,71.37,156.42c.87,1.09,1.65,1,2.38-.16.29-.45.67-.85,1.09-1.38-.36-.77-.76-1.62-1.15-2.48Q67.93,140,62.18,127.58a12.35,12.35,0,0,1-.48-1.83c.47-2.45,1.13-5.94,1.78-9.39a5.38,5.38,0,0,1,.21,1.64c-.37,2.45-.84,4.89-1.26,7.33-.06.37-.2.83,0,1.11,3.11,6.06,6.27,12.08,9.37,18.14,1.44,2.82,2.78,5.71,4.15,8.57.21.44.36.91.55,1.38a2.6,2.6,0,0,0,2.8-3.31q-3.06-13.41-6.1-26.81a3.34,3.34,0,0,1,.2-2c3.3,9.82,5.31,19.94,8,30,.38.07.81.18,1.25.22a1.82,1.82,0,0,0,2.18-2.1c-.77-8.45-1.57-16.9-2.35-25.35a25.22,25.22,0,0,1-.14-3.13c0-.26.61-.76.65-.73,1.55,1.08,3.27.18,4.89.68h-4.5c1,10,1.92,19.82,2.86,29.56,2.19.89,2.44,2.11,2.09,5.07a75.61,75.61,0,0,0-.1,8.52c0,.26.14.66,0,.75-1.13.89-2.31,1.73-3.67,2.73l.76-2.68-2.1,1c.77,2.38,1.56,4.78,2.35,7.17h.22v-3.47l.29,0,.66,3.67.16,0v-4.42l-2.48-.55,0-.25h3.79a9.87,9.87,0,0,0,0,6.13c-.46.18-1.09.44-1.74.66-2.61.92-5.26,1.74-7.81,2.78a5.29,5.29,0,0,0-2.15,1.92c-.62.92-.16,1.57.9,1.35,1.27-.27,2.48-.84,3.76-1.1,2.33-.49,4.69-.85,7-1.27l.13.54-1.5.47.15,1.42h1.25l.16.31c-.27.15-.57.45-.81.41a4.92,4.92,0,0,0-3.68,1.11,24.25,24.25,0,0,1-8.41,3.39c-.68.14-1.48.21-1.31,1.18s1,.93,1.72.75c3.3-.82,6.59-1.71,9.9-2.51a15.41,15.41,0,0,1,2.46-.21l0,.49-2.38.51,2.42.68v.51c-4-1.12-6.8,1.14-9.88,2.88a5.25,5.25,0,0,0,4,.39c2.08-.74,3.85.42,5.79.39l0,.57a12.48,12.48,0,0,1-2-.15,9.68,9.68,0,0,0-3.87-.13,15.59,15.59,0,0,1-4.19-.19,1.43,1.43,0,0,1-.94-.81c-.08-.19.33-.71.63-.9.92-.58,1.89-1.06,2.8-1.74-1.16.23-2.31.54-3.48.68s-2.23,0-3.35.11a2.48,2.48,0,0,0-1.11.26c-1.34.77-2.6,1.68-4,2.35a24.37,24.37,0,0,1-3.38,1.13,6.27,6.27,0,0,0-.77.24l-15,8.26c1.49,2.84,3,5.62,4.4,8.45,2.44,5,4.86,9.94,7.2,15a16.61,16.61,0,0,0,3.61,5C66.75,232.12,68.42,234.22,69.54,235.48Zm17-81.35,0,0c-.46-.16-1.27-.55-1.34-.46a21.21,21.21,0,0,0-1.22,2.43c1.43.54,2.59.8,3.54-.33ZM68.06,185.24c1-.37,1-1,.34-1.82,2.27.35,3.41,0,3.56-1.17l-5.73.67-.16.44a5.22,5.22,0,0,0,1.51,1c.64.16.72.38.52.9l-.92,1.6.37.26,5.14-1.86,0-.39a5.72,5.72,0,0,0-1.29-.47,14,14,0,0,0-1.84,0C69.31,185.8,69,186,68.06,185.24ZM74,165.67l-1.51-2.44c-.23,1-.19,1.74-.54,2.06s-1.11.21-2.07.33l5,3.76,1.31-1.64-1.18-.91Zm8.79-1.42L84,162.91l.33.21-.22-1-1.45.55-1.09-3.49,2-.48-.18-1.3c-.65,1.11-1.3,1.3-2.1.47-.15-.16-.47-.15-.71-.22.22-.19.41-.47.67-.56.71-.24,1.46-.41,2.47-.68-.79-1-1.19-1.81-1.84-2.12-.33-.16-1.66.78-1.61,1,.21.78-1,1.79.34,2.36a2.94,2.94,0,0,0-.12,1.12q.77,2.44,1.66,4.84c.1.27.46.44.7.65-.73,1.19.39,1.37,1.17,2.11.23-.83.39-1.45.56-2.07ZM42.49,205.73c1.11,2.08,2.06,4,3.15,5.9a86.06,86.06,0,0,1,9.34,22c1.54,6,3.55,11.8,5.41,17.67.45,1.41,1.11,2.74,1.68,4.12,1-2.09,2.29-4,2.84-6.06.9-3.45,1.35-7,1.93-10.56a2.57,2.57,0,0,0-.38-1.5c-2.3-4-4.83-7.83-6.92-11.91-2.77-5.4-5.2-11-7.79-16.48-1-2.15-2.09-4.28-3.17-6.48Zm26-33.25-.71.24A3.49,3.49,0,0,0,67,173c-.77.51-.85,1.38-.15,1.56,1.76.44,3.56.76,5.05,1.07.27-1,.48-1.74.72-2.58l-4.89-2.56-.24.26Zm10.21-6.55-3-5.4c-.3.78-.36,1.6-.74,1.79s-1.22,0-2.17-.13l4,4.8Zm.75-7.38c-.64,2.11-1.84,1.14-3.17.88l3.23,5.68,1.85-.78Zm-14,19.4.19.41,5.75.29.34-2.36a6.94,6.94,0,0,1-1.68,1.14,13.47,13.47,0,0,1-2.47.33l.64-1.41,2,.09,0-.36-3.32-.73.38,1.18C66.62,177,66,177.5,65.45,178ZM72,181.7l-1-2.27-3.74-.29a15.07,15.07,0,0,0-.92,1.2c-.59,1-.24,1.89.79,1.85C68.69,182.12,70.28,181.88,72,181.7Zm-5.42,3.59-1.72-2.36-1.43.58,1.48.38c-.53.59-1.46,1.21-1.38,1.65a6.94,6.94,0,0,0,1.36,2.23l.33-.21-.5.64C66.77,187.91,65.37,185.78,66.53,185.29Zm18.61-4.67c-3.83,0-6.87,3.07-10.47,1.44l2.13,1.72,7.7-2.69A4.22,4.22,0,0,0,85.14,180.62ZM73.66,169.75c-1.47-1.15-2.6-2.06-4-3.17l.23,2-1.93.83,5.27,2.69.28-.42-3.22-2L71,168l1,1.8Zm13.8-8.06-1.8.09c-.06-.72,0-1.26-.14-1.78-.37-1.87-.35-1.9,1.74-1.61v1.77h.29c.06-1.09.11-2.18.18-3.52-.85.57-1.34,1.15-1.86,1.17s-.92-.61-1.47-1c.34,2.16.65,4.21,1,6.23l2.1-.35ZM68.7,191.09a6.37,6.37,0,0,0,4.8-4.46c0-.13-.32-.39-.58-.67-.48,1.9-2.84,3.53-4.11,2.82Zm-4,.8c.81,1.38,1.6,1.36,3,.11v-3.84l-1.85.65.75,1.34-1.07.44-.09.3,1.52.12C66.65,191.89,66.65,191.89,64.66,191.89Zm-.14-21.5c-.83,1.17-.72,2.14.55,3.25H63.61l0,.28,1.56.28,1.57-2.09-.38-.93Zm0,7.83,1.37-1.74L65.23,175c-.7,1.52-1.14.27-1.61-.09C62.3,176.4,62.61,177.49,64.53,178.22Zm4-15.23a17.52,17.52,0,0,0,.83,2.2,1.42,1.42,0,0,0,1.07-.24c.31-.35.65-1,.53-1.34a8.4,8.4,0,0,0-1.23-1.81Zm5.17-1.24c.6-1.2.76-2.18-.08-3a1.31,1.31,0,0,0-1.12.37,4.86,4.86,0,0,0-.41,2.21C72.14,161.53,73.21,161.62,73.73,161.75ZM84.07,182.6l-.21-.3c-2.36.83-4.81,1.48-6.75,3.13l.31.6ZM68.62,167.12l-.42-.42a4.57,4.57,0,0,0-1.67.66c-.21.2,0,1,.25,1.43a1.08,1.08,0,0,0,1,.07A10,10,0,0,0,68.62,167.12Zm-5.23,13.36a7.85,7.85,0,0,1,.66,1,7.32,7.32,0,0,1,.36,1.09l.27-.15c.2-.95.39-1.91.64-3.12h-2v.25l1.15.27ZM78.24,158l-2.19-.46,1-1.14c-1,0-1.37.13-1.35,1a2,2,0,0,0,.71,1.5A1.24,1.24,0,0,0,78.24,158Zm.37,15.66c.23,1.5,1.74,2.61,3.64,2.81Zm1.68-5-2,.2,2.11,2.54c-.07-.72-.12-1.06-.14-1.41S80.29,169.14,80.29,168.59Zm1.17,2.31c-.57,1.17.21,2.56,2.08,3.74Zm3,2.43-1.33-3.93C82.3,171.41,83.86,172.21,84.49,173.33ZM80.38,177l-2.59-1.33C77.72,177.07,78.11,177.3,80.38,177Zm-1.3-22.09,2.86-1.54C80.41,152.89,79.4,153.43,79.08,154.92ZM74.2,177.25l-.18-.47-1.77.35.46,1.45.31-.09v-1.3l.23,0,.49,1.41Zm-1.11,4.9c-.84,1.67-.52,2.31,1.06,2.49Zm8.81-16.44-.42-.72-1.37.78c.16.23.4.68.45.66A14.42,14.42,0,0,0,81.9,165.71Z" transform="translate(-25.58 -62.84)"/><path d="M82.79,72.62c-.1-1.13-.79-1.5-1.85-1.73a8.9,8.9,0,0,0-8.2,2.23,25.9,25.9,0,0,0-7.34,11.6c-.8,2.46-1.34,5-2.25,7.42a52.7,52.7,0,0,1-2.73,5.41L60,97.36c.3-.94.6-1.88.89-2.83,1-3.12,2-6.23,2.86-9.37a28.53,28.53,0,0,1,5.32-10C72.43,71,76.62,69,82,70.58c.28-3,.59-3-2.28-3.89a10.63,10.63,0,0,0-11.49,2.88,40.5,40.5,0,0,0-8.63,12.79c-2.84,7-4,14.3-4.89,21.79,4.36-4,8.46-8,10.43-13.72a50.64,50.64,0,0,1,2.46-5.9c2.48-5,6-9,11.78-10.22a21,21,0,0,1,5.25.08c.34,0,.66.45.9.82-3.81-1.65-7.16-.54-10.3,1.54a19.15,19.15,0,0,0-6.66,8.44c-1.53,3.39-2.82,6.91-4.67,10.11a25.89,25.89,0,0,1-5.27,6.35c-4.19,3.66-5.41,8-3.88,13.21a7,7,0,0,1,.21.93c0,.06-.07.15-.31.64-.54-1.27-1-2.29-1.26-3-1.74,4.79-3.55,9.81-5.37,14.82l.13.12,7.58-10.82a9.13,9.13,0,0,1-.61,1.68c-1.13,1.8-2.26,3.61-3.5,5.34-2.24,3.14-4.62,6.18-6.83,9.34-1.79,2.56-3,5.35-2.78,8.61,0,.28-.21.57-.43,1.1a4.21,4.21,0,0,1-.3-4.06c.9-2.21,2-4.33,3.1-6.48.27-.52.73-.95,1-1.48,3.27-7.58,6.75-15.06,7.78-23.41.75-6,1.77-12,3-18a42.34,42.34,0,0,1,9.92-19.58c3.62-4.07,7.89-5.77,13.25-4.73a5.44,5.44,0,0,0,1.44-.1l2.09,1.67c1.46-1.69,2.68-3.39,4.91-3.72-1.23,1.13-2.54,2.18-3.66,3.41a4.45,4.45,0,0,0-.7,4c.13.7.29,1.39.44,2.09l-.33.25-.74-.88Z" transform="translate(-25.58 -62.84)"/><path d="M61.33,114.94l-4.8,1.45-.15-.47c.44-.18.87-.37,1.31-.54,5-2,7.16-6.16,8.5-10.95.83-3,1.38-6,2.35-9a45.91,45.91,0,0,1,3.54-8.35c1.64-2.85,4.1-5,7.65-5.26,1.89-.11,3.54.79,5.3,1.8l-3.21,1.66c1.53.26,3,.49,4.44.76,1.93.37,2.15.7,1.75,2.87l-.79-2.33a9.65,9.65,0,0,0-7.1,2.74,33.2,33.2,0,0,0-7.2,10c-1.24,2.52-2.42,5.08-3.57,7.64a4.33,4.33,0,0,0-.4,1.8c0,1.45.28,2.91.2,4.35-.16,2.87.88,5.43,1.92,8A12.92,12.92,0,0,0,72.19,123c-1.14.58-1.14.58-3.07-4.09-.14,1.28-.18,2.24-.37,3.17s.21,1.94-1.1,2.24c.2-5,1-9.92.71-14.93A19.81,19.81,0,0,1,62,114.66a24.25,24.25,0,0,0,2.92-3.36q3.1-5.17,5.9-10.54c3.09-5.92,6.32-11.67,13-14.46a6.16,6.16,0,0,0-2-.09,13.38,13.38,0,0,0-2.07.65c-.6.2-1.19.42-1.79.64L77.68,87l6-3.41c-2.17-.84-4.15-1.74-6.26-.35a12,12,0,0,0-4.59,4.73,63.85,63.85,0,0,0-3,7.54c-1,3.28-1.69,6.68-2.69,10-1.16,3.85-3,7.32-6.78,9.29a2.88,2.88,0,0,0-.44.41Z" transform="translate(-25.58 -62.84)"/><path class="cls-1" d="M61.33,114.94l-1.48.2a2.88,2.88,0,0,1,.44-.41c3.81-2,5.62-5.44,6.78-9.29,1-3.3,1.65-6.7,2.69-10a63.85,63.85,0,0,1,3-7.54,12,12,0,0,1,4.59-4.73c2.11-1.39,4.09-.49,6.26.35l-6,3.41.22.55c.6-.22,1.19-.44,1.79-.64a13.38,13.38,0,0,1,2.07-.65,6.16,6.16,0,0,1,2,.09c-6.66,2.79-9.89,8.54-13,14.46q-2.79,5.35-5.9,10.54A24.25,24.25,0,0,1,62,114.66Z" transform="translate(-25.58 -62.84)"/><path d="M88.46,76.46,86.37,82l1.88-.26.3.28c-1.32.82-2.89,1.53-1.74,3.51l-.39.14c-.31-.26-.88-.51-.89-.79a7.2,7.2,0,0,1,.41-2.57c-.11-1.1-.6-2-2-1.81l1-.18.07-.27-2.8-1,.11-.39L86,79.5l1.92-3.26Z" transform="translate(-25.58 -62.84)"/><path d="M88.36,263.74c-.14.21-.24.54-.44.62-3.91,1.65-7.83,3.28-11.81,4.8A52.68,52.68,0,0,1,88.36,263.74Z" transform="translate(-25.58 -62.84)"/><path class="cls-1" d="M87.78,63.74c-2.23.33-3.45,2-4.91,3.72l-2.09-1.67,2.86-1.33a7.66,7.66,0,0,1,1.5-.53c.86-.11,1.74-.11,2.61-.15Z" transform="translate(-25.58 -62.84)"/><path d="M82.79,72.62a19.89,19.89,0,0,1-2.66.12c-1.72-.15-1.71-.2-5.6,1.56A5.45,5.45,0,0,1,79.45,72c1.12.14,2.23.39,3.34.59Z" transform="translate(-25.58 -62.84)"/><path d="M33.45,210c-1.24-.3-2.77-3.64-2.45-5.34Z" transform="translate(-25.58 -62.84)"/><path d="M88.18,71.43c.19,1.27.19,1.27-1.62,4.76A5.26,5.26,0,0,1,88.18,71.43Z" transform="translate(-25.58 -62.84)"/><path d="M89.46,171.23c.6,2.94.4,3.77-.79,3.9C88.93,173.82,89.2,172.52,89.46,171.23Z" transform="translate(-25.58 -62.84)"/><path d="M89.66,158.72v4.11h-.33v-4.11Z" transform="translate(-25.58 -62.84)"/><path d="M89.66,181.16l-.11,1.94a7.64,7.64,0,0,1-.86-.33,14.84,14.84,0,0,1,.59-1.78Z" transform="translate(-25.58 -62.84)"/><path d="M39.43,146.49c-.65.91-1.3,1.82-2,2.71-.1.13-.28.18-.63.08l2.3-3.05Z" transform="translate(-25.58 -62.84)"/><path d="M89,88.48l1,2.25-.57.24-1-2.3Z" transform="translate(-25.58 -62.84)"/><path d="M88.41,72.84l.81-2.1.7.3-1,2Z" transform="translate(-25.58 -62.84)"/><path d="M87.75,63.78c-.87,0-1.75,0-2.61.15a7.66,7.66,0,0,0-1.5.53c1.26-1.28,2.94-1.21,4.85-1.62Z" transform="translate(-25.58 -62.84)"/><path class="cls-1" d="M42.49,205.73l6.09-3.34c1.08,2.2,2.15,4.33,3.17,6.48,2.59,5.5,5,11.08,7.79,16.48,2.09,4.08,4.62,7.94,6.92,11.91a2.57,2.57,0,0,1,.38,1.5c-.58,3.54-1,7.11-1.93,10.56-.55,2.08-1.83,4-2.84,6.06-.57-1.38-1.23-2.71-1.68-4.12-1.86-5.87-3.87-11.71-5.41-17.67a86.06,86.06,0,0,0-9.34-22C44.55,209.76,43.6,207.81,42.49,205.73Z" transform="translate(-25.58 -62.84)"/><path class="cls-1" d="M68.49,172.48l-1-1.75.24-.26L72.65,173c-.24.84-.45,1.6-.72,2.58-1.49-.31-3.29-.63-5.05-1.07-.7-.18-.62-1,.15-1.56a3.49,3.49,0,0,1,.75-.26Zm.11.44c.52.54.89,1.23,1.33,1.28a7,7,0,0,0,2.19-.43l-.08-.7Z" transform="translate(-25.58 -62.84)"/><path class="cls-1" d="M78.7,165.93,76.84,167l-4-4.8c1,.09,1.69.37,2.17.13s.44-1,.74-1.79Zm-2.65-3.34-1.08.66c.52.8.9,1.47,1.37,2.06.16.2.54.23.83.34,0-.29.18-.63.08-.86C77,164.11,76.54,163.47,76.05,162.59Z" transform="translate(-25.58 -62.84)"/><path class="cls-1" d="M79.45,158.55l1.91,5.78-1.85.78-3.23-5.68C77.61,159.69,78.81,160.66,79.45,158.55Zm-1.58,2.15,2.07,3.42c1.07-1.66-.61-2.35-.81-3.41A6.34,6.34,0,0,0,77.87,160.7Z" transform="translate(-25.58 -62.84)"/><path class="cls-1" d="M65.45,178c.59-.45,1.17-.91,1.81-1.42l-.38-1.18,3.32.73,0,.36-2-.09-.64,1.41a13.47,13.47,0,0,0,2.47-.33,6.94,6.94,0,0,0,1.68-1.14l-.34,2.36-5.75-.29Z" transform="translate(-25.58 -62.84)"/><path class="cls-1" d="M72,181.7c-1.67.18-3.26.42-4.86.49-1,0-1.38-.88-.79-1.85a15.07,15.07,0,0,1,.92-1.2l3.74.29Zm-5-.9c1.1,1,2.19.31,3.21.11.28-.06.45-.62.66-.95-.42-.14-.88-.43-1.27-.36s-.71.48-1.09.78C67.63,179.29,67.42,180.27,67,180.8Z" transform="translate(-25.58 -62.84)"/><path class="cls-1" d="M66.53,185.29c-1.16.49.24,2.62-1.86,2.91l.5-.64-.33.21a6.94,6.94,0,0,1-1.36-2.23c-.08-.44.85-1.06,1.38-1.65l-1.48-.38,1.43-.58Z" transform="translate(-25.58 -62.84)"/><path class="cls-1" d="M82.8,164.2c-.24-.21-.6-.38-.7-.65q-.9-2.4-1.66-4.84a2.94,2.94,0,0,1,.12-1.12l0,0c.24.06.56,0,.71.21.8.83,1.45.64,2.1-.47l.18,1.3-2,.48,1.09,3.49,1.45-.55.22,1-.33-.21-1.23,1.34Z" transform="translate(-25.58 -62.84)"/><path class="cls-1" d="M85.14,180.62a4.22,4.22,0,0,1-.64.47l-7.7,2.69-2.13-1.72C78.27,183.69,81.31,180.66,85.14,180.62Z" transform="translate(-25.58 -62.84)"/><path class="cls-1" d="M74.94,166.83l1.18.91-1.31,1.64-5-3.76c1-.12,1.71,0,2.07-.33s.31-1.09.54-2.06L74,165.67c-1-.88-1-.88-1.38.39a13.92,13.92,0,0,1,1,1.55c.18.26.67.29,1,.43Z" transform="translate(-25.58 -62.84)"/><path class="cls-1" d="M73.66,169.75H72L71,168l-.66,1.77,3.22,2-.28.42L68,169.41l1.93-.83-.23-2C71.06,167.69,72.19,168.6,73.66,169.75Z" transform="translate(-25.58 -62.84)"/><path class="cls-1" d="M87.46,161.69v1l-2.1.35c-.31-2-.62-4.07-1-6.23.55.41,1,1,1.47,1s1-.6,1.86-1.17c-.07,1.34-.12,2.43-.18,3.52h-.29v-1.77c-2.09-.29-2.11-.26-1.74,1.61.1.52.08,1.06.14,1.78Z" transform="translate(-25.58 -62.84)"/><path class="cls-1" d="M68.7,191.09l.11-2.31c1.27.71,3.63-.92,4.11-2.82.26.28.62.54.58.67A6.37,6.37,0,0,1,68.7,191.09Z" transform="translate(-25.58 -62.84)"/><path class="cls-1" d="M80.56,157.59c-1.29-.57-.13-1.58-.34-2.36,0-.2,1.28-1.14,1.61-1,.65.31,1,1.16,1.84,2.12-1,.27-1.76.44-2.47.68-.26.09-.45.37-.67.56Z" transform="translate(-25.58 -62.84)"/><path class="cls-1" d="M64.66,191.89c2,0,2,0,2.23-.88l-1.52-.12.09-.3,1.07-.44-.75-1.34,1.85-.65V192C66.26,193.25,65.47,193.27,64.66,191.89Z" transform="translate(-25.58 -62.84)"/><path class="cls-1" d="M68.1,185.26c.2-.52.12-.74-.52-.9a5.22,5.22,0,0,1-1.51-1l.16-.44,5.73-.67c-.15,1.15-1.29,1.52-3.56,1.17.61.79.66,1.45-.34,1.82Z" transform="translate(-25.58 -62.84)"/><path class="cls-1" d="M68.06,185.24c.92.78,1.25.56,1.54-.86a14,14,0,0,1,1.84,0,5.72,5.72,0,0,1,1.29.47l0,.39-5.14,1.86-.37-.26c.3-.54.61-1.07.92-1.6Z" transform="translate(-25.58 -62.84)"/><path class="cls-1" d="M64.52,170.39l1.82.79.38.93-1.57,2.09-1.56-.28,0-.28h1.46C63.8,172.53,63.69,171.56,64.52,170.39Z" transform="translate(-25.58 -62.84)"/><path class="cls-1" d="M64.53,178.22c-1.92-.73-2.23-1.82-.91-3.28.47.36.91,1.61,1.61.09l.67,1.45Z" transform="translate(-25.58 -62.84)"/><path class="cls-1" d="M68.56,163l1.2-1.19A8.4,8.4,0,0,1,71,163.61c.12.35-.22,1-.53,1.34a1.42,1.42,0,0,1-1.07.24A17.52,17.52,0,0,1,68.56,163Z" transform="translate(-25.58 -62.84)"/><path class="cls-1" d="M73.73,161.75c-.52-.13-1.59-.22-1.61-.42a4.86,4.86,0,0,1,.41-2.21,1.31,1.31,0,0,1,1.12-.37C74.49,159.57,74.33,160.55,73.73,161.75Z" transform="translate(-25.58 -62.84)"/><path class="cls-1" d="M84.07,182.6,77.42,186l-.31-.6c1.94-1.65,4.39-2.3,6.75-3.13Z" transform="translate(-25.58 -62.84)"/><path d="M74.94,166.83,74.56,168c-.35-.14-.84-.17-1-.43a13.92,13.92,0,0,0-1-1.55c.41-1.27.41-1.27,1.38-.39Z" transform="translate(-25.58 -62.84)"/><path class="cls-1" d="M86.57,154.13l1,1.68c-1,1.13-2.11.87-3.54.33a21.21,21.21,0,0,1,1.22-2.43c.07-.09.88.3,1.34.47a2.84,2.84,0,0,0-.91-.08c-.27.05-.65.23-.71.44a.84.84,0,0,0,.3.78c.26.13.81.14.95,0A3.15,3.15,0,0,0,86.57,154.13Z" transform="translate(-25.58 -62.84)"/><path class="cls-1" d="M68.62,167.12a10,10,0,0,1-.84,1.74,1.08,1.08,0,0,1-1-.07c-.22-.43-.46-1.23-.25-1.43a4.57,4.57,0,0,1,1.67-.66Z" transform="translate(-25.58 -62.84)"/><path class="cls-1" d="M63.39,180.48l1.06-.62-1.15-.27v-.25h2c-.25,1.21-.44,2.17-.64,3.12l-.27.15a7.32,7.32,0,0,0-.36-1.09A7.85,7.85,0,0,0,63.39,180.48Z" transform="translate(-25.58 -62.84)"/><path class="cls-1" d="M82.8,164.2l0,.05h1.77c-.17.62-.33,1.24-.56,2.07C83.19,165.57,82.07,165.39,82.8,164.2Z" transform="translate(-25.58 -62.84)"/><path class="cls-1" d="M78.24,158a1.24,1.24,0,0,1-1.8.93,2,2,0,0,1-.71-1.5c0-.9.31-1.06,1.35-1l-1,1.14Z" transform="translate(-25.58 -62.84)"/><path class="cls-1" d="M78.61,173.64l3.64,2.81C80.35,176.25,78.84,175.14,78.61,173.64Z" transform="translate(-25.58 -62.84)"/><path class="cls-1" d="M80.29,168.59c0,.55,0,.94,0,1.33s.07.69.14,1.41l-2.11-2.54Z" transform="translate(-25.58 -62.84)"/><path class="cls-1" d="M81.46,170.9l2.08,3.74C81.67,173.46,80.89,172.07,81.46,170.9Z" transform="translate(-25.58 -62.84)"/><path class="cls-1" d="M84.49,173.33c-.63-1.12-2.19-1.92-1.33-3.93Z" transform="translate(-25.58 -62.84)"/><path class="cls-1" d="M80.38,177c-2.27.29-2.66.06-2.59-1.33Z" transform="translate(-25.58 -62.84)"/><path class="cls-1" d="M79.08,154.92c.32-1.49,1.33-2,2.86-1.54Z" transform="translate(-25.58 -62.84)"/><path class="cls-1" d="M74.2,177.25l-.46,1.33-.49-1.41-.23,0v1.3l-.31.09-.46-1.45,1.77-.35Z" transform="translate(-25.58 -62.84)"/><path class="cls-1" d="M73.09,182.15l1.06,2.49C72.57,184.46,72.25,183.82,73.09,182.15Z" transform="translate(-25.58 -62.84)"/><path class="cls-1" d="M81.9,165.71a14.42,14.42,0,0,1-1.34.72s-.29-.43-.45-.66l1.37-.78Z" transform="translate(-25.58 -62.84)"/><path d="M68.6,172.92l3.44.15.08.7a7,7,0,0,1-2.19.43C69.49,174.15,69.12,173.46,68.6,172.92Z" transform="translate(-25.58 -62.84)"/><path d="M76.05,162.59c.49.88.9,1.52,1.2,2.2.1.23,0,.57-.08.86-.29-.11-.67-.14-.83-.34-.47-.59-.85-1.26-1.37-2.06Z" transform="translate(-25.58 -62.84)"/><path d="M77.87,160.7a6.34,6.34,0,0,1,1.26,0c.2,1.06,1.88,1.75.81,3.41Z" transform="translate(-25.58 -62.84)"/><path d="M67,180.8c.47-.53.68-1.51,1.51-.42.38-.3.71-.72,1.09-.78s.85.22,1.27.36c-.21.33-.38.89-.66.95C69.14,181.11,68.05,181.76,67,180.8Z" transform="translate(-25.58 -62.84)"/><path d="M86.57,154.13a3.15,3.15,0,0,1-.33,1.16c-.14.17-.69.16-.95,0a.84.84,0,0,1-.3-.78c.06-.21.44-.39.71-.44a2.84,2.84,0,0,1,.91.08Z" transform="translate(-25.58 -62.84)"/></svg>