<svg id="ecosun" xmlns="http://www.w3.org/2000/svg" viewBox="0 0 205.79 208.48"><defs><style>.cls-1{stroke:#fff;stroke-miterlimit:10;}</style></defs><title>economysun_2</title><g id="图层_2" data-name="图层 2"><g id="Layer_1" data-name="Layer 1"><path class="cls-1" d="M191,57.8l-.6.15h.05a23,23,0,0,0-3.8,1.75q-3.6,1.8-5.15,7a15.61,15.61,0,0,1-5.7,8.2,12.63,12.63,0,0,1-8,2.45c-2.77-.2-4.83-.32-6.2-.35a14.49,14.49,0,0,0-4.8.6q-2.85.65-5.1,4.55a10,10,0,0,0-1.5,3.05c.2.43.38.88.55,1.35a1.73,1.73,0,0,1,.1.3l.2,1,.5-.4a0,0,0,0,1,0-.05l2.85-2.15a.21.21,0,0,1,.15,0,10.8,10.8,0,0,1,4.2-.8q5.85,0,11.5,5.1,5.1,4.65,9.5,4.7a42.14,42.14,0,0,0,4.75-1.75q4.84-2.06,7-2.05,10.85,0,13.75,9.7v.2c0,1.57-.7,2.35-2.1,2.35a1.2,1.2,0,0,1-.55-.1q-3.7-3.41-6.55-3.15H196a7.22,7.22,0,0,0-4.85,2.2,36.78,36.78,0,0,0-3.3,4.55q-4.9,7.25-12.35,7.25a13.54,13.54,0,0,1-8.9-3.45c-2.43-2.13-4.83-3.22-7.2-3.25a5.74,5.74,0,0,0-5.2,2.8l-.05,0c-.53.73-1,1.35-1.3,1.85a5.79,5.79,0,0,0-.1.7q-.15.86-.3,1.8,7.35-.8,12.15,5.5l2.75,3.35a7.8,7.8,0,0,0,1.4,1.35,7.32,7.32,0,0,0,3.45.1s0,0,.1,0h.1c.53-.2,1.82-.62,3.85-1.25h0a13.51,13.51,0,0,1,5.95-1q10.74,1.16,15.25,15.15s.05,0,.05.15a3.45,3.45,0,0,0,0,.6.73.73,0,0,1,0,.45.32.32,0,0,1-.25.25.88.88,0,0,1-.4.1,1,1,0,0,1-.4-.15c-.57-.43-1.27-.95-2.1-1.55a13.31,13.31,0,0,0-8.15-3q-4.2,0-8.5,4.55-4.75,5-9.75,4.7t-9.6-4.8q-4.16-4.16-7.8-4.15a9.53,9.53,0,0,0-2.65.4l.05-.05a18.83,18.83,0,0,0-5.7,2.45h0l-.25.1v0a8.93,8.93,0,0,0-1.75,5.2,6.66,6.66,0,0,0,3.05,6.1h0a14.56,14.56,0,0,0,4.5,1.55c.8.17,1.73.33,2.8.5q5.55.9,7.8,2.35c2.47,1.57,3.7,4.08,3.7,7.55,0,.13-.12,1.77-.35,4.9a18,18,0,0,0,.85,6.6,8,8,0,0,0,3.15,4.8h0a15.71,15.71,0,0,0,3.65,1.8.73.73,0,0,1,.35.2,1,1,0,0,1,.15.35.93.93,0,0,1-.1.45,1.19,1.19,0,0,1-.4.25q-1.46.49-6.7-.25h-.05a10.55,10.55,0,0,1-7.85-5.85v.05a35.45,35.45,0,0,0-4-6.25,4.32,4.32,0,0,0-3.25-1.45h-.45a17.79,17.79,0,0,0-4.6.55,21.16,21.16,0,0,1-4.7.7,14.41,14.41,0,0,1-11.85-5.55q-3.15-4-3-7.1c0-.9,0-1.72.1-2.45a9.18,9.18,0,0,0-2.55,6.35c0,.77,1.1,2.23,3.2,4.4,2.37,2.53,3.53,5.15,3.5,7.85a13.36,13.36,0,0,1-1.85,7.3,11.54,11.54,0,0,1-6.5,4.65h0a38.92,38.92,0,0,0-5.35,1.55,3,3,0,0,0-2,2.75,30.81,30.81,0,0,0,1.95,3.75,14.15,14.15,0,0,1,2.1,6.35q0,5.1-6.35,9.25a.16.16,0,0,0-.1,0q-4.76,2.06-6.15,1.35a.46.46,0,0,1-.25-.3.53.53,0,0,1,0-.5c.07-.2.15-.32.25-.35a19.64,19.64,0,0,0,2.15-2,6.13,6.13,0,0,0,2.2-4c0-1.37-1.65-3.48-4.85-6.35q-5.4-5-5.2-9.35a10.32,10.32,0,0,1,3.55-7.5q2.85-2.5,2.9-4c0-1.8-1.37-3.72-4-5.75-3.23-2.5-4.82-4.8-4.75-6.9a6,6,0,0,1,0-1.35,4.76,4.76,0,0,0-1.1,1.5.16.16,0,0,0,0,.1,12.54,12.54,0,0,0-.8,5.45,9.41,9.41,0,0,0,1.1,4.4,10.73,10.73,0,0,1,1.1,4.4q0,5.55-3.15,8.7a23,23,0,0,1-6.85,4.2,44.44,44.44,0,0,0-6.6,3.05,5,5,0,0,0-1.85,2.25,0,0,0,0,0-.05.05A5.43,5.43,0,0,0,76,197.2a19.85,19.85,0,0,0,.55,3.35.61.61,0,0,1-.1.45,1,1,0,0,1-.5.3.91.91,0,0,1-.5-.05q-3-1.8-5.9-7.75a.62.62,0,0,1-.05-.25,26.08,26.08,0,0,1-.55-2.7q0-6.35,5.85-10.4l3.8-2.65a4.77,4.77,0,0,0,1.55-2.65q0-1.5-3-5.5-3.45-4.5-4-8a14.39,14.39,0,0,1,0-3.15c-.4.37-.82.73-1.25,1.1a14.24,14.24,0,0,1-6.55,3.15l-1.35.2-1.5.15a20.07,20.07,0,0,1-8.55-.65q-4.61-1.46-5.1-1.5a5.12,5.12,0,0,0-4.45,2.45c-.13.2-.28.47-.45.8v.05a26.27,26.27,0,0,0-2.25,4.35,0,0,0,0,0-.05.05l-2,3.4c-.07,0-.1.07-.1.1q-4.8,6-11.75,5.8h-.05a21.56,21.56,0,0,1-11.9-3.7.43.43,0,0,1-.15-.3.51.51,0,0,1,.05-.5.58.58,0,0,1,.3-.35,1.64,1.64,0,0,1,1.4.15,17.86,17.86,0,0,0,2.45-.65h-.05a17,17,0,0,0,4.05-2,7.19,7.19,0,0,0,2.45-3,55.12,55.12,0,0,0,1.9-8.05,22,22,0,0,1,4-9.95v.05q2.85-3.8,12.9-4.1,9.15-.3,11.65-4.85a3.29,3.29,0,0,1,.1-.4H57v-.1a.21.21,0,0,1,0-.15,1.22,1.22,0,0,1,.25-.5,18.37,18.37,0,0,1-7.55,2.35q-5.51.75-12-2.6L34.59,137a5,5,0,0,0-3-.65c-1.63.1-3.37,1.12-5.2,3.05a11.13,11.13,0,0,1-8.1,3.5h-.1q-4.9,0-7.6-1.65a14.48,14.48,0,0,1-4-4.1v-.05A13,13,0,0,1,5,134.15a.4.4,0,0,1,0-.4.46.46,0,0,1,.25-.3.6.6,0,0,1,.35-.1,1.83,1.83,0,0,1,.4.05,12,12,0,0,0,1.55.75,6.89,6.89,0,0,0,3.6.1A7.78,7.78,0,0,0,15.54,132a70.18,70.18,0,0,0,4.8-5.4q3.8-4.45,8.45-4.4a23.18,23.18,0,0,1,8.75,1.7c2.47,1.07,4.58,1.3,6.35.7a6.64,6.64,0,0,0,3.85-4,14.64,14.64,0,0,1-5.2,1.1q-8.51,0-15.95-7.3-4.5-4.35-5-4.7h-.05a9.2,9.2,0,0,0-6-2.05,8.6,8.6,0,0,0-5.75,2.2,9.17,9.17,0,0,0-1.7,1.55l-.35.1a.9.9,0,0,1-.4,0,.49.49,0,0,1-.3-.2.66.66,0,0,1-.15-.4.6.6,0,0,0-.1-.35v-.2l0-.7a.07.07,0,0,1,0-.1c0-2.33,1.18-5,3.65-8l.1,0a11,11,0,0,1,9-4.5A20.24,20.24,0,0,1,29,99.7a20.31,20.31,0,0,0,10.3,2.5q5,0,6.6-3.25c-.33,0-.67,0-1,0q-6.3,0-10.7-5.75c-2.6-3.43-4.8-5.12-6.6-5a11,11,0,0,0-5,1.4,15.81,15.81,0,0,1-7,1.45q-4.61,0-10-4.15a7.47,7.47,0,0,1-1.1-1Q1.09,82.4.64,76.1a6,6,0,0,1-.05-2.3c.17-.93.58-1.37,1.25-1.3a.69.69,0,0,1,.3.1.54.54,0,0,1,.2.2,13.88,13.88,0,0,0,2.25,2.55A10,10,0,0,0,9.44,77.8a15.52,15.52,0,0,0,11.75-3.55h0q2.36-1.69,4.5-3.3a.48.48,0,0,0,.1-.15,10.68,10.68,0,0,1,8.75.5,81.14,81.14,0,0,1,7.65,4.15q4.84,3,10.5,0,3.3-2.2,4.15-7.2V68q0-4.65-6.15-5.75-6.85-1.45-9.55-3-2.89-1.54-3.95-9.5-.95-7.2-3.2-9.6a6.38,6.38,0,0,0-4.35-1h-.15C28.47,39,28,38.55,28.09,38q-.11-.71,1.2-1.65a10.31,10.31,0,0,1,4.1-1.7.16.16,0,0,1,.1-.05.62.62,0,0,1,.25,0,10,10,0,0,1,5,.7h.1a8.9,8.9,0,0,1,3.95,3h.05c.77,1,1.6,1.92,2.5,2.85a26,26,0,0,0,3.1,2.65,9,9,0,0,0,2.3,1h.1a6.33,6.33,0,0,0,1.55.3c.93,0,1.87-.1,2.8-.2h.05l-.05.05a.48.48,0,0,0,.15-.1l2.8-.7a20.4,20.4,0,0,1,5.65-1h.05A14.18,14.18,0,0,1,74.39,48.5l.1.1,1.5,2a7,7,0,0,0-1.65-5.3q-2.7-2.55-5.9-6.15a10.47,10.47,0,0,1-2.7-8.35A16.85,16.85,0,0,1,68,23.65a31.46,31.46,0,0,0,2.65-7.75c.67-3.27.58-5.8-.25-7.6V8.2a13.37,13.37,0,0,0-2.7-3.15L67,4.4a1.07,1.07,0,0,1-.2-.4.31.31,0,0,1,.1-.35.47.47,0,0,1,.25-.35.85.85,0,0,1,.4-.1A11.27,11.27,0,0,1,73,5.4q6.9,5.4,5.75,14.45c0,1.57.1,2.95.2,4.15a13.69,13.69,0,0,0,.45,2.5,12.9,12.9,0,0,0,1.9,4.1l.1.15A19.12,19.12,0,0,0,87.59,34a30.11,30.11,0,0,1,7.7,4q4,2.7,4.4,9.1c.33-.6.63-1.17.9-1.7v.05a13.67,13.67,0,0,0,.35-3.45v-.1a14.76,14.76,0,0,0-.3-3.35q-1.4-6.49.85-10.7a17.93,17.93,0,0,1,3.45-5,.16.16,0,0,1,.1,0c1.1-.93,2.22-1.87,3.35-2.8q1.9-1.65,3.85-3.3l.05-.05a46.56,46.56,0,0,0,3.8-4.3v-.05a11.35,11.35,0,0,0,2-3.65,12,12,0,0,0,.3-3.1v0a11.52,11.52,0,0,0-.15-1.9,16.08,16.08,0,0,0-.3-1.8l0-.1c-.07-.33-.13-.65-.2-.95a.51.51,0,0,1,0-.3h1.4a3.63,3.63,0,0,0,.35.3,22.13,22.13,0,0,1,3.45,7.35c.37,1.27.68,2.53,1,3.8a11.78,11.78,0,0,1,0,3.25v.05c-.2,1.1-.38,2.2-.55,3.3a.16.16,0,0,0,0,.1,23.37,23.37,0,0,1-2.9,5.1,16.48,16.48,0,0,0-3.55,7.35,11.12,11.12,0,0,0,.45,6.2q1,3,1.9,5.55a15.72,15.72,0,0,1,.5,5,18.07,18.07,0,0,1,10-4.8c.5-.07,1.17-.12,2-.15q1.8-.2,3.6-.3a11.62,11.62,0,0,0,7.75-3.5A30.82,30.82,0,0,0,146.79,33c.73-1.73,1.48-3.42,2.25-5.05a13.33,13.33,0,0,1,4.35-5.8,22.8,22.8,0,0,1,5.35-3,17.55,17.55,0,0,1,5.6-1.6,25.5,25.5,0,0,1,3.1-.3.69.69,0,0,1,.5.2,1.19,1.19,0,0,1,.2.5,1.15,1.15,0,0,1-.2.45q-9.3,9.65-9.6,16c-.2,4.27-.33,7.63-.4,10.1a7.9,7.9,0,0,1-3.6,6.45,20.8,20.8,0,0,1-7.7,3.35,9.24,9.24,0,0,0-6.15,4.8c-1.37,2.5-2,4.45-2,5.85,0,.7,0,1.37,0,2l.45-.55a17.53,17.53,0,0,1,11.25-5.65,19.41,19.41,0,0,1,10.55,1.85q3.9,1.9,6.25-.05a48,48,0,0,1,4.75-4,20.23,20.23,0,0,1,7-3,0,0,0,0,1,.05-.05,25.2,25.2,0,0,1,12.25,1.05.44.44,0,0,1,.4.25,2.68,2.68,0,0,1,0,.45.66.66,0,0,1-.15.4A.63.63,0,0,1,191,57.8Zm-6.05-.35a18.1,18.1,0,0,0-6.65,1,14.36,14.36,0,0,0-7.1,5.2q-3.19,4-6.2,3.85a17.15,17.15,0,0,1-6.2-1.75,17.53,17.53,0,0,0-8.15-1.2q-4.9.15-8.4,5A7.56,7.56,0,0,1,141,71c.5.63,1,1.25,1.5,1.85l0,0a.16.16,0,0,0,.05.1,1.82,1.82,0,0,0,.2.25l.45.75v0c.33.43.63.85.9,1.25a13.66,13.66,0,0,1,11.75-5.8,25.57,25.57,0,0,1,6.7,1.05,26.27,26.27,0,0,0,5,.9,12.79,12.79,0,0,0,9.25-3.75,13.63,13.63,0,0,1,1-1,17.26,17.26,0,0,1,3.65-6.4A16.52,16.52,0,0,1,184.94,57.45Zm1,38.5a14,14,0,0,0-2.3,2.3c-1.83,2.43-4.79,3.67-8.85,3.7a18.26,18.26,0,0,1-8.95-3q-5.06-3-8.1-3a7.83,7.83,0,0,0-5.2,1.85,49.57,49.57,0,0,1,.15,8,8.93,8.93,0,0,1,7.2-3,13,13,0,0,1,8.5,3.3c2.6,2.2,5,3.32,7.1,3.35q6,0,8.75-3.5a30.54,30.54,0,0,0,2.85-4.15q3.19-7.16,13.55-4.15a8.46,8.46,0,0,0-6.9-3.6A18.31,18.31,0,0,0,185.94,96Zm-.3,34.3a9.48,9.48,0,0,1,4,.65l2.45,1.3a9,9,0,0,0-2.65-3.9,12,12,0,0,0-5.35-1.15,14.21,14.21,0,0,0-8.3,2.3,11.26,11.26,0,0,1-6.3,2.4,8.18,8.18,0,0,1-4.75-1.45c-.27-.27-1.25-1.22-2.95-2.85q-4.16-4.45-12.45-4.45H149a41.8,41.8,0,0,1-4.15,8.3c.9-.23,1.83-.43,2.8-.6a24.21,24.21,0,0,1,3.85-.2,12.14,12.14,0,0,1,9.05,4.35q3.85,4.31,7.65,4.45t8-4.55Q180.54,130.2,185.64,130.25Zm-3-32.45a3.08,3.08,0,0,1,.65-.65,13.23,13.23,0,0,1-3.4.9q-5.74,0-11-5t-10-4.25a8.45,8.45,0,0,0-6.55,4.55,3.51,3.51,0,0,0-.4.75l.3,1.35a.3.3,0,0,1,.05.2c0,.23.07.48.1.75a8.92,8.92,0,0,1,5.4-1.75q3.3,0,8.25,3a18.75,18.75,0,0,0,9.35,3A10.19,10.19,0,0,0,182.64,97.8Zm-.3,28.3a16.22,16.22,0,0,1,4.85.5q-3.6-2.05-6.1-1.65a17.88,17.88,0,0,0-5.4,1.7,11.69,11.69,0,0,1-6.25,1q-3.56-.3-6.3-4.35c-1.87-2.77-3.83-4.38-5.9-4.85a12.43,12.43,0,0,0-3.7,0,3.79,3.79,0,0,0-2.75,1.35c-.44.63-.78,1.13-1,1.5a2.38,2.38,0,0,0-.15.5q8.44.11,12.6,4.35A30.32,30.32,0,0,0,165,129.1a7,7,0,0,0,4.4,1.35,11.17,11.17,0,0,0,6.05-2.15A11.24,11.24,0,0,1,182.34,126.1Zm-91-70.7-4.6,1.05a36.93,36.93,0,0,1,11.8.55,39.92,39.92,0,0,1,9,3.4,20.59,20.59,0,0,0,11.55,2.25l-1.85-.7c-.6-.33-1.55-.82-2.85-1.45s-3.32-1.73-6.15-3-6.73-2.2-11.8-2.6A39,39,0,0,0,91.34,55.4ZM72.19,65.5l0,0a44.06,44.06,0,0,0-10.5,12.9,34.23,34.23,0,0,0-1.25,4.25,49.55,49.55,0,0,0,.4,22.75c.4,1.73.78,3.52,1.15,5.35a42.4,42.4,0,0,0,3.4,9.55q1.5,3,3.35,6.2a58.23,58.23,0,0,0,4.2,6.45,81.73,81.73,0,0,0,5.3,6.8,43.47,43.47,0,0,0,6.2,5.9c1.47,1.13,3,2.27,4.7,3.4a17,17,0,0,0,2.35,1.4,6.24,6.24,0,0,0,1.25.7,53.2,53.2,0,0,0,16.5-.35,22,22,0,0,0,3.6-1.7c1.23-.8,2.47-1.62,3.7-2.45a50.1,50.1,0,0,0,11.3-11.5q2.85-4,5.5-8.25a64.14,64.14,0,0,0,4-7.6,119.52,119.52,0,0,0,4.5-14.25,34.88,34.88,0,0,0,1-8.15c0-1.8-.12-3.58-.25-5.35a32.64,32.64,0,0,0-.85-5.4q-.8-2.74-1.8-5.4-2.74-.7-5.45-1.3a27.71,27.71,0,0,0-7-1,28.93,28.93,0,0,0-4.75,1,17.17,17.17,0,0,0-4.9,1.4,17.59,17.59,0,0,0-7.15,5.8,12.18,12.18,0,0,1,4-7A14.44,14.44,0,0,1,124.49,76a22,22,0,0,1,8.75,1.15,30.65,30.65,0,0,1,6.9,3.5,48.15,48.15,0,0,0-4.2-6.65,49.32,49.32,0,0,0-8.35-9.2,32.3,32.3,0,0,1-11.8,2.65,35.52,35.52,0,0,1-12.9-2.2,110.94,110.94,0,0,0-11.15-3.65,21.44,21.44,0,0,0-10.4.4A33.91,33.91,0,0,0,72.19,65.5Zm-1-1.85h0a39,39,0,0,0-3.8,3.05Q65.9,69,64.59,71.35q0,.11-.15.3A53,53,0,0,1,75.14,61.4c.9-.67,1.8-1.28,2.7-1.85A47.42,47.42,0,0,0,71.19,63.65ZM52.59,57.5a15.82,15.82,0,0,1-9.6-3c-.57-.47-1.07-.88-1.5-1.25,1,2.67,3.18,4.28,6.65,4.85a20,20,0,0,1,9,3.35,7.59,7.59,0,0,1,3.15,6.25,10.22,10.22,0,0,1-.45,2.95,34.39,34.39,0,0,1,3.5-3.75,22,22,0,0,0,.4-3,7.37,7.37,0,0,0-1.3-3.8A6.29,6.29,0,0,0,57,57.2ZM41.69,41.2a22,22,0,0,0-2.3-2.35,5.6,5.6,0,0,0-2.9-1.35A16,16,0,0,0,34,37.35a7.27,7.27,0,0,1,5,5.1,12.1,12.1,0,0,1,1,4.65c.23,1,.47,2,.7,3.15q2.81,5.66,11.85,5.65L57,55.7q7.4,0,8.05,8.15c-.07.5-.15,1-.25,1.45,1.5-1.33,3.1-2.62,4.8-3.85a49.29,49.29,0,0,1,6.3-3.9,17.25,17.25,0,0,0-2-4.25l0-.1a21,21,0,0,0-3.55-3.7,12.23,12.23,0,0,0-5.55-2.45q-3.15-.64-11.35,1.2a8.14,8.14,0,0,1-2.55-.1,8.27,8.27,0,0,1-3.1-.75,22.79,22.79,0,0,1-2.35-1.25,11.31,11.31,0,0,1-2.25-2.7Q42.55,42.45,41.69,41.2ZM75.84,23.5a3,3,0,0,1-.15.45,19.45,19.45,0,0,0-1.25,5.45q0,6.8,10.3,9.75,8.7,2.4,8.7,9.85a8.74,8.74,0,0,1-.75,3l1.1-.2a8.86,8.86,0,0,0,.65-1.1q2.75-4.2.75-7.35l-.65-.9a11.46,11.46,0,0,0-2.6-2.15,13.05,13.05,0,0,0-1.4-.7c-1.53-.77-3-1.48-4.5-2.15-.87-.47-1.68-.87-2.45-1.2a12.17,12.17,0,0,1-4.2-2.45,10.67,10.67,0,0,1-2.6-3.7,12.83,12.83,0,0,1-1-5.15C75.79,24.43,75.81,24,75.84,23.5Zm-3.2-3.8a25.36,25.36,0,0,1-1,2.65,39.08,39.08,0,0,0-2,5,8.32,8.32,0,0,0,.45,7.5,30.35,30.35,0,0,0,5.8,6.6q3.8,3.4,4.4,10.3A11.81,11.81,0,0,1,80,55.5a51.7,51.7,0,0,1,10.6-3.25A8.44,8.44,0,0,0,92.09,49,7.53,7.53,0,0,0,90,43.9q-2.8-3.34-8.4-4.5-8.25-1.76-8.25-9.85a15.12,15.12,0,0,1,1.5-6.25,27.87,27.87,0,0,0,1-2.95,7.16,7.16,0,0,1,0-.8v-3.5a7.45,7.45,0,0,0-.85-4.3,14.9,14.9,0,0,1-1-1.45l.15,1.7c-.1.83-.23,1.67-.4,2.5A37.58,37.58,0,0,1,72.64,19.7Zm7.75,39.85q-1.8,1.1-3.65,2.45a24.26,24.26,0,0,1,2.55-1.15,21.05,21.05,0,0,1,12.65-.7q6.15,1.76,12.15,3.75a38.18,38.18,0,0,0,11.85,1.8,32.67,32.67,0,0,0,10.15-1.5l1.55-.5v-.15l-2.75.45A35.19,35.19,0,0,1,116,64a28.74,28.74,0,0,1-8.75-2.15,53.09,53.09,0,0,0-5.75-2.45,50.41,50.41,0,0,0-7.85-1.6A23.08,23.08,0,0,0,83,58.65ZM11.69,104.6l-.1.25a15.84,15.84,0,0,1,3.65-.7,12.71,12.71,0,0,1,7.5,2.15,40.63,40.63,0,0,1,5.35,4.75q6.79,6.95,14.35,7a10.53,10.53,0,0,0,6.1-1.65,3.2,3.2,0,0,1,.9-.55,44.24,44.24,0,0,1-1.25-9.2,6.22,6.22,0,0,1-.6.7,10,10,0,0,1-7,2.5,17.49,17.49,0,0,1-12.25-4.9,17.15,17.15,0,0,0-10.15-4.85,9,9,0,0,0-3.2,1.4A12.25,12.25,0,0,0,11.69,104.6ZM4.59,81.15a11,11,0,0,0,2,2.4A11.56,11.56,0,0,0,9.44,85.9a7.44,7.44,0,0,0,1.9.4,12.48,12.48,0,0,0,7.4-2.75,14.41,14.41,0,0,1,8.8-2.65q5.15,0,8.9,5.6t7.85,5.65a8.77,8.77,0,0,0,5.55-1.75,47,47,0,0,1,3.7-10.1,13.72,13.72,0,0,1-4.35.9A17.12,17.12,0,0,1,38,77.55q-5.66-4.15-8.55-3.7a10.91,10.91,0,0,0-5.35,2.25A40.49,40.49,0,0,1,18,79.55a12.28,12.28,0,0,1-11.25.15,14.14,14.14,0,0,1-2.2-1.25A16,16,0,0,1,2.84,77L4.39,80.8A3.63,3.63,0,0,1,4.59,81.15Zm157.7-9.65a28.93,28.93,0,0,0-6.4-1q-7.5,0-10.7,5c-.13.2-.27.42-.4.65.87,1.37,1.68,2.75,2.45,4.15a29,29,0,0,1,3.25-3.7,10.5,10.5,0,0,1,7.8-3.2,52.86,52.86,0,0,1,7.55.55,13.73,13.73,0,0,0,6.8-1.2,8.19,8.19,0,0,0,3.7-3.15,13.7,13.7,0,0,1-8.7,2.85A27.74,27.74,0,0,1,162.29,71.5ZM132.34,59.9c-.13.57-.27,1.23-.4,2a42,42,0,0,1,3.55,3,21.2,21.2,0,0,1,.4-2.6,18.11,18.11,0,0,1,3-6.6c1.4-1.87,3.88-3.33,7.45-4.4s6-2.58,7.35-4.75A11.93,11.93,0,0,0,155,42.8a14.8,14.8,0,0,1-5.25,4.9,36.51,36.51,0,0,1-6.8,2.15q-4.91,1.09-6.55,2.75A13.39,13.39,0,0,0,132.34,59.9Zm0,5.7c-.83-.67-1.65-1.27-2.45-1.8a2.68,2.68,0,0,0-.95.35,54.23,54.23,0,0,1,8,8.75c-.63-1.17-1.3-2.28-2-3.35A45.6,45.6,0,0,0,132.34,65.6Zm-24.1-10.7a1.63,1.63,0,0,0-.4-.15A40.59,40.59,0,0,0,102,54.2h-1a18,18,0,0,1,3.55.85,93.32,93.32,0,0,1,12.35,5.2,15.44,15.44,0,0,0,7.35,2A47.92,47.92,0,0,0,108.24,54.9Zm4.7-19.6a10.42,10.42,0,0,1,1.2-7.4,7.64,7.64,0,0,0-.65.75Q110,32.9,110,36.3a14.31,14.31,0,0,0,1.45,5.7,13.52,13.52,0,0,1,1.35,5.1,12.51,12.51,0,0,1-1.65,5.55,25.48,25.48,0,0,1,3.6.85,18,18,0,0,0,.35-9.6Q113.94,39.5,112.94,35.3Zm-.3-15.5q-1.76,1.65-3.25,3.35c-.9.83-1.75,1.7-2.55,2.6a12.51,12.51,0,0,0-1.85,2.9,10.22,10.22,0,0,0-.85,6.7q.1.55.15,1a22.26,22.26,0,0,1-1.4,12.8,6.1,6.1,0,0,1-1.5,2.2h.7a49.82,49.82,0,0,1,6.55.8v-.05q.49,0,1,.15a11.17,11.17,0,0,0,1.75-5.2,11.13,11.13,0,0,0-1.3-4.7,11.56,11.56,0,0,1-1.4-4.65,13.1,13.1,0,0,1,2.3-8,72.35,72.35,0,0,1,5.65-6.15l.9-1.6q1.05-2,2.25-3.95a9.57,9.57,0,0,0,1.2-4.6,19.78,19.78,0,0,0-.55-4.5l-.6,1.4c-.1.23-.18.45-.25.65-.4.77-.83,1.52-1.3,2.25a24.15,24.15,0,0,1-3,3.8C114.44,18,113.54,18.9,112.64,19.8Zm50.85.2a.48.48,0,0,0,.1-.15l-.6.25a28.1,28.1,0,0,0-3.5,1.8c-1,.6-2,1.2-3,1.8a10.49,10.49,0,0,0-1.3,1c-.14.17-.23.3-.3.4a28.31,28.31,0,0,0-2.75,3.9,4.3,4.3,0,0,0-.5.85,3,3,0,0,0-.45.75c-.57,1.33-1.1,2.63-1.6,3.9a40.84,40.84,0,0,1-2,4.65,14.44,14.44,0,0,1-2.3,3.25,13,13,0,0,1-2.95,2.1c-1.93.83-5.22,1.53-9.85,2.1s-8.2,2.3-10.6,5a10.52,10.52,0,0,0-2.35,3.4,45.56,45.56,0,0,1,11.2,6V60.8a17.53,17.53,0,0,1,2-5.4,12.22,12.22,0,0,1,8-6.25q9-2.2,11.35-4.45a9.61,9.61,0,0,0,2.9-4.2,20.79,20.79,0,0,0,.65-2.8c0-.83.05-1.67.05-2.5q0-6.86,5.4-12.85ZM136.74,85.05c-.33.83-.62,1.55-.85,2.15.33.17.67.35,1,.55l-1.35.35a.48.48,0,0,1-.15-.1c-.3.47-.58,1-.85,1.45l.4.3a34.28,34.28,0,0,0,3.85-3.25c.37-.2.57,0,.6.5a6.28,6.28,0,0,1-2.8,4,2.14,2.14,0,0,1,0,.55,9.6,9.6,0,0,1-1.95,2.65q1.2,1.09,1.2,1.65c0,.17-.17.33-.5.5a7.69,7.69,0,0,1-1.7-1,9.24,9.24,0,0,1-.9.8.33.33,0,0,0,.1.25,4,4,0,0,1,.6,1.6q0,.35-.6.6a4.15,4.15,0,0,1-1.55-1.25c-.6.3-1.22.58-1.85.85a1.07,1.07,0,0,1,.2.35,3.57,3.57,0,0,1,.8,1.5c0,.23-.2.42-.6.55-.2,0-.57-.47-1.1-1.3l-.4-.55-.55.1a10.51,10.51,0,0,0-1.4.4c0,.2.07.43.1.7a2.39,2.39,0,0,1-.6,1.45c-.47-.17-.82-.75-1-1.75v-.15a23,23,0,0,1-5.8-.25,17.51,17.51,0,0,1-7.8-3.5,13.55,13.55,0,0,1,4.35-6.9,13.36,13.36,0,0,1,4.9-2.75,17.3,17.3,0,0,1,3.95-.5,10,10,0,0,1,1.9.2,12.1,12.1,0,0,1,.6-1.15h0a16.21,16.21,0,0,0-8.25.9,24.56,24.56,0,0,0-7,4.45l.15-.6a16.33,16.33,0,0,1,7.9-5.35,15.28,15.28,0,0,1,7.65-.35c.5-1.1.78-1.73.85-1.9.13-.43.3-.6.5-.5s.18.63.15,1.5a10,10,0,0,1-.2,1.25,18.31,18.31,0,0,1,2.2.65c.5-.8,1.07-1.68,1.7-2.65.23-.27.42-.4.55-.4s.38.52.35,1.15a11.46,11.46,0,0,1-.95,2.55l1.6.7c.53-.7,1.15-1.55,1.85-2.55C136.57,83.55,136.81,84.05,136.74,85.05Zm-29.9,2h.2q-2.36,3.34-3.4,16.4l-.15-.4Q103.09,87.05,106.84,87.1Zm26.85-.2a10.3,10.3,0,0,0-1.5-.7c-.07.2-.15.42-.25.65s-.32.52-.45.75l1.2.6C133,87.83,133.29,87.4,133.69,86.9Zm-16.15,4.4a2.21,2.21,0,0,0-.3.25,10.28,10.28,0,0,0-2.6,2.5L114,95c-.27.3-.27.57,0,.8a16.78,16.78,0,0,0,8,2.1,10.56,10.56,0,0,0,2.55-.2,10.32,10.32,0,0,0,4.7-1.9c2.07-1.47,3.1-2.42,3.1-2.85s-.7-1.15-2.1-2a8.81,8.81,0,0,0-2-.85,1.05,1.05,0,0,0-.3-.15,5.9,5.9,0,0,1,.45,2.35,5.29,5.29,0,0,1-1.55,3.8,5.5,5.5,0,0,1-3.9,1.6,5.46,5.46,0,0,1-5.5-5.4C117.49,92,117.51,91.63,117.54,91.3Zm6.6-1.3a1,1,0,0,0-.45,1,1.18,1.18,0,0,0,.45,1,1.29,1.29,0,0,0,1,.4,2.11,2.11,0,0,0,.7-.1,3,3,0,0,1-.85,1.75,2.79,2.79,0,0,1-2,.8,3.26,3.26,0,0,1-2.15-.8,2.85,2.85,0,0,1-.85-2.1,2.79,2.79,0,0,1,.85-2,2.17,2.17,0,0,1,.85-.55,8,8,0,0,0-1.65.55l-.4.2a2.18,2.18,0,0,0-.35.85v0a4.35,4.35,0,0,0-.2,1.35A3.74,3.74,0,0,0,120.14,95,4,4,0,0,0,123,96.1a3.9,3.9,0,0,0,2.8-1.15v0a3.74,3.74,0,0,0,1.15-2.75,4.11,4.11,0,0,0-.6-2.25h0l-.45-.6a.49.49,0,0,0-.2-.05h-.35a9.22,9.22,0,0,0-1.45-.15,5.82,5.82,0,0,1,.85.4A1,1,0,0,0,124.14,90Zm6.3-4.5a13.59,13.59,0,0,0-1.9-.55c-.17.4-.33.82-.5,1.25q.79.26,1.65.6A14.51,14.51,0,0,1,130.44,85.5ZM144,104.05a87.69,87.69,0,0,1-5.75,17.5,74.23,74.23,0,0,1-5.85,10.65c-.63.9-1.28,1.78-1.95,2.65q-2.15,2.75-4.55,5.3a47.87,47.87,0,0,1-4.45,4.55c-1.63,1.4-3.32,2.77-5,4.1a1.17,1.17,0,0,0-.35.2,41.55,41.55,0,0,0,11.25-6.1q14.4-11,17.7-31.55a53.67,53.67,0,0,0,.05-16.15A47.31,47.31,0,0,1,144,104.05Zm-2.1-27.25a8.69,8.69,0,0,0-.95-1.35,41.66,41.66,0,0,1,3.6,12,50.94,50.94,0,0,1,1.85,24Q143,132.64,128.14,144a43,43,0,0,1-16,7.7q-.8.35-1.65.75a50.33,50.33,0,0,0,19-8.65h0a48,48,0,0,0,19.85-32.35,54.47,54.47,0,0,0,.1-15.45l-2-8.25A55.29,55.29,0,0,0,141.94,76.8ZM95.49,87.1q3.65,0,2.65,16l-.25.4q-.45-13.05-2.65-16.4Zm13.25,28.75a3.8,3.8,0,0,0-.95-2.45,2.94,2.94,0,0,1,2.1,3.1,2.61,2.61,0,0,1-1.9,2.85c-1.27.33-1.67.32-1.2,0a9.8,9.8,0,0,0,1.3-1.35A3.12,3.12,0,0,0,108.74,115.85Zm-10.45,1.4a1.43,1.43,0,0,1,.55.35,6.15,6.15,0,0,0,1.9.35,6,6,0,0,0,2.35-.65,4.63,4.63,0,0,1,1.15-.5,3.34,3.34,0,0,1,2.15-.6c.53.1.75.47.65,1.1a1.06,1.06,0,0,1-1.1.85,5.24,5.24,0,0,1-1.1-.15,2.27,2.27,0,0,0-.5,0,5.15,5.15,0,0,1-1.5,1.2,7.9,7.9,0,0,1-2.15.45,4.13,4.13,0,0,1-2.4-.8,3.74,3.74,0,0,1-1-.85,1.83,1.83,0,0,0-.4,0,7.75,7.75,0,0,1-1.25.15c-.5,0-.8-.28-.9-.85s.07-1,.6-1.1S96.86,116.38,98.29,117.25Zm34.85-9.45a1.71,1.71,0,0,1,.55,1.35,1.83,1.83,0,0,1-.55,1.35,2.14,2.14,0,0,1-1.4.5,1.83,1.83,0,0,1-1.35-.5,1.63,1.63,0,0,1-.55-1.35,1.54,1.54,0,0,1,.55-1.35,1.79,1.79,0,0,1,1.35-.65A2.11,2.11,0,0,1,133.14,107.8Zm-20.3,20a1.31,1.31,0,0,1,.9.7,1.89,1.89,0,0,1,0,1.2,7.49,7.49,0,0,1-.5.75c-.2.17-.5.4-.9.7l-1.8.9a6.3,6.3,0,0,1-3,.35,7.25,7.25,0,0,1-2.65-.5,2.17,2.17,0,0,0-2-.2,4.24,4.24,0,0,1-1.4.35,10.11,10.11,0,0,1-1.35,0,3.35,3.35,0,0,1-1.3-.35,2,2,0,0,0-2,.2,9,9,0,0,1-2.75.5,6.19,6.19,0,0,1-3-.35q-1.16-.6-1.8-.9a6.09,6.09,0,0,1-1-.7,2.51,2.51,0,0,1-.4-.75,1.48,1.48,0,0,1,0-1.2,1.06,1.06,0,0,1,.8-.7,3.52,3.52,0,0,1,.85-.15,5.16,5.16,0,0,1,1.65,1c.17-.2.65-.68,1.45-1.45a7,7,0,0,1,4.3-2,5,5,0,0,1,3.75,1.7,5.13,5.13,0,0,1,3.8-1.7,7.92,7.92,0,0,1,4.75,2.25c.53.47.93.83,1.2,1.1a5,5,0,0,1,1.35-.8A3.62,3.62,0,0,1,112.84,127.75Zm-7.8-.9a2.43,2.43,0,0,0-2.2.7,3.2,3.2,0,0,1-1.7.9,1.53,1.53,0,0,0-.3,0,.62.62,0,0,0-.25,0,3.2,3.2,0,0,1-1.7-.9,2.29,2.29,0,0,0-2-.7,8.2,8.2,0,0,0-3.4,1.7q-2.25,1.55-1.8,1.35a4.16,4.16,0,0,0,2.45.65,3.68,3.68,0,0,0,2-.7,1.91,1.91,0,0,1,1.25-.55,5,5,0,0,1,1.65.5,4,4,0,0,0,1.6.4h.25a4.48,4.48,0,0,0,1.75-.4,3.94,3.94,0,0,1,1.6-.5,1.79,1.79,0,0,1,1.25.55,3.94,3.94,0,0,0,2.1.7,2.94,2.94,0,0,0,2-.55c.23,0-.28-.55-1.55-1.55A5.52,5.52,0,0,0,105,126.85ZM89.39,79.15a12.08,12.08,0,0,1,2.7,5.75q-4.4-5.66-9.15-7a21.65,21.65,0,0,0-9.25-.85,79.87,79.87,0,0,0-10.35,2,.62.62,0,0,1-.25.05H63l.05-.05.3-.2a25.48,25.48,0,0,1,13.15-4.8,16.54,16.54,0,0,1,7.85,1.25A15,15,0,0,1,89.39,79.15Zm28.4,74c-.93.33-1.87.63-2.8.9a9.92,9.92,0,0,0-2,6c0,2.43,1.37,4.47,4.1,6.1a8,8,0,0,1,4.1,7.25,7.18,7.18,0,0,1-2,5.15q.85-.41,1.5-.75l.6-.45a8.17,8.17,0,0,0,2.65-6.5q0-3-3.2-6.65a15.08,15.08,0,0,1-3.6-6.45,2.83,2.83,0,0,1-.05-.5,8,8,0,0,1,0-1.2A7.86,7.86,0,0,1,117.79,153.2Zm9.8-4.85a9.73,9.73,0,0,0-.55,4.8,15.23,15.23,0,0,0,2.65,6.6c1.47,2.23,4.13,3.38,8,3.45a52.94,52.94,0,0,0,9.5-.85,3.64,3.64,0,0,1,.5,0,7.51,7.51,0,0,1,.95-.1,6,6,0,0,1,2.6.5,5.67,5.67,0,0,1,2.85,1.8,32.73,32.73,0,0,1,2.45,4.1,2.68,2.68,0,0,1,0-.45q-.9-6.56-7.2-7.7l-6.5.1q-7.65,0-10.95-4.6a3.87,3.87,0,0,0-.25-.45,10.45,10.45,0,0,1-1.55-7.4,14.63,14.63,0,0,1,.5-1.75A34,34,0,0,1,127.59,148.35Zm4,.55a7.37,7.37,0,0,0,.35,4.55q2.06,4.76,9.05,5.25,2.74.2,8,.35,4.2.45,5.75,2.3a12.39,12.39,0,0,1,3.1,7.8,4.66,4.66,0,0,0,.9,2.4,24.36,24.36,0,0,1-.4-6c.17-2,.25-3.12.25-3.25q0-5.2-3.35-7.2-2.06-1.2-7.35-1.9h-.2c-3.47-.43-5.88-1.07-7.25-1.9q-3.3-2-3.3-7a17.8,17.8,0,0,1,.45-3.8,61.73,61.73,0,0,1-4.9,4.3A31.13,31.13,0,0,0,131.59,148.9Zm-19.25,5.9-2.4.55a63.06,63.06,0,0,1-9.75.75,1.11,1.11,0,0,0-.2.4,4.67,4.67,0,0,0-1.1,3.85c.27,1.13,1.73,3,4.4,5.45s3.9,5,3.9,7.75q0,3.34-3.5,6.2t-3,5.85q.5,3,5.15,7.15c3.2,2.83,4.92,5.07,5.15,6.7a4.66,4.66,0,0,0,.9-2.4q0-1.25-2.1-4.8c-1.4-2.37-2.1-4.08-2.1-5.15a6,6,0,0,1,2.5-5.3l.65-.4a14,14,0,0,1,4.2-2.3q4.75-2.1,4.8-5.85c0-2.9-1.47-5.25-4.3-7.05s-4.22-3.77-4.15-6.1A13.77,13.77,0,0,1,112.34,154.8Zm-2.15-21.75c.07-.1.2.2.4.9s-.62,1.67-2.35,3.1a10.81,10.81,0,0,1-5.5,2.5,5.11,5.11,0,0,0-.75,0,11.14,11.14,0,0,1-2.25,0,6.55,6.55,0,0,0-.7,0,10.61,10.61,0,0,1-5.6-2.5c-1.77-1.43-2.57-2.47-2.4-3.1s.35-1,.45-.9.75.67,2.05,1.7a10.5,10.5,0,0,0,4.9,2c1,.1,1.77.17,2.4.2s1.53-.1,2.5-.2a10.06,10.06,0,0,0,4.75-2C109.42,133.72,110.12,133.15,110.19,133.05ZM82,84.1A16.61,16.61,0,0,1,90,89.45l.1.6a25.43,25.43,0,0,0-7-4.45,16,16,0,0,0-8.2-.9h-.1c.17.33.37.72.6,1.15a10.75,10.75,0,0,1,2-.2,15.45,15.45,0,0,1,3.8.5,12.84,12.84,0,0,1,4.9,2.75,14.06,14.06,0,0,1,4.45,6.9,17.81,17.81,0,0,1-7.8,3.5,23.08,23.08,0,0,1-5.8.25.5.5,0,0,0,0,.15c-.2,1-.53,1.58-1,1.75a2.09,2.09,0,0,1-.6-1.45,2.11,2.11,0,0,1,.1-.7A11.85,11.85,0,0,0,74,98.9c-.2,0-.37-.07-.5-.1a5.15,5.15,0,0,0-.45.55c-.57.83-1,1.27-1.15,1.3-.4-.13-.6-.32-.6-.55a3.42,3.42,0,0,1,.85-1.5.64.64,0,0,1,.15-.35c-.6-.27-1.2-.55-1.8-.85A4.68,4.68,0,0,1,69,98.65q-.6-.25-.6-.6a4,4,0,0,1,.6-1.6,2.16,2.16,0,0,0,.1-.25,7.07,7.07,0,0,1-1-.8,9.42,9.42,0,0,1-1.7,1c-.33-.17-.5-.33-.5-.5,0-.37.38-.92,1.15-1.65h.1a9.6,9.6,0,0,1-2-2.65,2.14,2.14,0,0,1,.05-.55,6.08,6.08,0,0,1-2.8-4c0-.53.25-.7.65-.5a29.34,29.34,0,0,0,3.7,3.25,2,2,0,0,1,.4-.3c-.27-.5-.53-1-.8-1.45a.52.52,0,0,0-.2.1L65,87.75a7.24,7.24,0,0,1,1-.55,21.78,21.78,0,0,1-.8-2.15q-.15-1.5.6-1.5c.73,1,1.37,1.85,1.9,2.55l1.5-.7a10.19,10.19,0,0,1-.8-2.55c-.07-.63,0-1,.3-1.15s.3.13.5.4c.63,1,1.2,1.85,1.7,2.65a18.31,18.31,0,0,1,2.2-.65,6,6,0,0,1-.15-1.25q0-1.3.15-1.5c.17-.1.33.07.5.5a16.15,16.15,0,0,0,.85,1.9A15.13,15.13,0,0,1,82,84.1Zm-7,12H75a5.18,5.18,0,0,1-1.6-3.8,5.34,5.34,0,0,1,.5-2.3l-.25.1a7.63,7.63,0,0,0-2,.85c-1.4.9-2.1,1.58-2.1,2s1,1.38,3,2.85a3.63,3.63,0,0,1,.35.2,12.79,12.79,0,0,0,6.9,1.9,16.78,16.78,0,0,0,8-2.1.51.51,0,0,0,.1-.8,10.6,10.6,0,0,1-.65-1,13.55,13.55,0,0,0-2.65-2.55.65.65,0,0,0-.2-.15c0,.3,0,.6,0,.9a5.29,5.29,0,0,1-1.55,3.8,5.68,5.68,0,0,1-4,1.6A5.07,5.07,0,0,1,75,96.05Zm6.4-6.35-1.2-.35a1.51,1.51,0,0,1,.75.55,2.72,2.72,0,0,1,.9,2,2.78,2.78,0,0,1-.9,2.1,2.84,2.84,0,0,1-2.1.8,2.72,2.72,0,0,1-2-.8A2.54,2.54,0,0,1,76,92.3a3,3,0,0,0,.75.1,1.29,1.29,0,0,0,1-.4,1.42,1.42,0,0,0,.4-1,1.18,1.18,0,0,0-.4-1,1.69,1.69,0,0,0-.45-.4,2.22,2.22,0,0,1,.8-.4,7.93,7.93,0,0,0-1.45.15H76v.05a1,1,0,0,0-.4.5.21.21,0,0,0,0,.15,3.59,3.59,0,0,0-.7,2.2,3.51,3.51,0,0,0,1.2,2.7v0a3.85,3.85,0,0,0,2.75,1.1,4.25,4.25,0,0,0,3-1.15v0a3.85,3.85,0,0,0,1.1-2.75,5.58,5.58,0,0,0-.15-1.35v0a5.18,5.18,0,0,0-.35-.75A6.66,6.66,0,0,0,81.44,89.7Zm-10-4.2.75,1.3,1.55-.65c-.13-.43-.25-.83-.35-1.2A12.8,12.8,0,0,0,71.44,85.5Zm-2.25,2.65,1.15-.55a4.66,4.66,0,0,1-.45-.75c-.1-.23-.18-.45-.25-.65a9.58,9.58,0,0,0-1.35.7C68.62,87.37,68.92,87.78,69.19,88.15ZM57,91c0-.4,0-.78.05-1.15q-.71,2.7-1.15,5.5a48.09,48.09,0,0,0,7.45,35.15l1.4,2.25q9.3,12.6,21.95,17-4.8-3.75-9.15-7.9a65.12,65.12,0,0,1-10-12.45,76.62,76.62,0,0,1-6.35-13.1,78,78,0,0,1-4.2-23Zm1.05-8.25a41.18,41.18,0,0,1,1.5-5.65,21.67,21.67,0,0,1,1.6-3.8A47.33,47.33,0,0,0,51.59,96a47.38,47.38,0,0,0,8.75,36.85,47.35,47.35,0,0,0,27.8,19c.9.2,1.8.42,2.7.65l-.15,0q-15.85-3.65-26.9-19a17.6,17.6,0,0,1-1.5-2.25,49.31,49.31,0,0,1-7.7-36A49.27,49.27,0,0,1,58.09,82.7Zm12.45,24.45a2.11,2.11,0,0,1,1.4.65,1.71,1.71,0,0,1,.55,1.35,1.83,1.83,0,0,1-.55,1.35,2.14,2.14,0,0,1-1.4.5,2,2,0,0,1-1.35-.5,1.63,1.63,0,0,1-.55-1.35,1.54,1.54,0,0,1,.55-1.35A1.93,1.93,0,0,1,70.54,107.15Zm21.25,9.35a3,3,0,0,1,2.15-3.1,3.46,3.46,0,0,0-1,2.45,3.12,3.12,0,0,0,.65,2.1,12.55,12.55,0,0,0,1.25,1.35c.47.37.07.38-1.2,0A2.61,2.61,0,0,1,91.79,116.5Zm-13,36.05c-1.57,1.47-2.23,3.68-2,6.65a12.83,12.83,0,0,0,2.5,7,37.08,37.08,0,0,1,4,6.5,8,8,0,0,1,.35,1.85q0,3.85-5.5,7.5a16.77,16.77,0,0,0-2.4,1.85,16.47,16.47,0,0,1,4.6-2.1q4.55-1.05,5.75-2.9a5.47,5.47,0,0,0,.85-3.5q0-2.9-3.7-6.6a11.84,11.84,0,0,1-3.65-8.55c-.07-2.77,1.72-4.92,5.35-6.45q-2.74-.9-5.4-2C79.36,152,79.09,152.28,78.79,152.55Zm8.7,1.95c-.5-.17-1-.32-1.45-.45q-5.1,2.7-5.1,6.1,0,4,3.75,8a11.8,11.8,0,0,1,3.75,8.35q0,4.5-6.8,6.25t-8.7,5.95a5.37,5.37,0,0,0-.1,1.8,7.05,7.05,0,0,0,.15,2.2,8.49,8.49,0,0,1,2.25-3.25,26.12,26.12,0,0,1,6.7-3.75,27.85,27.85,0,0,0,6.65-3.5,8.65,8.65,0,0,0,3.1-6.9,15.82,15.82,0,0,0-1.15-4.2A44,44,0,0,1,89,166.15c-.37-1.33,0-3.23,1-5.7a8.44,8.44,0,0,1,4.45-4.8c-.7-.07-1.42-.15-2.15-.25l-.05-.05C90.61,155.08,89,154.8,87.49,154.5Zm-56.9,10.1a23.58,23.58,0,0,1-1.15,3.65,15.22,15.22,0,0,0,2.85-4.1A47.78,47.78,0,0,0,34,159a13.34,13.34,0,0,1,1.85-4.1,8.77,8.77,0,0,1,3.45-2.85c1.4-.63,4.18-.87,8.35-.7a57.21,57.21,0,0,0,9.15-.15,15.39,15.39,0,0,0,6.3-2.45,7.65,7.65,0,0,0,3.1-5.3,67.06,67.06,0,0,1-5.1-5.15,14.28,14.28,0,0,1-1.3,3.85,9.13,9.13,0,0,1-5.15,4.6,35.57,35.57,0,0,1-9,1.75,29.64,29.64,0,0,0-7.35,1.2,10.65,10.65,0,0,0-3,1.5l-.9.85-1,1.75a19,19,0,0,0-1.85,6C30.92,162.82,30.62,164.4,30.59,164.6Zm-.95,5.5-1.05,1a13.47,13.47,0,0,1-4.6,2.5l2,.25h.15a9.44,9.44,0,0,0,6.85-1.05l1.8-1.05a12.19,12.19,0,0,0,4.45-6.1c.33-1,.7-1.92,1.1-2.85a13.05,13.05,0,0,1,.7-1.4l.1-.1a16.43,16.43,0,0,1,2.3-2.85,8.72,8.72,0,0,1,5-1.25,29.41,29.41,0,0,1,5.8.95,22.5,22.5,0,0,0,7.7.35,14.42,14.42,0,0,0,8.35-3.65,24.79,24.79,0,0,0,5-5.1,45.1,45.1,0,0,1-7.45-5q-2,7.2-11.45,8.5-7.65,0-11.55.1a10,10,0,0,0-6.2,2q-2.3,1.8-4.85,8.9A19.29,19.29,0,0,1,29.64,170.1Zm9.6-34.8a15.78,15.78,0,0,0,9.9,2.55c3.5-.27,6-1.08,7.5-2.45.5-.5.93-.92,1.3-1.25a47.15,47.15,0,0,1-3.25-5Q53,133.9,44.74,133.9a16.75,16.75,0,0,1-9.25-2.85q-4.39-2.9-6.5-2.9a11,11,0,0,0-5.9,1.35c-.53.3-1,.58-1.45.85-.47.5-.93,1.05-1.4,1.65q-4.9,6-9.35,5.1,1.54,2.85,7.7,2.45a10.28,10.28,0,0,0,6.55-3.3,9.88,9.88,0,0,1,6.2-3.5C33.57,132.45,36.21,133.3,39.24,135.3Zm5.5-2.75q6.65,0,8.4-3.6a6.33,6.33,0,0,0,.45-1.8A47.5,47.5,0,0,1,50.94,121a18.55,18.55,0,0,1-1.8,3,9,9,0,0,1-6.55,3.9,14,14,0,0,1-7.75-1.45,11,11,0,0,0-6.7-1.2c-1.3.27-2.8,1.28-4.5,3.05a13.38,13.38,0,0,1,5.6-1q1.95,0,6.6,2.55A18,18,0,0,0,44.74,132.55Zm-17-30.05c-.47-.3-.93-.58-1.4-.85.83.63,1.72,1.35,2.65,2.15a16.78,16.78,0,0,0,11.65,4.6,9.46,9.46,0,0,0,6.8-2.3l.75-1a38.3,38.3,0,0,1,.1-3.85q-2.55,4-8.9,4.1A23.08,23.08,0,0,1,27.69,102.5ZM45,95.65a9.33,9.33,0,0,0,3.95-.9,23.53,23.53,0,0,1,.5-2.45,11,11,0,0,1-4.35.85q-4.16.1-7.6-4.05a43.69,43.69,0,0,0-5.35-5.55q-1.91-1.45-5.95-1.5a11.6,11.6,0,0,0-7.35,2.7,11.72,11.72,0,0,1-6.05,2.6l1.1.2a7.38,7.38,0,0,0,3.4.1,23.44,23.44,0,0,0,4.5-1.7A13.71,13.71,0,0,1,28,84.4a9,9,0,0,1,3.9,1.5,23.07,23.07,0,0,1,3.9,4.15Q40,95.56,45,95.65Zm32.8,105.6a.16.16,0,0,1,0-.1v.1Z"/></g></g></svg>