<svg xmlns="http://www.w3.org/2000/svg" viewBox="0 0 1664.08 1819.64"><defs><style>.cls-1,.cls-2{font-size:40px;fill:none;stroke:#000;font-family:StarseedPro-Regular, Starseed Pro;}.cls-1{stroke-width:2.5px;}.cls-2{stroke-width:1.5px;}</style></defs><title>ecty</title><g id="图层_2" data-name="图层 2"><g id="图层_1-2" data-name="图层 1"><text class="cls-1" transform="matrix(0.96, -0.39, -0.38, -0.93, 940.95, 1630.39)">I</text><text class="cls-1" transform="matrix(0.94, -0.45, -0.43, -0.9, 959.83, 1622.73)"> </text><text class="cls-1" transform="matrix(0.91, -0.51, -0.49, -0.87, 978.2, 1613.89)">h</text><text class="cls-1" transform="matrix(0.88, -0.56, -0.54, -0.84, 996.05, 1603.92)">a</text><text class="cls-1" transform="matrix(0.85, -0.61, -0.58, -0.81, 1013.32, 1592.93)">v</text><text class="cls-1" transform="matrix(0.81, -0.65, -0.62, -0.78, 1029.97, 1581.02)">e</text><text class="cls-1" transform="matrix(0.78, -0.69, -0.66, -0.75, 1046, 1568.28)"> </text><text class="cls-1" transform="matrix(0.75, -0.72, -0.69, -0.72, 1061.41, 1554.78)">h</text><text class="cls-1" transform="matrix(0.72, -0.75, -0.72, -0.69, 1076.23, 1540.56)">a</text><text class="cls-1" transform="matrix(0.69, -0.78, -0.75, -0.66, 1090.44, 1525.72)">d</text><text class="cls-1" transform="matrix(0.66, -0.8, -0.77, -0.63, 1104.04, 1510.33)"> </text><text class="cls-1" transform="matrix(0.63, -0.83, -0.8, -0.61, 1117.06, 1494.42)">t</text><text class="cls-1" transform="matrix(0.6, -0.85, -0.82, -0.58, 1129.52, 1478.03)">h</text><text class="cls-1" transform="matrix(0.57, -0.87, -0.83, -0.55, 1141.42, 1461.23)">e</text><text class="cls-1" transform="matrix(0.55, -0.88, -0.85, -0.53, 1152.78, 1444.04)"> </text><text class="cls-1" transform="matrix(0.52, -0.9, -0.87, -0.5, 1163.61, 1426.5)">c</text><text class="cls-1" transform="matrix(0.49, -0.91, -0.88, -0.48, 1173.91, 1408.67)">h</text><text class="cls-1" transform="matrix(0.47, -0.93, -0.89, -0.45, 1183.72, 1390.52)">a</text><text class="cls-1" transform="matrix(0.45, -0.94, -0.9, -0.43, 1193.04, 1372.12)">n</text><text class="cls-1" transform="matrix(0.42, -0.95, -0.91, -0.41, 1201.89, 1353.45)">c</text><text class="cls-1" transform="matrix(0.4, -0.96, -0.92, -0.38, 1210.26, 1334.61)">e</text><text class="cls-1" transform="matrix(0.38, -0.97, -0.93, -0.36, 1218.18, 1315.53)"> </text><text class="cls-1" transform="matrix(0.35, -0.98, -0.94, -0.34, 1225.66, 1296.27)">t</text><text class="cls-1" transform="matrix(0.33, -0.99, -0.95, -0.32, 1232.7, 1276.83)">o</text><text class="cls-1" transform="matrix(0.31, -0.99, -0.95, -0.3, 1239.3, 1257.27)"> </text><text class="cls-1" transform="matrix(0.29, -1, -0.96, -0.28, 1245.5, 1237.54)">w</text><text class="cls-1" transform="matrix(0.27, -1, -0.97, -0.26, 1251.26, 1217.73)">o</text><text class="cls-1" transform="matrix(0.25, -1.01, -0.97, -0.24, 1256.64, 1197.74)">r</text><text class="cls-1" transform="matrix(0.23, -1.01, -0.98, -0.22, 1261.61, 1177.71)">k</text><text class="cls-1" transform="matrix(0.21, -1.02, -0.98, -0.2, 1266.19, 1157.53)"> </text><text class="cls-1" transform="matrix(0.19, -1.02, -0.98, -0.18, 1270.38, 1137.28)">f</text><text class="cls-1" transform="matrix(0.17, -1.03, -0.99, -0.17, 1274.19, 1116.95)">o</text><text class="cls-1" transform="matrix(0.15, -1.03, -0.99, -0.15, 1277.62, 1096.58)">r</text><text class="cls-1" transform="matrix(0.14, -1.03, -0.99, -0.13, 1280.68, 1076.13)"> </text><text class="cls-1" transform="matrix(0.12, -1.03, -0.99, -0.11, 1283.37, 1055.6)">l</text><text class="cls-1" transform="matrix(0.1, -1.04, -1, -0.09, 1285.7, 1035.04)">a</text><text class="cls-1" transform="matrix(0.08, -1.04, -1, -0.08, 1287.66, 1014.44)">b</text><text class="cls-1" transform="matrix(0.06, -1.04, -1, -0.06, 1289.26, 993.84)">s</text><text class="cls-1" transform="matrix(0.05, -1.04, -1, -0.05, 1290.47, 973.14)">,</text><text class="cls-1" transform="matrix(0.04, -1.04, -1, -0.03, 1291, 962.85)">Z</text><text class="cls-1" transform="matrix(0.02, -1.04, -1, -0.02, 1291.72, 942.17)">J</text><text class="cls-1" transform="matrix(0.01, -1.04, -1, -0.01, 1291.99, 921.5)">U</text><text class="cls-1" transform="matrix(-0.02, -1.04, -1, 0.02, 1292.11, 900.8)"> </text><text class="cls-1" transform="matrix(-0.03, -1.04, -1, 0.03, 1291.78, 880.1)">I</text><text class="cls-1" transform="matrix(-0.05, -1.04, -1, 0.05, 1291.11, 859.43)">D</text><text class="cls-1" transform="matrix(-0.07, -1.04, -1, 0.07, 1290.08, 838.77)">E</text><text class="cls-1" transform="matrix(-0.09, -1.04, -1, 0.08, 1288.7, 818.13)">A</text><text class="cls-1" transform="matrix(-0.11, -1.03, -0.99, 0.1, 1286.97, 797.53)"> </text><text class="cls-1" transform="matrix(-0.12, -1.03, -0.99, 0.12, 1284.87, 776.94)">L</text><text class="cls-1" transform="matrix(-0.14, -1.03, -0.99, 0.14, 1282.41, 756.41)">a</text><text class="cls-1" transform="matrix(-0.16, -1.03, -0.99, 0.15, 1279.59, 735.91)">b</text><text class="cls-1" transform="matrix(-0.17, -1.03, -0.99, 0.17, 1276.35, 715.45)">.</text><text class="cls-1" transform="matrix(-0.19, -1.02, -0.98, 0.18, 1274.65, 705.27)">M</text><text class="cls-1" transform="matrix(-0.21, -1.02, -0.98, 0.2, 1270.89, 684.95)">y</text><text class="cls-1" transform="matrix(-0.23, -1.01, -0.98, 0.22, 1266.74, 664.68)"> </text><text class="cls-1" transform="matrix(-0.25, -1.01, -0.97, 0.24, 1262.22, 644.52)">w</text><text class="cls-1" transform="matrix(-0.27, -1, -0.97, 0.26, 1257.3, 624.46)">o</text><text class="cls-1" transform="matrix(-0.29, -1, -0.96, 0.28, 1251.98, 604.5)">r</text><text class="cls-1" transform="matrix(-0.31, -0.99, -0.95, 0.3, 1246.26, 584.63)">k</text><text class="cls-1" transform="matrix(-0.33, -0.99, -0.95, 0.32, 1240.12, 564.92)"> </text><text class="cls-1" transform="matrix(-0.35, -0.98, -0.94, 0.34, 1233.57, 545.32)">h</text><text class="cls-1" transform="matrix(-0.37, -0.97, -0.93, 0.36, 1226.59, 525.88)">a</text><text class="cls-1" transform="matrix(-0.4, -0.96, -0.92, 0.38, 1219.17, 506.59)">v</text><text class="cls-1" transform="matrix(-0.42, -0.95, -0.92, 0.4, 1211.32, 487.53)">e</text><text class="cls-1" transform="matrix(-0.44, -0.94, -0.9, 0.43, 1203.01, 468.65)"> </text><text class="cls-1" transform="matrix(-0.47, -0.93, -0.89, 0.45, 1194.22, 449.95)">b</text><text class="cls-1" transform="matrix(-0.49, -0.92, -0.88, 0.47, 1184.97, 431.54)">e</text><text class="cls-1" transform="matrix(-0.52, -0.9, -0.87, 0.5, 1175.22, 413.35)">e</text><text class="cls-1" transform="matrix(-0.54, -0.89, -0.85, 0.52, 1164.98, 395.45)">n</text><text class="cls-1" transform="matrix(-0.57, -0.87, -0.84, 0.55, 1154.23, 377.89)"> </text><text class="cls-1" transform="matrix(-0.6, -0.85, -0.82, 0.57, 1142.94, 360.66)">f</text><text class="cls-1" transform="matrix(-0.63, -0.83, -0.8, 0.6, 1131.13, 343.82)">e</text><text class="cls-1" transform="matrix(-0.66, -0.81, -0.78, 0.63, 1118.77, 327.4)">a</text><text class="cls-1" transform="matrix(-0.68, -0.78, -0.75, 0.66, 1105.81, 311.42)">t</text><text class="cls-1" transform="matrix(-0.72, -0.75, -0.73, 0.69, 1092.3, 295.96)">u</text><text class="cls-1" transform="matrix(-0.75, -0.72, -0.7, 0.72, 1078.17, 281.04)">r</text><text class="cls-1" transform="matrix(-0.78, -0.69, -0.66, 0.75, 1063.48, 266.78)">e</text><text class="cls-1" transform="matrix(-0.81, -0.65, -0.63, 0.78, 1048.13, 253.16)">d</text><text class="cls-1" transform="matrix(-0.84, -0.61, -0.59, 0.81, 1032.2, 240.32)"> </text><text class="cls-1" transform="matrix(-0.87, -0.56, -0.54, 0.84, 1015.64, 228.3)">o</text><text class="cls-1" transform="matrix(-0.9, -0.51, -0.49, 0.87, 998.48, 217.2)">n</text><text class="cls-1" transform="matrix(-0.93, -0.46, -0.44, 0.9, 980.78, 207.12)"> </text><text class="cls-1" transform="matrix(-0.96, -0.4, -0.38, 0.92, 962.48, 198.1)">C</text><text class="cls-1" transform="matrix(-0.98, -0.33, -0.32, 0.95, 943.66, 190.27)">h</text><text class="cls-1" transform="matrix(-1.01, -0.27, -0.26, 0.97, 924.39, 183.7)">i</text><text class="cls-1" transform="matrix(-1.02, -0.19, -0.19, 0.98, 904.73, 178.48)">n</text><text class="cls-1" transform="matrix(-1.03, -0.12, -0.12, 0.99, 884.77, 174.66)">a</text><text class="cls-1" transform="matrix(-1.04, -0.04, -0.04, 1, 864.55, 172.29)"> </text><text class="cls-1" transform="matrix(-1.04, 0.03, 0.03, 1, 844.27, 171.39)">A</text><text class="cls-1" transform="matrix(-1.03, 0.11, 0.1, 0.99, 823.95, 171.97)">r</text><text class="cls-1" transform="matrix(-1.02, 0.18, 0.17, 0.98, 803.72, 174.03)">t</text><text class="cls-1" transform="matrix(-1.01, 0.25, 0.24, 0.97, 783.7, 177.55)"> </text><text class="cls-1" transform="matrix(-0.99, 0.32, 0.31, 0.95, 763.91, 182.49)">N</text><text class="cls-1" transform="matrix(-0.97, 0.39, 0.37, 0.93, 744.56, 188.78)">e</text><text class="cls-1" transform="matrix(-0.94, 0.45, 0.43, 0.9, 725.62, 196.36)">w</text><text class="cls-1" transform="matrix(-0.91, 0.5, 0.48, 0.87, 707.21, 205.14)">s</text><text class="cls-1" transform="matrix(-0.89, 0.54, 0.52, 0.85, 689.31, 215.18)">,</text><text class="cls-1" transform="matrix(-0.86, 0.58, 0.56, 0.83, 680.64, 220.35)"> </text><text class="cls-1" transform="matrix(-0.83, 0.62, 0.6, 0.8, 663.63, 231.75)">2</text><text class="cls-1" transform="matrix(-0.8, 0.66, 0.64, 0.77, 647.25, 244.02)">0</text><text class="cls-1" transform="matrix(-0.77, 0.7, 0.67, 0.74, 631.47, 257.12)">2</text><text class="cls-1" transform="matrix(-0.74, 0.73, 0.71, 0.71, 616.3, 270.94)">1</text><text class="cls-1" transform="matrix(-0.71, 0.76, 0.73, 0.68, 601.75, 285.43)"> </text><text class="cls-1" transform="matrix(-0.68, 0.79, 0.76, 0.65, 587.8, 300.52)">C</text><text class="cls-1" transform="matrix(-0.65, 0.82, 0.78, 0.62, 574.47, 316.12)">h</text><text class="cls-1" transform="matrix(-0.62, 0.84, 0.8, 0.59, 561.67, 332.27)">i</text><text class="cls-1" transform="matrix(-0.59, 0.86, 0.82, 0.57, 549.46, 348.83)">n</text><text class="cls-1" transform="matrix(-0.56, 0.88, 0.84, 0.54, 537.8, 365.8)">e</text><text class="cls-1" transform="matrix(-0.53, 0.89, 0.86, 0.51, 526.68, 383.14)">s</text><text class="cls-1" transform="matrix(-0.51, 0.91, 0.87, 0.49, 516.08, 400.8)">e</text><text class="cls-1" transform="matrix(-0.48, 0.92, 0.89, 0.47, 505.98, 418.8)"> </text><text class="cls-1" transform="matrix(-0.46, 0.93, 0.9, 0.44, 496.38, 437.07)">T</text><text class="cls-1" transform="matrix(-0.44, 0.94, 0.91, 0.42, 487.27, 455.57)">e</text><text class="cls-1" transform="matrix(-0.41, 0.95, 0.92, 0.4, 478.63, 474.33)">a</text><text class="cls-1" transform="matrix(-0.39, 0.96, 0.93, 0.37, 470.46, 493.25)"> </text><text class="cls-1" transform="matrix(-0.37, 0.97, 0.94, 0.35, 462.73, 512.42)">O</text><text class="cls-1" transform="matrix(-0.34, 0.98, 0.94, 0.33, 455.44, 531.76)">l</text><text class="cls-1" transform="matrix(-0.33, 0.99, 0.95, 0.31, 449.43, 548.79)">y</text><text class="cls-1" transform="matrix(-0.31, 0.99, 0.96, 0.29, 442.95, 568.41)">m</text><text class="cls-1" transform="matrix(-0.28, 1, 0.96, 0.27, 436.88, 588.18)">p</text><text class="cls-1" transform="matrix(-0.26, 1.01, 0.97, 0.25, 431.23, 608.05)">i</text><text class="cls-1" transform="matrix(-0.24, 1.01, 0.97, 0.23, 425.99, 628.04)">c</text><text class="cls-1" transform="matrix(-0.22, 1.02, 0.98, 0.22, 421.14, 648.13)">s</text><text class="cls-1" transform="matrix(-0.21, 1.02, 0.98, 0.2, 416.7, 668.36)">.</text><text class="cls-1" transform="matrix(-0.2, 1.02, 0.98, 0.19, 414.59, 678.46)"> </text><text class="cls-1" transform="matrix(-0.18, 1.02, 0.99, 0.17, 410.7, 698.77)">I</text><text class="cls-1" transform="matrix(-0.16, 1.03, 0.99, 0.15, 407.2, 719.13)"> </text><text class="cls-1" transform="matrix(-0.14, 1.03, 0.99, 0.13, 404.07, 739.58)">w</text><text class="cls-1" transform="matrix(-0.12, 1.03, 0.99, 0.12, 401.31, 760.06)">o</text><text class="cls-1" transform="matrix(-0.1, 1.03, 1, 0.1, 398.92, 780.62)">n</text><text class="cls-1" transform="matrix(-0.08, 1.04, 1, 0.08, 396.89, 801.22)"> </text><text class="cls-1" transform="matrix(-0.07, 1.04, 1, 0.06, 395.21, 821.82)">l</text><text class="cls-1" transform="matrix(-0.05, 1.04, 1, 0.05, 393.9, 842.49)">o</text><text class="cls-1" transform="matrix(-0.03, 1.04, 1, 0.03, 392.94, 863.14)">t</text><text class="cls-1" transform="matrix(-0.01, 1.04, 1, 0.01, 392.32, 883.83)">s</text><text class="cls-1" transform="matrix(0.01, 1.04, 1, -0.01, 392, 904.46)"> </text><text class="cls-1" transform="matrix(0.02, 1.04, 1, -0.02, 392.15, 925.19)">o</text><text class="cls-1" transform="matrix(0.04, 1.04, 1, -0.04, 392.58, 945.89)">f</text><text class="cls-1" transform="matrix(0.06, 1.04, 1, -0.05, 393.36, 966.55)"> </text><text class="cls-1" transform="matrix(0.07, 1.04, 1, -0.07, 394.49, 987.2)">i</text><text class="cls-1" transform="matrix(0.09, 1.04, 1, -0.09, 395.98, 1007.85)">n</text><text class="cls-1" transform="matrix(0.11, 1.03, 0.99, -0.11, 397.83, 1028.43)">t</text><text class="cls-1" transform="matrix(0.13, 1.03, 0.99, -0.12, 400.03, 1049)">e</text><text class="cls-1" transform="matrix(0.15, 1.03, 0.99, -0.14, 402.61, 1069.53)">r</text><text class="cls-1" transform="matrix(0.17, 1.03, 0.99, -0.16, 405.54, 1090)">n</text><text class="cls-1" transform="matrix(0.19, 1.02, 0.98, -0.18, 408.85, 1110.4)">a</text><text class="cls-1" transform="matrix(0.2, 1.02, 0.98, -0.2, 412.54, 1130.77)">t</text><text class="cls-1" transform="matrix(0.22, 1.02, 0.98, -0.22, 416.61, 1151.02)">i</text><text class="cls-1" transform="matrix(0.24, 1.01, 0.97, -0.23, 421.07, 1171.23)">o</text><text class="cls-1" transform="matrix(0.26, 1.01, 0.97, -0.25, 425.91, 1191.33)">n</text><text class="cls-1" transform="matrix(0.28, 1, 0.96, -0.27, 431.15, 1211.31)">a</text><text class="cls-1" transform="matrix(0.3, 0.99, 0.96, -0.29, 436.79, 1231.18)">l</text><text class="cls-1" transform="matrix(0.33, 0.99, 0.95, -0.31, 442.84, 1250.93)"> </text><text class="cls-1" transform="matrix(0.35, 0.98, 0.94, -0.33, 449.32, 1270.57)">a</text><text class="cls-1" transform="matrix(0.37, 0.97, 0.93, -0.36, 456.22, 1290.02)">w</text><text class="cls-1" transform="matrix(0.39, 0.96, 0.93, -0.38, 463.54, 1309.32)">a</text><text class="cls-1" transform="matrix(0.41, 0.95, 0.92, -0.4, 471.32, 1328.45)">r</text><text class="cls-1" transform="matrix(0.44, 0.94, 0.91, -0.42, 479.54, 1347.39)">d</text><text class="cls-1" transform="matrix(0.46, 0.93, 0.9, -0.44, 488.23, 1366.09)">s</text><text class="cls-1" transform="matrix(0.49, 0.92, 0.88, -0.47, 497.39, 1384.58)"> </text><text class="cls-1" transform="matrix(0.51, 0.91, 0.87, -0.49, 507.07, 1402.8)">(</text><text class="cls-1" transform="matrix(0.53, 0.89, 0.86, -0.51, 514.6, 1416.29)"> </text><text class="cls-1" transform="matrix(0.56, 0.88, 0.84, -0.54, 525.13, 1434.01)">“</text><text class="cls-1" transform="matrix(0.59, 0.86, 0.83, -0.56, 536.16, 1451.38)">I</text><text class="cls-1" transform="matrix(0.61, 0.84, 0.81, -0.59, 547.74, 1468.4)">n</text><text class="cls-1" transform="matrix(0.64, 0.82, 0.79, -0.62, 559.86, 1485.02)">t</text><text class="cls-1" transform="matrix(0.67, 0.79, 0.76, -0.65, 572.54, 1501.19)">e</text><text class="cls-1" transform="matrix(0.7, 0.77, 0.74, -0.67, 585.81, 1516.9)">r</text><text class="cls-1" transform="matrix(0.73, 0.74, 0.71, -0.7, 599.65, 1532.04)">n</text><text class="cls-1" transform="matrix(0.76, 0.71, 0.68, -0.73, 614.12, 1546.62)">e</text><text class="cls-1" transform="matrix(0.8, 0.67, 0.64, -0.77, 629.16, 1560.52)">t</text><text class="cls-1" transform="matrix(0.83, 0.63, 0.61, -0.8, 644.84, 1573.73)">+</text><text class="cls-1" transform="matrix(0.86, 0.59, 0.56, -0.83, 661.1, 1586.11)">”</text><text class="cls-1" transform="matrix(0.89, 0.54, 0.52, -0.86, 678.02, 1597.65)"> </text><text class="cls-1" transform="matrix(0.92, 0.48, 0.47, -0.89, 695.49, 1608.19)">C</text><text class="cls-1" transform="matrix(0.95, 0.43, 0.41, -0.91, 713.53, 1617.69)">o</text><text class="cls-1" transform="matrix(0.97, 0.36, 0.35, -0.94, 732.13, 1626.07)">l</text><text class="cls-1" transform="matrix(1, 0.3, 0.29, -0.96, 751.17, 1633.19)">l</text><text class="cls-1" transform="matrix(1.02, 0.23, 0.22, -0.98, 770.68, 1639.03)">e</text><text class="cls-1" transform="matrix(1.03, 0.15, 0.15, -0.99, 790.53, 1643.48)">g</text><text class="cls-1" transform="matrix(1.04, 0.08, 0.08, -1, 810.64, 1646.5)">e</text><text class="cls-1" transform="matrix(1.04, 0.03, 0.03, -1, 830.79, 1647.8)"> </text><text class="cls-2" transform="translate(355.61 1463.09) rotate(-126.5) scale(1.04 1)"> </text><text class="cls-2" transform="matrix(-0.56, -0.87, 0.84, -0.54, 343.48, 1446.72)">S</text><text class="cls-2" transform="matrix(-0.51, -0.91, 0.87, -0.49, 332.44, 1429.57)">t</text><text class="cls-2" transform="translate(322.5 1411.75) rotate(-115.75) scale(1.04 1)">u</text><text class="cls-2" transform="matrix(-0.4, -0.96, 0.92, -0.38, 313.61, 1393.34)">d</text><text class="cls-2" transform="translate(305.77 1374.45) rotate(-109.5) scale(1.04 1)">e</text><text class="cls-2" transform="translate(298.93 1355.15) rotate(-106.64) scale(1.04 1)">n</text><text class="cls-2" transform="matrix(-0.25, -1.01, 0.97, -0.24, 293.06, 1335.51)">t</text><text class="cls-2" transform="matrix(-0.21, -1.02, 0.98, -0.2, 288.12, 1315.62)">s</text><text class="cls-2" transform="matrix(-0.17, -1.03, 0.99, -0.17, 284.12, 1295.4)">&apos;</text><text class="cls-2" transform="matrix(-0.14, -1.03, 0.99, -0.14, 282.34, 1285.36)"> </text><text class="cls-2" transform="matrix(-0.1, -1.03, 1, -0.1, 279.52, 1265.01)">I</text><text class="cls-2" transform="translate(277.48 1244.56) rotate(-93.62) scale(1.04 1)">n</text><text class="cls-2" transform="matrix(-0.03, -1.04, 1, -0.03, 276.18, 1224.02)">n</text><text class="cls-2" transform="matrix(0, -1.04, 1, 0, 275.58, 1203.42)">o</text><text class="cls-2" transform="translate(275.66 1182.82) rotate(-88.01) scale(1.04 1)">v</text><text class="cls-2" transform="matrix(0.07, -1.04, 1, 0.06, 276.37, 1162.22)">a</text><text class="cls-2" transform="translate(277.69 1141.67) rotate(-84.69) scale(1.04 1)">t</text><text class="cls-2" transform="matrix(0.12, -1.03, 0.99, 0.12, 279.6, 1121.15)">i</text><text class="cls-2" transform="translate(282.06 1100.67) rotate(-81.64) scale(1.04 1)">o</text><text class="cls-2" transform="translate(285.07 1080.22) rotate(-80.2) scale(1.04 1)">n</text><text class="cls-2" transform="matrix(0.2, -1.02, 0.98, 0.19, 288.58, 1059.89)"> </text><text class="cls-2" transform="translate(292.58 1039.64) rotate(-77.46) scale(1.04 1)">a</text><text class="cls-2" transform="translate(297.06 1019.49) rotate(-76.16) scale(1.04 1)">n</text><text class="cls-2" transform="matrix(0.27, -1, 0.97, 0.26, 302.01, 999.43)">d</text><text class="cls-2" transform="translate(307.39 979.47) rotate(-73.65) scale(1.04 1)"> </text><text class="cls-2" transform="translate(313.21 959.64) rotate(-72.45) scale(1.04 1)">E</text><text class="cls-2" transform="translate(319.44 939.94) rotate(-71.28) scale(1.04 1)">n</text><text class="cls-2" transform="matrix(0.35, -0.98, 0.94, 0.34, 326.07, 920.37)">t</text><text class="cls-2" transform="matrix(0.37, -0.97, 0.93, 0.36, 333.1, 900.93)">r</text><text class="cls-2" transform="matrix(0.39, -0.96, 0.93, 0.38, 340.5, 881.64)">e</text><text class="cls-2" transform="matrix(0.41, -0.96, 0.92, 0.39, 348.28, 862.49)">p</text><text class="cls-2" transform="translate(356.42 843.47) rotate(-65.75) scale(1.04 1)">r</text><text class="cls-2" transform="matrix(0.44, -0.94, 0.9, 0.43, 364.92, 824.6)">e</text><text class="cls-2" transform="translate(373.76 805.9) rotate(-63.66) scale(1.04 1)">n</text><text class="cls-2" transform="matrix(0.48, -0.92, 0.89, 0.46, 382.93, 787.37)">e</text><text class="cls-2" transform="matrix(0.49, -0.92, 0.88, 0.48, 392.44, 769)">u</text><text class="cls-2" transform="matrix(0.51, -0.91, 0.87, 0.49, 402.26, 750.81)">r</text><text class="cls-2" transform="translate(412.42 732.76) rotate(-59.64) scale(1.04 1)">s</text><text class="cls-2" transform="translate(422.87 714.92) rotate(-58.66) scale(1.04 1)">h</text><text class="cls-2" transform="matrix(0.56, -0.88, 0.85, 0.53, 433.64, 697.24)">i</text><text class="cls-2" transform="matrix(0.57, -0.87, 0.84, 0.55, 444.68, 679.78)">p</text><text class="cls-2" transform="matrix(0.59, -0.86, 0.82, 0.57, 455.98, 662.46)"> </text><text class="cls-2" transform="matrix(0.6, -0.85, 0.82, 0.58, 467.67, 645.39)">C</text><text class="cls-2" transform="matrix(0.61, -0.84, 0.81, 0.59, 479.6, 628.47)">o</text><text class="cls-2" transform="matrix(0.63, -0.83, 0.8, 0.6, 491.82, 611.75)">m</text><text class="cls-2" transform="matrix(0.64, -0.82, 0.79, 0.62, 504.31, 595.27)">p</text><text class="cls-2" transform="matrix(0.66, -0.81, 0.78, 0.63, 517.07, 579.01)">e</text><text class="cls-2" transform="translate(530.13 562.95) rotate(-49.86) scale(1.04 1)">t</text><text class="cls-2" transform="matrix(0.68, -0.78, 0.75, 0.66, 543.46, 547.14)">i</text><text class="cls-2" transform="matrix(0.7, -0.77, 0.74, 0.67, 557.08, 531.55)">t</text><text class="cls-2" transform="matrix(0.71, -0.76, 0.73, 0.68, 570.96, 516.24)">i</text><text class="cls-2" transform="matrix(0.73, -0.74, 0.72, 0.7, 585.12, 501.17)">o</text><text class="cls-2" transform="matrix(0.74, -0.73, 0.7, 0.71, 599.57, 486.35)">n</text><text class="cls-2" transform="matrix(0.75, -0.72, 0.69, 0.72, 614.26, 471.84)"> </text><text class="cls-2" transform="translate(629.3 457.6) rotate(-42.71) scale(1.04 1)">,</text><text class="cls-2" transform="translate(636.84 450.58) rotate(-41.87) scale(1.04 1)"> </text><text class="cls-2" transform="matrix(0.79, -0.68, 0.65, 0.76, 652.23, 436.79)">C</text><text class="cls-2" transform="matrix(0.8, -0.66, 0.64, 0.77, 667.9, 423.29)">h</text><text class="cls-2" transform="matrix(0.82, -0.65, 0.62, 0.78, 683.84, 410.13)">i</text><text class="cls-2" transform="matrix(0.83, -0.63, 0.6, 0.8, 700.03, 397.33)">n</text><text class="cls-2" transform="matrix(0.84, -0.61, 0.59, 0.81, 716.5, 384.86)">a</text><text class="cls-2" transform="matrix(0.86, -0.59, 0.57, 0.82, 733.23, 372.77)"> </text><text class="cls-2" transform="translate(750.24 361.07) rotate(-33.19) scale(1.04 1)">M</text><text class="cls-2" transform="matrix(0.88, -0.55, 0.53, 0.85, 767.53, 349.75)">o</text><text class="cls-2" transform="matrix(0.9, -0.53, 0.51, 0.86, 785.06, 338.88)">b</text><text class="cls-2" transform="translate(802.86 328.45) rotate(-28.86) scale(1.04 1)">i</text><text class="cls-2" transform="translate(820.93 318.49) rotate(-27.3) scale(1.04 1)">l</text><text class="cls-2" transform="matrix(0.94, -0.45, 0.43, 0.9, 839.23, 309.04)">e</text><text class="cls-2" transform="translate(857.81 300.1) rotate(-23.98) scale(1.04 1)"> </text><text class="cls-2" transform="translate(876.63 291.73) rotate(-22.2) scale(1.04 1)">A</text><text class="cls-2" transform="translate(895.68 283.94) rotate(-20.34) scale(1.04 1)">p</text><text class="cls-2" transform="translate(914.97 276.79) rotate(-18.37) scale(1.04 1)">p</text><text class="cls-2" transform="matrix(1, -0.29, 0.28, 0.96, 934.47, 270.3)">l</text><text class="cls-2" transform="translate(954.21 264.52) rotate(-14.11) scale(1.04 1)">i</text><text class="cls-2" transform="translate(974.12 259.51) rotate(-11.79) scale(1.04 1)">c</text><text class="cls-2" transform="translate(994.21 255.3) rotate(-9.33) scale(1.04 1)">a</text><text class="cls-2" transform="matrix(1.03, -0.12, 0.12, 0.99, 1014.45, 251.96)">t</text><text class="cls-2" transform="translate(1034.77 249.56) rotate(-3.95) scale(1.04 1)">i</text><text class="cls-2" transform="translate(1055.2 248.14) rotate(-1) scale(1.04 1)">o</text><text class="cls-2" transform="matrix(1.04, 0.04, -0.04, 1, 1075.63, 247.77)">n</text><text class="cls-2" transform="translate(1096.04 248.51) rotate(5.44) scale(1.04 1)"> </text><text class="cls-2" transform="translate(1116.36 250.43) rotate(8.94) scale(1.04 1)">I</text><text class="cls-2" transform="matrix(1.01, 0.23, -0.22, 0.98, 1136.52, 253.58)">n</text><text class="cls-2" transform="matrix(1, 0.29, -0.28, 0.96, 1156.4, 258.01)">n</text><text class="cls-2" transform="translate(1175.91 263.75) rotate(20.43) scale(1.04 1)">o</text><text class="cls-2" transform="matrix(0.95, 0.43, -0.41, 0.91, 1194.96, 270.82)">v</text><text class="cls-2" transform="matrix(0.91, 0.5, -0.48, 0.88, 1213.48, 279.25)">a</text><text class="cls-2" transform="matrix(0.88, 0.56, -0.54, 0.84, 1231.35, 289.07)">t</text><text class="cls-2" transform="matrix(0.83, 0.63, -0.6, 0.8, 1248.41, 299.98)">i</text><text class="cls-2" transform="matrix(0.78, 0.68, -0.66, 0.75, 1264.67, 312.2)">o</text><text class="cls-2" transform="translate(1279.98 325.56) rotate(45.27) scale(1.04 1)">n</text><text class="cls-2" transform="translate(1294.33 340.04) rotate(49.32) scale(1.04 1)"> </text><text class="cls-2" transform="translate(1307.59 355.45) rotate(53.24) scale(1.04 1)">T</text><text class="cls-2" transform="matrix(0.57, 0.87, -0.84, 0.54, 1319.78, 371.75)">o</text><text class="cls-2" transform="matrix(0.51, 0.91, -0.87, 0.49, 1330.92, 388.88)">u</text><text class="cls-2" transform="matrix(0.46, 0.93, -0.9, 0.44, 1340.94, 406.66)">r</text><text class="cls-2" transform="translate(1349.89 425.02) rotate(67.25) scale(1.04 1)">n</text><text class="cls-2" transform="translate(1357.8 443.88) rotate(70.3) scale(1.04 1)">a</text><text class="cls-2" transform="matrix(0.3, 1, -0.96, 0.29, 1364.7, 463.14)">m</text><text class="cls-2" transform="matrix(0.25, 1.01, -0.97, 0.24, 1370.64, 482.77)">e</text><text class="cls-2" transform="translate(1375.65 502.68) rotate(78.42) scale(1.04 1)">n</text><text class="cls-2" transform="translate(1379.78 522.79) rotate(80.82) scale(1.04 1)">t</text><text class="cls-2" transform="matrix(0.14, 1.03, -0.99, 0.13, 1382.99, 543.12)">,</text><text class="cls-2" transform="matrix(0.11, 1.03, -0.99, 0.1, 1384.39, 553.26)"> </text><text class="cls-2" transform="translate(1386.48 573.68) rotate(86.24) scale(1.04 1)">C</text><text class="cls-2" transform="matrix(0.03, 1.04, -1, 0.03, 1387.83, 594.24)">o</text><text class="cls-2" transform="translate(1388.48 614.79) rotate(90.08) scale(1.04 1)">l</text><text class="cls-2" transform="translate(1388.45 635.4) rotate(91.87) scale(1.04 1)">l</text><text class="cls-2" transform="translate(1387.78 655.97) rotate(93.57) scale(1.04 1)">e</text><text class="cls-2" transform="matrix(-0.09, 1.04, -1, -0.09, 1386.49, 676.57)">g</text><text class="cls-2" transform="matrix(-0.12, 1.03, -0.99, -0.12, 1384.63, 697.1)">e</text><text class="cls-2" transform="translate(1382.2 717.6) rotate(98.26) scale(1.04 1)"> </text><text class="cls-2" transform="translate(1379.24 738) rotate(99.7) scale(1.04 1)">S</text><text class="cls-2" transform="matrix(-0.2, 1.02, -0.98, -0.19, 1375.76, 758.35)">t</text><text class="cls-2" transform="matrix(-0.22, 1.02, -0.98, -0.22, 1371.78, 778.62)">u</text><text class="cls-2" transform="matrix(-0.25, 1.01, -0.97, -0.24, 1367.33, 798.79)">d</text><text class="cls-2" transform="translate(1362.42 818.85) rotate(105.03) scale(1.04 1)">e</text><text class="cls-2" transform="translate(1357.07 838.8) rotate(106.26) scale(1.04 1)">n</text><text class="cls-2" transform="translate(1351.29 858.62) rotate(107.47) scale(1.04 1)">t</text><text class="cls-2" transform="translate(1345.08 878.34) rotate(108.64) scale(1.04 1)"> </text><text class="cls-2" transform="translate(1338.47 897.94) rotate(109.79) scale(1.04 1)">A</text><text class="cls-2" transform="translate(1331.48 917.38) rotate(110.92) scale(1.04 1)">d</text><text class="cls-2" transform="translate(1324.09 936.7) rotate(112.03) scale(1.04 1)">v</text><text class="cls-2" transform="translate(1316.34 955.85) rotate(113.11) scale(1.04 1)">e</text><text class="cls-2" transform="translate(1308.23 974.87) rotate(114.18) scale(1.04 1)">r</text><text class="cls-2" transform="matrix(-0.44, 0.94, -0.9, -0.43, 1299.76, 993.73)">t</text><text class="cls-2" transform="translate(1290.93 1012.47) rotate(116.27) scale(1.04 1)">i</text><text class="cls-2" transform="matrix(-0.48, 0.92, -0.89, -0.46, 1281.79, 1031)">s</text><text class="cls-2" transform="matrix(-0.49, 0.92, -0.88, -0.47, 1272.31, 1049.38)">i</text><text class="cls-2" transform="matrix(-0.51, 0.91, -0.87, -0.49, 1262.5, 1067.6)">n</text><text class="cls-2" transform="translate(1252.37 1085.65) rotate(120.29) scale(1.04 1)">g</text><text class="cls-2" transform="matrix(-0.54, 0.89, -0.85, -0.52, 1241.94, 1103.49)"> </text><text class="cls-2" transform="translate(1231.2 1121.18) rotate(122.25) scale(1.04 1)">A</text><text class="cls-2" transform="matrix(-0.57, 0.87, -0.84, -0.55, 1220.16, 1138.68)">r</text><text class="cls-2" transform="matrix(-0.59, 0.86, -0.82, -0.57, 1208.92, 1155.98)">t</text><text class="cls-2" transform="matrix(-0.6, 0.85, -0.82, -0.58, 1197.21, 1173.1)"> </text><text class="cls-2" transform="matrix(-0.61, 0.84, -0.81, -0.59, 1185.29, 1190.04)">C</text><text class="cls-2" transform="matrix(-0.63, 0.83, -0.8, -0.6, 1173.1, 1206.75)">o</text><text class="cls-2" transform="matrix(-0.64, 0.82, -0.79, -0.62, 1160.63, 1223.25)">m</text><text class="cls-2" transform="matrix(-0.66, 0.81, -0.78, -0.63, 1147.88, 1239.53)">p</text><text class="cls-2" transform="matrix(-0.67, 0.8, -0.77, -0.64, 1134.86, 1255.59)">e</text><text class="cls-2" transform="translate(1121.54 1271.42) rotate(131.08) scale(1.04 1)">t</text><text class="cls-2" transform="matrix(-0.7, 0.77, -0.74, -0.67, 1107.95, 1287.01)">i</text><text class="cls-2" transform="matrix(-0.71, 0.76, -0.73, -0.68, 1094.08, 1302.35)">t</text><text class="cls-2" transform="translate(1079.94 1317.44) rotate(134.21) scale(1.04 1)">i</text><text class="cls-2" transform="translate(1065.52 1332.27) rotate(135.28) scale(1.04 1)">o</text><text class="cls-2" transform="matrix(-0.75, 0.72, -0.69, -0.72, 1050.84, 1346.81)">n</text><text class="cls-2" transform="translate(1035.82 1361.07) rotate(137.21) scale(1.04 1)">,</text><text class="cls-2" transform="matrix(-0.77, 0.7, -0.67, -0.74, 1028.28, 1368.11)"> </text><text class="cls-2" transform="matrix(-0.79, 0.68, -0.65, -0.76, 1012.9, 1381.93)">C</text><text class="cls-2" transform="matrix(-0.8, 0.66, -0.64, -0.77, 997.28, 1395.42)">h</text><text class="cls-2" transform="translate(981.35 1408.61) rotate(141.58) scale(1.04 1)">i</text><text class="cls-2" transform="matrix(-0.83, 0.63, -0.6, -0.8, 965.17, 1421.45)">n</text><text class="cls-2" transform="translate(948.72 1433.93) rotate(144.07) scale(1.04 1)">e</text><text class="cls-2" transform="translate(932 1446.05) rotate(145.37) scale(1.04 1)">s</text><text class="cls-2" transform="translate(915.02 1457.78) rotate(146.72) scale(1.04 1)">e</text><text class="cls-2" transform="translate(897.76 1469.11) rotate(148.11) scale(1.04 1)"> </text><text class="cls-2" transform="translate(880.23 1480.03) rotate(149.55) scale(1.04 1)">t</text><text class="cls-2" transform="translate(862.46 1490.48) rotate(151.04) scale(1.04 1)">e</text><text class="cls-2" transform="translate(844.42 1500.47) rotate(152.59) scale(1.04 1)">a</text><text class="cls-2" transform="matrix(-0.94, 0.45, -0.44, -0.9, 826.11, 1509.97)"> </text><text class="cls-2" transform="translate(807.56 1518.94) rotate(155.9) scale(1.04 1)">a</text><text class="cls-2" transform="translate(788.77 1527.35) rotate(157.67) scale(1.04 1)">r</text><text class="cls-2" transform="translate(769.74 1535.17) rotate(159.53) scale(1.04 1)">t</text><text class="cls-2" transform="matrix(-0.99, 0.33, -0.32, -0.95, 750.44, 1542.38)"> </text><text class="cls-2" transform="translate(730.93 1548.92) rotate(163.56) scale(1.04 1)">p</text><text class="cls-2" transform="matrix(-1.01, 0.26, -0.25, -0.97, 711.23, 1554.75)">e</text><text class="cls-2" transform="translate(691.32 1559.82) rotate(168.05) scale(1.04 1)">r</text><text class="cls-2" transform="translate(671.26 1564.07) rotate(170.5) scale(1.04 1)">f</text><text class="cls-2" transform="translate(651.05 1567.47) rotate(173.09) scale(1.04 1)">o</text><text class="cls-2" transform="matrix(-1.04, 0.08, -0.07, -1, 630.72, 1569.95)">r</text><text class="cls-2" transform="translate(610.3 1571.44) rotate(178.79) scale(1.04 1)">m</text><text class="cls-2" transform="translate(589.87 1571.89) rotate(-178.09) scale(1.04 1)">i</text><text class="cls-2" transform="translate(569.43 1571.22) rotate(-174.79) scale(1.04 1)">n</text><text class="cls-2" transform="translate(549.11 1569.39) rotate(-171.31) scale(1.04 1)">g</text><text class="cls-2" transform="matrix(-1.02, -0.22, 0.21, -0.98, 528.95, 1566.32)"> </text><text class="cls-2" transform="translate(509.06 1561.98) rotate(-163.82) scale(1.04 1)">g</text><text class="cls-2" transform="matrix(-0.98, -0.36, 0.34, -0.94, 489.5, 1556.33)">r</text><text class="cls-2" transform="matrix(-0.95, -0.43, 0.41, -0.91, 470.41, 1549.34)">o</text><text class="cls-2" transform="translate(451.85 1541.02) rotate(-151.63) scale(1.04 1)">u</text><text class="cls-2" transform="translate(433.95 1531.36) rotate(-147.52) scale(1.04 1)">p</text></g></g></svg>