<svg id="ecofire" xmlns="http://www.w3.org/2000/svg" viewBox="0 0 35.88 68.9"><title>fire</title><g id="图层_2" data-name="图层 2"><g id="Layer_1" data-name="Layer 1"><path d="M14.94,0q7.13,9,7.51,15.37a27.85,27.85,0,0,1-.27,4.9,15.47,15.47,0,0,0-.32,8.35,7.79,7.79,0,0,0,2.29,4.31,3.58,3.58,0,0,0,2.25,1.15c0,.07.1.07.2,0A2.85,2.85,0,0,0,29,32.89a4.41,4.41,0,0,0,.75-1.5,5.88,5.88,0,0,0,.26-2.1,18.89,18.89,0,0,0-1.59-4.75,27.41,27.41,0,0,1-1.13-6.06,14.7,14.7,0,0,1,.46-5.54,12.33,12.33,0,0,1,2.32-4.7,13.87,13.87,0,0,0-.92,4.9,27.59,27.59,0,0,0,.64,4.2A98.77,98.77,0,0,0,33.17,27a40.75,40.75,0,0,1,2.7,15.56,28.14,28.14,0,0,1-3.13,11.79,12.21,12.21,0,0,0,.15,1.25,4.12,4.12,0,0,0,0,.7v.05a12.69,12.69,0,0,1-3.18,8.39,12.11,12.11,0,0,1-8.66,4.13A12.08,12.08,0,0,1,12,65.74a11.76,11.76,0,0,1-2.34-2.85v0a4.68,4.68,0,0,1-.8-1.51,6.78,6.78,0,0,1-.59-1.55,5.55,5.55,0,0,1-.3-1.2,5.66,5.66,0,0,1-.1-1.15,16.64,16.64,0,0,0-1.54-1.9A15.8,15.8,0,0,1,3.7,50.82q-1.33-3.45-.17-9.3a63.38,63.38,0,0,0,.54-15.2Q3.55,17,0,14.66l.2-.15Q6.05,16.37,7.47,26t1.81,12.5c.33,1.87,1.2,2.74,2.6,2.61s2.48-1,3.25-2.69c.68-1.56.45-4.25-.67-8.05s-1.57-6.91-1.13-9.3a26.68,26.68,0,0,1,2.07-6.9,12.66,12.66,0,0,0,1.27-6,39,39,0,0,0-1-5.51A10.31,10.31,0,0,0,14.79.1Zm5,51.16a6.65,6.65,0,0,0-4.81,2.29,6.79,6.79,0,0,0-1.71,4.95,7,7,0,0,0,2.34,4.85,6.59,6.59,0,0,0,5,1.67,6.84,6.84,0,0,0,6.47-7.29v-.25l-.05-.1a6.26,6.26,0,0,0-.94-2.85,8.23,8.23,0,0,0-.9-1.25l-.45-.3a6.48,6.48,0,0,0-2.74-1.56,5.76,5.76,0,0,0-1.3-.15Zm-9.32,8a5.31,5.31,0,0,0,.49,1.3v0a3.73,3.73,0,0,0,.55,1.05v0a9,9,0,0,0,1.94,2.26,7.84,7.84,0,0,0,1.33.95,2.79,2.79,0,0,1-.38-.3,8.3,8.3,0,0,1-2.93-6A8.48,8.48,0,0,1,13.9,52.2a8.11,8.11,0,0,1,5.9-2.84H21a9.82,9.82,0,0,1,1.7.25,9,9,0,0,1,3.45,1.91l.5.45V52a8.32,8.32,0,0,1,1.19,1.36A8.89,8.89,0,0,1,29,57.14v.1a.62.62,0,0,0,.05.25,8.71,8.71,0,0,1-2.22,6.34,6.8,6.8,0,0,1-1.4,1.25,9.08,9.08,0,0,0,2.46-2,10,10,0,0,0,2.62-6.7,2.9,2.9,0,0,1,0-.65,11.47,11.47,0,0,0-.94-3.8v0c-.3-.5-.62-1-.95-1.45a16.81,16.81,0,0,0-1.49-1.61c-.24-.23-.47-.45-.7-.65a6.21,6.21,0,0,1-.6-.35A9.91,9.91,0,0,0,22,46.32a6.35,6.35,0,0,1-.8,0,5.4,5.4,0,0,0-1.45,0,10,10,0,0,0-6.91,3.33,9.7,9.7,0,0,0-2.57,7.3,6.07,6.07,0,0,0,.15,1.35A1.9,1.9,0,0,0,10.63,59.19Z"/></g></g></svg>