<svg xmlns="http://www.w3.org/2000/svg" viewBox="0 0 416.49 484.03"><defs><style>.cls-1{fill:#111;}</style></defs><title>indextianping</title><g id="图层_2" data-name="图层 2"><g id="Слой_1" data-name="Слой 1"><path class="cls-1" d="M267.69,167.26a36.88,36.88,0,0,1,13,1.28c4.06,1.09,8.39,1.14,12.55,1.9a194.86,194.86,0,0,1,29.61,8.23,1.82,1.82,0,0,0,.5.16c6.79.46,12.71,3.92,19.2,5.44,3.46.81,6.83,1.55,10.47.4,2.58-.81,3.35.38,2.86,3.13-1.59,9.06-3.11,18.13-4.62,27.2q-1.78,10.75-3.45,21.53-3.66,23.9-7.24,47.81c-2,13.48-4.51,26.93-5.89,40.48-1.31,12.87-4.37,25.46-5.07,38.44-.52,9.69-2.71,19.28-4.11,28.92a7.85,7.85,0,0,0-.08,3.63c.52,1.42,1.07,2.34-.65,3.4-.68.41-.86,1.85-1,2.87q-3.25,19.65-6.42,39.31a38.89,38.89,0,0,0-.21,5.3c-.13,5.21-.75,6-5.9,7.13-2.07.45-4.22.61-6.27,1.16-4.37,1.16-4.57,2.23-2.66,6.27a24.51,24.51,0,0,0,15.56,13.4,5.65,5.65,0,0,1,.95.48c8.68,4.77,18.49,5.39,27.87,7.66a26.58,26.58,0,0,0,11.05.23,7.54,7.54,0,0,1,3.71-.07c5.53,2.1,10.29-.95,15.39-1.89a30.55,30.55,0,0,0,13.94-6,13.4,13.4,0,0,1,3.35-1.58c2.52-1,4.71-2.36,5.93-5a18.88,18.88,0,0,1,2-2.46,19.29,19.29,0,0,0,2.53-4c1.5-3.93-.34-7.07-4.47-8-.52-.11-1.07-.08-1.59-.16-3.79-.61-5.26-2.05-5.56-5.88-.24-3-.13-6-.27-9-.25-5.11-.24-10.22-1.59-15.26-.82-3-.84-6.3-1.15-9.47-.57-6-1-12-1.64-18-1.24-11.23-2.63-22.45-3.92-33.68-.82-7.17-1.55-14.35-2.37-21.52-.16-1.4-.63-2.77-.82-4.17-.34-2.42-.56-4.86-.87-7.29q-.69-5.24-1.45-10.46c-.1-.69-.54-1.33-.62-2-.85-7.21-1.63-14.43-2.48-21.64-.27-2.28-.7-4.55-1-6.83-.36-2.81-.67-5.62-1-8.43-.8-6.65-2.1-13.29-2.25-20-.14-5.93-1.89-11.42-2.9-17.12-.84-4.7-1.41-9.44-2.07-14.17a14.91,14.91,0,0,1-.23-3.18c.53-5.76-1.18-11.23-2-16.82-.64-4.19-.79-8.46-1.2-12.69-.25-2.46-.63-4.92-.89-7.39-.36-3.53.07-4.09,3.63-4.94,3.75-.88,6.86-3.75,7-6.42.15-3.56-3.54-8.21-7.28-8.87a5.15,5.15,0,0,0-3.48.64c-1.41,1-3.13,2.3-3.54,3.8-1.19,4.37-4.48,4.65-7.81,4.32a33,33,0,0,1-12.26-3.27c-2.31-1.22-5-1.73-7.47-2.64-7.28-2.68-14.42-5.78-21.83-8A213.7,213.7,0,0,0,275,155.8a37.31,37.31,0,0,0-6.93,0c-3.36.21-6.71.56-10.06.91-1.75.18-3.5.49-5.25.76-3.15.48-6.4.65-9.42,1.55a174.31,174.31,0,0,0-17,5.89c-3.68,1.53-3.42,1.61-6.46-.53-6-4.21-7.75-10.33-8.55-17-.15-1.23,0-2.49-.17-3.73-.39-3.73.33-6.42,3.92-8.92,5-3.49,6.79-9.5,7.74-15.32,1.21-7.46-.1-14.87-2.21-22-1.65-5.59-6-9.25-11.12-11.54-3.76-1.68-7.3.44-10.49,2.35-4.35,2.62-6.74,6.88-8,11.57a44.75,44.75,0,0,0-.14,21.09,27.21,27.21,0,0,0,9.48,15.54A4.93,4.93,0,0,1,202,140a168.45,168.45,0,0,1-1.78,18c-.62,3.61-3.59,6-6.69,7.9a2.72,2.72,0,0,1-2.36-.2c-11.08-6.88-23.46-8.73-36.14-9.06-4.94-.13-9.91.66-14.85,1.21-1.36.16-2.62,1-4,1.47-3,1-6.12,1.72-9.06,2.89A76.52,76.52,0,0,0,116.64,167a174.4,174.4,0,0,1-29.12,14c-5.68,2.05-11.8,3.89-18.12,1.28-1.83-.76-4-.13-5.84-1.86s-3.08-2.54-2.13-5.21-1.27-4.28-3-5.72c-1.42-1.19-6-.88-7.17.08-1.45,1.21-2.42,4.95-1.73,6.86.81,2.24,2,4.35,4.45,5,3.18.79,3.72,2.94,3.44,5.65-.31,3-.68,6-1.06,9-.72,5.62-1.51,11.22-2.15,16.84a41.82,41.82,0,0,0,0,5.13,6.79,6.79,0,0,1,0,1.56c-3.73,14.23-5,28.87-7.3,43.35C44.48,278.48,42.3,294.1,40,309.7c-.18,1.23-.23,2.47-.39,3.7q-1.17,9.45-2.37,18.9c-.09.7-.57,1.41-.46,2.05,1.2,7.23-1.48,14.06-2.14,21.09-1,10.41-2.46,20.77-3.75,31.14-1,8.44-2.13,16.88-3.18,25.32s-2.08,16.9-3.11,25.35c-.44,3.69-1.05,7.37-1.22,11.08-.11,2.24-1,3.13-3.08,3.54-2.93.6-5.81,1.44-8.74,2.07-3.3.71-3.85,3.29-4.3,6s.79,4.19,3.13,5.47c3.08,1.7,5.77,4.1,8.84,5.83,8.55,4.82,18,7.25,27.46,9.41,5.68,1.29,11.47,2.19,17.23,3.1,5.56.88,11-.37,16.31-1.68,6.88-1.7,13.18-5,19.7-7.64,7.14-2.94,9.85-8.73,12.7-14.71,1.67-3.51.16-5.92-3.76-7.06a23.45,23.45,0,0,0-4.15-.74c-4.07-.44-4.46-.6-5.43-4.45s-1.8-7.59-2.41-11.43q-2.69-16.78-5.11-33.63c-1.48-10.35-2.73-20.74-4.13-31.1-1.82-13.35-3.78-26.67-5.49-40-.72-5.61-.74-11.31-1.42-16.93-.89-7.38-2.1-14.72-3.19-22.07a15.69,15.69,0,0,1-.48-2.06A75.07,75.07,0,0,0,75,273.9c-1.23-5.33-1.52-10.88-2.23-16.33-2.13-16.18-4.21-32.37-6.43-48.54-.89-6.48-2.09-12.91-3.15-19.36-.53-3.19,0-3.89,2.78-2.9,4.51,1.6,9.1.74,13.64,1,3,.17,6,.31,9,.24a13.69,13.69,0,0,0,4-1c1.16-.41,2.2-1.43,3.35-1.52,10-.83,18.2-6.36,27.13-10.05,6-2.47,12.11-5.1,18.86-5.06a17.63,17.63,0,0,0,3.13-.45c1-.19,2.16-.79,3.08-.57,9.13,2.17,18.85-.15,27.75,3.77a27.85,27.85,0,0,0,5.63,1.44c5.54,1.13,9.55,4.31,12.59,9a78.37,78.37,0,0,1,6.59,11.33c.79,1.82.83,2.87-.31,4.21a15.41,15.41,0,0,1-1.44,1.57c-1.78,1.54-1.81,3.2-.74,5.22,2.45,4.68,4.88,9.38,7.08,14.18.62,1.36.24,3.14.68,4.63.61,2.08.19,4.68,2.63,6,.48-1.85,1.31-3.69,1.4-5.57.33-6.44,2.12-12.56,3.83-18.68.9-3.21,1-5.74-1.85-8.12-2.07-1.76-1.83-2.13.16-4.18,3.71-3.8,7.18-7.88,11.13-11.4,7.55-6.71,16-11.65,26.47-12.45a12.08,12.08,0,0,0,4.15-.89C258.47,167.23,263.24,167.18,267.69,167.26ZM207,165c.5-.63.95-1.69,1.53-1.77a4.78,4.78,0,0,1,2.66.83c.34.18.38.91.56,1.4A13.48,13.48,0,0,1,209,166c-.61,0-1.21-.57-1.82-.88-1.62,2.37-3.6,4.41-6.41,5.2-9.07,2.56-9.09,2.52-18.09-1.17a64.41,64.41,0,0,0-20.34-5.12c-4.59-.29-9.22,0-13.84,0a39.58,39.58,0,0,1-4-.44c1.3-.48,2.59-1,3.91-1.42a8.66,8.66,0,0,1,2.1-.31c10.27-.52,20.45-.46,30.37,3a71.69,71.69,0,0,0,12.79,3.12c3.81.6,7.81,1,11-2.23C205.14,165.3,206.2,165.29,207,165ZM61.82,434.74c0,3.42,0,7.15,0,10.88-.06,3.22-.16,3.09-3.33,3.21-7.77.29-15.54.72-23.3,1.14-1.05.06-2.08.48-3.13.64a20,20,0,0,1-3.18.26c-1.48,0-2.36-.72-2.12-2.33.63-4.36,1.3-8.72,1.94-13.08.71-4.88,1.45-9.76,2.11-14.65q1.34-10,2.55-20c.38-3.17.64-6.35.92-9.54.23-2.46.38-4.94.63-7.4,1.24-12.31,3.56-24.47,4.64-36.81,1-11.09,2.76-22.11,4.18-33.17,1-8,2-16.05,3-24.07,1-7.72,2.16-15.43,3.25-23.14,1.37-9.82,2.87-19.61,4.08-29.45.69-5.62.82-11.3,1.37-16.94a28.44,28.44,0,0,1,1.39-5.52c.12-.41.73-.68,1.12-1a4.48,4.48,0,0,1,.47,1.29q.21,22.91.36,45.81c.05,6.21.05,12.42.19,18.63,0,.76.81,1.51,1.25,2.26.48-.67,1.24-1.28,1.38-2A25.19,25.19,0,0,0,62,275c-.13-20.39-.31-40.77-.41-61.16a23.17,23.17,0,0,1,.82-4.29c.49,1.46,1,2.92,1.47,4.39a2.34,2.34,0,0,1,0,.53c.85,7.76,1.53,15.54,2.6,23.27,1.57,11.4,3.47,22.75,5.13,34.13,1.08,7.37,2,14.76,3,22.13,1.18,8.42,2.52,16.82,3.63,25.25,1,7.38,1.7,14.78,2.62,22.16.84,6.69,1.79,13.35,2.68,20q1.81,13.71,3.63,27.41c1.14,8.6,2.24,17.2,3.44,25.79,1.59,11.36,2.14,22.92,6.15,33.84.55,1.48,0,2.41-1.72,2.45-1.07,0-2.14.11-3.2.06q-11.94-.6-23.88-1.25l-.54-.06A2.4,2.4,0,0,1,65,447.29c-.59-7.4-1.24-14.79-1.77-22.2-.11-1.56.33-3.16.3-4.73-.11-5.32-.25-10.64-.52-15.95-.08-1.54,1.33-4.35-1.18-4.29-2.15.06-1.07,2.95-1,4.52C61,414.57,61.45,424.5,61.82,434.74Zm292.89-30.67c-.48,16.55-.88,30-1.28,43.51-.12,4.27-.26,4.32-4.61,4.45-8.46.25-16.91.62-25.37.92-3.08.11-3.59-.24-3.26-3.22.79-7.05,1.68-14.09,2.73-21.1,1.11-7.34,2.52-14.64,3.68-22,1.13-7.16,2.11-14.35,3.17-21.52.91-6.12,2.4-12.22,2.62-18.36.25-6.93,2-13.59,2.59-20.44a127.16,127.16,0,0,1,2-15.71c1.55-7.43,2.09-15.07,3.1-22.61.69-5.09,1.34-10.19,2.22-15.25,1.18-6.8,2.76-13.53,3.84-20.35,2-12.42,3.68-24.87,5.52-37.31a16.41,16.41,0,0,1,.73-3.65c1.65-4.22,1.72-8.64,2.1-13.06a96.54,96.54,0,0,1,2-11,4.13,4.13,0,0,1,.69-1.16,6.14,6.14,0,0,1,.27,1c.1,1.06.17,2.12.21,3.19.66,15.59-1.22,31.17-.34,46.78.14,2.61-.78,5.27-.77,7.9.14,20.37-.29,40.72-.93,61.08s-.69,40.8-.95,61.2C354.64,394,354.71,400.57,354.71,404.07ZM361,253.88h-.15c0-5.15,0-10.3,0-15.44,0-1.42.08-2.84.19-4.26a4.1,4.1,0,0,1,.45-1.13,4.42,4.42,0,0,1,.45.93c.75,3.45,1.7,6.88,2.18,10.37,1.18,8.4,1.94,16.87,3.25,25.26,1.44,9.2,2.91,18.36,3.67,27.67.93,11.46,2.53,22.87,3.93,34.29,1.23,10,2.62,20,3.86,29.95s2.31,19.71,3.52,29.56c.9,7.38,2.32,14.72,2.74,22.12.53,9.55,3.26,18.88,2.56,28.54a42.46,42.46,0,0,0,.53,7.94c.38,3.3.2,3.54-3.29,3.39-7.05-.31-14.09-.57-21.14-.89-7.61-.34-7.14,1.16-7.24-7.31-.19-16.64,1.87-33.23,1.43-49.89-.14-5.63.53-11.27.57-16.9,0-3.71-.62-7.42-.58-11.13.06-5.84.38-11.69.69-17.52.9-16.81-.33-33.66,1.19-50.48.7-7.88.09-15.87.27-23.81C360.26,268,360.69,261,361,253.88ZM41.89,461.72c-5.71-.37-13-.75-20.21-1.35a38.4,38.4,0,0,1-6.7-1.53c-.35-.09-.63-.75-.75-1.21-.05-.17.4-.61.7-.72a12.9,12.9,0,0,1,2.49-.73c2.44-.39,5-.46,7.34-1.09,8.61-2.28,17.45-2.44,26.24-3.32,7.43-.75,14.75,2.06,22.14.18a2.65,2.65,0,0,1,1.56.2A23.41,23.41,0,0,1,77,453.38c-.87.25-1.72.53-2.6.75-.33.08-.72,0-1.06.06-1.49.4-3,.83-4.47,1.26,1.32,1.24,2.58,2.56,4,3.67.47.37,1.38.25,2.08.21,2.12-.11,4.23-.3,6.35-.46a21.85,21.85,0,0,1,3.12-.18c.43,0,.82.58,1.23.89-.32.26-.65.77-1,.75-3.33-.18-6.54.74-9.95.66C64.34,460.74,53.89,461.38,41.89,461.72ZM212.73,115.07c-.5,3.6-.88,6.57-1.33,9.52-.28,1.78-2,3.24-3.61,2.87s-3.52-.95-4.09-2.94a44.8,44.8,0,0,1-1.9-7.63c-.46-4.7-.36-9.45-.77-14.15-.18-2-.65-3.85,1.33-5.21s3.77.16,5.43.85a4.37,4.37,0,0,1,2.09,2.78C211,105.94,211.88,110.78,212.73,115.07Zm126,347v.13c-5.29-.32-10.58-.63-15.86-1a4,4,0,0,1-2.05-.44c-.74-.53-1.74-1.4-1.71-2.09s.95-1.68,1.65-2.36c.3-.28,1-.15,1.54-.16h27.43c1.46,0,2.34.32,2.09,2.13-.23,1.61,1,2,2.33,2.17,2.09.22,4.18.45,6.26.79.44.07.8.59,1.2.91a3.73,3.73,0,0,1-1.29.51C353.14,462.45,345.94,462.23,338.75,462ZM270,159.22c4.46.58,8.3,1,12.1,1.65.9.15,1.66,1.06,2.49,1.62a16.6,16.6,0,0,1-3.11.33c-2.63-.23-5.23-.72-7.86-.92-8-.63-15.88.9-23.62,2.44s-15.49,3.35-22.4,7.5c-3.63,2.18-7.29,4.32-11,6.45a5.5,5.5,0,0,1-1.42.38,4.63,4.63,0,0,1,.67-1.51c6.05-6,13.82-9,21.5-12a53.4,53.4,0,0,1,15.37-3.46C258.69,161.17,264.57,160,270,159.22Zm-72.93-32.47c-.56-.81-1.48-1.56-1.61-2.43a142,142,0,0,1-2-16.23,29.34,29.34,0,0,1,1.85-10.36c.82-2.37,2.75-4.41,4.44-6.38a3.22,3.22,0,0,1,2.85-.75,40,40,0,0,1,5.46,3.12c.17.1.2.47.23.73a.68.68,0,0,1-.46.19,13.54,13.54,0,0,1-3.59-.53c-2-.85-3.53-.38-4.61,1.32-2.09,3.29-4.33,6.7-4.4,10.67-.09,5.78-.79,11.71,2,17.2a10,10,0,0,1,.72,2.55C198,126,197.55,126.27,197.05,126.75Zm21.93-15a40.91,40.91,0,0,1-.47,4.41,29.28,29.28,0,0,1-1.23,3.43c-.27-1.07-.61-2.13-.8-3.21a31,31,0,0,1-.76-5.77,27.07,27.07,0,0,0-3.1-13.7c-1.29-2.47-2-5.24-4.85-6.56-.26-.13-.25-.85-.37-1.3.47-.06,1.09-.35,1.37-.15a20.18,20.18,0,0,1,2.79,2.35C217.43,97.14,217,105.21,219,111.76ZM381.51,472.52l2,.85c-.53.47-1,1.18-1.61,1.38-3.16,1-6.43,1.66-9.52,2.81-4.15,1.53-8.58.07-12.54,1.16-5.09,1.41-9.82-.38-14.7-.29a2.67,2.67,0,0,1-1-.35c.37-.18.75-.53,1.13-.53a182.47,182.47,0,0,0,21-1c3.71-.45,7.29-.88,10.71-2.42C378.46,473.46,380,473.05,381.51,472.52Zm-289-1.42a23.42,23.42,0,0,1,2.61,0,5.08,5.08,0,0,1,1.55.73c-.51.43-1,1.13-1.54,1.23a24.1,24.1,0,0,1-3.71.12c-4.44.08-9-.48-13.27.37-6.1,1.21-12,.31-17.91-.35a4,4,0,0,1-1-.34,4.17,4.17,0,0,1,1-.65c3.48-1.06,7,0,10.49-.12C77.63,471.92,84.52,471.49,92.52,471.1ZM372,467.23c0-.14,0-.27,0-.41-1.95,0-3.9.08-5.84,0-1.59-.09-3.17-.4-4.76-.61,1.68-.45,3.34-1,5.05-1.3a37.11,37.11,0,0,1,4.23-.18c8.06-.43,16.18.56,24.19-1a1.58,1.58,0,0,1,1,.16c.42.27,1,.65,1,1.06a1.41,1.41,0,0,1-.72,1.17,6.41,6.41,0,0,1-2.39.22,27.06,27.06,0,0,0-4-.55C383.81,466.19,377.89,466.74,372,467.23ZM89.88,468.87v.1H87.74c-3,0-6,0-9,0a5.76,5.76,0,0,1-1.39-.41,6.9,6.9,0,0,1,1.42-.64c2.07-.4,4.14-.87,6.23-1.07,4.22-.4,8.46-.68,12.69-.94a49.5,49.5,0,0,1,5.31,0c.43,0,.82.55,1.23.84-.37.49-.65,1.26-1.14,1.42a13,13,0,0,1-3.6.66C96.27,468.93,93.07,468.87,89.88,468.87Zm113-294.63c0-1.79,4.15-4.24,5.76-3.5a21,21,0,0,1,4.06,2.3,2.18,2.18,0,0,1,0,2,11.2,11.2,0,0,0-4.16,3.87c-.38.57-2.4.89-2.63.57A46.82,46.82,0,0,1,202.83,174.24ZM91.47,464.91l0-.23c-2.12,0-4.24.07-6.35,0-.53,0-1-.59-1.53-.91.53-.37,1.05-1,1.61-1.05q7.88-.66,15.77-1.12a25.74,25.74,0,0,1,4.72.27c.33,0,.56.79.84,1.22-.29.18-.56.5-.86.53C100.92,464,96.2,464.47,91.47,464.91Zm253,6.27c-1.09-.14-3-.31-4.89-.68-.55-.1-1-.77-1.5-1.18a9.3,9.3,0,0,1,1.53-.33c2.64-.16,5.37.11,7.9-.48,3.95-.93,7.69-.1,11.5.5a4.77,4.77,0,0,1,1,.36c-.35.19-.68.52-1,.56C354.36,470.35,349.82,470.72,344.44,471.18Zm9.84,3.06a1.41,1.41,0,0,0,0,.2c-1.91-.1-3.83-.19-5.74-.33a12.24,12.24,0,0,1-1.78-.37,13.46,13.46,0,0,1,1.53-.23c3.32-.12,6.64-.24,10-.29a8,8,0,0,1,2,.47,7.6,7.6,0,0,1-1.75.52C357.07,474.29,355.67,474.24,354.28,474.24Zm-42.2-17a3.68,3.68,0,0,1,.89,0c.83.29,1.65.61,2.48.92a11.77,11.77,0,0,1-2.66,1.18,11,11,0,0,1-3.17-.15c-.26,0-.7-.54-.66-.64.2-.42.48-1,.85-1.11A11.46,11.46,0,0,1,312.08,457.22Zm57.48,12,2.29,1.43c-.83.15-1.65.32-2.48.44s-1.37.15-2.06.19-1.56,1.31-1.93-.16c-.07-.28,1.13-1,1.83-1.33A12.43,12.43,0,0,1,369.56,469.21Zm12.91,1a9.35,9.35,0,0,1-1.7,0,7.71,7.71,0,0,1-1.42-.55,5.18,5.18,0,0,1,1.26-.6,31.58,31.58,0,0,1,4.09-.63c.37,0,.79.53,1.18.82-.32.27-.6.71-.95.78A22.7,22.7,0,0,1,382.47,470.17ZM84.19,452.91l1.45.52c-.35.24-.73.7-1.06.67a6.73,6.73,0,0,1-1.77-.6Zm274.73,4c-.5.46-.82,1-1.13,1s-.75-.46-1.12-.72c.27-.32.5-.87.8-.92S358.26,456.63,358.92,457ZM200.11,180.86l-.41,1.07a9.27,9.27,0,0,1-1.54-.78c-.08-.06.23-.65.35-1Zm4.49,29c-.19-.47-.36-.87-.53-1.28.24-.07.57-.27.69-.19a1.52,1.52,0,0,1,.56.81C205.35,209.29,205,209.53,204.6,209.83ZM65,479a5.05,5.05,0,0,1-1.55.58,4,4,0,0,1-1.31-.54,3.79,3.79,0,0,1,1.29-.58A4.86,4.86,0,0,1,65,479Z"/><path class="cls-1" d="M79.83,88.31c-3.55,0-7.11.07-10.67,0-4.31-.11-5.38-.65-6.52-4.79-2.53-9.12-7.91-16.93-11.32-25.63a13.2,13.2,0,0,0-2.6-4,2.52,2.52,0,0,0-4,.84,16.86,16.86,0,0,0-1,3.05c-1.37,5.68-2.7,11.37-4.07,17-1,4.12-2.12,8.2-3,12.34-.47,2.23-1.41,3.47-3.88,3.34-5-.26-9.93-.38-14.89-.61-3.55-.17-7.11-.65-10.64-.52A12.07,12.07,0,0,0,1.88,91.2c-2.24,1.35-2.44,3.86-.81,6a5.5,5.5,0,0,0,1.15,1.11C8.53,102.81,13.84,108.7,21,112.08a63.85,63.85,0,0,1,7.27,4.43c1.31.85,1.57,1.92,1.12,3.62-1.76,6.66-3.19,13.41-4.84,20.1-.85,3.42-1.92,6.79-2.89,10.18A12.48,12.48,0,0,0,21,153c-.14,2.84,2.24,4.38,4.59,2.77a76.59,76.59,0,0,0,7.8-6.37q8.25-7.41,16.33-15c1.53-1.45,2.75-1.1,4.21-.06,4.76,3.4,9.5,6.81,14.33,10.1,3.67,2.49,7.46,4.79,11.19,7.17a6.38,6.38,0,0,0,1.38.79c2.23.71,4.07-1,3.37-3.17-2.39-7.57-4.87-15.1-7.36-22.63-1-3.18-2.46-6.25-3.21-9.49a7.86,7.86,0,0,1,.75-5.05,11.09,11.09,0,0,1,3.93-4.25C84.8,104,90.16,98.8,95.71,93.87c.39-.36,1.08-.58,1.21-1,.4-1.26,1-2.68.77-3.87-.35-1.66-2-1.64-3.52-1.52-4.77.4-9.54.75-14.31,1.12Zm2.16,2c2.16.31,4.78.65,7.4,1.08,1.11.18,2.19.54,3.29.81a20.27,20.27,0,0,1-2.45,2.61c-3.93,3-8,5.8-11.86,8.94a120.22,120.22,0,0,0-8.86,8.34c-1.53,1.55-1.51,3.31-.41,5.34a49.76,49.76,0,0,1,3.55,8.21c2,6.21,3.9,12.5,5.76,18.78a8.56,8.56,0,0,1,0,2.37,6.34,6.34,0,0,1-2.43-.46c-2.45-1.75-4.66-3.85-7.19-5.49-4.75-3.08-9.43-6.19-13.24-10.47-2-2.21-3.17-2.14-5.34-.14-3,2.76-5.82,5.67-8.9,8.31-3.36,2.87-6.92,5.49-10.38,8.23A35.42,35.42,0,0,1,28,149a1.68,1.68,0,0,1-1.49-.11,1.47,1.47,0,0,1-.28-1.32c1.46-5.11,3.21-10.15,4.43-15.31,1.09-4.62,1.69-9.36,2.33-14.07.37-2.75-.91-4.69-3.45-6a38.58,38.58,0,0,1-5.84-3.61c-5.25-3.91-10.42-7.92-15.59-11.93a10.41,10.41,0,0,1-1.35-1.53,6.2,6.2,0,0,1,1.86-.63c3.91,0,7.87-.25,11.71.31,4.66.68,9.52-.83,14,1.67,1.77,1,3.42-.39,4-2.42,1.16-4.28,2.21-8.58,3.4-12.85q2.37-8.44,4.93-16.83a2,2,0,0,1,1.4-1.26,2,2,0,0,1,1.52,1.1c1.26,4.69,3.66,8.8,6.19,12.87.53.84.47,2,.85,3,1.32,3.28,2.54,6.6,4.13,9.74,1,2,2.88,2.69,5.4,2.28C71.23,91.3,76.37,90.91,82,90.27Z"/><path class="cls-1" d="M348,115.16c0,2.83,0,5.67,0,8.5a5.71,5.71,0,0,0,.42,2.59c2.95,5.44,5.57,11.09,9.89,15.66,3.32,3.52,7.71,4.87,12.2,6,3.07.8,6.15,1.59,9.23,2.33,1.53.36,3.2,1.11,4.62.8,4.12-.89,8.65-1.42,12.1-3.57,7.89-4.93,14-11.48,17.43-20.64a40.93,40.93,0,0,0,2.42-17.66,19.93,19.93,0,0,0-3.67-10.34c-6-8.59-14.37-14-23.65-18.32a11,11,0,0,0-3.07-.76c-1.05-.15-2.14,0-3.19-.18-9.1-1.35-16.63,3-23.76,7.39-6.8,4.19-10.14,11.21-11,19.15a82.35,82.35,0,0,0-.06,9ZM379.25,84.8A54.12,54.12,0,0,1,386,85.9a48.67,48.67,0,0,1,19.22,10.8,13.22,13.22,0,0,1,4.67,8.73c.49,6.28,1.49,12.38-.62,18.84-3,9.28-8.41,15.07-17.51,18.9C379,148.55,359.44,141.46,353.2,125a15.21,15.21,0,0,1-.62-3.1c-.6-3.82-.4-7.74-.76-11.51-.7-7.3,3.06-12.48,6.64-17.88A9.62,9.62,0,0,1,366,88.26a12.33,12.33,0,0,0,4.49-1.49A14.76,14.76,0,0,1,379.25,84.8Z"/><path class="cls-1" d="M204.2,0a33.66,33.66,0,0,0-14.82,2.91C187,4,185,5.44,184.26,8a3.6,3.6,0,0,0,.62,2.8c.36.45,1.63.36,2.43.2.64-.12,1.18-.74,1.79-1.09A20.15,20.15,0,0,1,206,8.12c3.62,1.15,5.62,4.23,7.81,6.74a23.2,23.2,0,0,1,4.55,9.46A81.47,81.47,0,0,1,220.11,38a24,24,0,0,1-3.24,13.26A25.16,25.16,0,0,0,214.81,55c-3.18,9.41-19.17,14.06-27.29,9.05a5.42,5.42,0,0,0-1.88-1,25.68,25.68,0,0,0-3.51,0,24.81,24.81,0,0,0,1.11,3.28c2.81,5.6,8.35,5.92,13.55,6.81,2.8.47,5.62.88,8.44,1.07a24,24,0,0,0,13.85-2.69c2.47-1.39,5.07-2.53,7.59-3.84a12,12,0,0,0,5.39-4.94c1.6-2.93,3.62-5.62,5.3-8.51,3.38-5.83,4.2-12.39,4.86-18.9.23-2.2-.45-4.55-1-6.75-3.06-11.57-9.49-20.2-21-24.77C214.86,1.74,209.64-.1,204.2,0Zm1.62,71.32c-5-.44-9.39-.78-13.78-1.27-.54-.06-1-.87-1.5-1.33a5.14,5.14,0,0,1,1.76-.56c1,.08,2.07.51,3.12.62,6.72.72,12.7-.66,17.2-6.15a12.4,12.4,0,0,1,1.8-1.95c3.66-2.83,5.62-6.69,7.18-10.93A43.23,43.23,0,0,0,224,32c-.6-10.16-3.64-18.87-12.6-24.7A1.34,1.34,0,0,1,211,6.07a1.75,1.75,0,0,1,1.23-.82,4.48,4.48,0,0,1,2,.45,81.61,81.61,0,0,1,8.05,4,26,26,0,0,1,6.18,4.86c4.21,4.91,6.68,10.83,8.8,16.87a9.55,9.55,0,0,1,.72,4.14,112.75,112.75,0,0,1-2.31,13.59,22.66,22.66,0,0,1-3.79,8.14C225.2,66,216.4,70.93,205.82,71.34Z"/><path class="cls-1" d="M118,56.35c0-2.74-2.46-5.4-4.85-5.35-1.92,0-4.12,2.64-4.09,4.81s2.76,4.61,5,4.61A3.84,3.84,0,0,0,118,56.35Z"/><path class="cls-1" d="M140.94,47.44c0-2.55-1.45-4.4-3.53-4.37-2.87,0-5.34,2.36-5.22,4.9.1,2.21,2.79,5,4.74,5S140.89,50.21,140.94,47.44Z"/><path class="cls-1" d="M282.71,46.9c-.68.39-2.85.93-3.65,2.29-1.2,2,.89,3.46,2.28,4.76s2.93,2,4.78,1.08a4.73,4.73,0,0,0,2.12-5C287.7,48.07,286.22,47,282.71,46.9Z"/><path class="cls-1" d="M307.37,55.55c-2,.09-3.9,2.52-3.82,4.83.05,1.56,2.24,3.85,3.71,3.9,2.26.08,4.76-2.89,4.6-5.46C311.73,56.63,310.08,55.43,307.37,55.55Z"/><path class="cls-1" d="M351.37,84.14c0-2-2.46-4.38-4.49-4.35a4.38,4.38,0,0,0-4.13,4.54c0,2.25,1.58,3.77,4.05,3.9A4.65,4.65,0,0,0,351.37,84.14Z"/><path class="cls-1" d="M254.89,46.82c3.06,0,4.24-.89,4.33-3.4.1-2.89-1.39-4.67-3.87-4.63a4.33,4.33,0,0,0-4.44,4.79C251,45.76,252.24,46.79,254.89,46.82Z"/><path class="cls-1" d="M183.38,43a3.24,3.24,0,0,0,3.47-3.6A4.6,4.6,0,0,0,182.48,35a4.25,4.25,0,0,0-3.92,4.15C178.53,41.12,180.93,43,183.38,43Z"/><path class="cls-1" d="M98,65.69a4.1,4.1,0,0,0-4.09-4,3.55,3.55,0,0,0-3.5,3.82c.07,2,2,4.3,3.86,4.5S98,67.9,98,65.69Z"/><path class="cls-1" d="M78.78,75.34c0-2-1.71-3.28-4.1-3.25-2.06,0-4,2.32-4,4.82,0,1.65,2.11,3.07,4.35,2.89A4.45,4.45,0,0,0,78.78,75.34Z"/><path class="cls-1" d="M160.83,46.18a3.4,3.4,0,0,0,2.9-3.74,4.62,4.62,0,0,0-4.44-4.35,3,3,0,0,0-3.21,3.38A5.07,5.07,0,0,0,160.83,46.18Z"/><path class="cls-1" d="M328.4,67.14c-1.75,0-4.53,2.16-4.51,3.58a4.39,4.39,0,0,0,4.22,4.43c1.94,0,3.48-1.93,3.45-4.42A3.73,3.73,0,0,0,328.4,67.14Z"/><path class="cls-1" d="M210.45,38.07c.09-1.79-1.58-3.42-3.78-3.68a3.76,3.76,0,0,0-4,3.32c-.21,2.1,1.24,3.49,3.64,3.49S210.36,39.89,210.45,38.07Z"/><path class="cls-1" d="M60,355.42c0,9.23-.08,18.46.07,27.69,0,2.11.89,4.21,1.37,6.32a29.82,29.82,0,0,0,1.1-5.68c.07-7.81,0-15.62-.15-23.43-.07-5.66-.33-11.33-.35-17,0-12.57,0-25.14.08-37.71,0-4.94.59-9.86.7-14.8a21.21,21.21,0,0,0-.88-5.18,1.37,1.37,0,0,0-1.13-.76,1.48,1.48,0,0,0-1,1,85,85,0,0,0-.72,10.55c.27,7.43.75,14.82-.09,22.29-.49,4.35.37,8.83.42,13.26.09,7.81,0,15.62,0,23.43Z"/><path class="cls-1" d="M62.66,395.15c-1-.19-1.77-.58-2.2-.34s-.34,1.16-.48,1.78a6.15,6.15,0,0,0,1.86,0C62.14,396.55,62.28,395.89,62.66,395.15Z"/><path class="cls-1" d="M61.48,454.31c-.86,1-1.68,1.58-1.74,2.19-.16,1.75,1.28,1.9,2.48,1.75.63-.07,1.17-.84,1.75-1.3Z"/><path class="cls-1" d="M382.57,119.14c2.44-.06,4.51-1.73,4.53-3.65s-2.65-4.25-4.79-4.34-4.36,2.3-4.29,4.55C378.09,117.74,380,119.21,382.57,119.14Z"/></g></g></svg>