<svg xmlns="http://www.w3.org/2000/svg" viewBox="0 0 69.71 52.21"><defs><style>.cls-1{fill-rule:evenodd;}</style></defs><title>资源 1</title><g id="图层_2" data-name="图层 2"><g id="Layer_1" data-name="Layer 1"><path class="cls-1" d="M25.16,30.17a13.7,13.7,0,0,1,.15-10.35,15,15,0,0,1,6.25-7.35l-2.65.85a11.44,11.44,0,0,0-6.55,6.15,15.53,15.53,0,0,0-.8,11.45,5.85,5.85,0,0,0,.6,1.45,10.22,10.22,0,0,0,1.85,3c1-.34,1.93-.64,2.9-.9A16.57,16.57,0,0,1,25.16,30.17ZM11.26.07a33.08,33.08,0,0,1,8.15,4.4L28,11A16.14,16.14,0,0,1,38.16,9.72a17.76,17.76,0,0,1,9.5,4.3.69.69,0,0,1,.25.3l9.4-2.45a28.81,28.81,0,0,1,9.2-1q5,1.44,2.15,5.35a40.46,40.46,0,0,1-3.6,3.65,67.69,67.69,0,0,1-9.65,6.35,28.05,28.05,0,0,0-2.5,1.3A2.18,2.18,0,0,0,53,28a18.77,18.77,0,0,1-1.1,5.2,2.59,2.59,0,0,0-.2.75c1,1.13,2,2.26,3.05,3.4q10.59,12,7,14.6a5.3,5.3,0,0,1-2.4.25q-5-.86-10.85-5.15-3.51-2.61-6.55-4.9a20,20,0,0,1-9.1.8,22.78,22.78,0,0,1-5.75-1.65,16.4,16.4,0,0,1-4.3-3.15c-2.6.73-5.39,1.48-8.35,2.25q-7.11,1.74-11.95.75A5.32,5.32,0,0,1,.36,40q-2.46-3.81,12-11c1.86-.94,3.76-1.85,5.7-2.75V25.27a15.33,15.33,0,0,1,.6-3.55c-.94-1.07-1.84-2.15-2.7-3.25Q10.7,12,9.26,9a30.81,30.81,0,0,1-2-4.7Q6-.53,11.26.07Zm-.55,2.05c-.77.1-1.19.48-1.25,1.15q-.71,2.29,5.65,10.55,2.45,3,4.4,5.45a17.78,17.78,0,0,1,4.85-5.85,12.72,12.72,0,0,1,1.35-1.1Q15.21,3.47,10.71,2.12Zm-5.3,37a49.89,49.89,0,0,0,14.3-2.4c.46-.14.95-.27,1.45-.4a21.72,21.72,0,0,1-1.7-3A14.34,14.34,0,0,1,18.11,28a78.12,78.12,0,0,0-10.7,5.6q-5.16,3.24-4.6,5.1A9.6,9.6,0,0,0,5.41,39.07Zm60.9-26.15q-4.56-.51-16.7,3.45a18.81,18.81,0,0,1,2.5,4.7,32.23,32.23,0,0,1,.8,3.8q2.19-1.2,5-2.75,8.85-5.31,9.15-7.65A1.3,1.3,0,0,0,66.31,12.92ZM49.66,22.37c-.17-.37-.35-.74-.55-1.1q-3.86-6.81-8.75-8.2c-.74,0-1.44,0-2.1,0a11,11,0,0,0-9,4.4,12.45,12.45,0,0,0-2.55,9.55,13.84,13.84,0,0,0,3.2,6.2l.05.1c1-.37,2-.7,3-1q6.69-2.25,11.15-3.6a11.89,11.89,0,0,0-.25-4.3q-.7-2.36-4-3.8-4.35-1.86-5.6,1.25a3.86,3.86,0,0,0,1.2,4.9q2.4,1.84,3-1.55c-1.4.7-2.1.41-2.1-.85s.58-1.8,1.75-1.6c2.56.9,3.68,2.11,3.35,3.65a3.93,3.93,0,0,1-.75,1.6q-2.25,3.34-6.5,1.2a.53.53,0,0,0-.25-.2q-4.45-2.36-1.9-7.8,2-4.71,7.4-3.35,6.2,1.89,6.85,5.5a14.87,14.87,0,0,1,0,4.65c1.23-.54,2.63-1.2,4.2-2A15.49,15.49,0,0,0,49.66,22.37ZM45.56,31a9.83,9.83,0,0,1-6.9,6.6,13.11,13.11,0,0,1-8.5-.85,3.13,3.13,0,0,0-.65-.2,4.61,4.61,0,0,0-1.4.2,6.41,6.41,0,0,0-1.95.45A15.49,15.49,0,0,0,29.46,39a16.37,16.37,0,0,0,2.65.8,16.72,16.72,0,0,0,11.45-1.3,11.17,11.17,0,0,0,4.7-4,13.62,13.62,0,0,0,1.05-2,17.67,17.67,0,0,0,1.1-3.65l-3.25,1.5-1.5.6Zm-1.2,10.1c.16.16.35.33.55.5a50.46,50.46,0,0,0,12.35,7.55,13.62,13.62,0,0,0,2.7.55q1-1.41-2.45-6.4a83.88,83.88,0,0,0-6.65-8,14.22,14.22,0,0,1-4.6,4.7C45.59,40.43,45,40.78,44.36,41.12Zm-5.2-6a4.31,4.31,0,0,0,2.45-1.3,19.49,19.49,0,0,0,1.75-1.95,16.94,16.94,0,0,0-2.15.7L33.71,35c.7.4,2.11.53,4.25.4Z"/></g></g></svg>