<svg xmlns="http://www.w3.org/2000/svg" viewBox="0 0 1508.68 1081.87"><defs><style>.cls-1,.cls-2{fill:#fff;}.cls-2,.cls-3{fill-rule:evenodd;}</style></defs><title>l3witch</title><g id="图层_2" data-name="图层 2"><g id="央铋_1" data-name="央铋 1"><path class="cls-1" d="M699.7,939.79C465.5,939.79,275,749.23,275,515S465.5,90.28,699.7,90.28,1124.45,280.84,1124.45,515,933.91,939.79,699.7,939.79Z"/><path d="M699.7,93.52c232.78,0,421.5,188.72,421.5,421.51S932.48,936.52,699.7,936.52,278.2,747.83,278.2,515,466.91,93.52,699.7,93.52m0-6.5c-236,0-428,192-428,428s192,428,428,428,428-192,428-428-192-428-428-428Z"/><path class="cls-1" d="M726.34,1081.87a12.67,12.67,0,0,1-6.71-23.41c6.38-4,16.39-12.86,19.5-30.54a16.33,16.33,0,0,1-4.49-5.22,1.65,1.65,0,0,1-.23-.46,3.09,3.09,0,0,1-.51,0,9.72,9.72,0,0,1-9.27-6.93,19.59,19.59,0,0,1-.81-5.24c-4.37-1.13-8.52-3.89-9.78-8.56a10.71,10.71,0,0,1,1-7.8,26.74,26.74,0,0,1,4.1-5.39,17.47,17.47,0,0,1-4-7.3c-1.53-5.71,1.39-12.72,10-15a22,22,0,0,1,5-.72,7.88,7.88,0,0,1,3.13-3.55,15.74,15.74,0,0,1,4.38-1.65.72.72,0,0,1,.27-.07c-4.56-26.82-36.35-94.49-70.64-134.32a239.47,239.47,0,0,0,10,31.56c.78,2,2.15,3.13,4.68,5.1,8.73,6.87,15.48,14.71,9.42,41.55-1.07,4.74.7,13.77,2.67,16.06a9.78,9.78,0,0,1-4,15.56c-1.55.62-3.1,1.16-4.71,1.74-1.22.46-2.48.89-3.81,1.39a12.66,12.66,0,0,1-17-9.95c-.13.43-.28.89-.43,1.33-2.82,8.59-6,18.37-14.35,24.83-14.56,11.33-43.6,13.7-65.42,13.7-.16,0-16,0-18.76-.9-.29-.11-.93-.36-1.22-.51A12.46,12.46,0,0,1,557,954.6a12.62,12.62,0,0,1,9.71-11.26c6.48-1.54,16.94-5.85,25.21-17.86-3.58-2.22-5.59-6.39-5.59-11.67v-.48a9.63,9.63,0,0,1-5.14-10.88,20.61,20.61,0,0,1,1.81-4.93c-3.39-3.19-5.47-7.72-4.36-12.18a10.48,10.48,0,0,1,4.66-6.36,25,25,0,0,1,6.16-2.73,17.79,17.79,0,0,1,.07-8.27,11.86,11.86,0,0,1,11.84-8.85,18.26,18.26,0,0,1,4,.51,7.65,7.65,0,0,1,5-3.59,22.33,22.33,0,0,1,4.29-.33h.54c-4-15.77-10.49-27.38-22.32-40.14a223.2,223.2,0,0,0-29.07,14.77,19.69,19.69,0,0,1-10.07,3c-4,0-9.8-1.41-14.89-8.17-16.74-22.17-15.23-87,3.23-156.16l-103-21.74C321.46,622.43,219.87,601,216.51,600.33c-5.48-1.05-9.6-3.66-12.25-7.7-3.89-5.93-3.13-12.47-1.89-18.11a41.55,41.55,0,0,1,2.62-8.95,15.3,15.3,0,0,1,14.25-9,30.78,30.78,0,0,1,5.23.58c4.66.75,58.87,12.12,170.66,35.69l.62-.22a18.74,18.74,0,0,1,5.66-3.15,10.24,10.24,0,0,1-.79-.83c-9.36-.33-14.13-3.5-14.2-9.39-.07-7.62,7.23-8.91,14.95-10.24a33.51,33.51,0,0,1,5.77-.57h.27a38.47,38.47,0,0,1,9.38-1.2h1c17.66,0,27.62,4,34.34,13.63,1.78,2.58,7.56,5.32,16.05,5.32l17.47-.18c4.47-.72,9.46-1.8,13.46-4.38a299.66,299.66,0,0,0,83.8-81.74c-.76-1-1.5-2-2.25-3.08-13.36-18.3-26-35.58-43-43.1-1.65-.14-3.19-.25-4.75-.25a19.45,19.45,0,0,0-9.71,2.27c-7.21,3.87-10,13.26-12.38,21.48-1.89,6.44-3.54,12.08-7.63,15.32a14.39,14.39,0,0,1-1.87,3.34c-3.71,4.82-7.44,7.22-11.15,7.22a8.4,8.4,0,0,1-5.18-1.76c-5.47-4.13-3.45-12.9-1.57-17a19.09,19.09,0,0,1,1.21-2.23,46.45,46.45,0,0,1,.92-4.93c-.37.51-.78,1-1.17,1.55a13.52,13.52,0,0,0-.82,1.69c-1.13,2.45-2.81,6.11-6.76,8.49a19.71,19.71,0,0,1-1.26,2.29c-5.66,8.81-9.63,9.93-12.47,9.93a8.51,8.51,0,0,1-4.46-1.3c-6.33-4-3.74-13.55-2.26-17.61a7.86,7.86,0,0,1,.89-4.67c2.09-3.88,5.11-11.07,5.22-15,.14-4.31,3.06-7,7.49-11a3.41,3.41,0,0,1,.43-.41,29.13,29.13,0,0,0-6,5.75c-.56.69-1.13,1.48-1.71,2.27-2.16,2.95-4.36,6-7.54,7.73-2.55,1.36-5.4,2.87-8.74,2.87a5.94,5.94,0,0,1-.72,0c-4.59,3.59-7.19,3.59-8.32,3.59a8.27,8.27,0,0,1-5.88-2.37c-5.44-5.36-1.11-11.5,3.46-18a35.38,35.38,0,0,1,2.9-3.7,19.66,19.66,0,0,1,3.5-5.39c-.37-.11-.72-.21-1.09-.36-2.85,1.41-6.35,2.73-9.25,2.73a8.5,8.5,0,0,1-7.63-4.34c-3.64-6.76,2.2-11.29,8.38-16.11a33.73,33.73,0,0,1,5.05-3.3,36,36,0,0,1,7.79-5.47c10-5.39,17.55-7.8,24.41-7.8a27.76,27.76,0,0,1,13.18,3.35,9.12,9.12,0,0,0,4.13.79,28.39,28.39,0,0,0,12.83-3.74l6.63-3.59c3.25-1.8,7-3.85,11.65-6.33A32.55,32.55,0,0,1,529.2,396a25.73,25.73,0,0,1,5.91-.75,22.6,22.6,0,0,1,12.24,3.37l.58.41s4.93,3.8,5.06,3.87L592,433c1.39.9,3.18,1.94,5.23,3.12,1.51.87,3.15,1.81,4.87,2.85-2.86-10.75-5.46-23.33-5.55-33.83-.09-9,.59-29.33,7.53-45.1-9,6.9-19.31,13.37-26.42,14.49a40.06,40.06,0,0,1-6.16.53c-14,0-16.7-9.85-17.16-12.87a13.11,13.11,0,0,1,1.7-8.34s0-.06,0-.1c-.52-2-1.62-3.16-3.19-4.78-1.92-1.94-4.58-4.64-5.24-8.95a11.41,11.41,0,0,1,.27-4.89,11.78,11.78,0,0,1-3.23-6.54s0-.11,0-.14a15.84,15.84,0,0,1-6.7,1.76c-4.07,0-9.19-2.48-10.31-9.49,0-.32-.06-.61-.09-.9a42.48,42.48,0,0,1,.71-9.45,11,11,0,0,1-.63-6.18,10.08,10.08,0,0,1,4.62-6.72c1.81-4.32,4-8.41,5.93-12.19-.09-.15-.2-.29-.29-.43a29,29,0,0,1-4.65-12.29,3,3,0,0,0-.06-.4,12.8,12.8,0,0,1-6.36-2,7.83,7.83,0,0,1-3.72-7,11.72,11.72,0,0,1-2.28-1.93,12,12,0,0,1-3-9.28,7.85,7.85,0,0,1,5.84-6.82c.07,0,.16,0,.23,0,.06-.47.1-1,.17-1.44-2.12-.5-4.21-.93-6.28-1.33a.79.79,0,0,0-.32-.07,15.73,15.73,0,0,1-9.78-6.83,14.81,14.81,0,0,1-2-11.25c.83-3.77,4-10.06,16.29-10.06a66.87,66.87,0,0,1,12.42,1.4c.55,0,1.11,0,1.69,0a53.39,53.39,0,0,0,40.07-18.16L705.92,6.11A13.92,13.92,0,0,1,717.42,0a13.37,13.37,0,0,1,5.43,1.12A13.91,13.91,0,0,1,731,16.75L681.46,254c-.09,2,.67,6.5,7.59,12a31.07,31.07,0,0,1,3,2.52q5,2.53,9.76,5.14a48.37,48.37,0,0,1,15.83-2.87c10.19,0,18.79,4.06,24.85,11.67a7.91,7.91,0,0,1,1.69,4.89q2.05,1.62,4,3.45a7.76,7.76,0,0,1,2,3l2.37.72c4.93,1.41,9.61,4,14.16,6.47,5.21,2.87,10.59,5.82,14.43,5.82,1.13,0,3.49,0,6.63-4.82a7.91,7.91,0,0,1,6.56-3.56c.38,0,.76.05,1.13.08a7.84,7.84,0,0,1,6.36,5.54,20.07,20.07,0,0,1,.67,8,18.71,18.71,0,0,1,7.22-1.54,17.91,17.91,0,0,1,13.15,6,7.77,7.77,0,0,1,1.2,9.23,7.55,7.55,0,0,1-2.86,2.91,18,18,0,0,1,6.61,5.75,16.51,16.51,0,0,1,1.85,15.42c0,.07-.07.18-.11.25,12.58.29,24.52,4.25,36.07,8.09,10.51,3.45,20.43,6.76,30.77,7.52,14.08,1,30.76,2.33,47.51,4.38C967.73,373,987.74,382,1003.3,396.9c24,23.08,53.67,48.63,91,63.4a7.81,7.81,0,0,1-1.71,15,164.57,164.57,0,0,1-17.22,1.9,7.82,7.82,0,0,1-1.86,12.29c-3.39,1.84-7.55,2.77-12.72,2.77a94,94,0,0,1-10.83-.86,65.9,65.9,0,0,0-7.17-.61,8.32,8.32,0,0,0-1.55.1,8.09,8.09,0,0,0-2.72,2.12c4.09,6.94,3.94,15-.37,22.76-6.39,11.46-21.55,21.17-33.11,21.17-7.17,0-12.52-3.78-14.29-10.07-11.29-40.11-55.45-51.76-98.17-63-22.64-6-44.29-11.71-60.29-21.64,0,1.15.11,2.38.2,3.7,2.25,12.23,4.91,22.46,6.11,25,6.72,14.56,21.05,17,45.79,20.16,10.06,1.3,20.49,2.63,31.31,5.36,25.3,6.44,44,18.73,58.94,38.75,12.79,17.14,19,36.62,19,59.51,0,17.72-4,39.14-8,59.92-4.15,22-11.08,58.73-3.33,61.25l.94.21a69.56,69.56,0,0,1,11.18,2.27l17.12,3.48c9,1.83,18.08,3.66,26.85,5.46l26.2,5.31,26.54,5.44a26.38,26.38,0,0,1,21.19-10.29,34.92,34.92,0,0,1,6.85.72c5.82,1,10.43,3.81,14.12,6.08,3.17,1.94,5.22,3.16,7,3.16s3.83-1,6.49-3c9.17-8.8,20.49-13.23,33.67-13.23,18,0,36.69,8.21,53.13,15.42,11.88,5.25,23.11,10.21,30.28,10.18a9.68,9.68,0,0,0,2.42-.25,84.19,84.19,0,0,1,13.16-1.84c2.33-.18,4.71-.36,7.11-.72a68.4,68.4,0,0,1,11.13-.89,72.76,72.76,0,0,1,29,6A45,45,0,0,1,1345,763.11c2.33,3.23,4.56,4.49,8.59,6.71,1.19.65,2.46,1.33,3.79,2.16,11.69,6.87,24.7,15.24,31.63,27.5,2.11-1.05,3.82-1.84,6-1.84a8.19,8.19,0,0,1,5.15,1.91c.69-.4,1.35-.86,2-1.3a7.81,7.81,0,0,1,11.45,9.78c-.4.9-.85,1.72-1.29,2.55a86.5,86.5,0,0,0,32.63-19.66,7.8,7.8,0,0,1,5.4-2.2,7.7,7.7,0,0,1,3.39.8,7.81,7.81,0,0,1,4.4,7.73,55.12,55.12,0,0,1-7,22.57,7.85,7.85,0,0,1,2.84,7.54c-3.54,19.31-14.31,31.17-27,38.4a7.82,7.82,0,0,1,3.62,12.82c-6.18,6.69-15,12-24.86,15.31,0,.22,0,.44,0,.61a7.79,7.79,0,0,1-3.92,6.87c-15.71,9-32,13.55-48.53,13.55-22.28,0-43.11-8.23-61.62-19.31a28,28,0,0,1-9,1.48c-21.19,0-38.19-23.61-44.52-33.74-4.78-7.63-11.87-10.61-25.38-10.61-3.32,0-6.8.18-10.18.36q-3.75.17-7.33.29c-.69,0-1.35,0-2,0-40.65,0-63.13-30.08-67-58.29a32.42,32.42,0,0,0-4.14,1.33c-2.82,1-5.71,2.12-8.77,2.12h-.46c-11.2-.4-20.43-7.05-25.41-18.08-5.7-1.18-11.38-2.41-17-3.56l-1.12-.25c-10.22-2.16-20.77-4.38-31.13-6.47-4-.83-8-1.61-12.08-2.44,12.78,7,23.67,15.49,21.18,25.94-1.76,7.48-9.34,16.07-52.65,16.07-10.2,0-21.46-.5-33.44-1.43l-1.76-.11c-4.91.21-7.32.83-8.39,1.25a48,48,0,0,0,3.14,7.12c3.56,7.08,8.43,16.75,3,25.52s-18.22,12.43-43,12.43l-3.07,0c-8.12,0-18.87,1.8-30,15.88-12.43,16.93-27.17,32.79-49.69,32.79-14.84,0-31.61-7.19-50.9-22,1.66,23.21,4.35,46.14,16.26,60.34,1.38,1.65,3,2.3,6.07,3.34,10.45,3.71,19.34,9,22.17,36.41.51,4.85,5.06,12.79,7.67,14.34a9.91,9.91,0,0,1,4.75,7.69,9.72,9.72,0,0,1-3.52,8.3c-1.39,1.15-2.73,2.23-4.11,3.32-1,.78-2,1.57-3.08,2.43a12.58,12.58,0,0,1-7.93,2.81,12.83,12.83,0,0,1-3.32-.44,12.51,12.51,0,0,1-8-6.43v1.41c.1,9.06.19,19.29-5.66,28.14C786,1067.13,728.71,1081.87,726.34,1081.87ZM556.69,627c12.91-17.62,44.94-24.23,78.69-31.17,17.37-3.59,35.32-7.29,49.35-12.44,21.55-7.86,38.48-25.91,46.35-35.5-9-5.79-25.66-15.6-40.54-20.24-.09,1-.15,1.91-.18,2.88,2.3,7.69.43,12.72-1.6,15.67-4.3,6.11-11.64,6.65-13.78,6.65l-.43,0c-2.75.18-11.16.68-18,.68-5.7,0-8-.36-9.31-.68a74,74,0,0,1-12.43-4.06c-27.07,25-54.64,41.19-77,54.27-11,6.43-20.86,12.17-29,18Z"/><path d="M1450.29,796.56c-31.82,30.49-70.09,26-70.09,26s19-2.24,26.26-17.83c-20.57,13.8-41.19,13.37-61.58,7.84-1.61-.48-3.21-.91-4.79-1.33-2.79-1-5.39-2.56-5.54-4.89-1.24-19.13,44.91,18.82,60.22-.22,0,0,0,0,.14-.14s.13-.18.07-.11c1-1.51-3.88,1.4-5.25,1.76-3.48.83-6.61-.14-9.52-2-7-4.38-13.13-10-20.18-14.34,7.73,3.31,16,6.79,22.41,12.44-6-11-18.56-18.91-29.07-25.09-6.21-3.66-10.57-5.21-14.65-10.88a37.34,37.34,0,0,0-15-11.29,64.14,64.14,0,0,0-35.92-4.53c-6.72.93-13.14.79-19.46,2.37-24.62,6.15-81.48-47.87-116.34-13.73,0,0,0,0,0,0-15.92,12.21-20.83-2.34-34.23-4.56-11.23-2.34-18.78,2.76-22.79,10.63-10.62-2.19-21.35-4.39-31.75-6.47-4.42-.94-8.84-1.79-13.25-2.7s-8.62-1.76-13-2.66c-8.79-1.79-17.9-3.62-26.87-5.46l-13.21-2.69-4.29-.86A68,68,0,0,0,982,723.74c-.5-.1-1-.21-1.47-.28-23.83-6.33,5.36-82.92,5.36-128.78,0-19-4.63-37.59-17.49-54.84-16.12-21.64-35.46-31-54.6-35.84-35.2-8.92-69.71-2.66-82.27-29.79-1.76-3.81-4.59-15.45-6.77-27.35-.63-9.38-.79-17.11.9-19.78,36.89,37.71,152.1,24.7,172.64,97.66,4,14.31,44.89-9.45,33.35-28-3.16-5.07.85-10.17,6.42-12.95,6-3,23,3.68,31.7-1.14-5.09-4.53-19.81-17.9-23.45-21.1,13.57,10.25,29.18,8.44,45.14,6-36.43-14.37-65.8-38.38-93.59-65-15.09-14.49-34.18-22.21-55-24.73-15.67-1.91-31.41-3.19-47.16-4.35-25.72-1.9-48.57-17.9-73.25-15.31a42,42,0,0,1-16-1.4c.82-2.51,1.54-5.14,2.42-7.66,2.77-8,9.83-12,13.4-2,3.81-10.39-10.83-17.4-17.39-9-.84-8,2.25-18.41,12.29-16.18-7.35-7.66-16-1.58-21.09,5.21-3.78,5-22,19.16-41.6-.43,25.36,11.43,43.41-8.13,39.78-20.45-12.52,19.23-29.32-.07-43.92-4.24-9.44-2.69-17.34-6.75-27.42-7.37-7.74-.47-15.42.4-23.13.86,12.2-9.41,30.23-4.88,43,1-8.6-8.08-19.47-13.15-31.51-12.61,8.79-3.16,17.64-2.44,25.05,3.45-9-11.36-23.26-10.06-35.28-5a5.13,5.13,0,0,0-1-.65q-6.25-3.51-12.67-6.75a35.32,35.32,0,0,0-3.18-2.81c-10-7.94-10.87-15.46-10.52-19.19L723.37,15.13a6.07,6.07,0,0,0-11-4.63l-122,179.84v0s0,0,0,.08l-8,11.82a61.28,61.28,0,0,1-48.87,21.14c-11.17-2.23-19.15-2-20.16,2.55a7.45,7.45,0,0,0,5.9,8.73.19.19,0,0,0,.14,0c5.55,1.11,11.06,2.41,16.51,3.78a13.8,13.8,0,0,0-1.38,1.07c-3.23,2.84-2.73,6.86-3,10.75s-3,6.58-5.84,2.48c-.5,5.14,7,6.58,8.93,2,1.35,3.52,1.19,8.59-3.61,8.77,4.22,2.59,7.42-1.18,8.92-4.85a11.24,11.24,0,0,1,2.17-3.19,34.47,34.47,0,0,0-1,15.84c1.35,8.59,4.65,9.34,5.26,13.3a5,5,0,0,1-.53,3.2,126.82,126.82,0,0,0-7.51,15.88,2,2,0,0,0-.48,0c-3.24.41-2.89,4.1-1.1,5.07a37,37,0,0,0-1.23,10.79c1.11,7,8.82-.86,13.84-1.65,6-1,2.83,7.44,3.18,9.52,1.3,8.27,16.11-2.2,16.93,2.94.17,1.16-2.74,1.3-3.78,1.45a3.94,3.94,0,0,0-2.32,1,6.79,6.79,0,0,1-2.79,1.51c-1.69-1.4-2.53-3.16-2.82-1.33a3.43,3.43,0,0,0,.39,2.16c-1.71.62-3,1.51-2.69,3.67.7,4.42,7.26,5.86,8.66,14.66.47,2.95-2.37,4.86-1.95,7.52.75,4.63,4.65,7.36,14.39,5.85,5.71-.93,18.09-8.37,30.44-19.19,4.51-.33,8.21,3.92,7.8,9.16-7.71,11.54-10.47,31.49-10.31,48.27.16,18.84,9.29,45.58,11.23,51.19-.2.46-.4.93-.58,1.39-9.65-8.62-21.92-14.59-27.55-18.25l-39.3-30.33h0s0,0,0,0l-5-3.84a14.58,14.58,0,0,0-8-2.19,18.2,18.2,0,0,0-4.59.68,24.79,24.79,0,0,0-9.47,2.91c-8.16,4.42-13.79,7.51-18.29,9.92-8.94,4.82-18.3,6.11-24.28,3-7.28-3.8-15-3.85-30.29,4.42a26.64,26.64,0,0,0-6.94,5.08,19.31,19.31,0,0,0-4.78,3c-3.66,2.84-6.8,5.32-6.35,6.15s4.13-.25,8.21-2.45a11.83,11.83,0,0,0,2.09-1.44c1.29,1.55,3.68,3.35,6.86,1.66,2.25-1.22,4.35-3.38,6-4.28,5.77-3.09,11.5-1.14,16.89-1.18-.36,1.11-4.94,3.34-9.18,5.67-2.16,1.19-6.22,7.12-12.82,12a11.44,11.44,0,0,0-3.75,5.5,23,23,0,0,0-3.19,3.85c-2.74,3.87-5.06,7.26-4.35,7.94s3.86-1.44,7.14-4.71c1.6,2.37,4.08,1,7.26-.65,2.32-1.25,4.7-5.32,6.94-8,13.65-16.83,25.05-9.53,25.82-8.13,3,5.53-13.8,16.17-13.89,18.94-.21,7.51-6.16,18.48-6.16,18.48a3.52,3.52,0,0,0,.81.93,14.33,14.33,0,0,0-.79,1.57c-1.85,4.36-2.14,8.92-1.3,9.46s3.57-2.3,6.11-6.29a12.09,12.09,0,0,0,1.66-3.95,7,7,0,0,0,2-.72c3.13-1.69,3.65-5.75,5.54-8.26,10.31-13.66,11.26-20.1,17.79-23.59.59-.32,1.29-.71,1.67,0h0c3,6.07-4,12.26-2.48,18.08.68,2.66-2.84,11.14-2.85,16.68a6.91,6.91,0,0,0-1.75,2.44c-1.47,3.23-1.51,6.94-.72,7.51s3.13-1.18,5.27-4a7.18,7.18,0,0,0,1.38-3.37,6.23,6.23,0,0,1,1.24-.94c6.63-3.55,5.33-29.15,21.8-38,7.19-3.85,13.92-3.34,20.11-2.76,22.13,9.09,36.82,31.95,52.88,53.62a308.22,308.22,0,0,1-89.1,88.49c-5,3.3-10.9,4.71-17.05,5.68-7.63,0-13.21.14-17.76.18-10.09.07-19-3.17-22.83-8.7-4.7-6.76-11.45-10.39-28.85-10.24a28.08,28.08,0,0,0-8.52,1.21,19.91,19.91,0,0,0-5.6.4c-4.57.79-8.49,1.55-8.49,2.48s3.76,1.69,8.4,1.69a18.32,18.32,0,0,0,2.51-.28c.42,2,1.71,4.62,5.31,4.62,2.55,0,5.4-.93,7.33-.93,6.54-.07,10.67,4.36,15.46,6.84-.83.82-5.94.65-10.77.72-2.46,0-8.84,3.37-16.95,4.62a11.63,11.63,0,0,0-5.91,3.1A24.77,24.77,0,0,0,396,601c-94.9-20-167.58-35.26-172.66-36.12a26.84,26.84,0,0,0-4-.47,7.51,7.51,0,0,0-7.19,4.53,35.65,35.65,0,0,0-2.05,7.26c-.93,4.25-1.49,8.66.77,12.11a10.73,10.73,0,0,0,7.19,4.31c4,.76,136.62,28.8,277,58.45,18.94,4,38,8,56.86,12-28.54,100.1-17,175.46,8,160.55a227.49,227.49,0,0,1,35.08-17.29c16.45,16.68,24.63,31.45,29.18,53,1.11,5.32-9.76,3.81-12,4.32.26,3.37.39,6.86.39,10.42a18.35,18.35,0,0,0-4.63-5,12.72,12.72,0,0,0-4.19-1.87,8.83,8.83,0,0,0-2.3-.32,4.05,4.05,0,0,0-4.26,2.94c-1.29,5.15,1.75,9.78,6.51,13.51a37.59,37.59,0,0,0-5.57-.46,19.81,19.81,0,0,0-10.64,2.7,2.65,2.65,0,0,0-1.19,1.58c-.62,2.55,2.91,6.07,6,6.86a26.62,26.62,0,0,0,5.42.76c-4.15,1.54-7.76,4.53-8.89,9.38a1.86,1.86,0,0,0,1.38,2.23,2.24,2.24,0,0,0,.44.07,1.83,1.83,0,0,0,1.79-1.44c1.35-5.75,7.84-7.9,13-8,0,0,.1,0,.14,0a3.42,3.42,0,0,0-2,3.38,10.46,10.46,0,0,0,.16,1.61c0,.33.07.58.08.83a13.65,13.65,0,0,1-2.26,1.47c-3,1.7-7.41,4.25-7.41,9.43,0,1,.15,4.17,2.09,5.13a1.67,1.67,0,0,0,.85.18,1.82,1.82,0,0,0,1.65-1,1.89,1.89,0,0,0-.54-2.34,6.26,6.26,0,0,1-.32-2c0-2.81,2.39-4.39,5.54-6.23,2.13-1.21,4.14-2.37,4.14-4.45a11.89,11.89,0,0,0-.14-1.58,10.42,10.42,0,0,1-.12-1.08v0a11.69,11.69,0,0,0,3-1.11,97.67,97.67,0,0,1-3.43,13.26c-9.45,28.14-28.89,36.13-38.37,38.39a4.81,4.81,0,0,0-.75,9.13,1.73,1.73,0,0,0,.32.14c.36.11,56.9,4,76.92-11.5,12.92-10.07,10.87-33.21,22.32-38.89,3.88-1.94,4.47,6.07,4.94,17.18a4.75,4.75,0,0,0,2.15,3.81,4.86,4.86,0,0,0,4.39.53c3-1.14,5.68-2,8.53-3.15a2,2,0,0,0,1.23-1.37,2,2,0,0,0-.42-1.8c-4.07-4.74-5.78-16.56-4.36-22.86,8-35.43-8.7-29.18-13.75-42.08a226,226,0,0,1-14.69-57.47c41.43,34.65,86.34,125.29,90.63,158.1.89,6.69-6.4,6.36-8.64,7.73,1.1,2.59,2.16,5.32,3.15,8.12a19.41,19.41,0,0,0-8.72-3.41,9.4,9.4,0,0,0-1.1-.07,14.08,14.08,0,0,0-3.47.47c-4.07,1.07-5,3.52-4.45,5.45,1.24,4.64,5.54,7.59,12.27,8.63-5.35,2.06-10.3,4.93-13.09,9.85a2.76,2.76,0,0,0-.26,2c.61,2.29,4.21,3.31,6.54,3.31a7.23,7.23,0,0,0,2.08-.26,27.47,27.47,0,0,0,4.12-1.48,12.38,12.38,0,0,0-2.37,5.87,11.85,11.85,0,0,0,.16,6.18,1.87,1.87,0,0,0,1.78,1.33,1.26,1.26,0,0,0,.51-.07,1.86,1.86,0,0,0,1.29-2.3c-1.6-5.54,2.78-10.46,7.19-13.08a1.47,1.47,0,0,0,0,.39,3.38,3.38,0,0,0,.26,3.23,12.69,12.69,0,0,0,.94,1.37,4.2,4.2,0,0,1,.27.36c-1.07,2.16-3.55,5.21-3.73,8.48a8.08,8.08,0,0,0,.8,6c.44.82,2.08,3.49,4.2,3.49h.12a1.88,1.88,0,0,0,1.77-2,1.84,1.84,0,0,0-1.6-1.76,5.75,5.75,0,0,1-1.24-1.58,4,4,0,0,1-.47-1.29l.18-2.55a18.73,18.73,0,0,1,2.11-4.28c.32-.54.62-1.08.89-1.58a90.49,90.49,0,0,1,.47,9.13c0,29.69-15.89,43.45-24.15,48.62a4.83,4.83,0,0,0,2.59,8.92c.35,0,55.19-14.33,69.22-35.44,9-13.62-.31-34.93,8.72-44,3.07-3.08,6.19,4.32,10.18,14.71a4.85,4.85,0,0,0,7.55,2c2.54-2.05,4.76-3.74,7.12-5.68a2,2,0,0,0-.25-3.27c-5.38-3.2-10.77-13.84-11.44-20.27C813.71,946,799.89,957.22,791,946.62c-16.77-20-17-52.55-19.31-83.06,57.27,51.18,81.39,32.17,103.51,2.05,16.07-20.45,32.88-18.87,39.17-18.87,82.65,0-4.35-44.43,45.24-46.33.77,0,1.56.07,2.35.14,59.27,4.68,109.07-1.68,54.5-29-13.43-6.75-19.73-12.68-22.2-17.83,3.88.73,7.75,1.48,11.64,2.23,11.14,2.13,22.68,4.31,34,6.62,10.58,2.16,21.37,4.42,31.77,6.61,7.08,1.51,14.4,3.06,21.64,4.57,3,9.27,9.65,16.68,19.93,17,5.78.22,17.48-9.74,20.75,2.66,3.47,27.67,25.11,53.05,61.14,52.19,17.59-.43,38.51-4.32,49.71,13.62,9.5,15.24,28.5,37.42,47.62,27.64-8.72,1.26-24.36-10.6-32.19-23.87,42.11,35.41,87.59,60.24,137.71,31.6-3.83-2.08-9.07-1.87-12.94-4.75,14.24-.54,30.26-6.17,39.85-16.53-47.34,1.83-53.61-4.64-53.61-4.64s65.9,6.87,75-42.73c-8,7.08-19,12-29.38,15.41C1428.68,835,1448.17,820.79,1450.29,796.56ZM600.68,870.78h0a1.55,1.55,0,0,1,.65-.11,5.59,5.59,0,0,1,1.4.22,10,10,0,0,1,2.93,1.25c3.24,2.34,5.2,6.15,6.6,10.39,0,.58-.08,1.15-.11,1.73C606,881.2,599.32,876.25,600.68,870.78Zm-10.55,17.55a17,17,0,0,1,7.88-1.67,53.94,53.94,0,0,1,12.13,1.8,27.35,27.35,0,0,1-11.54,2.67,23,23,0,0,1-5.48-.65A6.24,6.24,0,0,1,590.13,888.33Zm42.65-619.24a5.89,5.89,0,0,0-.37-.64c.51.14,1,.32,1.51.47C633.55,269,633.18,269,632.78,269.09Zm.59,270.35A64.38,64.38,0,0,0,649,545.26c5,1.2,25.47-.21,25.85-.21,1.86,0,12-.79,7.63-13.34a55,55,0,0,1,1.83-13.66c24.86,4.5,58,27.93,58,27.93s-22.17,32.74-55,44.75C644.84,606.33,573,608.06,560.54,635.8c-16.44-3.48-32.95-7-49.31-10.42,1.94-1.76,3.94-3.49,6-5.21C542.8,599,588.88,582.25,633.37,539.44Zm-194.13,70a4.48,4.48,0,0,1-.07.64q-13.46-2.79-26.46-5.57C432.57,596.16,439.24,607.92,439.24,609.49Zm287,368.58h0a3.37,3.37,0,0,1,1.81-.9,9.91,9.91,0,0,1,2.52-.33h.7c4.14.51,7.84,3.06,11.25,6.3.11.39.24.75.35,1.11-.77.07-1.53.11-2.29.11C735.88,984.36,727.72,983.53,726.26,978.07Zm3,20.88a3.54,3.54,0,0,1-1.12.14,6.24,6.24,0,0,1-2.55-.57C729,993.38,736,991,742.74,989l-.59,1.22A25.38,25.38,0,0,1,729.25,999Zm17.18,1.87v0l.15-.14c0,.14.06.35.1.5A2.33,2.33,0,0,1,746.43,1000.82Zm591-232.26c-.7-.6-1.94-1.68.27.22a16.33,16.33,0,0,1,3.14,3.24,141.64,141.64,0,0,0-29-10.54c-7.33-1.68-14.3-.57-21.45-1.47C1305.55,756.92,1325.1,758,1337.39,768.56Z"/><polygon class="cls-1" points="170.44 784.13 103.48 777.33 132.05 733.56 93.93 764.97 85.21 685.94 76.5 764.97 38.39 733.56 66.96 777.33 0 784.13 66.44 794.12 36.73 829.91 74.88 805.23 84.73 889.83 95.49 805.19 133.7 829.91 103.98 794.12 170.44 784.13"/><polygon class="cls-1" points="1295.61 407.39 1341.57 400.49 1295.61 395.82 1315.2 365.85 1289.25 387.23 1283.19 332.32 1277.14 387.23 1251.17 365.85 1270.76 395.82 1224.8 400.49 1270.76 407.39 1251.17 430.97 1275.66 415.16 1275.64 415.41 1282.85 477.33 1290.73 415.41 1290.72 415.16 1315.2 430.97 1295.61 407.39"/><polygon class="cls-1" points="1462.74 616 1508.68 609.1 1462.74 604.42 1482.32 574.45 1456.36 595.83 1450.29 540.92 1444.24 595.83 1418.27 574.45 1437.86 604.42 1391.91 609.1 1437.86 616 1418.27 639.57 1442.77 623.76 1442.75 624.01 1449.97 685.94 1457.85 624.01 1457.82 623.76 1482.32 639.57 1462.74 616"/><path class="cls-2" d="M235.14,457.39a7.86,7.86,0,0,1-7.78-7l-.05-.64c0-.07-.06-.47-.07-.53a5.81,5.81,0,0,0-.52-1.59,5.7,5.7,0,0,0-1.37-1.91,5.88,5.88,0,0,0-1.08-.78,5.39,5.39,0,0,0-1.3-.58,4.15,4.15,0,0,0-1.16-.22h-.39l-1.62.69a5.52,5.52,0,0,0-.47.32,10,10,0,0,0-1.47,1.58c-.2.25-.34.47-.44.57a8.49,8.49,0,0,1-7,3.71,7.17,7.17,0,0,1-4-1.16l-.32-.21a8.68,8.68,0,0,1-3.58-6.58,7.8,7.8,0,0,1,.18-1.76,15.59,15.59,0,0,1,.51-2.26,18.07,18.07,0,0,1,1-2.77,9.92,9.92,0,0,1,.5-.93c.23-.47.47-.94.72-1.37a39.72,39.72,0,0,1-11.46,1.72,35.65,35.65,0,0,1-9.84-1.37,37.91,37.91,0,0,1-17.95-11.6c0,.25,0,.47,0,.69a16.38,16.38,0,0,1-.06,1.93,19,19,0,0,1-.71,3.31,16.5,16.5,0,0,1-.7,1.94,6.89,6.89,0,0,1-.72,1.44,9,9,0,0,1-6.54,3.74H157a7.84,7.84,0,0,1-7.82-7.62l7.82-.58-7.84.21,0-.45a10.23,10.23,0,0,0-.46-2.41l-.18-.47-1-1.41c-.11-.07-.21-.15-.32-.21a7.47,7.47,0,0,0-1.1-.44,7.76,7.76,0,0,0-1.34-.21h-.16a5.35,5.35,0,0,0-1.21.11,6.2,6.2,0,0,0-2.27.9,7,7,0,0,0-1.23,1.08l-.42.51-.16.21a7.94,7.94,0,0,1-6.34,3.2,7.56,7.56,0,0,1-4.58-1.51l-.33-.22a7.78,7.78,0,0,1-3-7.84c0-.07.08-.42.08-.47.06-.21.13-.53.21-.89,0-.15.31-1,.37-1.19a8.55,8.55,0,0,1-1-1.47l-.18-.36a7.72,7.72,0,0,1-.86-4,9.75,9.75,0,0,1,.59-2.7c.16-.39.27-.67.4-1a13.36,13.36,0,0,1,.91-1.72,5.86,5.86,0,0,1,.6-.79,8.25,8.25,0,0,1,1-1.26c.2-.18.37-.36.52-.51a8.22,8.22,0,0,1,.13-2.15l.07-.35a7.86,7.86,0,0,1,2.9-4.65,12.66,12.66,0,0,1,1.48-.93c.1-.07.45-.25.89-.47a7.52,7.52,0,0,1,1-2.38l.22-.31a7.76,7.76,0,0,1,5.58-3.49,7.23,7.23,0,0,1,.79-.07c.48,0,.85-.07,1.23-.07s.81,0,1.2,0c.14,0,.29,0,.43.08a10.08,10.08,0,0,1,1.17.18c.39.1.77.17,1.15.28a1.7,1.7,0,0,0,.43.11,4,4,0,0,1,.68.26c-8.52-6-18.64-11-28.8-11a29.81,29.81,0,0,0-9.73,1.65c-.32.15-.63.26-1,.39l-1.16.48a8.06,8.06,0,0,1-2.86.54,7.8,7.8,0,0,1-7.74-8.81c1.88-14.59-2.63-26.2-13.81-35.58-6.72-5.61-14-8.49-21.56-8.49a38.36,38.36,0,0,0-14.83,3.24,7.37,7.37,0,0,1-3,.61,7.82,7.82,0,0,1-7.68-9.31c.31-1.48.61-2.91.92-4.34.62-2.92,1.22-5.71,1.52-8.39C38.8,296.88,36.07,287,29,279.3c-4.49-4.89-10.53-8.12-19-10.09A20,20,0,0,1,3.9,267a7.81,7.81,0,0,1,1.64-14.23l1.11-.32c18.74-7.77,34.59-12,49.9-13.33,3.6-.33,6.94-.47,10.18-.47a72.72,72.72,0,0,1,24.72,3.95c12.87,4.6,22.09,13.55,28.68,20.84,8.36,9.28,14.54,19.77,20.51,29.95l3,5.17c7,11.89,14.23,24.23,21.61,36.08,2.25,3.64,4.8,7.08,7.52,10.64a.15.15,0,0,0,0-.07,7.92,7.92,0,0,0,.66-1.47,15.43,15.43,0,0,0,.11-2.09,19.57,19.57,0,0,1,1.71-8.52,25.65,25.65,0,0,1,2.7-4.24,15.53,15.53,0,0,0,1.22-1.83c.45-.83.77-1.51,1-2,.75-1.55,2.73-5.58,7.72-5.58.69,0,6.65.18,7.91,7.12a9.37,9.37,0,0,0,1.28,3.45,12.24,12.24,0,0,0,2.55,3.41c2.54,2.27,3.77,4.28,5.48,9.78a21,21,0,0,1,8.19,2.09c4.09-4.22,6.08-5.43,9.4-6.36a11.83,11.83,0,0,0,3.82-1.92,9.08,9.08,0,0,0,2.69-2.51,8.33,8.33,0,0,1,6.74-3.63,8.05,8.05,0,0,1,5.61,2.34c2.37,2.41,2.33,5.14,2.31,7,0,.54,0,1.3,0,2.23a19.31,19.31,0,0,0,.29,2.19,26.86,26.86,0,0,1,.5,5,19.26,19.26,0,0,1-2.36,8.44,17,17,0,0,0-.87,2.06c0,.28,0,.83,0,1.36a19.62,19.62,0,0,1-.71,5.71,112.58,112.58,0,0,0,22.6-6.89c6.76-2.81,13.46-5.68,20.18-8.6,9.67-4.16,19.67-8.51,29.72-12.43a95.86,95.86,0,0,1,34.76-7c17.57,0,34.22,5.76,49.45,17.12,7.73,5.74,17.47,13.84,24.25,25.37a45.08,45.08,0,0,1,6.65,24.08,7.79,7.79,0,0,1-11.06,7c-6.52-3-12.42-4.38-18-4.38a31,31,0,0,0-13.41,3c-9.1,4.24-15.67,11.92-21.32,24.93a7.82,7.82,0,0,1-5.91,4.64c-.41,0-.84.08-1.26.08a7.84,7.84,0,0,1-5.82-2.6c-.74-.82-1.44-1.65-2.12-2.44-1.22-1.4-2.37-2.73-3.52-3.85-8.79-8.62-18-12.83-28.15-12.83a42.91,42.91,0,0,0-11.88,1.8,29.24,29.24,0,0,0-16.43,12.34c-1.24,1.82-2.41,3.65-3.56,5.45l-1.17,1.8a7.78,7.78,0,0,1-5.8,3.56,6.87,6.87,0,0,1-.78,0,7.68,7.68,0,0,1-5.6-2.37l-2.36-2.45c-2.24-2.33-4.49-4.67-6.8-6.89-3.81-3.7-10.09-6.54-17.69-8.27a0,0,0,0,0,.05,0,7.66,7.66,0,0,1,1.19,1,8.71,8.71,0,0,1,2.41,5.32l0,.4a7.76,7.76,0,0,1-.38,2.72.6.6,0,0,1,.06.11c.25.39.47.75.6,1l.37.72a8,8,0,0,1,.13,6.39l-.15.37a7.71,7.71,0,0,1-.88,1.54c.08.36.15.65.2.94.09.46.16.86.2,1.25,0,.22,0,.43,0,.68s0,.51,0,.79a6.18,6.18,0,0,1-.07,1.05,4.85,4.85,0,0,1-.05.57c-.06.33-.11.65-.18.93a3.12,3.12,0,0,1-.1.48,9.5,9.5,0,0,1-.32,1.11,8.52,8.52,0,0,1-3.48,4.13l-.32.18a7.53,7.53,0,0,1-1.51.68c-.06.22-.24.94-.28,1.05a8,8,0,0,1-.25.79c0,.14-.35.93-.35.93a7.9,7.9,0,0,1-6.82,4.82Z"/><path class="cls-3" d="M415,378.72c-5.57-9.43-13.51-16.62-22.19-23.05C369,337.92,343.15,336,316.1,346.54c-16.74,6.54-33.12,14.09-49.77,21-11,4.49-22.22,7.87-34.19,8.55-.48,0-.89,0-1.31,0,.86-3-.37-3.95-.46-4.28-1.26-2.95-.83-2.66,2.13-5.53,1.82-1.77.72-5.9,1.51-8.48.92-2.91,2.86-5.29,2.9-8.27,0-2.37-.76-4.57-.79-7-.09-7.11.93-2.91-5.32,1.09-8.88,5.71-4.73-.87-15.46,11.1a2.18,2.18,0,0,1-1.13.36c-.27,0-5.32-5.14-12.06-3.84-1.9.39-1.87,1.1-3-.41-4.16-15.45-3.43-7.75-8.8-16.81-3.77-6.39-1-9.67-4.26-3.35-1.12,2.12-2.77,3.71-3.83,5.87-1.31,2.65-.61,5.64-1.15,8.66-.43,2.66-3.3,5.89-2.48,8.26,1.37,3.91,1.89,3.84-.57,5.89a3.88,3.88,0,0,0-1.57,1.45,6.4,6.4,0,0,1-1-.54,26,26,0,0,1-4.73-4.86c-4.15-5.46-8.5-10.85-12.13-16.67C150.7,326,143.1,313,135.46,300c-6.39-10.86-12.59-21.89-21.14-31.35-7.21-8-15.17-15.06-25.51-18.72s-20.9-4-31.57-3.06c-16.6,1.44-32.3,6.43-47.61,12.76a15.25,15.25,0,0,1-1.81.57,14.2,14.2,0,0,0,3.95,1.41c8.8,2.05,16.8,5.63,23,12.43,9.44,10.28,11.9,22.79,10.35,36.3-.52,4.39-1.63,8.7-2.54,13.3,16.16-6.8,31.23-4.6,44.43,6.43,13,10.93,18.79,25.24,16.52,42.59,1-.39,1.65-.71,2.37-.93,20.29-7.3,41.53,5.29,57.11,19.48-.71,4.53.14,10.1,2.39,15.53l-10.71,2.76c-.25-3.12-2.43-7.19-5.32-10.17l-.24-.25a5.31,5.31,0,0,0-.77-.86,11.27,11.27,0,0,0-1.69-1.37,7.58,7.58,0,0,1-.84-.54c-.32-.14-.61-.25-.88-.39a8.12,8.12,0,0,0-.83-.28l-.79-.22c-.24-.05-.46-.12-.7-.15h-.57c-.33,0-.61,0-.82,0a.79.79,0,0,0-.3.05l-.21.31.76.51a2.52,2.52,0,0,1,.4.29c.14.11.29.22.44.36a10.93,10.93,0,0,1,1,.86,7.54,7.54,0,0,1,.58.54c.18.21.35.43.57.65.38.39.7.89,1.1,1.37.18.24.34.53.54.78s.34.54.47.83l.46.86.38.94a8.25,8.25,0,0,1,.34.9,4.46,4.46,0,0,1,.25.93c.09.32.16.65.22.93s.07.5.09.72c-.11-.29-.25-.61-.39-.93a4.83,4.83,0,0,0-.47-1,16.14,16.14,0,0,0-1.28-1.77,14,14,0,0,0-1.65-1.44l-.45-.28a5.3,5.3,0,0,0-.47-.28c-.31-.15-.61-.33-.93-.48a11.11,11.11,0,0,0-1.87-.54c-.32,0-.62-.11-.92-.14h-.82c-.29,0-.55,0-.81,0s-.51.08-.74.15-.42.11-.6.18a2,2,0,0,1-.48.18c-.27.14-.5.29-.66.36a2.17,2.17,0,0,1-.26.15l-.07.39a7.35,7.35,0,0,1,.81.18c.11,0,.25,0,.4.08a3.1,3.1,0,0,1,.47.14,9.2,9.2,0,0,1,1.09.39c.19.07.4.18.63.25l.62.33a6.48,6.48,0,0,1,.67.39c.21.11.46.26.67.4.42.32.89.6,1.29,1s.83.79,1.26,1.19a12.07,12.07,0,0,1,1,1.32,7.36,7.36,0,0,1,.47.72,3.55,3.55,0,0,1-.34-.28,5.29,5.29,0,0,0-.85-.58,4.54,4.54,0,0,0-.89-.5,8.4,8.4,0,0,0-2-.72,10.9,10.9,0,0,0-2.12-.22h-.54c-.18,0-.34.07-.5.07-.35.08-.7.11-1,.19a10.74,10.74,0,0,0-1.8.68c-.28.17-.52.29-.77.47a4.84,4.84,0,0,0-.65.5c-.19.18-.38.32-.56.5a4.8,4.8,0,0,0-.46.58,5,5,0,0,0-.4.51c-.07.17-.13.28-.18.42a6,6,0,0,0-.29.72c-.05.14-.08.25-.08.25l.19.32s.25-.1.68-.32c.11-.07.23-.11.36-.18a4,4,0,0,1,.44-.18c.3-.1.63-.25,1-.36a5.49,5.49,0,0,0,.63-.18l.66-.1c.44-.11.94-.11,1.44-.19a11.44,11.44,0,0,1,1.54,0,12.91,12.91,0,0,1,1.59.22,11.18,11.18,0,0,1,1.53.47,8.93,8.93,0,0,1,1.42.61s.05,0,.08.07a9.81,9.81,0,0,0-1.76.39,12.69,12.69,0,0,0-3.27,1.48,11.3,11.3,0,0,0-2.44,1.93,12.17,12.17,0,0,0-1.6,2.06,10,10,0,0,0-.84,1.76c0,.14-.11.25-.14.35s-.07.26-.1.37a2.68,2.68,0,0,0-.11.5c0,.26-.09.43-.09.43l.33.22.22-.33c.17-.21.38-.5.69-.86a15.07,15.07,0,0,1,2.93-2.56,14.52,14.52,0,0,1,5.07-2,14.86,14.86,0,0,1,3.07-.22,15.77,15.77,0,0,1,3.14.47,13.3,13.3,0,0,1,2.93,1.18,9.59,9.59,0,0,1,2.36,1.84l1.81,2.52a12.88,12.88,0,0,1,1,2.22,17.22,17.22,0,0,1,.75,3.82c.05.49.07.85.09,1.14V428h.37a1,1,0,0,0,.18-.39,5.3,5.3,0,0,0,.43-1.15,10.9,10.9,0,0,0,.42-1.91,11.42,11.42,0,0,0,0-1.44,13.12,13.12,0,0,0-2.6-8.66l11.82-3.09c4,7,10.42,13.16,18.72,15.53s17,.53,24.1-3.31l8.43,8.88c-2.15,1-5,2.19-7.25,6.71-.08.19-.21.37-.28.51a14.67,14.67,0,0,0-.67,1.83,10.79,10.79,0,0,0-.25,1.19,2.87,2.87,0,0,0,0,.43l.32.21a2.7,2.7,0,0,0,.22-.31l.64-.9a18.47,18.47,0,0,1,2.69-2.84,12.92,12.92,0,0,1,2-1.4l2.89-1.19a11.26,11.26,0,0,1,2.93-.29,12.09,12.09,0,0,1,3.12.54,12.65,12.65,0,0,1,2.93,1.26,12.43,12.43,0,0,1,2.47,1.8,13.69,13.69,0,0,1,3.23,4.42,14.3,14.3,0,0,1,1.14,3.73,10.7,10.7,0,0,1,.12,1.09c0,.24,0,.39,0,.39l.4,0s.05-.14.16-.39l.15-.5a2,2,0,0,0,.08-.33,2.42,2.42,0,0,0,.1-.36,9.2,9.2,0,0,0,.2-2,11.57,11.57,0,0,0-.26-2.56,13.07,13.07,0,0,0-3-5.93,11.31,11.31,0,0,0-1.3-1.29h.11a11.33,11.33,0,0,1,1.52.21c.55.11,1,.29,1.55.43a10.23,10.23,0,0,1,1.46.65,9.38,9.38,0,0,1,1.33.8,12,12,0,0,1,1.13.89c.18.14.34.33.51.47s.28.32.42.47a5.78,5.78,0,0,1,.69.86,3.07,3.07,0,0,1,.27.36,1.6,1.6,0,0,1,.21.32,5.28,5.28,0,0,0,.42.65l.32-.18.09-.25c0-.18.09-.44.12-.72a4.7,4.7,0,0,1,.06-.51c0-.17,0-.38,0-.6s-.07-.47-.12-.73a5,5,0,0,0-.2-.74,7.84,7.84,0,0,0-.29-.8c-.11-.25-.25-.5-.41-.79a8.88,8.88,0,0,0-1.15-1.51,7.07,7.07,0,0,0-.77-.68,2.47,2.47,0,0,0-.41-.33c-.13-.11-.3-.18-.44-.29a8.68,8.68,0,0,0-4-1.43,4.62,4.62,0,0,0-1,0,4.86,4.86,0,0,0-1,.07,2,2,0,0,0-.48.08,5.08,5.08,0,0,1,.81-.4c.51-.21,1.05-.36,1.6-.54a9.34,9.34,0,0,1,1.65-.36,11.72,11.72,0,0,1,1.64-.14,5.47,5.47,0,0,1,.81,0,6.35,6.35,0,0,1,.75,0c.21,0,.47,0,.7,0s.44.11.65.14a9.86,9.86,0,0,1,1.13.22,4.71,4.71,0,0,0,.48.14,2.25,2.25,0,0,0,.4.11c.51.18.76.29.76.29l.15-.36a2.2,2.2,0,0,0-.14-.25,4,4,0,0,0-.37-.65,2.71,2.71,0,0,0-.29-.43c-.11-.14-.29-.29-.45-.47s-.34-.32-.56-.5-.41-.28-.63-.43-.47-.28-.72-.47-.53-.22-.82-.36a10.38,10.38,0,0,0-1.92-.5,6.77,6.77,0,0,0-1-.11,2.24,2.24,0,0,0-.53,0l-.54,0a10.83,10.83,0,0,0-2.16.36,13.5,13.5,0,0,0-2,.83,3.71,3.71,0,0,0-.9.54c-.31.21-.59.39-.86.6,0,0,0,0-.07.08l.54-.65.68-.68c.2-.21.47-.43.7-.65s.53-.43.79-.61l.81-.54a4.88,4.88,0,0,1,.82-.5c.28-.18.58-.32.87-.47s.58-.28.86-.39c.58-.19,1.13-.44,1.69-.58a6.52,6.52,0,0,0,.79-.25c.25,0,.51-.1.76-.15.48-.1.94-.17,1.33-.22a4.8,4.8,0,0,0,.56-.06,2.07,2.07,0,0,1,.49,0c.58,0,.93,0,.93,0l0-.4a1.79,1.79,0,0,0-.23-.18,6.07,6.07,0,0,0-.7-.46c-.14-.08-.3-.19-.46-.3a5.59,5.59,0,0,1-.67-.25,6.42,6.42,0,0,1-.79-.25c-.29-.07-.54-.07-.84-.14s-.63-.1-1-.15h-1a11.77,11.77,0,0,0-2.15.26c-.38.07-.76.22-1.11.31l-.27.11c-4.05,1-8.07,3.28-10,5.87l-7.65-8.06c5.14-3.7,9-8.37,10.61-12.93,17.6-.65,34.64,3.62,43.47,12.15,3.18,3.05,6.2,6.32,9.32,9.56,1.55-2.41,3.14-5,4.84-7.44a37.14,37.14,0,0,1,20.7-15.46c18.43-5.35,34.21-.29,47.71,12.94,2.08,2.05,3.9,4.35,6,6.69,5.41-12.51,12.64-23.08,25.2-28.93,12.74-5.94,25.28-4.39,37.92,1.32A37.57,37.57,0,0,0,415,378.72Z"/><path class="cls-1" d="M232.79,388.81s2.84-.32,7.82-.83c2.48-.24,5.41-1,8.8-1.68a41.83,41.83,0,0,0,5.36-1.41l5.9-1.72c4-1.52,8.35-3,12.88-5l14.17-6.11c9.89-4.13,20.41-8.59,30.95-13a96.14,96.14,0,0,1,16.34-5,24.92,24.92,0,0,1,4.17-.65c1.39-.18,2.78-.32,4.15-.5,2.76-.22,5.52-.07,8.21-.11,2.66.36,5.32.61,7.87,1.08,2.49.69,5,1.19,7.32,2s4.54,1.72,6.63,2.73,4,2.19,5.89,3.2c1.83,1.18,3.5,2.33,5.12,3.45s3,2.33,4.42,3.37,2.57,2.2,3.72,3.17a35.79,35.79,0,0,1,3,2.84l2.35,2.38c.62.74,1.15,1.39,1.58,1.89l1.34,1.59-.35.25L399,379.39l-1.74-1.71c-.76-.61-1.6-1.34-2.54-2.13a31.6,31.6,0,0,0-3.18-2.55c-1.2-.9-2.42-1.88-3.9-2.81l-2.24-1.51c-.4-.28-.77-.54-1.17-.78l-.3-.22c.12.11-.13-.07-.2-.11l-.63-.36c-1.67-.93-3.52-2.15-5.19-3.06-1.89-.89-3.82-1.79-5.85-2.76s-4.22-1.51-6.41-2.31-4.58-1-6.95-1.57c-2.4-.33-4.89-.51-7.37-.75-2.52.11-5.09,0-7.66.28-1.29.18-2.6.35-3.89.57a23.87,23.87,0,0,0-3.87.65l-3.83.94-1.9.42-2,.69-4,1.44-1.8.61-2,.83c-5.3,2.19-10.58,4.35-15.78,6.47s-10.37,4.06-15.33,6.07-9.83,3.85-14.41,5.57-9.2,3.1-13.35,4.42c-4.27,1-8.09,2-11.67,2.45s-6.61,1-9.09,1-4.49,0-5.84.07h-2.06Z"/><path class="cls-1" d="M41.71,262.37l7.62-1.58c2.44-.43,5.45-.76,8.89-1.22a93.93,93.93,0,0,1,11.64-.29c1.06.08,2.15,0,3.26.15s2.23.35,3.36.5a42.46,42.46,0,0,1,7,1.65,38.37,38.37,0,0,1,13.34,7.56A83.19,83.19,0,0,1,108.17,281a127.42,127.42,0,0,1,9.66,13.94c3,4.86,5.79,9.82,8.63,14.6s5.66,9.52,8.39,14.08,5.33,9,7.84,13.16,4.72,8.23,7.22,11.68c1.19,1.77,2.28,3.49,3.41,5.07s2.27,3,3.32,4.38c2.08,2.73,3.81,5.22,5.51,7a24.08,24.08,0,0,0,2.19,2.48c.72.62,1.33,1.18,1.81,1.62,1,.86,1.51,1.32,1.51,1.32l-.27.37-1.68-1.23a26.06,26.06,0,0,1-4.48-3.76c-.45-.44-.9-.91-1.4-1.37s-1-1.08-1.47-1.66L155.12,359c-1.17-1.33-2.38-2.73-3.7-4.2s-2.42-3.17-3.73-4.86c-.65-.87-1.32-1.72-2-2.59-.8-1.11-1.3-1.93-2-2.91-1.26-1.94-2.55-3.91-3.9-5.93-2.68-4.1-5.52-8.38-8.32-12.91s-5.83-9.12-8.7-13.9S117,302,114.06,297.27c-1.49-2.34-2.88-4.86-4.42-7a75.63,75.63,0,0,0-4.76-6.58c-.86-1.12-1.74-2.15-2.61-3.26l-.32-.41-.16-.21-.06,0c.22.24.06,0,.09.1l-.09-.1-.66-.76-1.36-1.47c-.85-1-1.76-1.94-2.67-2.81a34.35,34.35,0,0,0-2.73-2.59,33,33,0,0,0-2.82-2.33l-1.61-1.12-.37-.28-.2-.15-.09-.07,0,0s-.16-.1.08,0l-.71-.43a22.77,22.77,0,0,0-3-1.69c-.56-.25-1.12-.54-1.67-.79l-.41-.18-.11-.07h-.06s-.19-.08.09,0l-.2-.07-.8-.25A42.73,42.73,0,0,0,76,263l-3.17-.65c-1-.18-2.06-.22-3.07-.32-3.94-.54-8.08-.4-11.37-.54-3.38.21-6.35.29-8.83.54s-4.42.46-5.74.6l-2,.22Z"/><path class="cls-1" d="M195.9,366.24a3.75,3.75,0,1,1-1.24-5.14A3.75,3.75,0,0,1,195.9,366.24Z"/><path class="cls-1" d="M219.29,373a3.74,3.74,0,1,1-1.22-5.14A3.73,3.73,0,0,1,219.29,373Z"/></g></g></svg>