<svg xmlns="http://www.w3.org/2000/svg" viewBox="0 0 207.69 225.39"><defs><style>.cls-1,.cls-2{fill-rule:evenodd;}.cls-2{fill:#fff;}</style></defs><title>lastrh2</title><g id="图层_2" data-name="图层 2"><g id="央铋_1" data-name="央铋 1"><path class="cls-1" d="M12.39,9.22a6.53,6.53,0,0,0,5-2.37c-.61-.26-1.3-.42-2-.69C12,4.92,3.94-.12,1.54,0,0,.08-1.17,2.72,2.09,5,4.5,6.65,9.38,9.37,12.39,9.22Z"/><path class="cls-1" d="M3.77,87.68c1.82.39,8.25,7,13.72,6.95,3.24-.06,5.75-5.41,5.53-8.33-.37-4.87-8-5-11.75-5.34-1.14-.1-2.23.15-2.77-.51,1.76-.09,3.42-.54,5.48-.48,1.65.06,3.51.09,5.29.19,12.48.67,16.39,1,27.32,5.75,5.58,2.44,9.61,5,15.67,6.79l13,3.7c2.11.59,3.32,1.53,3.58.07-2.83-.1-6.19-2.22-9-2.31a8.29,8.29,0,0,1,.61-1.88,10,10,0,0,0,.43-1.83,24,24,0,0,0-.5-8.71c-.32-1.49-.6-2.64-1-4a30.55,30.55,0,0,0-3-7c-.37-.62-.64-.94-1-1.58-1.83-3.29-10.5-15-13.19-18.68l-5.41-7c-2.38-2.88-5.07-6.9-8.22-8.78A76.6,76.6,0,0,1,30,28.87c-2.43-2-5.64-5.24-8.48-6A26.54,26.54,0,0,1,11.89,18,38.64,38.64,0,0,1,6.78,13.4c-2-2.35-2.73-3-3.2-6.5C6,8,8.09,9.38,10.78,9.89c3.75.7,4.86-.73,7.45-2.66a19.07,19.07,0,0,1,2.4.7,19.9,19.9,0,0,0,2.5.59C30.4,9.94,39.73,12.21,46,15.86l3.56,2.54c1.21.84,2.11,2,3.29,2.84L59.55,27c2,2.21,3.35,4.79,5.07,7.35l5.37,7c1,1.12,1.86,2.19,2.87,3.31L82,54.2c.64.74,1,.94,1.6,1.59A20.74,20.74,0,0,0,85,57.3c.49.45,1.1,1.59,1.64,1.33s.15-.48-.06-.8l-6.83-7c-.9-1.07-2-2-3-3.15-3.89-4.51-8-8.59-11.33-13.59-.87-1.32-1.58-2.43-2.46-3.75A27.93,27.93,0,0,0,56.28,23l-4.2-3.39a9.91,9.91,0,0,1-1.5-1.46c6.09-.3,11.21-.78,16.13.26,4.33.91,7.51,3.23,10.64,6.09l8,7c4.33,3.45,8.4,7.25,12.81,10.62,1.66,1.26,8,5.72,9.08,5.52.74-.13.5-.55-.27-.95-.45-.23-.91-.35-1.46-.64A44.77,44.77,0,0,1,99.11,42L81.84,27.34c-.51-.44-.81-.5-1.16-.94a8.86,8.86,0,0,1,4.75,1A89.15,89.15,0,0,1,96.2,34c6.46,4.61,8.48,6.23,16.3,9.7,1.06.47,1.57,0,.57-.62-1.79-1.12-5-1.78-11.36-6-1.2-.81-2.28-1.6-3.41-2.48S96.18,33,95,32.19a40,40,0,0,0-3.53-2.34c-.66-.4-1.17-.72-1.83-1.1-.39-.22-.55-.27-1-.5L88.31,28a2.22,2.22,0,0,1-.36-.28,20.22,20.22,0,0,0,4.44-.62c4-1,4.79-2.46,7.35-.12,5.18,4.75,10.68,6,14.57,9.35a39.69,39.69,0,0,1,6.89,7.78c.67,1,1.3,1.87,2,2.9l8.07,11.39c8.57,11.5,16.24,21.78,25.49,33l4.52,5.28c10,11,12.7,16.29,18.29,30.66,1.87,4.81,3.82,9.52,5.46,14.5l2.68,7.31c.86,2.38,1.69,4.73,2.54,7.23s1.74,5,2.59,7.41l5,15c2.05,5.82,4,12.1,5.65,18.37l-1.49.53c-1.15.39-2.47.8-4.12,1.22a49.2,49.2,0,0,1-6.14,1.18,53.6,53.6,0,0,1-8.82.38,91.5,91.5,0,0,1-12.09-1.32,98.94,98.94,0,0,1-12.19-2.9,139.38,139.38,0,0,1-20.37-8.56c-2.64-14.72-5.62-31.31-6.43-35.08-1.39-6.44-3.36-11-8.1-13.81-10.34-6.11-26.07-1.93-48.52-15.36l-6.82-4.07c-1.21-.72-2.18-1.35-3.37-2.08s-2-1.33-3.2-2-2.16-1.35-3.37-2.08a76,76,0,0,0-19-7.78c-2.83-.79-5.5-1.47-8.22-2.3a68.56,68.56,0,0,1-9.91-3.55c-.67-.33-1.14-.54-1.86-.85a36.5,36.5,0,0,1-3.41-1.82c-2.17-1.29-4.53-2.61-6.59-4.09A32.69,32.69,0,0,1,6.4,90.36c-.77-.7-2.32-1.71-2.63-2.68ZM194.06,213.89a1.63,1.63,0,1,1,.73,2.19,1.63,1.63,0,0,1-.73-2.19Zm-50.3-6.39a1.63,1.63,0,1,1,.73,2.19,1.63,1.63,0,0,1-.73-2.19Zm8,2.87a1.63,1.63,0,1,1,.73,2.19,1.63,1.63,0,0,1-.73-2.19Zm7,1.93a1.63,1.63,0,1,1,.72,2.19,1.63,1.63,0,0,1-.72-2.19Zm7.88,1.53a1.63,1.63,0,1,1,.73,2.19,1.63,1.63,0,0,1-.73-2.19Zm7.25,1.18a1.63,1.63,0,1,1,.73,2.19,1.64,1.64,0,0,1-.73-2.19Zm6.81.36a1.63,1.63,0,1,1,.72,2.19,1.63,1.63,0,0,1-.72-2.19Zm21-3.4a1.63,1.63,0,1,1,.73,2.19,1.63,1.63,0,0,1-.73-2.19ZM187.55,215a1.63,1.63,0,1,1,.73,2.19,1.64,1.64,0,0,1-.73-2.19Zm-48.94-25.78a134.1,134.1,0,0,0,19.7,8.21,99.15,99.15,0,0,0,12.34,2.94,91.76,91.76,0,0,0,12.27,1.34,56.38,56.38,0,0,0,9-.38,52.8,52.8,0,0,0,6.3-1.22c1.72-.45,3.06-.85,4.21-1.25.49-.16,1-.33,1.41-.5.59,2.3,1.15,4.59,1.65,6.85a.69.69,0,0,0-.35,0c-6.84,2-13.68,4-21.24,4.29a62.18,62.18,0,0,1-11.44-.67A81.64,81.64,0,0,1,160.23,206a110.78,110.78,0,0,1-11.41-4.33c-2.93-1.28-5.81-2.64-8.69-4-.47-2.63-1-5.48-1.52-8.43Zm1.81,10c2.61,1.25,5.23,2.47,7.88,3.63a111,111,0,0,0,11.54,4.38,83.09,83.09,0,0,0,12.47,2.88,63.85,63.85,0,0,0,11.69.68c7.73-.31,14.64-2.32,21.55-4.34a.55.55,0,0,0,.24-.12c.25,1.16.48,2.31.71,3.45.28,1.45.46,3.06.7,4.35l.49,4.38a9.32,9.32,0,0,0-1.87.93l-5.83,2.6c-8.55,3.22-20.7,3.83-29.61,2.87a80.86,80.86,0,0,1-9.15-1.51c-5.21-1.18-10.7-3.2-14.66-6.79a15.58,15.58,0,0,1-3.73-4.58c-.13-.28-1.1-5.53-2.42-12.81Z"/><path class="cls-1" d="M13.12,28.27A2.33,2.33,0,0,0,14.55,30c3.18,1.14,10.6-.77,13-2.05-.11-.14-2.4-2.07-2.55-2.11a29.1,29.1,0,0,0-4.14.5c-2.25.36-7.83-.35-7.72,1.9Z"/><path class="cls-1" d="M40.28,37.1c-.29-.9-1.79-1.61-2.87-2.18s-2.2-1.28-3.27-2a53.88,53.88,0,0,1-6-4.58c-2.06,1.53-10.48,4-14.31,2.19.23,1.66,2.56,4,3.7,4.85,4.66,3.55,16,2,22.71,1.69Z"/><path class="cls-1" d="M46.18,49.1c-1,.74-3,3.1-6.27,5.44a2.48,2.48,0,0,0-1,1c-.33.69-.06.72,0,1.6a17,17,0,0,0,4.76-3,6.76,6.76,0,0,0,2.48-5Z"/><path class="cls-1" d="M55.91,57.31c-.12-.92-1.17-2.08-1.7-2.79-.7-1-1.18-1.68-1.87-2.63a59.43,59.43,0,0,0-3.94-5c-3.18,2.37.62,4.45-5.53,8.93-.48.35-1.07.7-1.58,1s-1.15.58-1.68.9c3.43,4.62,9.76,2.55,14.17.51a14.16,14.16,0,0,1,2.13-.9Z"/><path class="cls-1" d="M17.43,93.79c1.85-.09,2.57-1.21,3.51-2.89,2.09-3.7,2.2-6.78-2.32-8C17,82.44,7.34,80.94,6,81.56a11.48,11.48,0,0,0-2.14,1.71,3.43,3.43,0,0,0-1,2.76,4.44,4.44,0,0,1,1.69,1l1.55,1.18c2.78,2.06,8.1,5.7,11.35,5.54Z"/><polygon class="cls-1" points="3.55 87.48 3.77 87.68 3.55 87.48 3.55 87.48"/><path class="cls-1" d="M42.24,89.38A8.11,8.11,0,0,1,41.1,93.8c-.34.63-.64,1.09-1,1.71s-.73,1.22-1.5,1.47L38,96.56c.17-1,.49-1,1-1.84.38-.62.8-1.28,1.09-1.85,1.07-2.11.43-4.07,2.16-3.49Z"/><path class="cls-1" d="M45.56,92.18a8,8,0,0,1-1.85,4.4c-.39.48-.79.93-1.31.63-1.14-.66.82-1.53,1.6-4,.22-.69.22-1.38.9-1.41.35,0,.64.09.66.39Z"/><path class="cls-2" d="M79.63,69.62a2.93,2.93,0,1,1-.36,4.13,2.94,2.94,0,0,1,.36-4.13Z"/><path class="cls-2" d="M73.4,62.18a2.2,2.2,0,1,1-.27,3.1,2.19,2.19,0,0,1,.27-3.1Z"/><path class="cls-2" d="M67.35,55a1.92,1.92,0,1,1-.23,2.7,1.92,1.92,0,0,1,.23-2.7Z"/><path class="cls-2" d="M61.75,48.28a1.51,1.51,0,1,1-.18,2.13,1.52,1.52,0,0,1,.18-2.13Z"/><path class="cls-2" d="M57,42.63a1.26,1.26,0,1,1-.15,1.78A1.26,1.26,0,0,1,57,42.63Z"/><path class="cls-2" d="M52.12,36.79A1.1,1.1,0,1,1,52,38.34a1.11,1.11,0,0,1,.14-1.55Z"/><path class="cls-2" d="M47.52,31.31a.92.92,0,1,1-.11,1.29.92.92,0,0,1,.11-1.29Z"/><path class="cls-2" d="M43.23,26.18a.78.78,0,1,1-.09,1.09.78.78,0,0,1,.09-1.09Z"/><path class="cls-2" d="M39.93,22.25a.57.57,0,1,1,.74.87.58.58,0,0,1-.81-.07.57.57,0,0,1,.07-.8Z"/><path class="cls-2" d="M92.1,113.51a2.93,2.93,0,1,1,1.84,3.72,2.94,2.94,0,0,1-1.84-3.72Z"/><path class="cls-2" d="M82.92,110.39a2.2,2.2,0,1,1,1.38,2.8,2.2,2.2,0,0,1-1.38-2.8Z"/><path class="cls-2" d="M74,107.37a1.92,1.92,0,1,1,1.2,2.43,1.92,1.92,0,0,1-1.2-2.43Z"/><path class="cls-2" d="M65.74,104.57a1.51,1.51,0,1,1,1,1.91,1.51,1.51,0,0,1-1-1.91Z"/><path class="cls-2" d="M58.76,102.2a1.26,1.26,0,1,1,.79,1.6,1.26,1.26,0,0,1-.79-1.6Z"/><path class="cls-2" d="M51.54,99.76a1.1,1.1,0,1,1,.69,1.39,1.1,1.1,0,0,1-.69-1.39Z"/><path class="cls-2" d="M44.77,97.46a.91.91,0,1,1,.57,1.16.9.9,0,0,1-.57-1.16Z"/><path class="cls-2" d="M38.44,95.31a.77.77,0,0,1,1-.48.77.77,0,1,1-.5,1.46.77.77,0,0,1-.48-1Z"/><path class="cls-2" d="M33.57,93.66a.58.58,0,0,1,.73-.35.57.57,0,0,1-.37,1.08.58.58,0,0,1-.36-.73Z"/><polygon class="cls-2" points="137.1 130 133.86 128.41 136.19 125.57 132.77 126.79 132.46 123.12 130.87 126.44 128.11 124.09 129.28 127.57 125.69 127.92 128.93 129.51 126.6 132.36 130.02 131.13 130.33 134.8 131.92 131.48 134.68 133.83 133.51 130.35 137.1 130 137.1 130"/><path class="cls-2" d="M152.25,113.38a6.21,6.21,0,1,0-1.26,8.69,6.21,6.21,0,0,0,1.26-8.69Z"/><path class="cls-2" d="M160,127a6.13,6.13,0,0,0-2.17-2.44,5.71,5.71,0,0,1,1.29,1.72,5.64,5.64,0,1,1-10.12,5,5.58,5.58,0,0,1-.57-2.07A6.11,6.11,0,1,0,160,127Z"/><path class="cls-2" d="M142.69,103.86a6.08,6.08,0,0,1,1.73,2.78,5.8,5.8,0,0,0-1.28-1.74,5.64,5.64,0,1,0-7.64,8.3,5.58,5.58,0,0,0,1.83,1.13,6.1,6.1,0,1,1,5.36-10.47Z"/><path class="cls-2" d="M165.64,140a6.12,6.12,0,0,0-1-1.63,5.85,5.85,0,0,1-10.72,4.7,6,6,0,0,0,.49,1.86A6.15,6.15,0,0,0,165.64,140Z"/><path class="cls-2" d="M131.84,94.75a6.19,6.19,0,0,1,1.26,1.46,5.85,5.85,0,0,0-7.55,9,6.28,6.28,0,0,1-1.65-1,6.16,6.16,0,0,1,7.94-9.41Z"/><path class="cls-2" d="M168.14,155.39c0-.22-.09-.45-.15-.66a7.33,7.33,0,0,1-12.09,1.67,7.3,7.3,0,0,0,.08.92,6.16,6.16,0,1,0,12.16-1.93Z"/><path class="cls-2" d="M117.83,88a4.83,4.83,0,0,1,.59.32,7.33,7.33,0,0,0-5,11.12,7.72,7.72,0,0,1-.87-.33A6.16,6.16,0,0,1,117.83,88Z"/><path class="cls-2" d="M167.72,172.59c0-.12,0-.23,0-.34a15.44,15.44,0,0,1-12.4.1c0,.11,0,.22,0,.33a6.21,6.21,0,0,0,12.42-.09Z"/><path class="cls-2" d="M101.22,83.51l.32.11a15.47,15.47,0,0,0-3.62,11.86l-.32-.09a6.21,6.21,0,0,1,3.62-11.88Z"/></g></g></svg>