<svg xmlns="http://www.w3.org/2000/svg" viewBox="0 0 257.56 247.29"><defs><style>.cls-1{fill-rule:evenodd;}</style></defs><title>lastlh</title><g id="图层_2" data-name="图层 2"><g id="央铋_1" data-name="央铋 1"><path class="cls-1" d="M0,51.15C0,32.41,25.31,0,42.27,0c0,4.2,5.12,25.27,6,28.41,2.8,9.62,7.36,22.27,12.38,30.68,4,6.69,8.21,14.62,15.68,18.76,6.48,3.59,13.77,4.51,21.23,4.87,13.86.66,21.54,5.54,31.46,11.59,1.88,1.15,3.33,2.35,5.12,3.5,18.33,11.7,33,7.84,53.67,15.48,2.7,1,9.33,4,10.21,7.27-5.86-1.37-13.73-7.66-19.51-2.29-4.83,4.5-2.82,9.37,2.81,12.21,2,1,8.77,3,9.4,3.39-8.33,0-31.52-6.55-40.19-8.61-8.88-2.11-16.51-3.17-25.28,0-1.68.61-2.93,1.21-4.62,1.9-.84.35-1.31.63-2.11,1L117,129c-.9.63-1,1.66,1.08.53,6.61-3.48,13.8-5.94,21.63-5.1,1.12.12,2.41.31,3.34.31,0,4.37.27,10.59,3.32,13.64,1.54,1.54,3.32,2.2,5.38,3.23,1.1.55,1.69.82,2.86,1.32l8.72,4.06a161.76,161.76,0,0,0,32.59,10.21c7.92,1.57,7.95.68,15.51.69,1.66,0,2.17-.29,3.9-.28,5.4,0,14.4-1.12,19.76-1.9s12.83-1.41,17.9.52c1.89.72,4.31,2.38,4.36,4.78-3.55-1.71-13.09,1-15.59,3.19-1.46,1.3-.89,2.1-.85,3.86-7.82.17-42.35,8.87-51.93,8.87-6.32,0-11.37-1.68-16.6-3-2.65-.65-5-1.38-7.61-2s-5.14-1.29-8-1.94c-8.66-2-9.86-1-17.89-1.68a26.36,26.36,0,0,1-14.18-5.65l-11.33-8.24c-1-.77-2-1.31-3-2s-1.85-1.32-2.92-2-1.83-1.31-2.92-2L90,138.35c-1.95-1.45-3.8-2.73-5.74-4.18-6.39-4.8-11.36-7.3-18.58-10.91-9.94-5-16.18-7.34-24-15.16-1.72-1.72-3.24-3.25-5-5-1-1-1.4-1.68-2.35-2.61S33,98.88,32,97.93A13.3,13.3,0,0,1,31,96.63c-.45-.52-.67-.65-1.12-1.23l-6.64-8.24c-1.44-1.88-2.78-3.71-4.25-5.67C16.25,77.88,0,53.11,0,51.15Zm124.22,82.9c-.25-.13-.5-.26-.75-.37a8.82,8.82,0,0,1-8.48,15.4,8.18,8.18,0,0,0,.7.43,8.83,8.83,0,0,0,8.53-15.46Zm-2.07-1.53a9.65,9.65,0,0,1,2.4.92,9.52,9.52,0,0,1,3.74,12.93h0a9.52,9.52,0,0,1-15,2.2,9.64,9.64,0,0,1-1.58-2,.34.34,0,0,1,.09-.44.34.34,0,0,1,.48,0,8.79,8.79,0,0,0,1.09,1.11,8.6,8.6,0,0,0,1.29.88,8.13,8.13,0,1,0,7.85-14.24,7.83,7.83,0,0,0-1.43-.62,8.1,8.1,0,0,0-1.52-.33.35.35,0,0,1-.3-.34.33.33,0,0,1,.33-.35,8.91,8.91,0,0,1,2.56.25ZM52,91.75a6.54,6.54,0,1,1,9.23-.53,6.54,6.54,0,0,1-9.23.53ZM25.38,35.51c0,.11.05.23.08.34a16.18,16.18,0,0,1,12.77-2.71l-.06-.35a6.54,6.54,0,1,0-12.79,2.72Zm87.32,77.88-.36,0a16.15,16.15,0,0,0,1.24-13l.36,0a6.54,6.54,0,0,1-1.24,13ZM28.56,53.33a5.37,5.37,0,0,0,.29.65A7.71,7.71,0,0,1,41,49.72a7.75,7.75,0,0,0-.27-.94,6.48,6.48,0,0,0-12.14,4.55Zm66.07,58.93a6.12,6.12,0,0,1-.69-.22A7.71,7.71,0,0,0,96.8,99.52a6.41,6.41,0,0,1,1,.16,6.48,6.48,0,0,1-3.13,12.58ZM34.36,68.64a6.52,6.52,0,0,0,1.42,1.45A6.16,6.16,0,0,1,45.85,63a6.57,6.57,0,0,0-.9-1.82,6.48,6.48,0,1,0-10.59,7.46Zm44.4,39.59A6,6,0,0,1,77.15,107a6.16,6.16,0,0,0,5.9-10.81,6.27,6.27,0,0,1,1.91.69,6.47,6.47,0,1,1-6.2,11.36ZM42.92,80.85a6.43,6.43,0,0,0,2.75,2.07,6,6,0,0,1-1.7-1.5,5.94,5.94,0,1,1,10.42-5.23A6.35,6.35,0,0,0,53.09,73a6.42,6.42,0,0,0-10.17,7.85Zm22.73,20.28a6.47,6.47,0,0,1-2.37-2.51A5.84,5.84,0,0,0,65,100.14,5.94,5.94,0,1,0,71.1,90,5.67,5.67,0,0,0,69,89.2a6.43,6.43,0,1,1-3.32,11.93ZM199.11,77c-1.48-1.7-1.2-6.52-.35-8.69A29.64,29.64,0,0,0,200.15,65h.52c.09,1.07.27.58.27,1.56,0,4-1.58,7.48-1.83,10.44Zm42.8,90.81c-.25-1-.7-2,.61-3,2.27-1.78,10.92-3.85,13.07-3.35a6.44,6.44,0,0,1,2,.91c-.56,2.4-4.67,3.11-6.78,3.66a62.45,62.45,0,0,1-8.87,1.82Zm-10.18-66c-3.9-2.61,1.39-12,2-12.64s-.22-.19.84-.51c2-.62,1.17,1.21.84,2.46s-.72,2.25-1.15,3.55l-2.51,7.14Zm-93.6,42.84,1,3.66,3.38-1.87-1.92,3.3,3.75,1-3.75,1,1.92,3.31-3.38-1.87-1,3.66-1-3.66L133.71,155l1.91-3.31-3.74-1,3.74-1-1.91-3.3,3.38,1.87,1-3.66Zm28.41,15.75a1.85,1.85,0,1,1-3.52,1.13,1.85,1.85,0,0,1,3.52-1.13Zm63.1,3.62a1.85,1.85,0,1,1-2.32-1.19,1.84,1.84,0,0,1,2.32,1.19Zm-16.22,2.66a1.85,1.85,0,1,1-2.33-1.19,1.86,1.86,0,0,1,2.33,1.19Zm-16.18.46a1.85,1.85,0,1,1-2.33-1.19,1.86,1.86,0,0,1,2.33,1.19Zm-15.9-2.46a1.85,1.85,0,1,1-2.33-1.2,1.86,1.86,0,0,1,2.33,1.2Zm-29.36-9a1.85,1.85,0,1,1-3.52,1.13,1.85,1.85,0,0,1,3.52-1.13Zm63.31-75c-5.59-.13-3.66-9-3.66-12.27,0,0,3.7-2.36,3.39,2.08,0,1.21,0,2.36-.05,3.58-.08,1.47.16,4.72.32,6.61Zm-38.36,43.05c0-3.78,3.39-6.52,7-6.52,3.14,0,7.27,1.81,9.73,2.8,3.83,1.53,5.22,1.28,5.91,3.48,1.19,3.81-.05,6.62-2.9,9.32-1.85,1.76-4,.52-7.69-.56-4.36-1.25-12.09-3.18-12.09-8.52ZM155,121.08c.58-1.2-.6-3,.4-5.89.41-1.17.48-.75-.14-1.67-1.36.72-1.45,1.73-1.7,3.8-.15,1.32-.21,3.63,1.44,3.76Zm-3.66-4.69v2.34c0,1-.08.1.27.79,1.37-.37,1-.78,1-2.36.05-1.8.85-2-1-2.08a3.72,3.72,0,0,0-.27,1.31Zm59-41.24c0,5.93,4,6.21,5.22,6.79,0,5.8,1.38,4.5-.46,13.11-.86,4.07-2.13,7.84-3.19,11.68-2.85,10.28-1.93,7.17-7.39,14.54a24.3,24.3,0,0,1-3.57,4c0-4-4-8.57-7.57-10.44l6.75-16.74a19.89,19.89,0,0,0,1.6-6.48c.13-5.63,1-22.31,8.87-23,0,2.56-.26,4.09-.26,6.52ZM197,72.55c0,5.14,1.87,4.67,1.68,6.37l-.87,4.35c-1.6,8-1.47,13.63-6.62,20.52l-5.93,7.64c-3.94-1.89-11.89-3.26-16.37-4l-4.31-.65c-1.32-.24-.6.3-1.24-.58,1.22-.33,4.64-2.86,6-3.67,3.11-1.85,9.06-5.86,10.92-8.64.7-1.05,1.23-1.94,2-3,4.1-5.63,2.48-4.3,3.82-10.79,1.26-6.1,3.83-12.31,9.46-15.33,1.52-.82,1.87-.87,4.09-.87-.3,1.3-1.16,2.36-1.67,3.81a14,14,0,0,0-.94,4.81Zm32.36,25c0,3.8.35,2.72,1.54,5,.52,1-.46,2.83-.86,4-1.6,4.85-3.85,11.77-5.64,16.28-2,5-6.23,10.43-10,14.28-4.54,4.66-8.5,11.52-15.59,14.68a50.92,50.92,0,0,1-8.2,2.52c-1.67.44-2.52,0-4.27-.48l-12.62-3.83a237.91,237.91,0,0,1-22.93-10c-2.77-1.37-4.47-2.16-5.59-5.37a37.06,37.06,0,0,1-1.19-9.76c3,.06,20.5,4.79,23.64,5.58,6,1.51,18.82,4.33,24.89,4.33,4.76,0,7.33-3.4,8.32-7.34.32-1.24,1.4-2.18,2.32-3.16,1.64-1.77,3.05-4,4.58-5.86.84-1,1.51-1.93,2.27-3,3-3.94,4.17-5,6.26-9.66,2-4.44,6.89-21.36,15-18.44.91.33.9.5,1.65.7-1.09,2.06-3.65,6.59-3.65,9.4Z"/><polygon class="cls-1" points="46.83 247.29 51.98 237.37 46.76 215.95 41.9 237.25 46.83 247.29 46.83 247.29"/><path class="cls-1" d="M46.82,138.15a3.36,3.36,0,1,0-3.36-3.36,3.36,3.36,0,0,0,3.36,3.36Z"/><path class="cls-1" d="M46.85,211.22a3.16,3.16,0,1,0-3.15-3.16,3.15,3.15,0,0,0,3.15,3.16Z"/><polygon class="cls-1" points="55.55 159.22 49.7 161.48 54.8 165.09 48.87 163.06 50.45 169.1 47.21 163.74 44.55 169.38 45.51 163.19 39.84 165.8 44.56 161.67 38.54 160.03 44.81 159.9 41.25 154.77 46.13 158.71 46.71 152.49 47.92 158.64 52.36 154.25 49.33 159.74 55.55 159.22 55.55 159.22"/><path class="cls-1" d="M46.54,170.28a2.07,2.07,0,1,1-1.29,2.63,2.07,2.07,0,0,1,1.29-2.63Z"/><path class="cls-1" d="M46.82,149.41a2.07,2.07,0,1,0-2.07-2.07,2.07,2.07,0,0,0,2.07,2.07Z"/><path class="cls-1" d="M46.85,197.58a2.07,2.07,0,1,0-2.07-2.07,2.07,2.07,0,0,0,2.07,2.07Z"/><path class="cls-1" d="M46.67,181.34A2.07,2.07,0,1,1,45.38,184a2.06,2.06,0,0,1,1.29-2.63Z"/><polygon points="47.21 109 47.21 231.62 46.46 231.62 46.46 109 47.21 109 47.21 109"/><polygon points="12.7 66.34 12.7 129.59 11.95 129.59 11.95 66.34 12.7 66.34 12.7 66.34"/><path class="cls-1" d="M12.33,87.85A3.36,3.36,0,1,1,9,91.21a3.36,3.36,0,0,1,3.36-3.36Z"/><path class="cls-1" d="M12.33,101.48a2.07,2.07,0,1,1-2.07,2.07,2.07,2.07,0,0,1,2.07-2.07Z"/><path class="cls-1" d="M12.33,114.64a2.07,2.07,0,1,1-2.07,2.07,2.07,2.07,0,0,1,2.07-2.07Z"/><polygon class="cls-1" points="12.52 157.42 17.68 147.5 12.45 126.08 7.59 147.38 12.52 157.42 12.52 157.42"/><path class="cls-1" d="M12.33,75A2.07,2.07,0,1,1,10.26,77,2.07,2.07,0,0,1,12.33,75Z"/><polygon points="60.11 104.13 60.11 188.36 59.36 188.36 59.36 104.13 60.11 104.13 60.11 104.13"/><path class="cls-1" d="M59.73,143.73a3.36,3.36,0,1,1-3.36,3.36,3.36,3.36,0,0,1,3.36-3.36Z"/><path class="cls-1" d="M59.73,157.37a2.07,2.07,0,1,1-2.07,2.07,2.07,2.07,0,0,1,2.07-2.07Z"/><path class="cls-1" d="M59.73,170.53a2.07,2.07,0,1,1-2.07,2.07,2.06,2.06,0,0,1,2.07-2.07Z"/><polygon class="cls-1" points="59.93 213.31 65.08 203.39 59.86 181.97 55 203.27 59.93 213.31 59.93 213.31"/><path class="cls-1" d="M59.73,130.85a2.07,2.07,0,1,1-2.07,2.07,2.07,2.07,0,0,1,2.07-2.07Z"/><polygon points="78.64 128.24 78.64 201.14 77.88 201.14 77.88 128.24 78.64 128.24 78.64 128.24"/><path class="cls-1" d="M78.26,172.73a2.07,2.07,0,1,1-2.07,2.07,2.07,2.07,0,0,1,2.07-2.07Z"/><path class="cls-1" d="M78.26,185.89A2.07,2.07,0,1,1,76.19,188a2.07,2.07,0,0,1,2.07-2.07Z"/><polygon class="cls-1" points="78.45 228.67 83.61 218.75 78.38 197.33 73.53 218.64 78.45 228.67 78.45 228.67"/><path class="cls-1" d="M78.26,146.22a2.07,2.07,0,1,1-2.07,2.07,2.07,2.07,0,0,1,2.07-2.07Z"/><polygon points="29.21 86.54 29.21 170.78 28.46 170.78 28.46 86.54 29.21 86.54 29.21 86.54"/><path class="cls-1" d="M28.83,126.15a3.36,3.36,0,1,1-3.35,3.36,3.35,3.35,0,0,1,3.35-3.36Z"/><path class="cls-1" d="M28.83,139.78a2.07,2.07,0,1,1-2.07,2.07,2.07,2.07,0,0,1,2.07-2.07Z"/><path class="cls-1" d="M28.83,152.94A2.07,2.07,0,1,1,26.76,155a2.07,2.07,0,0,1,2.07-2.07Z"/><path class="cls-1" d="M28.83,113.27a2.07,2.07,0,1,1-2.07,2.07,2.07,2.07,0,0,1,2.07-2.07Z"/><path class="cls-1" d="M34,166.57a14.12,14.12,0,0,1,7.35,2.05,12,12,0,0,0-1.48-.09,12.27,12.27,0,0,0,0,24.53,14.34,14.34,0,0,0,1.48-.09A14.22,14.22,0,1,1,34,166.57Z"/></g></g></svg>