<svg xmlns="http://www.w3.org/2000/svg" viewBox="0 0 275.07 182.41"><defs><style>.cls-1{fill-rule:evenodd;}</style></defs><title>lastrh</title><g id="图层_2" data-name="图层 2"><g id="央铋_1" data-name="央铋 1"><path class="cls-1" d="M262.65,11.87c13,13.45,17.43,54.34,5.25,66.15-2.59-2.67-17.32-12.08-22.6-15.3v2.85a2.07,2.07,0,0,1,0,4.07v8.8a3.36,3.36,0,0,1,0,6.68v7a2.07,2.07,0,0,1,0,4.07v9.08a2.07,2.07,0,0,1,0,4.08v9.52L249.66,138l-4.93,10-5.15-9.92,5-20.39v-8.36a2.08,2.08,0,0,1,0-4.08V96.16a2.07,2.07,0,0,1,0-4.07v-7a3.36,3.36,0,0,1,0-6.68v-8.8a2.07,2.07,0,0,1,0-4.07v-3.3l-.76-.45c-4.39-2.5-9.65-5.24-15-7.67V75.82a2.07,2.07,0,0,1,0,4.07v8.8a3.36,3.36,0,0,1,0,6.67v7a2.07,2.07,0,0,1,0,4.07v9.08a2.07,2.07,0,0,1,0,4.07V130.2a14.22,14.22,0,1,1-12.87,25.28,12.12,12.12,0,0,0,1.48.09,12.26,12.26,0,1,0,0-24.52,12.12,12.12,0,0,0-1.48.09,14.16,14.16,0,0,1,7.36-2,14.36,14.36,0,0,1,4.75.81V119.56a2.07,2.07,0,0,1,0-4.07v-9.08a2.07,2.07,0,0,1,0-4.07v-7a3.36,3.36,0,0,1,0-6.67v-8.8a2.07,2.07,0,0,1,0-4.07v-22a100,100,0,0,0-14.49-5.38l-2.75-.75V66.57a3.36,3.36,0,0,1,0,6.68v7.17a2.07,2.07,0,0,1,0,4.07v5.86l.32,3.48L216,89.89,212.45,95l6.26.13-6,1.64,4.72,4.13-5.67-2.61,1,6.19-1.91-4v5A2.07,2.07,0,0,1,212,108a2,2,0,0,1-1.2,1.25v7.26a2.07,2.07,0,0,1,0,3.75v8.31a2.07,2.07,0,0,1,0,4.06v7.39a3.15,3.15,0,0,1,0,6.26v6.08l4.56,20-4.93,10-5.15-9.93,4.77-19.57v-6.59a3.16,3.16,0,0,1,0-6.27v-7.38a2.07,2.07,0,0,1,0-4.08v-8.11a2,2,0,0,1-.8-.11,2.07,2.07,0,0,1,.8-4v-6.92a2.35,2.35,0,0,1-.68-.11,2.07,2.07,0,0,1,.68-4V98.85l-3.24,5.37,1.59-6-5.94,2,5.1-3.61-5.85-2.26,6.23.52-3-5.49,4.44,4.39.71-3.63V84.49a2.07,2.07,0,0,1,0-4.07V73.24a3.36,3.36,0,0,1,0-6.67V47.47a62.07,62.07,0,0,0-12.43-2.37v5.78a2.07,2.07,0,0,1,0,4.07v8.8a3.36,3.36,0,0,1,0,6.67v7a2.07,2.07,0,0,1,0,4.07v9.08a2.07,2.07,0,0,1,0,4.07v9.55l4.35,19.1-4.93,10-5.15-9.92,5-20.38V94.62a2.07,2.07,0,0,1,0-4.07V81.47a2.07,2.07,0,0,1,0-4.07v-7a3.36,3.36,0,0,1,0-6.67V55a2.07,2.07,0,0,1,0-4.07V45.06a26,26,0,0,0-7.63.81,35.38,35.38,0,0,0-9.86,4.49V65.72a2.07,2.07,0,0,1,0,4.07V92.23a2.07,2.07,0,0,1,0,4.08v9.08a2.07,2.07,0,0,1,0,4.07V119l4.36,19.11-4.93,10-5.15-9.92,5-20.39v-8.37a2.07,2.07,0,0,1,0-4.07V96.31a2.08,2.08,0,0,1,0-4.08V69.79a2.07,2.07,0,0,1,0-4.07V50.85a75.73,75.73,0,0,0-8,6.3c-10.41,9.18-19.32,11-30.66,13.58-2.15.49-4,.63-6.11,1.06-21.3,4.36-29.14,17.33-49.3,26.24-2.64,1.17-9.47,3.65-12.4,1.9,5.17-3.11,15.2-4.07,15.6-11.94.34-6.59-4.49-8.7-10.51-6.81-2.16.68-8.34,4-9.11,4.11,6-5.8,27.19-17.24,34.85-21.8,7.85-4.67,14.06-9.22,18.13-17.62.78-1.6,1.26-2.9,2-4.58.36-.84.5-1.36.8-2.21l.61-1.68c.21-1.08-.4-1.92-1.15.37-2.31,7.1-5.77,13.87-12,18.72a33,33,0,0,0-2.61,2.11c-3.05-3.14-7.57-7.42-11.89-7.49-2.17,0-3.91.74-6.11,1.43-1.17.37-1.78.59-3,1L78.7,56.74A162,162,0,0,0,48.2,72.09c-6.78,4.39-6.18,5-11.61,10.31-1.19,1.15-1.36,1.72-2.61,2.91C30.07,89,24.42,96.14,21.12,100.43s-8.23,9.95-13.22,12.09c-1.85.8-4.74,1.29-6.45-.39,3.74-1.25,8.73-9.8,9-13.15.14-2-.82-2.12-2.07-3.36,5.49-5.57,24.22-35.85,31.1-42.52,4.54-4.4,9.33-6.71,14-9.42,2.36-1.38,4.53-2.47,6.88-3.84s4.59-2.65,7.08-4.17c7.59-4.61,7.82-6.11,14-11.25a26.41,26.41,0,0,1,14.12-5.81l13.87-2c1.27-.16,2.32-.41,3.52-.6s2.24-.34,3.51-.57,2.23-.33,3.52-.57l17.39-3c2.4-.32,4.62-.69,7-1,7.92-1,13.24-2.67,20.93-5.1C175.9,2.47,182-.17,193.07,0c2.43,0,4.58.08,7,.1,1.35,0,2.18.24,3.5.25s2.17.19,3.51.23a15.94,15.94,0,0,1,1.65.19c.69.07.93,0,1.66.11l10.5,1.3c2.35.34,4.58.73,7,1.11,4.47.7,33.38,7.17,34.75,8.57ZM98.42,40.94,95.13,39,94,42.73,93.07,39,89.68,40.9l2-3.33-3.67-1,3.73-1-1.8-3.35,3.29,1.91,1.12-3.7.93,3.71,3.4-1.88-2,3.33,3.68,1-3.73,1,1.8,3.35ZM19.23,90.74A1.85,1.85,0,1,1,21.74,90a1.86,1.86,0,0,1-2.51.77ZM29,77.53a1.85,1.85,0,1,1,2.51-.76,1.85,1.85,0,0,1-2.51.76Zm11.3-11.59a1.85,1.85,0,1,1,2.5-.77,1.86,1.86,0,0,1-2.5.77Zm13.13-9.3a1.85,1.85,0,1,1,2.5-.77,1.86,1.86,0,0,1-2.5.77Zm27.33-14a1.85,1.85,0,1,1,2.5-.76,1.85,1.85,0,0,1-2.5.76ZM67.06,49.41a1.85,1.85,0,1,1,2.5-.77,1.85,1.85,0,0,1-2.5.77ZM116.5,39.28a9.59,9.59,0,0,0,4.2-2.88.35.35,0,0,0,0-.49.33.33,0,0,0-.44,0,8.35,8.35,0,0,1-1.27.91,8.67,8.67,0,0,1-1.42.64,8.12,8.12,0,0,1-10.33-5.05h0a8.12,8.12,0,0,1,5-10.33h0a8.18,8.18,0,0,1,1.52-.36,8,8,0,0,1,1.55-.07.35.35,0,0,0,.36-.33.34.34,0,0,0-.29-.35,9.35,9.35,0,0,0-2.54-.2,9.52,9.52,0,1,0,3.66,18.51Zm.55-1c-.25.11-.51.22-.78.31a8.83,8.83,0,1,1-5.73-16.7c.26-.09.53-.17.8-.24a8.84,8.84,0,0,0-4.81,10.92l0,.06a8.84,8.84,0,0,0,10.5,5.65ZM197,19a6.54,6.54,0,1,1-6.26,6.8A6.54,6.54,0,0,1,197,19Zm-16.3,2.75a6.22,6.22,0,0,1,3.43.15,5.77,5.77,0,0,0-2.26.08,5.94,5.94,0,1,0,4.74,10.65,6.43,6.43,0,1,1-5.91-10.88Zm30.43-1.27a6.34,6.34,0,0,0-3.42.43,6.1,6.1,0,0,1,2.26-.11,5.94,5.94,0,1,1-1.7,11.76,6.14,6.14,0,0,1-2.13-.75,6.43,6.43,0,1,0,5-11.33Zm-44.8,5.29a6.41,6.41,0,0,1,2-.23,6.16,6.16,0,0,0,3.29,11.87,6.11,6.11,0,0,1-1.85.84,6.48,6.48,0,0,1-3.46-12.48Zm59.44-2.48a6.32,6.32,0,0,0-2-.06,6.16,6.16,0,0,1-2.29,12.1,6.48,6.48,0,1,0,4.32-12ZM152.17,33.88a5.46,5.46,0,0,1,.64-.32,7.71,7.71,0,0,0,6.67,11,7.54,7.54,0,0,1-.8.55,6.48,6.48,0,1,1-6.51-11.21Zm88.46-3.69c-.22-.1-.44-.19-.67-.27a7.71,7.71,0,0,1-5.73,11.5,6.5,6.5,0,0,0,9.48-2.6,6.48,6.48,0,0,0-3.08-8.63ZM138.41,45.65l.29-.22a16.09,16.09,0,0,0,8.16,10.19,3.11,3.11,0,0,1-.28.23,6.53,6.53,0,1,1-8.17-10.2Zm116.91-4.88-.3-.19a16.21,16.21,0,0,1-7.29,10.84l.29.2a6.54,6.54,0,1,0,7.3-10.85Zm-153.6,91.17c2.24.19,5.4,3.84,6.3,6a31.09,31.09,0,0,0,1.31,3.34l-.38.37c-.81-.71-.59-.24-1.27-1-2.8-2.89-4.07-6.46-6-8.76Zm-14.16,8.64c4.1-3.8,8.88,3.9,11.17,6.26.07,1.12-1.37,3.91-3.88.86-.82-.89-1.65-1.68-2.46-2.6a64.37,64.37,0,0,0-4.83-4.52Zm-26.51-3.73c4.61-.84,7.37,9.6,7.38,10.45s.28,0-.25,1c-1,1.84-1.69-.06-2.31-1.19s-1.06-2.11-1.65-3.34l-3.17-6.88ZM85.13,83c2.63,2.71,2.1,7.05-.52,9.59-2.25,2.18-6.48,3.76-8.93,4.77C71.86,98.87,71,100,69,98.93c-3.51-1.91-4.57-4.79-4.4-8.72.11-2.54,2.47-3.11,5.9-4.94,4-2.14,10.9-6.14,14.62-2.31ZM7.78,96.54c.9.58,1.9,1,1.68,2.61C9.07,102,4.3,109.52,2.4,110.66a6.2,6.2,0,0,1-2,.71c-1.26-2.11,1.2-5.48,2.33-7.34a62.15,62.15,0,0,1,5.1-7.49Zm94.9-27c.42,1.26,2.52,1.72,3.81,4.51.53,1.12.18.87,1.27,1.1.48-1.46-.17-2.25-1.43-3.91-.8-1-2.37-2.75-3.65-1.7Zm5.89.83-1.63-1.69c-.7-.72,0-.12-.73-.38-.73,1.22-.19,1.25.88,2.42,1.22,1.33.81,2,2.2.76a3.56,3.56,0,0,0-.72-1.11ZM94.94,141.06c-4.13-4.25-7.21-1.66-8.47-1.24-4-4.16-4.13-2.27-8.8-9.73-2.21-3.52-3.93-7.1-5.84-10.61-5.11-9.36-3.6-6.49-4.82-15.57a24.46,24.46,0,0,1-.21-5.36c2.76,2.84,8.85,3.35,12.7,2.23l6.81,16.71a19.76,19.76,0,0,0,3.36,5.77c3.83,4.14,14.82,16.71,9.62,22.67-1.78-1.84-2.65-3.12-4.35-4.87Zm11.37-7.39c-3.58-3.69-4.6-2-5.64-3.41l-2.4-3.73c-4.43-6.85-8.44-10.81-9.54-19.34l-1.06-9.61c4.14-1.38,10.8-5.94,14.53-8.53l3.54-2.53c1.12-.75.22-.63,1.3-.45-.65,1.08-1.34,5.29-1.75,6.8-.94,3.5-2.42,10.51-1.82,13.81.22,1.24.46,2.25.65,3.52,1,6.9,1.21,4.81,4.77,10.41,3.34,5.26,5.81,11.51,3.88,17.59-.53,1.65-.75,1.93-2.34,3.47-.68-1.14-.8-2.5-1.45-3.9a13.84,13.84,0,0,0-2.67-4.1Zm-40.67,4.54c-2.65-2.73-2.15-1.71-4.59-2.52-1.07-.35-1.64-2.35-2.19-3.49-2.23-4.59-5.43-11.13-7.28-15.61-2-5-2.79-11.83-2.78-17.21,0-6.5-1.91-14.18,1-21.39a49,49,0,0,1,4.13-7.52c.89-1.47,1.81-1.75,3.4-2.62l11.72-6A236.6,236.6,0,0,1,92.42,53c2.94-.93,4.71-1.56,7.75,0a36.87,36.87,0,0,1,7.65,6.18c-2.2,2-18,10.82-20.86,12.44-5.33,3.08-16.52,10-20.88,14.23-3.42,3.31-2.9,7.54-.87,11.06.64,1.11.52,2.54.55,3.88,0,2.41.57,5,.78,7.39.11,1.33.27,2.45.43,3.7.62,4.89.48,6.49,2.23,11.29,1.66,4.58,9.92,20.14,2,23.72-.88.4-1,.27-1.67.65-.65-2.24-2-7.27-3.92-9.29Z"/></g></g></svg>