<svg xmlns="http://www.w3.org/2000/svg" viewBox="0 0 235.1 200.15"><defs><style>.cls-1,.cls-2{fill-rule:evenodd;}.cls-2{fill:#fff;}</style></defs><title>lastlh2</title><g id="图层_2" data-name="图层 2"><g id="央铋_1" data-name="央铋 1"><path class="cls-1" d="M221.81,192.45a6.55,6.55,0,0,0-4.61,3c.64.17,1.35.25,2.08.41,3.47.79,12.16,4.68,14.52,4.24,1.54-.29,2.32-3.06-1.21-4.86-2.61-1.33-7.82-3.36-10.78-2.81Z"/><path class="cls-1" d="M219.74,113.55c-1.85-.14-9.13-5.88-14.53-5-3.2.5-5,6.13-4.35,9,1,4.77,8.64,3.88,12.35,3.7,1.15,0,2.19-.45,2.82.13a53.22,53.22,0,0,1-5.37,1.21c-1.63.17-3.48.39-5.26.53-12.45,1-16.37,1.27-27.85-2-5.85-1.67-10.19-3.63-16.44-4.61l-13.39-1.91c-2.17-.3-3.49-1.06-3.56.42,2.82-.29,6.43,1.36,9.25,1.07a8.45,8.45,0,0,1-.35,1.94,10.45,10.45,0,0,0-.18,1.87,23.9,23.9,0,0,0,1.68,8.57c.51,1.43.94,2.53,1.54,3.84a30.55,30.55,0,0,0,3.87,6.54c.45.56.77.85,1.2,1.43,2.26,3,12.44,13.49,15.59,16.73l6.31,6.16c2.75,2.53,6,6.15,9.33,7.59a73.86,73.86,0,0,1,9.35,4.63c2.67,1.61,6.3,4.42,9.22,4.83,4.32.59,6.38,1.52,10.14,3.47a37.4,37.4,0,0,1,5.69,3.89c2.33,2,3.12,2.62,4,6-2.53-.78-4.8-1.85-7.53-2-3.82-.18-4.73,1.38-7,3.64a17.38,17.38,0,0,1-2.47-.37,20.42,20.42,0,0,0-2.56-.24c-7.39-.43-16.95-1.41-23.63-4.19l-3.86-2c-1.32-.67-2.37-1.69-3.65-2.37l-7.44-4.77c-2.28-1.92-4-4.3-6-6.6l-6.28-6.2c-1.14-1-2.13-1.93-3.28-2.9l-10.32-8.25c-.73-.65-1.11-.8-1.79-1.36a20.5,20.5,0,0,0-1.66-1.29c-.54-.39-1.31-1.43-1.8-1.11s-.08.51.16.79l7.72,6c1,.94,2.27,1.72,3.41,2.72,4.47,3.94,9.1,7.43,13.06,11.93,1,1.19,1.89,2.2,3,3.39a28,28,0,0,0,7.61,6.37l4.63,2.79a9.78,9.78,0,0,1,1.68,1.25c-6,1.12-11,2.29-16,1.92-4.42-.32-7.89-2.19-11.37-4.6l-8.86-5.88c-4.76-2.84-9.3-6-14.13-8.79-1.81-1-8.66-4.59-9.74-4.24-.72.23-.42.61.39.9.48.17.95.22,1.54.43a44.92,44.92,0,0,1,6.88,3.22l19.09,12.14a9.19,9.19,0,0,1,1.28.78,8.82,8.82,0,0,1-4.85-.34,88.38,88.38,0,0,1-11.57-5.11c-7-3.69-9.24-5-17.46-7.4-1.11-.33-1.55.2-.48.69,1.92.86,5.24,1.08,12.07,4.42,1.3.64,2.48,1.28,3.71,2s2.32,1.25,3.57,1.93a42,42,0,0,0,3.82,1.85c.71.3,1.26.55,2,.84.41.16.58.19,1,.37l.41.18a2.62,2.62,0,0,1,.4.22,21.23,21.23,0,0,0-4.32,1.22c-3.8,1.52-4.42,3.09-7.26,1.11-5.78-4-11.39-4.46-15.7-7.29a39.38,39.38,0,0,1-7.88-6.78c-.8-.91-1.55-1.67-2.39-2.6l-9.54-10.19c-10-10.23-19-19.39-29.72-29.23l-5.19-4.62C51,116.39,47.65,111.51,40.17,98c-2.5-4.51-5.06-8.92-7.37-13.63l-3.64-6.88c-1.17-2.24-2.31-4.45-3.49-6.82s-2.41-4.7-3.57-7l-7-14.15C12.27,44.06,9.5,38.11,7,32.12c.43-.23.9-.48,1.4-.73,1.09-.54,2.34-1.12,3.92-1.76a50.86,50.86,0,0,1,5.92-2A55.24,55.24,0,0,1,27,26.06a90.72,90.72,0,0,1,12.15-.33A99.7,99.7,0,0,1,51.57,27a136.57,136.57,0,0,1,21.34,5.73C77.52,46.91,82.71,62.94,84,66.57c2.25,6.2,4.82,10.45,9.9,12.59C105,83.82,120,77.55,144.07,87.82l7.31,3.11c1.29.55,2.34,1,3.62,1.6s2.2,1,3.44,1.6,2.33,1.06,3.62,1.61A75.55,75.55,0,0,0,182,100.88c2.91.4,5.65.71,8.46,1.17a67.51,67.51,0,0,1,10.3,2.18c.71.23,1.2.37,1.95.59a33.68,33.68,0,0,1,3.63,1.33c2.32,1,4.84,2,7.08,3.17a34.7,34.7,0,0,1,3.41,1.93c.85.59,2.52,1.37,3,2.3ZM14.13,14.22a1.63,1.63,0,1,1-1-2.07,1.62,1.62,0,0,1,1,2.07Zm50.7-.47a1.63,1.63,0,1,1-1-2.07,1.62,1.62,0,0,1,1,2.07ZM56.55,12a1.63,1.63,0,1,1-1-2.07,1.63,1.63,0,0,1,1,2.07Zm-7.14-1a1.63,1.63,0,1,1-1-2.07,1.64,1.64,0,0,1,1,2.07Zm-8-.45a1.63,1.63,0,1,1-1-2.07,1.64,1.64,0,0,1,1,2.07ZM34,10.38A1.63,1.63,0,1,1,33,8.3a1.63,1.63,0,0,1,1,2.08Zm-6.79.56a1.63,1.63,0,0,1-2.07,1,1.63,1.63,0,1,1,2.07-1ZM6.87,17.15a1.63,1.63,0,1,1-1-2.08,1.63,1.63,0,0,1,1,2.08Zm13.55-4.94a1.63,1.63,0,1,1-1-2.08,1.63,1.63,0,0,1,1,2.08Zm52,18.92a134.15,134.15,0,0,0-20.62-5.48,100.18,100.18,0,0,0-12.63-1.24,93.54,93.54,0,0,0-12.34.33,56.28,56.28,0,0,0-8.9,1.61,48.92,48.92,0,0,0-6.08,2.06c-1.65.67-2.92,1.25-4,1.8q-.69.34-1.32.69c-.9-2.2-1.76-4.39-2.56-6.57a.58.58,0,0,0,.34,0c6.51-2.9,13-5.79,20.46-7.12a62.51,62.51,0,0,1,11.44-.88,81.31,81.31,0,0,1,12.53,1.15A109.19,109.19,0,0,1,60.6,20.18c3.08.87,6.12,1.83,9.15,2.8.83,2.54,1.73,5.3,2.65,8.15Zm-3.15-9.69c-2.75-.89-5.51-1.75-8.29-2.53a112.36,112.36,0,0,0-12-2.79A82.89,82.89,0,0,0,36.19,15a63.64,63.64,0,0,0-11.68.9c-7.62,1.36-14.19,4.29-20.76,7.21a.6.6,0,0,0-.22.16c-.41-1.12-.8-2.22-1.17-3.32-.48-1.4-.88-3-1.29-4.22L0,11.42a9.84,9.84,0,0,0,1.72-1.18L7.15,6.88c8-4.34,20-6.59,29-6.84a77.21,77.21,0,0,1,9.27.25C50.69.75,56.4,2,60.81,5a15.74,15.74,0,0,1,4.32,4c.16.27,1.83,5.33,4.12,12.37Z"/><path class="cls-1" d="M218.5,173.68a2.3,2.3,0,0,0-1.65-1.56c-3.3-.7-10.4,2.2-12.58,3.8.13.11,2.66,1.71,2.81,1.74a29.09,29.09,0,0,0,4-1.06c2.19-.66,7.81-.71,7.39-2.92Z"/><path class="cls-1" d="M190.4,168.6c.41.85,2,1.35,3.15,1.77s2.34,1,3.5,1.51a52.07,52.07,0,0,1,6.52,3.74c1.84-1.8,9.85-5.37,13.88-4.11-.44-1.62-3.07-3.6-4.31-4.31-5.1-2.89-16.11.16-22.74,1.4Z"/><path class="cls-1" d="M182.94,157.5c.88-.86,2.6-3.48,5.47-6.23a2.48,2.48,0,0,0,.83-1.08c.24-.73,0-.73-.21-1.59a17.09,17.09,0,0,0-4.32,3.58,6.73,6.73,0,0,0-1.77,5.32Z"/><path class="cls-1" d="M172.18,150.68a7.92,7.92,0,0,0,2.07,2.55c.82.84,1.39,1.49,2.2,2.34A57.8,57.8,0,0,0,181,160c2.83-2.77-1.22-4.32,4.27-9.59a16.5,16.5,0,0,1,1.43-1.2c.53-.42,1.06-.73,1.55-1.12-4-4.12-10-1.21-14.12,1.41a12.81,12.81,0,0,1-2,1.17Z"/><path class="cls-1" d="M205.37,109.34c-1.82.34-2.37,1.54-3.08,3.34-1.56,3.94-1.27,7,3.38,7.63,1.67.22,11.44.4,12.74-.4a11.86,11.86,0,0,0,1.89-2,3.39,3.39,0,0,0,.58-2.86,4.48,4.48,0,0,1-1.81-.81l-1.7-1c-3-1.66-8.79-4.55-12-4Z"/><polygon class="cls-1" points="219.98 113.72 219.74 113.55 219.98 113.72 219.98 113.72"/><path class="cls-1" d="M181.4,117.07a8.06,8.06,0,0,1,.53-4.54c.25-.67.48-1.17.77-1.83A2.74,2.74,0,0,1,184,109l.68.33c0,1-.35,1-.77,2a20.94,20.94,0,0,0-.83,2c-.79,2.23.12,4.09-1.67,3.76Z"/><path class="cls-1" d="M177.73,114.74a7.93,7.93,0,0,1,1.23-4.61c.32-.53.66-1,1.21-.8,1.22.5-.6,1.62-1,4.19-.12.71,0,1.39-.7,1.52-.34.06-.65,0-.7-.3Z"/><path class="cls-2" d="M147,141.7a2.94,2.94,0,1,1-.2-4.14,2.94,2.94,0,0,1,.2,4.14Z"/><path class="cls-2" d="M154.19,148.22a2.2,2.2,0,1,1-.14-3.1,2.19,2.19,0,0,1,.14,3.1Z"/><path class="cls-2" d="M161.16,154.56a1.91,1.91,0,1,1-.13-2.71,1.91,1.91,0,0,1,.13,2.71Z"/><path class="cls-2" d="M167.62,160.42a1.51,1.51,0,1,1-.11-2.13,1.5,1.5,0,0,1,.11,2.13Z"/><path class="cls-2" d="M173.08,165.38a1.26,1.26,0,1,1-.09-1.78,1.27,1.27,0,0,1,.09,1.78Z"/><path class="cls-2" d="M178.72,170.51a1.11,1.11,0,0,1-1.56.07,1.1,1.1,0,1,1,1.56-.07Z"/><path class="cls-2" d="M184,175.32a.93.93,0,0,1-1.3.06.92.92,0,1,1,1.3-.06Z"/><path class="cls-2" d="M189,179.81a.77.77,0,0,1-1.09.06.78.78,0,0,1,1-1.15.76.76,0,0,1,0,1.09Z"/><path class="cls-2" d="M192.76,183.27a.57.57,0,1,1,0-.81.58.58,0,0,1,0,.81Z"/><path class="cls-2" d="M128.72,99.9a2.93,2.93,0,1,1-2.32-3.44,2.92,2.92,0,0,1,2.32,3.44Z"/><path class="cls-2" d="M138.25,101.74a2.21,2.21,0,1,1-1.75-2.58,2.21,2.21,0,0,1,1.75,2.58Z"/><path class="cls-2" d="M147.49,103.53a1.92,1.92,0,1,1-3.76-.73,1.92,1.92,0,0,1,3.76.73Z"/><path class="cls-2" d="M156.05,105.19a1.51,1.51,0,1,1-1.19-1.77,1.5,1.5,0,0,1,1.19,1.77Z"/><path class="cls-2" d="M163.29,106.59a1.26,1.26,0,0,1-2.48-.48,1.27,1.27,0,0,1,1.48-1,1.25,1.25,0,0,1,1,1.48Z"/><path class="cls-2" d="M170.78,108a1.1,1.1,0,1,1-.87-1.29,1.1,1.1,0,0,1,.87,1.29Z"/><path class="cls-2" d="M177.8,109.4a.92.92,0,1,1-1.8-.35.92.92,0,0,1,1.8.35Z"/><path class="cls-2" d="M184.36,110.67a.78.78,0,0,1-.91.61.77.77,0,0,1-.61-.9.77.77,0,1,1,1.52.29Z"/><path class="cls-2" d="M189.4,111.65A.57.57,0,1,1,189,111a.57.57,0,0,1,.45.67Z"/><polygon class="cls-2" points="81.91 89.64 85.34 90.78 83.42 93.91 86.64 92.23 87.44 95.83 88.56 92.32 91.62 94.28 89.99 90.99 93.5 90.16 90.08 89.02 91.99 85.89 88.78 87.56 87.97 83.97 86.85 87.48 83.79 85.52 85.42 88.81 81.91 89.64 81.91 89.64"/><path class="cls-2" d="M69.15,108.16a6.21,6.21,0,1,0,.08-8.79,6.21,6.21,0,0,0-.08,8.79Z"/><path class="cls-2" d="M59.62,95.67a6.1,6.1,0,0,0,2.49,2.12,5.5,5.5,0,0,1-1.52-1.52A5.64,5.64,0,1,1,70,90a5.46,5.46,0,0,1,.84,2,6.11,6.11,0,1,0-11.17,3.71Z"/><path class="cls-2" d="M79.91,116.3a6.1,6.1,0,0,1-2.09-2.52,5.64,5.64,0,1,0,8-7.71,5.41,5.41,0,0,0-2-.87,6.1,6.1,0,1,1-3.89,11.1Z"/><path class="cls-2" d="M52.27,83.55A6.2,6.2,0,0,0,53.53,85a5.85,5.85,0,0,1,10-6.1,6.15,6.15,0,1,0-11.24,4.63Z"/><path class="cls-2" d="M91.89,123.85a6.33,6.33,0,0,1-1.45-1.27,5.85,5.85,0,0,0,6.27-9.88,6.15,6.15,0,1,1-4.82,11.15Z"/><path class="cls-2" d="M47.73,68.68a4.88,4.88,0,0,0,.23.64A7.32,7.32,0,0,1,59.71,66a5.81,5.81,0,0,0-.2-.9,6.15,6.15,0,1,0-11.78,3.55Z"/><path class="cls-2" d="M106.69,128.65c-.22-.07-.43-.15-.64-.24a7.33,7.33,0,0,0,3.49-11.7,5.9,5.9,0,0,1,.9.22,6.15,6.15,0,1,1-3.75,11.72Z"/><path class="cls-2" d="M45.82,51.59l.06.33a15.34,15.34,0,0,1,12.27-1.77c0-.12,0-.23,0-.34a6.21,6.21,0,1,0-12.29,1.78Z"/><path class="cls-2" d="M123.74,130.85l-.33-.06a15.37,15.37,0,0,0,2-12.25l.34,0a6.21,6.21,0,1,1-2,12.26Z"/></g></g></svg>