<svg xmlns="http://www.w3.org/2000/svg" viewBox="0 0 564.88 276.83"><defs><style>.cls-1,.cls-2,.cls-5{fill:#fff;}.cls-1,.cls-3{stroke:#fff;stroke-miterlimit:10;}.cls-2{stroke:#000;stroke-linecap:round;stroke-linejoin:round;stroke-width:8.6px;}.cls-3{stroke-width:5px;}.cls-4,.cls-5{fill-rule:evenodd;}</style></defs><title>sae3j</title><g id="图层_2" data-name="图层 2"><g id="央铋_1" data-name="央铋 1"><line class="cls-1" x1="0.52" y1="156.38" x2="173" y2="156.85"/><path class="cls-1" d="M.52,156.27s2.69-.17,7.41-.34,11.46-.35,19.54-.42q3,0,6.31,0t6.75,0c4.63.06,9.52.25,14.56.43,2.53.08,5.1.16,7.7.22s5.23.08,7.88.08c5.31,0,10.7-.09,16.09-.23l8.08-.21,4-.07,4,0c5.31-.05,10.53-.11,15.59-.14s9.93,0,14.57,0,9,.13,13.05.21,7.74.18,11,.3l2.39.07,2.22.08,3.9.15c4.71.19,7.41.35,7.41.35V157s-2.7.15-7.41.32l-3.91.12-2.22.07-2.39.06c-3.28.1-7,.16-11,.23s-8.43.12-13.06.15-9.52,0-14.57,0-10.27-.14-15.58-.22l-4-.07-4-.1c-2.68-.08-5.37-.17-8.07-.24-5.39-.18-10.78-.3-16.08-.32-2.65,0-5.29,0-7.89,0s-5.16.11-7.69.18c-5.06.15-10,.32-14.58.34q-3.48,0-6.75,0t-6.3-.06c-8.09-.12-14.82-.32-19.54-.53S.51,156.5.51,156.5Z"/><line class="cls-1" x1="60.62" y1="156.38" x2="174.82" y2="156.38"/><path class="cls-1" d="M60.62,156.27l1.28-.08,1.55-.09,2.08-.12,2.59-.12,3-.13c2.18-.08,4.63-.17,7.31-.24s5.57-.14,8.64-.19,6.3-.07,9.65-.07,6.8.05,10.31.11,7.08.12,10.65.15l10.65.12c3.52,0,7,.08,10.32.12l9.65.13L157,156c5.35.08,9.81.14,12.93.2l4.91.08v.23l-4.91.08c-3.12.06-7.58.12-12.93.2l-8.64.13-9.65.13c-3.35,0-6.8.09-10.32.12l-10.65.11c-3.57,0-7.14.1-10.65.15s-7,.11-10.31.12-6.58,0-9.65-.08-6-.11-8.64-.18-5.13-.16-7.31-.25l-3-.12-2.59-.13c-.78,0-1.48-.08-2.08-.11l-1.55-.09-1.28-.08Z"/><line class="cls-1" x1="11.1" y1="193.46" x2="59.73" y2="186.85"/><path class="cls-1" d="M11,193.36a19.79,19.79,0,0,1,1.91-.64,52.6,52.6,0,0,1,5.26-1.2c.57-.1,1.15-.2,1.76-.29s1.24-.18,1.91-.24c1.33-.14,2.8-.15,4.3-.19a36.07,36.07,0,0,0,4.53-.35,42.81,42.81,0,0,0,4.4-.88c1.43-.36,2.87-.72,4.33-1s2.9-.53,4.31-.77,2.77-.42,4.1-.56,2.59-.25,3.77-.33c2.36-.16,4.36-.22,5.79-.22.71,0,1.28,0,1.66,0h.6l.11.22-.49.17-1.42.44c-1.24.36-3,.82-5.24,1.27-1.1.23-2.3.46-3.59.67s-2.66.4-4.11.55-3,.29-4.48.43-3.13.2-4.73.25-3.17.16-4.67.36a32,32,0,0,0-4.27.84c-1.33.35-2.62.71-3.9.93-.64.12-1.28.2-1.89.28s-1.23.14-1.81.19c-2.33.22-4.32.3-5.75.3s-2.28-.07-2.28-.07Z"/><line class="cls-1" x1="69.16" y1="185.57" x2="179.46" y2="170.57"/><path class="cls-1" d="M69.1,185.46l1.2-.25,1.44-.29,2-.38,2.44-.46,2.88-.52c2-.37,4.38-.77,6.93-1.19s5.31-.87,8.25-1.32,6-.9,9.28-1.34,6.6-.84,10-1.24,6.89-.82,10.36-1.26l10.34-1.29,10-1.23,9.39-1.14,8.41-1c5.21-.63,9.55-1.16,12.59-1.51l4.79-.56.11.21-4.69.73c-3,.47-7.27,1.11-12.4,1.89l-8.28,1.26L144.9,176c-3.21.48-6.53,1-9.9,1.47l-10.23,1.51c-3.43.5-6.85,1-10.22,1.55s-6.67,1-9.9,1.46-6.37.84-9.36,1.2-5.81.67-8.44,1-5,.52-7.18.72l-3,.28-2.56.22-2.07.17-1.54.11-1.28.09Z"/><line class="cls-1" x1="40.24" y1="227.89" x2="83.84" y2="215.12"/><path class="cls-1" d="M40.13,227.79a14.55,14.55,0,0,1,1.52-.86,35.74,35.74,0,0,1,4.48-1.85c.48-.17,1-.35,1.54-.52s1.11-.33,1.72-.48c1.22-.3,2.63-.51,4.06-.74a32.54,32.54,0,0,0,4.2-.93A35.39,35.39,0,0,0,61.44,221c1.21-.54,2.42-1.07,3.7-1.52s2.53-.89,3.76-1.3,2.47-.78,3.68-1.09,2.37-.58,3.47-.81c2.19-.47,4.1-.79,5.47-1l1.62-.2.59-.05.22.19-.4.23-1.14.61c-1,.5-2.52,1.18-4.41,1.91-1,.37-2,.75-3.12,1.12s-2.38.74-3.69,1.07-2.71.67-4.11,1-2.92.61-4.44.87a37.34,37.34,0,0,0-4.33,1,22.7,22.7,0,0,0-3.69,1.37c-1.12.51-2.18,1-3.3,1.41-.56.2-1.13.37-1.69.52l-1.64.42a52.09,52.09,0,0,1-5.41,1c-1.37.2-2.23.24-2.23.24Z"/><line class="cls-1" x1="92.3" y1="212.65" x2="191.2" y2="183.68"/><path class="cls-1" d="M92.19,212.55l1-.4,1.25-.47,1.69-.63,2.12-.76,2.51-.88c1.8-.63,3.84-1.32,6.09-2.07s4.69-1.53,7.3-2.35,5.38-1.66,8.28-2.51,6-1.68,9-2.52,6.24-1.7,9.37-2.57l9.33-2.6c3.08-.87,6.12-1.7,9.06-2.51l8.48-2.34,7.61-2.08c4.72-1.28,8.64-2.37,11.4-3.11l4.34-1.17.22.19-4.17,1.32c-2.65.85-6.45,2-11,3.46l-7.36,2.3-8.23,2.56c-2.86.89-5.8,1.81-8.81,2.72l-9.12,2.8c-3.05.94-6.09,1.89-9.07,2.83s-5.93,1.86-8.82,2.72-5.72,1.64-8.43,2.38-5.28,1.42-7.67,2-4.6,1.17-6.56,1.64l-2.77.67-2.36.54c-.71.17-1.36.31-1.92.43l-1.42.32-1.19.25Z"/><line class="cls-1" x1="105.12" y1="247.13" x2="140.72" y2="229.07"/><path class="cls-1" d="M105,247.05a8.53,8.53,0,0,1,1-1,22.94,22.94,0,0,1,3.38-2.38q.59-.34,1.23-.69a15.67,15.67,0,0,1,1.42-.7c1-.45,2.27-.83,3.54-1.25a21.45,21.45,0,0,0,3.57-1.45,19.47,19.47,0,0,0,2.94-1.88,30.14,30.14,0,0,1,2.8-1.94c1-.61,2-1.2,3-1.76s2-1.08,3-1.53,2-.87,2.94-1.24c1.89-.74,3.56-1.3,4.79-1.66.61-.19,1.12-.32,1.46-.41l.55-.14.3.16s-.08.1-.26.28-.44.43-.8.74a32.16,32.16,0,0,1-3.27,2.43c-.73.47-1.54,1-2.45,1.49s-1.92,1-3,1.51-2.27,1-3.46,1.51-2.51,1-3.84,1.42a29.68,29.68,0,0,0-3.7,1.49,14.8,14.8,0,0,0-2.86,1.82,21.22,21.22,0,0,1-2.47,1.79,13.73,13.73,0,0,1-1.37.72c-.46.22-.92.43-1.37.62a39.08,39.08,0,0,1-4.69,1.72c-1.23.36-2,.52-2,.52Z"/><line class="cls-1" x1="147.62" y1="225.57" x2="228.37" y2="184.61"/><path class="cls-1" d="M147.47,225.49l.79-.52c.25-.17.58-.37,1-.61l1.32-.83,1.65-1,2-1.18c1.42-.84,3-1.78,4.83-2.79s3.75-2.1,5.85-3.23,4.35-2.32,6.71-3.52,4.89-2.4,7.46-3.62,5.17-2.46,7.74-3.71l7.69-3.74c2.53-1.24,5-2.44,7.46-3.61l7-3.37,6.3-3c3.9-1.86,7.13-3.42,9.43-4.5l3.58-1.7.31.16-3.35,1.82c-2.13,1.16-5.2,2.8-8.87,4.78l-5.93,3.19L203.73,198l-7.12,3.79-7.37,3.9c-2.47,1.3-4.92,2.63-7.32,3.93s-4.78,2.57-7.13,3.78-4.69,2.34-6.93,3.4-4.38,2.07-6.37,3-3.85,1.73-5.51,2.45l-2.33,1-2,.84c-.6.26-1.16.47-1.63.67l-1.21.49-1,.4Z"/><path class="cls-1" d="M203.1,228.8c9.93-8.56,19.32-17.28,29.18-25.64"/><path class="cls-1" d="M202.91,228.74l.19-.33c.12-.21.31-.52.57-.91a33.1,33.1,0,0,1,2.46-3.16c.55-.64,1.18-1.32,1.88-2s1.46-1.46,2.32-2.21,1.83-1.5,2.83-2.26,2-1.53,3-2.32l2.92-2.33c1-.77,1.93-1.52,2.86-2.25s1.83-1.44,2.69-2.1L227,207l2.06-1.58,1.6-1.22,1.4-1,.38.11-1.12,1.15-1.28,1.31-1.68,1.69-2,2-2.25,2.23c-.79.77-1.59,1.57-2.43,2.37l-2.55,2.44c-.84.82-1.65,1.65-2.45,2.47s-1.58,1.63-2.42,2.38-1.72,1.47-2.59,2.13-1.71,1.28-2.52,1.85c-1.62,1.13-3.07,2-4.13,2.66-.54.31-1,.55-1.28.71l-.47.25Z"/><path class="cls-1" d="M175.18,253.33c6.58-6.12,14.09-11.83,20.47-18"/><path class="cls-1" d="M175,253.28l.08-.25c.06-.16.16-.38.29-.67a15.1,15.1,0,0,1,1.45-2.29c.35-.46.76-.95,1.21-1.46a16.36,16.36,0,0,1,1.63-1.55c.63-.53,1.35-1,2.1-1.57s1.51-1.05,2.23-1.59l2.13-1.6c.69-.53,1.4-1.05,2.08-1.55s1.36-1,1.95-1.45l1.72-1.31,1.46-1.1,1.13-.85,1-.74.38.1s-.25.3-.71.82c-.21.26-.49.58-.82.94l-1.07,1.22-1.3,1.44-.35.39-.38.39-.8.81c-.54.54-1.08,1.11-1.67,1.68L187,244.81c-.59.58-1.14,1.16-1.68,1.74a22.06,22.06,0,0,1-1.69,1.66c-.6.52-1.26,1-1.89,1.47s-1.25.88-1.85,1.27a33.71,33.71,0,0,1-3.13,1.8l-1,.48-.38.15Z"/><line class="cls-1" x1="9.21" y1="119.18" x2="57.83" y2="125.79"/><path class="cls-1" d="M9.27,119.07s.85-.07,2.27-.06,3.43.07,5.75.29c.58.06,1.19.12,1.8.2s1.26.15,1.9.27c1.28.22,2.57.58,3.91.93a31.49,31.49,0,0,0,4.26.84,46.57,46.57,0,0,0,4.67.35c1.6.06,3.2.12,4.73.26s3,.28,4.48.43,2.83.33,4.11.55,2.49.44,3.59.67c2.2.45,4,.91,5.24,1.27.61.18,1.09.34,1.41.44l.5.17-.11.21-.6,0-1.66,0c-1.43,0-3.43-.06-5.78-.23-1.18-.08-2.45-.18-3.78-.33s-2.7-.33-4.1-.56-2.84-.51-4.3-.77-2.91-.62-4.35-1a42.28,42.28,0,0,0-4.4-.88,35.61,35.61,0,0,0-4.51-.35c-1.51,0-3,0-4.31-.18-.67-.07-1.3-.15-1.91-.25s-1.19-.19-1.75-.29a52.25,52.25,0,0,1-5.27-1.2c-1.24-.36-1.9-.63-1.9-.63Z"/><line class="cls-1" x1="67.27" y1="127.07" x2="177.58" y2="142.06"/><path class="cls-1" d="M67.33,127l1.28.09,1.53.12c.61,0,1.3.09,2.07.16l2.56.22,3,.28c2.15.2,4.56.44,7.18.72s5.46.6,8.45.95,6.12.76,9.36,1.2,6.53.94,9.9,1.46,6.78,1,10.21,1.55l10.23,1.5,9.9,1.48,9.25,1.39,8.28,1.26c5.13.78,9.41,1.42,12.4,1.89l4.69.72-.11.22-4.79-.56-12.59-1.51-8.42-1L142.34,138l-10-1.24L122,135.43l-10.36-1.26c-3.43-.4-6.79-.81-10-1.24s-6.34-.89-9.28-1.34-5.7-.89-8.25-1.31-4.88-.83-6.93-1.2l-2.88-.52-2.43-.46-2-.38-1.44-.29-1.2-.25Z"/><path class="cls-1" d="M89.51,143.68c33.45,2,66.61,3.74,99.91,5.76"/><path class="cls-1" d="M89.53,143.57l1.14,0h3.22c1.39,0,3.06,0,5,0s4.09.06,6.45.12,4.91.14,7.6.25,5.54.23,8.46.41,5.94.39,9,.63,6.17.47,9.29.69l9.29.65,9,.64,8.41.62,7.53.56c4.67.36,8.56.64,11.28.86l4.27.33-.06.22-4.31-.16c-2.74-.1-6.66-.27-11.36-.46l-7.59-.31-8.47-.36-9-.4-9.34-.43c-3.13-.14-6.27-.26-9.36-.38s-6.12-.25-9-.4-5.75-.36-8.42-.57-5.2-.41-7.53-.62-4.44-.41-6.33-.61-3.52-.37-4.87-.53l-1.8-.21-1.33-.17-1.1-.15Z"/><path class="cls-1" d="M28.81,140.18c15.66.9,31.29,1.85,47,2.71"/><path class="cls-1" d="M28.83,140.07l.55,0c.35,0,.87-.08,1.53-.12,1.32-.08,3.2-.16,5.43-.18,1.12,0,2.33,0,3.6,0s2.61.06,4,.15,2.79.22,4.22.36,2.9.28,4.35.4l4.36.36,4.22.37,3.94.36,3.53.33,3,.28,2.3.23,2,.2,0,.22-2,0-2.34,0-3-.06-3.58-.08-4-.11-4.27-.12-4.41-.14c-1.47,0-3-.08-4.41-.1s-2.88-.06-4.27-.13-2.7-.18-4-.31-2.43-.25-3.51-.39c-2.18-.27-4-.56-5.22-.8-.62-.11-1.12-.21-1.45-.29l-.51-.11Z"/><path class="cls-1" d="M163,164q14.24-1.07,28.47-2.16Z"/><path class="cls-1" d="M162.94,163.91l1.72-.35,1.72-.31q1.74-.3,3.48-.54c1.17-.17,2.33-.32,3.5-.47l1.76-.21,1.76-.19,1.77-.17,1.78-.16c1.18-.1,2.36-.19,3.56-.27s2.38-.14,3.58-.19l1.8-.05c.61,0,1.21,0,1.82,0l.52,1.76-3.59.2-3.57.19-7.18.36-7.18.34-3.59.15-3.6.15Zm0,0,3.52-.39,3.53-.38,7.06-.75,7.07-.72,3.53-.35,3.54-.34.52,1.76L190,163l-1.75.22c-1.18.13-2.36.25-3.53.35l-3.57.28-1.78.1-1.8.1-1.79.08-1.8.06c-1.21,0-2.41.07-3.62.08s-2.42,0-3.64,0l-1.83,0c-.62,0-1.23,0-1.85-.08Z"/><path class="cls-1" d="M149.75,165c-16.42,1.21-32.84,2.43-49.24,3.77L149.73,165Z"/><path class="cls-1" d="M149.78,165.11c-1,.16-2,.31-3,.45s-2,.27-3,.41c-2,.27-4.05.51-6.08.75s-4.06.45-6.09.66l-3.06.31-3.06.29c-2,.19-4.09.36-6.14.52l-3.09.22-3.08.19-6.19.36c-2.07.12-4.13.24-6.19.38l-.53-1.76,12.36-.79,12.36-.75,12.37-.73,6.18-.36,6.19-.34-.18.08,0,0Zm.24-.22-.07.17,0,.06-.16,0-6.11.59-6.12.57-12.25,1.15L113,168.56l-12.26,1.09-.53-1.76c2.05-.19,4.09-.37,6.13-.57l6.12-.58,3.07-.28,3.07-.25c2.05-.16,4.11-.3,6.16-.42l3.1-.18,3.1-.17c2.07-.1,4.14-.2,6.22-.28s4.15-.14,6.23-.19l3.13-.06,3.15,0Z"/><path class="cls-1" d="M31.58,174c18.83-1.51,37.28-2.78,56-4.25"/><path class="cls-1" d="M31.55,173.89l.6-.13,1.72-.34c1.48-.27,3.62-.62,6.19-1,1.3-.17,2.7-.34,4.19-.51s3.07-.32,4.71-.44,3.36-.19,5.1-.27,3.5-.15,5.26-.25l5.26-.28c1.73-.1,3.44-.18,5.1-.26l4.77-.23,4.28-.2,3.62-.16,2.79-.12,2.43-.09.06.22-2.37.26-2.74.3-3.55.39-4.21.44-4.69.48-5,.51-5.19.5c-1.74.17-3.47.36-5.18.55s-3.38.37-5,.5-3.23.22-4.75.28-3,.12-4.3.15c-2.67.05-4.91,0-6.49,0l-1.84-.07-.65,0Z"/><line class="cls-1" x1="51.51" y1="206.31" x2="199.73" y2="173.59"/><path class="cls-1" d="M51.42,206.21l1.6-.45,1.93-.52c.76-.21,1.63-.45,2.61-.7l3.27-.86,3.85-1,4.4-1.1c1.55-.39,3.18-.8,4.89-1.21,3.41-.83,7.13-1.73,11.07-2.65s8.12-1.88,12.46-2.83,8.87-1.9,13.48-2.85l14-2.91,13.91-2.95,13.48-2.85L165,180.7l11.32-2.36,16.94-3.52,6.44-1.33.17.2-6.3,1.48-16.63,3.89-11.12,2.6-12.42,2.88-13.29,3.07-13.74,3.15c-4.6,1.06-9.19,2.13-13.7,3.2s-9,2.09-13.3,3.06-8.56,1.86-12.58,2.69-7.83,1.61-11.37,2.3c-1.76.36-3.46.68-5.08,1s-3.14.62-4.59.88l-4.05.76-3.46.63-2.79.49-2.07.36-1.73.29Z"/><line class="cls-1" x1="87.25" y1="234.9" x2="213.73" y2="183.83"/><path class="cls-1" d="M87.11,234.81l1.32-.64,1.6-.76c.63-.3,1.34-.64,2.17-1l2.7-1.25,3.22-1.47,3.69-1.64c1.3-.58,2.67-1.19,4.11-1.81,2.87-1.25,6-2.6,9.34-4s6.88-2.88,10.59-4.38,7.6-3,11.57-4.52,8-3.08,12-4.64L161.33,204l11.58-4.51,10.84-4.21,9.73-3.77,14.57-5.63,5.54-2.13.28.18-5.34,2.26-14.08,5.94-9.41,4-10.53,4.41-11.27,4.71-11.66,4.85c-3.9,1.62-7.79,3.26-11.61,4.88s-7.59,3.2-11.29,4.71-7.31,2.92-10.78,4.25-6.74,2.58-9.79,3.71q-2.3.87-4.4,1.63c-1.41.51-2.72,1-4,1.45L96.19,232l-3,1-2.44.85-1.82.62-1.53.5Z"/><line class="cls-1" x1="136.36" y1="257.82" x2="232.47" y2="191.89"/><path class="cls-1" d="M136.18,257.75l.95-.79,1.14-.94,1.59-1.27,2-1.57,2.37-1.83c.83-.66,1.76-1.34,2.72-2.08s2-1.49,3-2.28q3.21-2.38,7-5.11c2.5-1.8,5.18-3.68,8-5.61s5.8-3.9,8.86-5.89,6.14-4,9.2-6l9.15-6.09,8.88-5.88,8.31-5.49,7.49-4.92L228,194.6l4.26-2.78.36.13-4,2.89-10.58,7.58L211,207.49l-7.92,5.65-8.48,6-8.79,6.21c-2.94,2.09-5.86,4.18-8.72,6.24s-5.7,4.09-8.5,6-5.58,3.78-8.25,5.52-5.19,3.37-7.56,4.88c-1.18.75-2.33,1.46-3.43,2.14s-2.11,1.33-3.1,1.93-1.92,1.16-2.77,1.69l-2.37,1.41-1.93,1.14-1.45.83-1.21.7Z"/><line class="cls-1" x1="371.33" y1="256.36" x2="327.99" y2="202.77"/><path class="cls-1" d="M371.13,256.41l-.64-.57-.76-.69-1-.94-1.21-1.16-1.39-1.39c-1-1-2.06-2.1-3.21-3.33s-2.38-2.57-3.63-4-2.53-2.93-3.8-4.5-2.48-3.22-3.7-4.89-2.48-3.37-3.76-5.05-2.58-3.38-3.84-5-2.5-3.3-3.7-4.88l-3.42-4.58L334,211.29c-1.88-2.54-3.47-4.65-4.54-6.14l-1.71-2.34.4-.08,2,2.26c1.29,1.45,3.08,3.52,5.27,6l3.51,4,3.9,4.48c1.35,1.55,2.74,3.16,4.14,4.79l4.25,5c1.42,1.66,2.88,3.31,4.31,4.94s2.85,3.23,4.13,4.8,2.45,3.1,3.52,4.55,2.06,2.85,2.94,4.13,1.66,2.47,2.33,3.52l.93,1.48.75,1.26c.23.38.42.72.59,1s.31.55.42.76c.22.41.33.63.33.63Z"/><line class="cls-1" x1="421.32" y1="241.28" x2="352.11" y2="195.2"/><path class="cls-1" d="M421.15,241.35l-.91-.47-1.08-.57c-.42-.22-.91-.47-1.44-.77l-1.76-1-2-1.15c-1.45-.82-3.07-1.76-4.8-2.8s-3.6-2.16-5.53-3.38-3.94-2.49-6-3.84-4-2.78-6.07-4.23-4.12-2.93-6.21-4.39L379,214.42C377,213,375,211.55,373,210.18l-5.65-4-5-3.57c-3.11-2.21-5.72-4-7.52-5.34l-2.84-2,.35-.13,3.11,1.92,8.15,5.1,5.44,3.41,6,3.81c2.1,1.33,4.27,2.69,6.45,4.09l6.63,4.24c2.22,1.41,4.47,2.82,6.69,4.2s4.39,2.75,6.44,4.09,3.95,2.67,5.72,3.94,3.44,2.47,5,3.6,2.87,2.16,4,3.09l1.65,1.31,1.37,1.12c.42.34.77.64,1.09.91l.79.67c.42.38.65.57.65.57Z"/><line class="cls-1" x1="509.48" y1="238.79" x2="469.65" y2="223.18"/><path class="cls-1" d="M509.34,238.88s-.83-.11-2.15-.39a46.17,46.17,0,0,1-5.07-1.4c-.5-.16-1-.34-1.52-.53s-1-.39-1.54-.62a27.78,27.78,0,0,1-2.9-1.63,19.77,19.77,0,0,0-3.29-1.61,36.34,36.34,0,0,0-4-1.24c-1.44-.36-2.87-.72-4.17-1.15s-2.59-.86-3.81-1.28-2.35-.86-3.37-1.31-2-.9-2.8-1.32a36.56,36.56,0,0,1-3.86-2.2c-.44-.29-.76-.52-1-.68l-.33-.26.27-.17.57.1c.36.06.89.16,1.55.3,1.31.28,3.11.73,5.16,1.34,1,.31,2.12.65,3.23,1s2.24.83,3.35,1.32,2.25,1,3.39,1.55,2.21,1.14,3.26,1.75a25.08,25.08,0,0,0,7.29,2.88c1.37.33,2.71.63,3.84,1A15.69,15.69,0,0,1,503,235l1.4.61a28.84,28.84,0,0,1,3.94,2.14,9.89,9.89,0,0,1,1.28,1Z"/><line class="cls-1" x1="461.92" y1="220.15" x2="371.56" y2="184.73"/><path class="cls-1" d="M461.79,220.23l-1.12-.33c-.37-.1-.81-.24-1.33-.4l-1.79-.56-2.19-.7-2.57-.85c-1.82-.6-3.86-1.3-6.07-2.07s-4.58-1.62-7.06-2.54-5.08-1.89-7.73-2.92-5.31-2.16-8-3.3-5.46-2.29-8.24-3.42l-8.3-3.4c-2.74-1.11-5.41-2.22-8-3.29l-7.48-3.09-6.68-2.79c-4.14-1.72-7.6-3.15-10-4.17l-3.78-1.59.27-.17,4,1.45c2.54.92,6.14,2.26,10.47,3.86l7,2.58,7.79,2.89,8.31,3.1,8.57,3.21c2.86,1.08,5.76,2.14,8.61,3.19s5.64,2.07,8.3,3.1,5.18,2.06,7.54,3.06,4.59,1.94,6.61,2.82,3.87,1.72,5.49,2.47c.81.36,1.56.72,2.26,1l1.89.9L460,219l1.11.55.91.47Z"/><line class="cls-1" x1="519.95" y1="201.04" x2="473.51" y2="191.19"/><path class="cls-1" d="M519.87,201.14s-.86,0-2.28-.09-3.37-.31-5.62-.68l-1.73-.31c-.6-.11-1.2-.25-1.8-.41a37.36,37.36,0,0,1-3.63-1.18,26.25,26.25,0,0,0-4-1.13,44.39,44.39,0,0,0-4.53-.67c-1.57-.16-3.14-.32-4.62-.57s-2.93-.48-4.33-.73-2.7-.52-3.93-.82-2.34-.61-3.38-.91c-2.06-.6-3.72-1.17-4.85-1.62-.56-.21-1-.4-1.29-.53l-.44-.2.17-.21.59,0,1.66.1c1.41.1,3.38.29,5.67.61,1.14.17,2.38.35,3.64.59s2.59.5,3.92.83,2.69.69,4.07,1.06,2.71.81,4,1.26a38.42,38.42,0,0,0,4.12,1.17,34.9,34.9,0,0,0,4.39.66c1.49.13,2.94.25,4.22.48q1,.15,1.83.36c.58.13,1.13.27,1.66.41a43.43,43.43,0,0,1,4.91,1.55,16.67,16.67,0,0,1,1.72.76Z"/><line class="cls-1" x1="464.5" y1="189.28" x2="359.14" y2="166.92"/><path class="cls-1" d="M464.41,189.38l-1.25-.17-1.49-.22-2-.31-2.48-.39-2.91-.48c-2.07-.34-4.4-.75-6.92-1.2s-5.25-1-8.12-1.53-5.87-1.16-9-1.81-6.23-1.38-9.43-2.12-6.44-1.5-9.71-2.23l-9.74-2.19L392,174.6l-8.8-2-7.88-1.81-11.78-2.71-4.47-1,.17-.21,4.6.88,12.08,2.35,8.08,1.57,9,1.78c3.12.61,6.35,1.24,9.62,1.9l9.91,2,9.93,1.95c3.3.63,6.52,1.26,9.61,1.91s6,1.31,8.84,2,5.42,1.28,7.83,1.87,4.62,1.15,6.56,1.65l2.71.72,2.29.62,1.84.51,1.35.38,1.12.33Z"/><line class="cls-1" x1="564.24" y1="169.89" x2="514.35" y2="166.47"/><path class="cls-1" d="M564.2,170s-.82.12-2.23.21-3.42.15-5.78.08l-1.84-.08c-.63,0-1.28-.07-1.94-.15-1.33-.14-2.7-.41-4.12-.67a34.07,34.07,0,0,0-4.44-.56c-1.53-.1-3.12-.1-4.72-.05s-3.2.1-4.75.05l-4.55-.13c-1.47-.06-2.89-.15-4.22-.28s-2.57-.28-3.73-.44c-2.29-.31-4.19-.64-5.5-.92l-1.52-.34-.54-.14.06-.22.59-.06,1.65-.13c1.41-.09,3.41-.16,5.79-.15,1.19,0,2.47,0,3.82.09s2.76.15,4.21.29l4.46.48c1.52.17,3,.43,4.55.7s3,.47,4.59.58a34.88,34.88,0,0,0,4.57.06c1.5-.06,3-.14,4.31-.09.68,0,1.33.06,2,.11l1.81.18c2.31.25,4.21.57,5.53.85s2,.51,2,.51Z"/><path class="cls-1" d="M449.34,162c-19.39-1.41-38.86-2.5-57.84-4"/><path class="cls-1" d="M449.31,162.12l-.68,0c-.44,0-1.08.06-1.89.08-1.62,0-3.93.09-6.68,0-1.38,0-2.87-.06-4.43-.12s-3.21-.13-4.91-.25-3.43-.28-5.19-.47-3.56-.35-5.35-.51l-5.37-.49c-1.78-.15-3.51-.32-5.2-.48l-4.85-.47-4.34-.43-3.67-.36c-1.09-.12-2-.22-2.82-.29l-2.46-.26.06-.22L394,158l2.88.1,3.73.15,4.41.18,4.92.22c1.7.07,3.46.14,5.25.23l5.42.27,5.43.21c1.79.06,3.56.13,5.25.24s3.33.25,4.87.41,3,.31,4.34.48c2.67.33,4.87.66,6.41.93l1.79.32.62.13Z"/><path class="cls-1" d="M504.67,165.81C491,165,477.74,163.69,464.11,163"/><path class="cls-1" d="M504.64,165.92l-.47.05-1.34.12c-1.15.08-2.79.17-4.73.19-1,0-2,0-3.12,0s-2.26-.08-3.45-.17-2.41-.24-3.64-.39-2.5-.31-3.75-.44l-3.74-.39-3.62-.39c-1.17-.13-2.31-.27-3.38-.37l-3-.31-2.57-.26-2-.22c-1.11-.11-1.74-.19-1.74-.19l0-.22,1.77,0,2,0,2.63,0,3.12.06h.84l.86,0,1.77.06,3.7.15,3.82.17c1.27.06,2.55.1,3.8.13s2.49.08,3.67.16,2.31.21,3.39.33,2.09.25,3,.39c1.87.26,3.4.56,4.48.79.54.11,1,.21,1.23.28l.44.12Z"/><line class="cls-1" x1="563.54" y1="132.43" x2="513.61" y2="135.67"/><path class="cls-1" d="M563.56,132.54s-.73.22-2,.49-3.23.59-5.54.84l-1.81.16c-.63.06-1.28.1-2,.11-1.35.05-2.81,0-4.31-.1a36.87,36.87,0,0,0-4.58,0,44.25,44.25,0,0,0-4.59.57c-1.52.26-3,.51-4.56.68s-3,.32-4.47.46-2.86.24-4.21.29-2.64.06-3.83.07c-2.37,0-4.37-.08-5.79-.18-.71,0-1.26-.09-1.64-.13l-.59-.06,0-.22.54-.13c.35-.09.86-.21,1.52-.34,1.32-.27,3.22-.61,5.52-.91,1.15-.15,2.4-.3,3.74-.42s2.74-.21,4.21-.27,3-.08,4.56-.12,3.15,0,4.75.07,3.19.06,4.72,0a34.49,34.49,0,0,0,4.45-.54c1.42-.26,2.79-.53,4.12-.66.66-.07,1.32-.12,1.95-.15l1.84-.06c2.36-.06,4.36,0,5.77.1s2.24.22,2.24.22Z"/><line class="cls-1" x1="503.92" y1="136.3" x2="390.65" y2="143.67"/><path class="cls-1" d="M504,136.41l-1.25.17-1.51.19-2,.24-2.53.29-3,.33c-2.14.22-4.55.46-7.19.7s-5.49.5-8.52.75-6.23.48-9.55.7-6.76.39-10.27.55-7.05.34-10.6.54l-10.59.57-10.26.54-9.6.5-8.61.43c-5.33.26-9.77.49-12.88.63l-4.89.24-.06-.22,4.85-.4c3.09-.27,7.49-.61,12.78-1l8.55-.68,9.53-.75,10.2-.79,10.54-.8,10.52-.83c3.47-.29,6.89-.56,10.21-.79s6.53-.4,9.58-.54,5.95-.27,8.62-.37,5.13-.18,7.31-.23l3.06-.07,2.59-.05,2.1,0h2.84Z"/><line class="cls-1" x1="543.74" y1="96.33" x2="497.17" y2="106.02"/><path class="cls-1" d="M543.83,96.43a16.61,16.61,0,0,1-1.73.75,44.35,44.35,0,0,1-4.93,1.54l-1.66.4c-.58.13-1.19.26-1.84.36-1.28.22-2.73.33-4.22.46a33.3,33.3,0,0,0-4.4.64,36.55,36.55,0,0,0-4.14,1.16c-1.34.45-2.67.89-4.06,1.25l-4.07,1c-1.33.32-2.65.6-3.93.82s-2.51.41-3.66.57c-2.3.32-4.27.5-5.68.6-.71,0-1.27.07-1.66.09l-.6,0-.16-.21s.15-.08.45-.2.73-.31,1.3-.53c1.13-.44,2.8-1,4.86-1.6,1-.3,2.18-.6,3.4-.9s2.54-.56,3.94-.81,2.86-.47,4.33-.71,3.06-.4,4.63-.56a44.47,44.47,0,0,0,4.55-.65,27.47,27.47,0,0,0,4-1.11c1.25-.43,2.44-.87,3.65-1.18.61-.15,1.21-.28,1.81-.39l1.74-.31c2.25-.37,4.21-.57,5.63-.66s2.27-.08,2.27-.08Z"/><line class="cls-1" x1="488.14" y1="107.9" x2="382.48" y2="129.89"/><path class="cls-1" d="M488.22,108l-1.12.33-1.36.38-1.84.51-2.31.61-2.72.7c-1.95.5-4.16,1-6.58,1.63s-5.05,1.2-7.85,1.84-5.78,1.29-8.87,1.93-6.34,1.26-9.63,1.88-6.64,1.25-10,1.9l-9.94,2c-3.27.65-6.5,1.27-9.63,1.88l-9,1.73-8.1,1.55c-5,1-9.18,1.76-12.11,2.3l-4.61.87-.16-.2,4.48-1c2.84-.66,6.92-1.57,11.81-2.67l7.91-1.79,8.82-2c3.07-.69,6.23-1.4,9.45-2.1l9.77-2.16c3.28-.72,6.53-1.46,9.74-2.19s6.37-1.44,9.46-2.09,6.11-1.25,9-1.78,5.6-1.05,8.13-1.5,4.86-.84,6.94-1.18l2.91-.47,2.49-.38,2-.3,1.49-.21,1.25-.17Z"/><path class="cls-1" d="M337.19,247.63c-9.05-16.46-18.45-32.68-27.41-49.08"/><path class="cls-1" d="M337,247.66s-.17-.18-.47-.53c-.15-.17-.33-.38-.53-.64s-.46-.53-.72-.86c-.52-.65-1.16-1.44-1.84-2.35s-1.43-1.94-2.2-3.08-1.61-2.35-2.44-3.66-1.67-2.68-2.47-4.12-1.53-2.94-2.26-4.47-1.48-3.07-2.27-4.61l-2.34-4.61c-.78-1.52-1.52-3-2.24-4.47l-2.07-4.18c-.64-1.34-1.26-2.59-1.82-3.75-1.13-2.33-2.09-4.26-2.73-5.61l-1-2.14.42-.06s.48.76,1.34,2.09,2,3.23,3.48,5.5c.72,1.14,1.49,2.38,2.31,3.69s1.67,2.68,2.56,4.1,1.8,2.91,2.71,4.41l2.76,4.54c.93,1.53,1.89,3,2.85,4.54s1.88,3,2.7,4.4,1.54,2.83,2.17,4.16,1.23,2.6,1.72,3.77.94,2.25,1.3,3.2.66,1.8.88,2.49c.12.35.21.66.29.93l.2.68.15.58Z"/><path class="cls-1" d="M346.41,205.43c-4.88-4.19-9.78-8.37-14.75-12.54Z"/><path class="cls-1" d="M346.22,205.49c-.44-.22-.87-.45-1.28-.68s-.82-.45-1.23-.69c-.8-.46-1.56-.94-2.31-1.42s-1.47-1-2.17-1.47l-1.05-.75-1-.75-1-.76-1-.77c-.62-.52-1.24-1-1.84-1.57s-1.16-1.07-1.7-1.61c-.27-.28-.54-.55-.78-.83s-.5-.56-.72-.84l3-.92,1.72,1.61,1.71,1.61,3.38,3.23,3.33,3.24,1.66,1.62,1.63,1.63Zm0,0L344.17,204l-2-1.51-4-3-4-3-2-1.52-2-1.53,3-.92c.39.24.76.48,1.12.73s.71.49,1.06.74c.69.5,1.35,1,2,1.52s1.25,1,1.84,1.57l.89.8.85.8.82.81c.27.28.54.55.8.83.53.55,1,1.1,1.52,1.66s.94,1.13,1.37,1.71c.21.29.42.58.62.88s.39.59.55.89Z"/><path class="cls-1" d="M353.22,211.26c8.44,7.25,16.89,14.5,25.56,21.69l-25.51-21.69Z"/><path class="cls-1" d="M353.4,211.21c.68.41,1.33.82,2,1.24s1.26.84,1.9,1.27c1.25.84,2.47,1.7,3.66,2.56s2.38,1.73,3.53,2.61l1.72,1.32,1.69,1.32c1.12.89,2.21,1.79,3.28,2.69.53.45,1,.91,1.56,1.36l1.54,1.38,3,2.77c1,.92,2,1.84,3,2.76l-3,.91-6.12-5.5-6.07-5.51-6-5.53-3-2.77-3-2.77.21.06h-.05Zm-.49,0,.33,0h.14l.08.07,3.4,2.64,3.37,2.65,6.74,5.32,6.68,5.33,6.63,5.34-3,.91-3.36-2.66-3.39-2.65-1.67-1.33c-.53-.45-1.09-.9-1.63-1.35-1.06-.9-2.1-1.81-3.11-2.73l-1.5-1.39-1.48-1.39c-1-.93-1.92-1.87-2.86-2.81s-1.85-1.9-2.73-2.85c-.42-.49-.87-1-1.29-1.45s-.84-1-1.23-1.47Z"/><path class="cls-1" d="M414.48,263.31c-9.9-8.26-19.22-16.44-29-24.68"/><path class="cls-1" d="M414.3,263.37l-.47-.24c-.3-.15-.73-.38-1.27-.68-1.06-.59-2.52-1.46-4.12-2.54q-1.21-.81-2.52-1.77c-.87-.63-1.74-1.32-2.59-2s-1.64-1.5-2.43-2.29-1.6-1.59-2.45-2.38l-2.52-2.36c-.82-.77-1.62-1.55-2.4-2.29l-2.23-2.15-2-1.93-1.66-1.64-1.28-1.27-1.09-1.1.37-.12,1.39,1,1.58,1.17,2.05,1.52,2.4,1.8c.84.65,1.74,1.32,2.66,2s1.88,1.43,2.83,2.17l2.89,2.25c1,.75,2,1.49,3,2.22s2,1.45,2.82,2.17,1.64,1.43,2.33,2.12,1.32,1.35,1.88,2a31.79,31.79,0,0,1,2.46,3.05c.26.38.46.68.58.89l.19.32Z"/><line class="cls-1" x1="465.84" y1="241.69" x2="349.91" y2="184.55"/><path class="cls-1" d="M465.69,241.77l-1.42-.58-1.69-.71c-.66-.28-1.42-.59-2.27-1l-2.79-1.21c-1-.43-2.1-.91-3.27-1.43s-2.38-1.07-3.69-1.64-2.65-1.19-4.05-1.84c-2.83-1.28-5.86-2.69-9-4.19s-6.5-3.1-9.9-4.77-6.83-3.44-10.31-5.24-7-3.63-10.6-5.44L396,208.35l-10.3-5.25-9.62-4.93-8.59-4.41-12.87-6.62-4.86-2.51.3-.16,5.1,2.39,13.41,6.33,8.95,4.24,10,4.73,10.64,5.07,11,5.25c3.68,1.76,7.37,3.51,11,5.22s7.22,3.41,10.64,5.08,6.64,3.31,9.68,4.88,5.9,3.07,8.51,4.46c1.32.69,2.56,1.37,3.74,2S455,235.37,456,236l2.92,1.62,2.45,1.38,2,1.12,1.44.84,1.19.7Z"/><line class="cls-1" x1="504.42" y1="214.07" x2="363.28" y2="174.09"/><path class="cls-1" d="M504.31,214.16l-1.66-.37-2-.46L498,212.7l-3.31-.8-3.89-1c-1.39-.34-2.85-.72-4.4-1.11l-4.86-1.24c-3.38-.87-7-1.83-10.86-2.86s-7.86-2.14-12-3.31S450.29,200,446,198.72s-8.64-2.58-13-3.86L419.94,191l-12.63-3.72-11.8-3.49L385,180.68l-15.8-4.7-6-1.79.21-.19,6.15,1.64L385.71,180l10.81,2.9,12.05,3.27,12.86,3.5,13.28,3.64c4.44,1.21,8.91,2.42,13.31,3.59s8.71,2.35,12.86,3.51,8.1,2.33,11.85,3.44,7.26,2.19,10.49,3.2c1.63.49,3.17,1,4.64,1.44l4.16,1.32,3.64,1.18,3.08,1,2.47.83,1.81.62,1.5.52Z"/><line class="cls-1" x1="527.59" y1="182.32" x2="370.87" y2="162.24"/><path class="cls-1" d="M527.54,182.43l-1.8-.14-2.16-.18-2.91-.26-3.62-.34-4.24-.41c-1.51-.14-3.11-.32-4.81-.49l-5.33-.56c-3.71-.4-7.72-.85-11.95-1.34s-8.68-1-13.27-1.62-9.32-1.25-14.11-1.93l-14.54-2-14.56-2-14.1-1.93L407,167.41l-11.8-1.65-17.66-2.47-6.69-.94.11-.22,6.78.78L395.55,165l11.91,1.4L420.77,168l14.21,1.7,14.68,1.76c4.91.59,9.84,1.17,14.69,1.73s9.61,1.12,14.21,1.7,9,1.18,13.2,1.77,8.14,1.16,11.77,1.7l5.22.79c1.65.26,3.22.49,4.69.73l4.12.66,3.49.58,2.8.47,2.07.36,1.72.31Z"/><line class="cls-1" x1="533.77" y1="148.62" x2="372.14" y2="149.79"/><path class="cls-1" d="M533.77,148.73l-1.8.1-2.18.1c-.87,0-1.85.1-2.95.14l-3.66.15-4.31.15c-1.53.07-3.17.11-4.9.17s-3.53.11-5.43.15c-3.78.1-7.89.2-12.23.28s-8.92.14-13.65.18-9.63,0-14.6,0-10,0-15.08,0H423.3l-13.66,0L397.41,150l-18.32-.06-6.95,0v-.22l6.95-.14,18.3-.34,12.23-.21,13.65-.23,14.6-.23,15.07-.22,15.07-.26c5-.1,9.86-.18,14.6-.23s9.31,0,13.65,0,8.45.05,12.25.1l5.43.08c1.73,0,3.37,0,4.9.09l4.32.09,3.67.1,2.95.09,2.18.08,1.82.07Z"/><line class="cls-1" x1="522.55" y1="115.25" x2="367.02" y2="137.61"/><path class="cls-1" d="M522.61,115.36l-1.7.33-2,.39c-.81.15-1.74.33-2.78.51l-3.46.63-4.08.72c-1.45.26-3,.51-4.65.79s-3.36.58-5.16.87c-3.61.6-7.52,1.23-11.67,1.87s-8.54,1.31-13.1,2-9.3,1.28-14.11,1.9-9.71,1.28-14.59,1.94l-14.56,2-14.12,1.9-13.21,1.77-11.84,1.57-17.72,2.34-6.73.87-.12-.21,6.64-1,17.51-2.73,11.7-1.81,13.07-2c4.53-.69,9.22-1.4,14-2.14s9.61-1.45,14.45-2.19,9.67-1.48,14.42-2.23,9.43-1.47,14-2.13,9-1.26,13.19-1.81,8.18-1.06,11.87-1.51l5.29-.64,4.79-.56,4.21-.47,3.59-.39,2.89-.3,2.16-.22,1.79-.16Z"/><line class="cls-1" x1="522.52" y1="68.43" x2="456.02" y2="89.75"/><path class="cls-1" d="M522.63,68.52s-.85.48-2.47,1.23-4,1.73-7,2.81c-.77.27-1.56.55-2.38.82s-1.71.56-2.63.82c-1.83.54-3.9,1-6,1.48s-4.25,1-6.28,1.71-4,1.42-5.91,2.22-3.83,1.59-5.81,2.3-3.92,1.42-5.83,2.08-3.77,1.27-5.6,1.81-3.58,1-5.23,1.46c-3.27.87-6.08,1.53-8.1,2s-3.21.63-3.21.63l-.24-.19s.89-.46,2.51-1.2,4-1.75,7-2.88c1.48-.56,3.11-1.15,4.84-1.76s3.64-1.2,5.64-1.79,4.08-1.18,6.19-1.78,4.35-1.14,6.59-1.67,4.44-1.11,6.5-1.76a55.86,55.86,0,0,0,5.73-2.14c1.79-.76,3.48-1.52,5.22-2.13.86-.31,1.73-.59,2.58-.84s1.68-.51,2.49-.75c3.21-.92,6-1.59,8-2s3.24-.61,3.24-.61Z"/><line class="cls-1" x1="445.32" y1="92.61" x2="348.26" y2="123.14"/><path class="cls-1" d="M445.44,92.7l-1,.42-1.22.49-1.65.65-2.07.8L437,96c-1.76.65-3.75,1.38-6,2.16s-4.6,1.61-7.15,2.47-5.28,1.75-8.12,2.64-5.84,1.77-8.89,2.66-6.14,1.8-9.21,2.72l-9.17,2.75L379.66,114l-8.34,2.47-7.48,2.21c-4.63,1.35-8.48,2.5-11.2,3.28l-4.26,1.24-.23-.19,4.09-1.38c2.59-.89,6.32-2.13,10.78-3.63l7.21-2.42,8.07-2.69,8.64-2.86,8.93-2.94c3-1,6-2,8.9-3s5.81-2,8.64-2.85,5.62-1.74,8.28-2.52,5.19-1.49,7.54-2.15,4.52-1.24,6.46-1.74l2.72-.71,2.33-.58,1.89-.47,1.4-.33,1.18-.27Z"/><line class="cls-1" x1="472.14" y1="40.17" x2="437.68" y2="58.78"/><path class="cls-1" d="M472.29,40.24a6.91,6.91,0,0,1-1,1,21.4,21.4,0,0,1-3.23,2.43c-.37.23-.77.48-1.19.71a12.61,12.61,0,0,1-1.38.72,34.25,34.25,0,0,1-3.46,1.31A21.32,21.32,0,0,0,458.6,48a19.13,19.13,0,0,0-2.82,1.93,28.48,28.48,0,0,1-2.67,2c-1,.62-1.92,1.23-2.86,1.8a32.79,32.79,0,0,1-2.9,1.58c-1,.48-2,.91-2.86,1.29-1.84.77-3.48,1.36-4.69,1.74l-1.43.43-.54.14-.31-.16.24-.27c.17-.18.41-.44.76-.76a29.48,29.48,0,0,1,3.11-2.48c.71-.48,1.49-1,2.36-1.53s1.86-1,2.93-1.56,2.2-1,3.36-1.56,2.45-1,3.75-1.48a29,29,0,0,0,3.61-1.55,14.34,14.34,0,0,0,2.75-1.86,18.76,18.76,0,0,1,2.35-1.83,12.31,12.31,0,0,1,1.33-.75l1.32-.64A39.22,39.22,0,0,1,470,40.64c1.2-.38,2-.55,2-.55Z"/><path class="cls-1" d="M392.77,83c-13.53,7.18-26.59,14.59-39.95,21.58"/><path class="cls-1" d="M392.93,83.12l-.33.3c-.22.19-.54.47-1,.82-.86.7-2.15,1.68-3.81,2.79-.83.56-1.75,1.15-2.75,1.76S383,90,381.81,90.67s-2.46,1.25-3.77,1.88-2.63,1.26-3.93,1.91l-3.9,1.93c-1.28.64-2.56,1.26-3.8,1.86L362.85,100l-3.2,1.54-2.73,1.3-2.11,1-1.83.86-.32-.15,1.6-1,1.84-1.13,2.4-1.46,2.85-1.71,3.2-1.91c1.11-.66,2.25-1.34,3.44-2l3.57-2.08c1.19-.7,2.36-1.41,3.5-2.12s2.27-1.4,3.43-2,2.33-1.23,3.48-1.78,2.25-1,3.28-1.5c2.08-.92,3.91-1.63,5.23-2.11.66-.24,1.19-.43,1.56-.55l.57-.19Z"/><path class="cls-1" d="M431,62.39c-9.16,5.2-19,9.89-28,15.14"/><path class="cls-1" d="M431.16,62.47l-.2.23c-.12.14-.32.36-.59.62a23.7,23.7,0,0,1-2.43,2.06c-.54.4-1.16.84-1.84,1.28s-1.45.88-2.28,1.32-1.79.86-2.75,1.28-1.94.85-2.89,1.3l-2.79,1.31c-.92.44-1.84.86-2.73,1.27s-1.76.8-2.55,1.18l-2.25,1.08-1.93.9-1.49.7-1.3.6-.34-.14,1.06-.72,1.22-.82,1.6-1.07c.6-.38,1.23-.81,1.91-1.25l.52-.33.55-.34,1.13-.69c.77-.47,1.57-1,2.39-1.44l2.49-1.48c.84-.49,1.64-1,2.42-1.5s1.57-1,2.39-1.42,1.68-.83,2.5-1.21,1.61-.72,2.38-1c1.51-.62,2.86-1.09,3.86-1.4l1.18-.34.43-.11Z"/><line class="cls-1" x1="545.34" y1="83.24" x2="362.18" y2="125.59"/><path class="cls-1" d="M545.43,83.35l-2,.55-2.4.65-3.25.88-4,1.07L529,87.74c-1.71.45-3.54.9-5.47,1.4s-3.93,1-6,1.53l-6.61,1.65q-3.45.83-7.1,1.73c-4.88,1.18-10.05,2.4-15.4,3.64s-11,2.48-16.65,3.73-11.45,2.52-17.21,3.81l-17.17,3.84-16.65,3.71-15.57,3.47-14,3.08L370.21,124l-7.94,1.74-.19-.2,7.8-1.9,20.59-5,13.76-3.32,15.37-3.69L436,107.66l17-4c5.69-1.36,11.37-2.73,17-4.09s11.09-2.68,16.45-3.93S497,93.17,502,92.09l7.23-1.59L516,89.05c2.17-.47,4.27-.9,6.26-1.31s3.87-.82,5.65-1.18l5-1,4.25-.85,3.43-.67,2.55-.49,2.13-.4Z"/><line class="cls-1" x1="506.09" y1="48.06" x2="350.9" y2="113.61"/><path class="cls-1" d="M506.24,48.15l-1.64.8-2,.95c-.78.38-1.68.81-2.69,1.28l-3.36,1.59-4,1.84c-1.42.66-2.95,1.35-4.55,2.08S484.75,58.2,483,59l-5.54,2.47-6,2.63c-4.1,1.8-8.47,3.68-13,5.6s-9.32,3.86-14.17,5.83-9.77,4-14.66,6l-14.62,6c-4.82,2-9.58,3.93-14.17,5.83l-13.27,5.43-11.91,4.87L357.81,111,351,113.7l-.28-.17,6.56-2.89c4.19-1.82,10.16-4.44,17.33-7.57L386.23,98l12.95-5.64,13.86-6,14.33-6.19c4.81-2.08,9.59-4.17,14.29-6.23s9.33-4.09,13.87-6,9-3.75,13.21-5.47l6.17-2.5,5.82-2.32c1.85-.74,3.65-1.45,5.36-2.11s3.32-1.31,4.86-1.89l4.3-1.66,3.67-1.39,3-1.11,2.2-.81L506,48Z"/><line class="cls-1" x1="368.58" y1="14.33" x2="307.62" y2="96.18"/><path class="cls-1" d="M368.79,14.37s-.63,1.34-2,3.64-3.35,5.57-6,9.44c-.68,1-1.39,2-2.14,3s-1.55,2.11-2.42,3.2c-1.72,2.18-3.77,4.44-5.86,6.78-1,1.17-2.08,2.36-3.09,3.58s-2,2.46-2.88,3.72c-1.87,2.52-3.57,5.12-5.19,7.73-.81,1.31-1.63,2.61-2.44,3.91-.42.65-.84,1.29-1.25,1.94l-1.3,1.91c-1.75,2.54-3.48,5.05-5.19,7.46s-3.42,4.73-5.13,6.92-3.37,4.24-4.94,6.13-3,3.62-4.38,5.14l-1,1.11-.92,1c-.59.66-1.14,1.27-1.64,1.81-2,2.17-3.23,3.39-3.23,3.39l-.42-.07s.67-1.33,2-3.64c.33-.58.71-1.21,1.13-1.9.2-.35.42-.71.64-1.08s.48-.76.72-1.16c1-1.59,2.15-3.37,3.42-5.32s2.73-4,4.29-6.26,3.29-4.53,5.17-6.91,3.83-4.84,5.82-7.33c.5-.63,1-1.25,1.53-1.87l1.58-1.88L337,55c2.19-2.51,4.3-5,6.18-7.54,1-1.25,1.86-2.51,2.69-3.76s1.6-2.5,2.35-3.72c1.49-2.45,2.89-4.84,4.44-7.05.78-1.11,1.56-2.18,2.35-3.21s1.57-2,2.33-3c3-3.8,5.75-6.93,7.77-9.1s3.29-3.39,3.29-3.39Z"/><line class="cls-1" x1="347.63" y1="42.91" x2="307.84" y2="97.2"/><path class="cls-1" d="M347.84,43l-.29.63c-.1.22-.22.47-.37.77s-.31.64-.52,1L346,46.66l-.83,1.49c-.6,1.06-1.3,2.26-2.09,3.55s-1.69,2.7-2.67,4.18-2,3-3.22,4.61-2.47,3.22-3.81,4.86-2.67,3.33-4,5l-3.92,5c-1.28,1.66-2.58,3.29-3.82,4.86L318,84.8c-1.14,1.44-2.24,2.8-3.24,4.06-2,2.52-3.68,4.62-4.88,6.08L308,97.24l-.41-.07,1.55-2.36c1-1.51,2.43-3.65,4.15-6.23.85-1.28,1.78-2.68,2.77-4.15l3.12-4.63c1.09-1.61,2.2-3.26,3.37-5l3.51-5.1c1.17-1.71,2.31-3.43,3.43-5.12s2.23-3.35,3.38-4.95,2.34-3.11,3.5-4.55,2.29-2.8,3.36-4.05,2.07-2.39,3-3.39l1.3-1.4,1.13-1.19c.34-.36.66-.67.93-1l.71-.7.6-.58Z"/><line class="cls-1" x1="296.38" y1="6.44" x2="291.64" y2="31.86"/><path class="cls-1" d="M296.6,6.45a5.59,5.59,0,0,1,.51,1.13,8.43,8.43,0,0,1,.38,2.92c0,.3,0,.62-.07.94a5.37,5.37,0,0,1-.22,1A10.39,10.39,0,0,1,296,14.54a5.91,5.91,0,0,0-.93,2.27,6.49,6.49,0,0,0,.1,2.4,11.16,11.16,0,0,1,.29,2.4c0,.79,0,1.57-.08,2.32a10,10,0,0,1-.38,2.15,17.7,17.7,0,0,1-.71,1.91,15.75,15.75,0,0,1-1.6,2.82c-.25.34-.47.61-.61.79l-.25.27-.44,0s-.06-.1-.15-.29-.2-.48-.31-.83a12.46,12.46,0,0,1-.53-2.93,15.76,15.76,0,0,1,0-1.94,10.19,10.19,0,0,1,.42-2.15c.23-.74.5-1.5.77-2.28a13.44,13.44,0,0,1,1.18-2.33,7.85,7.85,0,0,0,1-2.35,4.79,4.79,0,0,0-.08-2.32,8,8,0,0,1-.35-2.18,4.09,4.09,0,0,1,.15-1c.07-.32.18-.63.27-.93a10.59,10.59,0,0,1,1.46-2.83,7.33,7.33,0,0,1,.91-1.06Z"/><line class="cls-1" x1="290.73" y1="36.79" x2="279.99" y2="94.47"/><path class="cls-1" d="M291,36.81s0,.22,0,.65c0,.22,0,.48,0,.79s0,.66,0,1.06v1.32c0,.48,0,1,0,1.55,0,1.11-.1,2.35-.21,3.71s-.25,2.83-.45,4.38-.44,3.19-.75,4.88-.75,3.43-1.19,5.2-.9,3.57-1.31,5.36l-1.22,5.37c-.39,1.77-.82,3.51-1.21,5.2s-.79,3.32-1.16,4.86-.74,3-1.06,4.35c-.67,2.7-1.2,5-1.62,6.52s-.62,2.47-.62,2.47l-.44,0s.11-.91.29-2.49.49-3.84.83-6.55c.17-1.36.36-2.82.56-4.38s.43-3.19.66-4.88.46-3.45.72-5.22.52-3.59.78-5.39.49-3.62.71-5.4.44-3.53.74-5.22.67-3.32,1.06-4.86.78-3,1.18-4.35.79-2.57,1.16-3.66c.2-.55.37-1.06.53-1.53l.5-1.3c.14-.38.28-.73.41-1s.23-.57.33-.78l.28-.63Z"/><line class="cls-1" x1="222.61" y1="8.3" x2="231.01" y2="33.48"/><path class="cls-1" d="M222.82,8.28a9.24,9.24,0,0,1,1.07,1,12.37,12.37,0,0,1,1.87,2.78c.13.29.28.59.4.91a4.32,4.32,0,0,1,.29,1,7.36,7.36,0,0,1,0,2.19,5,5,0,0,0,.27,2.32,8.83,8.83,0,0,0,1.31,2.3,15.85,15.85,0,0,1,1.52,2.28c.38.76.76,1.52,1.09,2.25a10.9,10.9,0,0,1,.73,2.12,14.73,14.73,0,0,1,.29,1.94,11.59,11.59,0,0,1-.1,2.94c-.06.36-.14.65-.19.84s-.1.3-.1.3l-.44,0-.29-.26c-.17-.18-.43-.43-.72-.76a18.57,18.57,0,0,1-2-2.76,19.45,19.45,0,0,1-1-1.88,10.73,10.73,0,0,1-.69-2.12c-.16-.75-.28-1.52-.42-2.31a10.76,10.76,0,0,1-.05-2.41,6.64,6.64,0,0,0-.26-2.39,6.51,6.51,0,0,0-1.25-2.24,11.91,11.91,0,0,1-1.46-2.06,4.5,4.5,0,0,1-.36-1c-.09-.32-.15-.63-.21-.93a8.27,8.27,0,0,1,0-2.93,4.33,4.33,0,0,1,.35-1.14Z"/><line class="cls-1" x1="232.64" y1="38.36" x2="251.69" y2="95.48"/><path class="cls-1" d="M232.85,38.34s.14.22.38.63c.13.2.27.46.44.76s.36.64.56,1,.43.81.68,1.27.48,1,.75,1.5c.53,1.08,1.1,2.29,1.69,3.62s1.2,2.76,1.8,4.29,1.21,3.14,1.77,4.81,1,3.41,1.49,5.18,1,3.56,1.49,5.35,1,3.58,1.55,5.35,1,3.5,1.48,5.18l1.36,4.84c.42,1.54.83,3,1.19,4.35.74,2.69,1.37,4.93,1.77,6.5l.66,2.47-.43,0-1-2.44c-.63-1.56-1.49-3.78-2.54-6.44-.53-1.33-1.09-2.78-1.7-4.3s-1.21-3.14-1.85-4.81-1.32-3.38-2-5.13-1.32-3.54-2-5.31-1.37-3.56-2.07-5.3-1.37-3.47-2-5.14-1-3.3-1.46-4.84-.77-3-1.07-4.36-.56-2.59-.75-3.69c-.1-.55-.19-1.07-.27-1.54s-.13-.92-.18-1.32-.1-.75-.14-1.06-.06-.57-.08-.78c0-.43-.05-.66-.05-.66Z"/><line class="cls-1" x1="164.45" y1="32.44" x2="185.4" y2="55.66"/><path class="cls-1" d="M164.64,32.39a16.85,16.85,0,0,1,1.55.85,22,22,0,0,1,3.22,2.44c.28.26.58.53.85.83a7,7,0,0,1,.8.91,9.81,9.81,0,0,1,1.07,2.12,7.06,7.06,0,0,0,1.44,2.2A15.47,15.47,0,0,0,176,43.8a27.44,27.44,0,0,1,2.63,2c.76.68,1.51,1.36,2.21,2a18.51,18.51,0,0,1,1.79,2c.49.64.91,1.25,1.27,1.83a15.09,15.09,0,0,1,1.4,2.85c.12.36.19.64.24.84a2.9,2.9,0,0,1,0,.3l-.39.09-.42-.21c-.26-.15-.64-.36-1.09-.64a32.82,32.82,0,0,1-3.35-2.41c-.62-.51-1.27-1.07-1.9-1.68a17.23,17.23,0,0,1-1.75-2c-.54-.7-1.06-1.43-1.59-2.16a14.8,14.8,0,0,1-1.28-2.33A9.26,9.26,0,0,0,172.37,42,11.41,11.41,0,0,0,170,40a19.4,19.4,0,0,1-2.46-1.8,7.81,7.81,0,0,1-.85-.9,9.88,9.88,0,0,1-.68-.87,11,11,0,0,1-1.54-2.82,5,5,0,0,1-.25-1.15Z"/><line class="cls-1" x1="189.47" y1="60.16" x2="237.02" y2="112.83"/><path class="cls-1" d="M189.67,60.12l.69.55.8.68c.31.26.68.56,1.07.91l1.3,1.14L195,64.75c1.06,1,2.23,2.07,3.48,3.27s2.57,2.52,3.93,3.91,2.76,2.87,4.15,4.41,2.74,3.17,4.09,4.81,2.75,3.32,4.17,5,2.83,3.32,4.23,5,2.76,3.26,4.07,4.81,2.58,3.08,3.8,4.51l3.35,4c2.09,2.5,3.84,4.58,5,6l1.89,2.3-.4.1-2.2-2.23c-1.4-1.41-3.37-3.45-5.74-5.89l-3.83-3.93-4.25-4.39c-1.46-1.53-3-3.1-4.51-4.71s-3.09-3.23-4.64-4.87-3.14-3.25-4.71-4.84-3.09-3.17-4.5-4.71-2.69-3-3.88-4.48-2.28-2.8-3.26-4.07-1.86-2.43-2.6-3.47l-1-1.46-.85-1.24c-.26-.37-.48-.71-.67-1l-.48-.75-.38-.62Z"/><line class="cls-1" x1="90.26" y1="40.1" x2="122.34" y2="59.77"/><path class="cls-1" d="M90.42,40s.77.19,1.93.61a36.78,36.78,0,0,1,4.35,1.93l1.25.69a14.19,14.19,0,0,1,1.23.78A17.42,17.42,0,0,1,101.3,46a12.39,12.39,0,0,0,2.52,1.94,26.28,26.28,0,0,0,3.4,1.66c1.24.51,2.48,1,3.56,1.59s2.16,1.12,3.17,1.67,1.92,1.1,2.72,1.65,1.53,1.1,2.16,1.61a25.47,25.47,0,0,1,2.81,2.57c.31.33.51.6.66.78l.21.28-.34.14-.51-.15c-.33-.11-.8-.26-1.38-.48-1.15-.42-2.73-1.05-4.46-1.88-.86-.41-1.77-.87-2.7-1.37s-1.82-1.07-2.69-1.67S108.69,53,107.8,52.4a23.67,23.67,0,0,1-2.43-2.08,16.64,16.64,0,0,0-2.58-2,18.56,18.56,0,0,0-3.28-1.62,30.8,30.8,0,0,1-3.3-1.42,11.09,11.09,0,0,1-1.28-.76c-.39-.25-.75-.5-1.1-.74a19.06,19.06,0,0,1-2.92-2.54,6.17,6.17,0,0,1-.83-1.07Z"/><path class="cls-1" d="M164.17,85.42c12.36,7.7,25.21,15.2,37.2,22.8"/><path class="cls-1" d="M164.34,85.34l.55.21,1.49.59c1.26.52,3,1.29,5,2.27,1,.48,2,1,3.11,1.6s2.18,1.2,3.26,1.87,2.14,1.4,3.2,2.13,2.14,1.49,3.24,2.22l3.3,2.2c1.09.73,2.13,1.46,3.16,2.15l2.94,2,2.62,1.81,2.21,1.53,1.69,1.19,1.46,1-.35.14-1.72-.92-2-1.08L195,104.9l-3-1.65-3.33-1.84c-1.16-.65-2.35-1.31-3.54-2l-3.63-2c-1.22-.69-2.47-1.37-3.71-2s-2.44-1.32-3.55-2-2.1-1.33-3-2-1.78-1.26-2.54-1.84c-1.53-1.16-2.7-2.17-3.48-2.89-.38-.37-.68-.65-.87-.86a3.73,3.73,0,0,1-.29-.3Z"/><path class="cls-1" d="M128.57,63.59c9,5.26,17,10.82,26.1,16"/><path class="cls-1" d="M128.74,63.52l.42.13,1.15.36c.95.34,2.26.84,3.71,1.49.73.33,1.5.69,2.28,1.09a25.27,25.27,0,0,1,2.31,1.31c.74.48,1.45,1,2.15,1.55s1.42,1.08,2.17,1.61l2.22,1.57c.75.52,1.45,1,2.14,1.53s1.35,1,2,1.43l1.83,1.27,1.53,1.08q.69.48,1.17.84l1,.73-.33.15L153.23,79l-1.45-.72-1.88-.94-2.21-1.11-.6-.3-.58-.33L145.3,75c-.82-.45-1.68-.91-2.52-1.38l-2.59-1.44c-.85-.48-1.74-1-2.61-1.41s-1.73-.91-2.48-1.38-1.42-.95-2.06-1.4-1.2-.91-1.7-1.33a19.4,19.4,0,0,1-2.24-2.12c-.24-.27-.42-.49-.53-.63l-.17-.24Z"/><line class="cls-1" x1="40.68" y1="67.87" x2="81.72" y2="82.66"/><path class="cls-1" d="M40.81,67.78s.84.09,2.17.34,3.16.68,5.19,1.29l1.56.51c.53.17,1.06.37,1.58.59a30,30,0,0,1,3,1.56,20.34,20.34,0,0,0,3.41,1.55,37,37,0,0,0,4.14,1.15c1.47.34,2.93.67,4.26,1.08s2.65.79,3.9,1.19,2.43.81,3.48,1.24,2,.86,2.91,1.26a41.75,41.75,0,0,1,4,2.13c.45.27.79.5,1,.65l.34.25-.25.18L81,82.67c-.37-.06-.91-.15-1.57-.28-1.33-.25-3.17-.66-5.27-1.23-1-.29-2.16-.61-3.31-1s-2.3-.79-3.45-1.26-2.32-1-3.51-1.48-2.29-1.1-3.39-1.69A26.88,26.88,0,0,0,57,74.17,25.79,25.79,0,0,0,53,73c-1.39-.31-2.75-.58-3.91-.94-.58-.18-1.12-.37-1.62-.56L46,71a31.83,31.83,0,0,1-4.11-2.07A10.83,10.83,0,0,1,40.55,68Z"/><line class="cls-1" x1="89.68" y1="85.53" x2="182.77" y2="119.08"/><path class="cls-1" d="M89.8,85.44l1.14.31,1.36.38,1.83.52,2.25.66L99,88.1c1.87.57,4,1.22,6.23,2s4.71,1.52,7.26,2.39,5.23,1.78,8,2.77,5.49,2,8.28,3.12,5.64,2.17,8.51,3.25l8.56,3.23,8.26,3.13,7.72,2.94,6.9,2.64c4.26,1.64,7.84,3,10.32,4l3.89,1.5-.25.18-4.09-1.37c-2.62-.87-6.32-2.13-10.78-3.64l-7.19-2.43-8-2.73c-2.77-1-5.65-1.92-8.55-2.93l-8.81-3c-3-1-5.92-2-8.85-3s-5.81-2-8.55-2.94-5.33-2-7.77-2.89-4.74-1.85-6.84-2.7-4-1.63-5.67-2.34l-2.34-1-2-.86-1.57-.7-1.15-.53-1-.45Z"/><line class="cls-1" x1="6.97" y1="101.21" x2="54.15" y2="110.11"/><path class="cls-1" d="M7,101.11s.87,0,2.28,0,3.39.24,5.67.56l1.76.28c.61.1,1.22.22,1.83.37,1.24.28,2.45.7,3.72,1.11a27.76,27.76,0,0,0,4.09,1c1.46.27,3,.45,4.59.58s3.16.26,4.66.47,3,.43,4.38.65,2.75.46,4,.74,2.4.56,3.45.84c2.11.56,3.81,1.1,5,1.52.59.2,1,.38,1.33.5l.47.19-.15.21h-.6l-1.66-.06c-1.42-.07-3.41-.23-5.72-.5-1.16-.14-2.4-.31-3.69-.51s-2.63-.46-4-.76l-4.14-1c-1.41-.33-2.78-.76-4.15-1.18a37.6,37.6,0,0,0-4.21-1.09,34.09,34.09,0,0,0-4.44-.56c-1.49-.11-2.95-.2-4.25-.39-.65-.1-1.27-.21-1.85-.34s-1.15-.24-1.7-.37a45.14,45.14,0,0,1-5-1.45,17.24,17.24,0,0,1-1.78-.72Z"/><line class="cls-1" x1="63.31" y1="111.83" x2="170.35" y2="132.02"/><path class="cls-1" d="M63.39,111.73l1.25.15,1.51.18c.59.08,1.28.16,2,.27l2.51.34,2.94.42c2.1.3,4.46.66,7,1.06s5.32.86,8.23,1.36,6,1,9.09,1.63,6.34,1.25,9.59,1.93,6.56,1.36,9.88,2l9.91,2,9.58,1.94,9,1.83c2.84.58,5.53,1.13,8,1.65,5,1,9.11,1.86,12,2.47l4.54.95-.16.21-4.65-.79-12.27-2.1-8.19-1.41L136,126.25l-9.75-1.71-10.06-1.78c-3.38-.59-6.75-1.18-10.09-1.74s-6.61-1.13-9.75-1.71-6.15-1.19-9-1.78-5.51-1.17-8-1.71-4.7-1-6.68-1.51L70,113.65l-2.33-.57-1.88-.48-1.38-.36-1.15-.3Z"/><line class="cls-1" x1="434.3" y1="31.43" x2="405.14" y2="52.25"/><path class="cls-1" d="M434.48,31.5a5.57,5.57,0,0,1-.68,1.1,15.48,15.48,0,0,1-2.54,2.63c-.31.25-.63.52-1,.79a10.35,10.35,0,0,1-1.17.8A26.74,26.74,0,0,1,426,38.36a16.65,16.65,0,0,0-3,1.73,13.6,13.6,0,0,0-2.28,2.1,21.53,21.53,0,0,1-2.12,2.16c-.79.68-1.57,1.35-2.35,2a24.88,24.88,0,0,1-2.45,1.76c-.84.54-1.69,1-2.49,1.48a43.86,43.86,0,0,1-4.18,2l-1.3.53-.49.17-.35-.13.16-.29c.12-.19.29-.46.55-.8a20.7,20.7,0,0,1,2.42-2.67c.57-.53,1.21-1.1,1.93-1.68A25.34,25.34,0,0,1,412.51,45c.92-.59,1.91-1.18,2.91-1.78a35.66,35.66,0,0,1,3.33-1.72,22.1,22.1,0,0,0,3.15-1.79,10.48,10.48,0,0,0,2.22-2,14.5,14.5,0,0,1,1.85-2,10.34,10.34,0,0,1,1.11-.83c.38-.26.77-.5,1.14-.73a30.6,30.6,0,0,1,4.07-2.09c1.09-.46,1.83-.68,1.83-.68Z"/><line class="cls-1" x1="399.48" y1="56.29" x2="333.34" y2="103.51"/><path class="cls-1" d="M399.66,56.35l-.61.58c-.19.19-.44.42-.74.69s-.64.58-1,.92-.82.73-1.29,1.14L394.42,61c-1.12.95-2.4,2-3.84,3.16s-3,2.39-4.7,3.68-3.53,2.65-5.47,4-4,2.78-6.16,4.2S370,79,367.84,80.41l-6.35,4.34c-2.09,1.43-4.17,2.84-6.17,4.19l-5.79,3.92c-1.86,1.24-3.6,2.42-5.22,3.49-3.23,2.17-5.91,4-7.81,5.24l-3,2-.36-.13,2.7-2.08c1.72-1.32,4.21-3.2,7.18-5.46,1.48-1.13,3.09-2.36,4.8-3.65l5.38-4.06c1.87-1.41,3.79-2.87,5.78-4.34l6-4.47c2-1.5,4-3,5.92-4.49s3.86-3,5.79-4.33,3.85-2.71,5.71-4,3.64-2.4,5.31-3.46,3.22-2,4.61-2.88l2-1.19c.63-.36,1.19-.7,1.7-1s1-.56,1.39-.79l1-.59.88-.48Z"/><path class="cls-1" d="M361,61.07c-15.35,15.21-30.13,30.36-45.46,45.5"/><path class="cls-1" d="M361.24,61.12l-.36.55c-.12.18-.27.4-.46.65s-.38.56-.63.88c-.49.66-1.07,1.46-1.8,2.37s-1.54,1.92-2.48,3-2,2.29-3.11,3.53S350,74.66,348.7,76s-2.8,2.69-4.31,4.06-3,2.77-4.5,4.17l-4.44,4.2c-1.46,1.38-2.92,2.74-4.33,4l-4.07,3.78-3.67,3.39c-2.28,2.1-4.16,3.84-5.5,5.06l-2.11,1.92-.38-.1,1.8-2c1.14-1.27,2.82-3.07,4.8-5.24l3.22-3.5,3.62-3.9c1.26-1.35,2.55-2.75,3.89-4.17l4-4.29q2-2.16,4-4.31c1.29-1.43,2.58-2.83,3.89-4.17s2.67-2.61,4-3.8,2.57-2.33,3.76-3.37,2.32-2,3.33-2.8,1.93-1.54,2.69-2.13l1-.78.77-.57c.42-.31.66-.47.66-.47Z"/><path class="cls-1" d="M388.66,33.43c-7.11,7.13-14.32,14.23-21.38,21.39"/><path class="cls-1" d="M388.86,33.48s0,.1-.1.28-.17.44-.31.77a17.7,17.7,0,0,1-1.56,2.64q-.56.81-1.29,1.71a22.23,22.23,0,0,1-1.66,1.84c-.64.62-1.38,1.25-2.14,1.88s-1.53,1.27-2.26,1.92l-2.19,1.95c-.72.64-1.45,1.27-2.15,1.88l-2,1.75-1.84,1.56c-.57.48-1.1.92-1.56,1.32l-1.22,1-1.07.88-.39-.1s.27-.35.77-1c.24-.31.55-.68.89-1.1l1.16-1.42,1.41-1.67,1.58-1.87c.55-.65,1.11-1.31,1.71-2l1.8-2c.6-.69,1.17-1.38,1.73-2.06s1.11-1.36,1.72-2a24.79,24.79,0,0,1,1.94-1.77c.66-.55,1.32-1.07,1.95-1.54,1.26-.94,2.43-1.69,3.29-2.21.43-.25.79-.45,1-.58l.39-.2Z"/><path class="cls-1" d="M297.85,88.91c-2,4.76-4,9.52-5.92,14.29Z"/><path class="cls-1" d="M298.07,88.93c0,.32,0,.63,0,.94s0,.62,0,.93c0,.62-.11,1.23-.21,1.84s-.22,1.22-.36,1.83c-.07.3-.15.61-.23.91l-.26.9-.29.9-.32.9c-.23.6-.47,1.2-.75,1.79s-.57,1.18-.9,1.77c-.17.29-.34.58-.53.88s-.38.58-.6.86l-3.43-.36.88-1.77.9-1.77,1.83-3.54,1.88-3.53,1-1.76,1-1.76Zm0,0-.5,1.81L297,92.56,296,96.17l-1.13,3.61-.59,1.8-.6,1.8-3.43-.36a7,7,0,0,1,.14-.92c.06-.31.14-.61.21-.91.17-.6.36-1.21.58-1.8s.47-1.2.74-1.79c.13-.3.28-.59.42-.89l.45-.88.48-.88c.17-.3.33-.59.51-.88.35-.59.72-1.17,1.12-1.75s.81-1.16,1.27-1.73c.23-.28.46-.57.72-.85s.5-.57.78-.85Z"/><path class="cls-1" d="M300.65,82.28c3.48-8.23,7-16.46,10.2-24.73L300.6,82.26Z"/><path class="cls-1" d="M300.44,82.26c.05-.53.13-1.06.21-1.59s.2-1,.3-1.58c.21-1.06.47-2.1.74-3.15s.57-2.09.89-3.13l.51-1.56.52-1.56c.36-1,.76-2.07,1.18-3.09.22-.52.45-1,.67-1.55l.72-1.54,1.5-3.06c.5-1,1-2.05,1.46-3.08l3.43.37-2.86,6.14L306.8,70l-3,6.14-1.49,3.06-1.51,3.07-.09-.12,0,0Zm.32.19-.29-.1-.1,0,0-.08,1-3.11L302.51,76l2.15-6.21,2.21-6.22,2.27-6.21,3.43.37c-.37,1-.74,2.07-1.09,3.11L310.42,64l-.55,1.56c-.21.51-.4,1-.61,1.54-.42,1-.87,2.06-1.36,3.08l-.75,1.54-.78,1.53c-.53,1-1.08,2-1.66,3.05s-1.17,2-1.81,3c-.32.5-.64,1-1,1.5s-.68,1-1.05,1.5Z"/><path class="cls-1" d="M325.2,23c-3.76,9.48-7.85,18.7-11.66,28.12"/><path class="cls-1" d="M325.42,23s0,.12,0,.34,0,.53,0,.93a19.06,19.06,0,0,1-.36,3.29c-.13.67-.31,1.4-.53,2.16a17,17,0,0,1-.82,2.39,27.05,27.05,0,0,1-1.27,2.52c-.47.85-.94,1.72-1.38,2.59l-1.31,2.6c-.42.86-.87,1.7-1.3,2.52l-1.23,2.35-1.12,2.1-1,1.77-.76,1.37c-.42.76-.67,1.19-.67,1.19l-.42,0,.33-1.23c.11-.39.25-.86.4-1.4l.53-1.82.65-2.16c.24-.76.49-1.57.74-2.4s.52-1.69.82-2.57.59-1.75.88-2.64.54-1.78.79-2.65a24,24,0,0,1,.82-2.57,20.56,20.56,0,0,1,1.14-2.36c.4-.74.82-1.45,1.23-2.09a28.17,28.17,0,0,1,2.27-3.08c.31-.37.57-.66.76-.85l.29-.3Z"/><line class="cls-1" x1="258.56" y1="21.18" x2="267.36" y2="103.05"/><path class="cls-1" d="M258.78,21.17s.08.32.26.92c.08.29.19.67.3,1.1s.25.93.38,1.49.28,1.17.45,1.84.3,1.4.48,2.18.33,1.6.51,2.47.36,1.8.53,2.75c.35,1.92.7,4,1,6.19s.64,4.51.9,6.91.42,4.88.57,7.4.32,5.09.52,7.65.4,5.12.6,7.64.37,5,.55,7.4.33,4.72.49,6.92.29,4.29.41,6.21c.25,3.84.46,7,.61,9.28s.21,3.53.21,3.53h-.44s-.2-1.28-.54-3.52-.82-5.42-1.4-9.26c-.28-1.92-.59-4-.91-6.19s-.65-4.51-1-6.9-.69-4.88-1-7.4-.69-5.07-1-7.62-.74-5.12-1.12-7.63-.75-5-1-7.4-.46-4.71-.59-6.91-.24-4.29-.31-6.21c0-1,0-1.88-.05-2.76s0-1.71,0-2.49,0-1.51,0-2.19,0-1.3,0-1.86,0-1.07.06-1.5,0-.81.06-1.11c0-.6.07-.92.07-.92Z"/><line class="cls-1" x1="193.28" y1="28.21" x2="243.56" y2="106.14"/><path class="cls-1" d="M193.49,28.17l.72.85.85,1c.33.41.71.87,1.12,1.39l1.38,1.73,1.57,2c.58.72,1.14,1.5,1.76,2.32s1.27,1.69,1.92,2.59c1.31,1.8,2.71,3.76,4.15,5.84s2.92,4.27,4.4,6.56,2.89,4.65,4.32,7.07,2.9,4.87,4.4,7.32,3,4.89,4.48,7.3l4.31,7.08,4,6.62,3.56,5.94c2.2,3.68,4,6.74,5.33,8.89l2,3.37-.41.07L241,102.85c-1.46-2.12-3.54-5.14-6.06-8.77l-4.05-5.86c-1.42-2.08-2.93-4.27-4.48-6.53l-4.78-7c-1.62-2.38-3.26-4.81-4.9-7.23s-3.31-4.84-5-7.22-3.27-4.73-4.76-7-2.85-4.49-4.1-6.6-2.42-4.11-3.45-6c-.53-.92-1-1.81-1.47-2.66s-.91-1.64-1.3-2.4l-1.1-2.12-.91-1.8c-.27-.54-.5-1-.71-1.46s-.37-.79-.5-1.08l-.41-.9Z"/><line class="cls-1" x1="133.81" y1="43.57" x2="222.14" y2="112.24"/><path class="cls-1" d="M134,43.51l1.14.72,1.33.88c.53.35,1.14.74,1.8,1.19s1.41.94,2.21,1.49L143,49.55c.92.63,1.87,1.3,2.89,2S148,53,149.08,53.81c2.2,1.57,4.55,3.28,7,5.1s5,3.74,7.59,5.75,5.17,4.12,7.78,6.27,5.29,4.32,8,6.49,5.39,4.33,8.05,6.47l7.78,6.27L202.52,96l6.47,5.26,9.67,7.89,3.66,3-.37.12L218,109.4l-10.33-7.67-6.9-5.13-7.68-5.73c-2.65-2-5.39-4.05-8.18-6.13l-8.42-6.35c-2.83-2.13-5.68-4.24-8.49-6.32s-5.57-4.14-8.17-6.14-5-4-7.33-5.85-4.44-3.65-6.38-5.29c-1-.83-1.9-1.62-2.77-2.38s-1.72-1.47-2.48-2.15l-2.15-1.9L137,46.73c-.55-.48-1-.93-1.43-1.31l-1-1-.85-.82Z"/><line class="cls-1" x1="84.21" y1="66.21" x2="204.56" y2="120.95"/><path class="cls-1" d="M84.35,66.13l1.47.55,1.74.67,2.34.92,2.89,1.14,3.38,1.37c1.21.48,2.47,1,3.81,1.57s2.75,1.13,4.21,1.75c2.91,1.23,6.06,2.57,9.35,4s6.74,3,10.27,4.57,7.1,3.3,10.72,5,7.31,3.48,11,5.22l11.08,5.19,10.71,5,10,4.72,8.94,4.24,13.37,6.35,5.06,2.42-.29.16-5.29-2.29-13.89-6-9.28-4-10.34-4.53c-3.58-1.57-7.28-3.19-11-4.85s-7.56-3.34-11.37-5-7.65-3.35-11.43-5-7.49-3.26-11-4.86-6.9-3.17-10.07-4.68-6.14-2.94-8.86-4.28L98,73.5l-3.49-1.75-3-1.56-2.56-1.33-2-1.08L85.3,67l-1.24-.68Z"/><line class="cls-1" x1="47.84" y1="94.6" x2="192.03" y2="131.66"/><path class="cls-1" d="M47.94,94.5l1.7.34,2,.41,2.73.58,3.38.73,4,.88,4.48,1,5,1.14c3.45.8,7.16,1.69,11.07,2.64s8,2,12.25,3.06,8.55,2.26,12.93,3.46,8.84,2.4,13.31,3.59l13.35,3.55L147,119.36l12.07,3.24,10.8,2.92L186,129.9l6.12,1.67-.2.2-6.27-1.52-16.51-4-11-2.68-12.29-3-13.14-3.24-13.54-3.35c-4.54-1.13-9.1-2.24-13.59-3.33s-8.89-2.16-13.12-3.24-8.29-2.16-12.11-3.21-7.44-2-10.75-3c-1.66-.46-3.24-.92-4.74-1.35L60.57,98.6l-3.73-1.1-3.15-1-2.53-.77-1.87-.58-1.55-.5Z"/><polygon class="cls-2" points="442.02 272.53 335.76 88.48 239.37 88.48 133.11 272.53 442.02 272.53"/><path d="M343.38,210.82a2.6,2.6,0,0,1-1.73-1,2.57,2.57,0,0,1,.51-3.6,21.26,21.26,0,0,0,4.38-29.35,2.57,2.57,0,1,1,4.16-3,26.43,26.43,0,0,1-5.45,36.48A2.57,2.57,0,0,1,343.38,210.82Z"/><path d="M239.39,210.66a2.58,2.58,0,0,1-1-.33,26.44,26.44,0,0,1-9.46-35.66,2.57,2.57,0,0,1,4.47,2.55A21.26,21.26,0,0,0,241,205.9a2.57,2.57,0,0,1-1.63,4.76Z"/><polygon class="cls-3" points="287.56 5 239.37 88.48 335.76 88.48 287.56 5"/><path class="cls-4" d="M185.84,192c14,.4,42.3-56.72,110-54.77,38.84,1.11,51,26,76.86,46.82,26.85,21.57-50-5-81.14-22C264.08,147.07,206.83,215.23,185.84,192Z"/><path class="cls-5" d="M213.3,193c18.43-27.32,46.35-44.68,82.19-43.65,38.83,1.11,51.06,32.08,82.1,43.8-18.24-.52-36.67,33.45-87.81,32C258.5,224.27,237.66,212.72,213.3,193Z"/><path d="M277.19,229.72c-26.86-3.42-46.35-15.43-67.35-32.4a5.52,5.52,0,0,1-1.11-7.37c20.73-30.73,51.6-47.09,86.92-46.08a73,73,0,0,1,7.33.57c20.82,2.65,34.07,13.63,46.89,24.25,9.29,7.69,18.07,14.95,29.67,19.33a5.51,5.51,0,0,1-2.11,10.67c-5-.15-11.2,4-19,9.28-14.77,10-35,23.67-68.81,22.7C285.36,230.55,281.17,230.23,277.19,229.72ZM220.81,192c18,14.09,35.17,23.95,57.78,26.83,3.62.46,7.44.75,11.34.87,30.25.86,48-11.16,62.33-20.82,3.7-2.49,7.19-4.85,10.61-6.75-7.39-4.45-13.78-9.74-20-14.92-12.14-10-23.61-19.55-41.25-21.8-2-.26-4.13-.42-6.26-.48C257.91,153.82,234.46,173.55,220.81,192Z"/><path class="cls-4" d="M290.74,190.1a18.14,18.14,0,1,0-17.61-18.65A18.14,18.14,0,0,0,290.74,190.1Z"/><path d="M287,213.54h0a41.72,41.72,0,0,1-36.52-42.75,41.31,41.31,0,0,1,3.7-16,3.34,3.34,0,0,1,1.75-1.7,96.4,96.4,0,0,1,39.64-7A66.52,66.52,0,0,1,330.7,157a3.29,3.29,0,0,1,1.38,1.75,41.9,41.9,0,0,1-40.93,55.16C289.77,213.82,288.38,213.71,287,213.54Zm-27.32-54.86A35.29,35.29,0,0,0,287.85,207h0a33.94,33.94,0,0,0,3.49.27,35.29,35.29,0,0,0,34.82-45.34,60,60,0,0,0-30.77-9.22A90.16,90.16,0,0,0,259.69,158.68Z"/><path d="M291.64,207.9a1,1,0,0,1-.86-1l.94-32.81a1,1,0,0,1,1-1,1,1,0,0,1,1,1L292.75,207a1,1,0,0,1-1,1Z"/><path d="M300.59,207a1,1,0,0,1-.84-.75l-7.58-32a1,1,0,0,1,1.92-.45l7.58,31.94a1,1,0,0,1-.73,1.19A1,1,0,0,1,300.59,207Z"/><path d="M309,203.78a1,1,0,0,1-.74-.51l-15.59-28.89a1,1,0,0,1,1.73-.93L310,202.34a1,1,0,0,1-1,1.44Z"/><path d="M316.28,198.51a.94.94,0,0,1-.58-.3l-22.55-23.87a1,1,0,0,1,1.44-1.35l22.54,23.87a1,1,0,0,1,0,1.39A1,1,0,0,1,316.28,198.51Z"/><path d="M322,191.53a1,1,0,0,1-.39-.13l-27.94-17.23a1,1,0,0,1-.33-1.35,1,1,0,0,1,1.36-.33l27.95,17.23a1,1,0,0,1,.31,1.36A1,1,0,0,1,322,191.53Z"/><path d="M325.64,183.32l-.16,0L294,173.89a1,1,0,0,1-.66-1.22,1,1,0,0,1,1.22-.67l31.46,9.4a1,1,0,0,1-.41,1.92Z"/><path d="M294.26,173.5a1,1,0,0,1-.86-1,1,1,0,0,1,1-1l32.81.94a1,1,0,1,1-.06,2l-32.81-.94Z"/><path d="M294.21,173.08a1,1,0,0,1-.83-.75,1,1,0,0,1,.73-1.18l31.94-7.59a1,1,0,0,1,.46,1.92l-31.95,7.58A1,1,0,0,1,294.21,173.08Z"/><path d="M294.06,172.68a1,1,0,0,1-.34-1.84l28.88-15.59a1,1,0,0,1,.94,1.73l-28.89,15.59A.94.94,0,0,1,294.06,172.68Z"/><path d="M293.81,172.34a1,1,0,0,1-.59-.3,1,1,0,0,1,0-1.39l23.87-22.54a1,1,0,0,1,1.35,1.43l-23.87,22.54A1,1,0,0,1,293.81,172.34Z"/><path d="M293.48,172.07a1.14,1.14,0,0,1-.39-.14,1,1,0,0,1-.32-1.36L310,142.63a1,1,0,1,1,1.67,1L294.44,171.6A1,1,0,0,1,293.48,172.07Z"/><path d="M293.09,171.89l-.15,0a1,1,0,0,1-.67-1.23l9.4-31.45a1,1,0,0,1,1.89.56l-9.4,31.45A1,1,0,0,1,293.09,171.89Z"/><path d="M292.67,171.83a1,1,0,0,1-.86-1l.94-32.82a1,1,0,0,1,2,.06l-.94,32.82a1,1,0,0,1-1,1Z"/><path d="M292.25,171.87a1,1,0,0,1-.83-.75l-7.59-31.94a1,1,0,1,1,1.92-.46l7.58,31.95a1,1,0,0,1-.73,1.18A1,1,0,0,1,292.25,171.87Z"/><path d="M291.85,172a1,1,0,0,1-.74-.51l-15.59-28.89a1,1,0,0,1,1.73-.93l15.59,28.89a1,1,0,0,1-.4,1.33A.89.89,0,0,1,291.85,172Z"/><path d="M291.5,172.27a1,1,0,0,1-.59-.3L268.37,148.1a1,1,0,0,1,0-1.39,1,1,0,0,1,1.4,0l22.53,23.87a1,1,0,0,1,0,1.39A1,1,0,0,1,291.5,172.27Z"/><path d="M291.23,172.6a1,1,0,0,1-.39-.13L262.9,155.24a1,1,0,0,1,1-1.68l27.95,17.23a1,1,0,0,1,.32,1.36A1,1,0,0,1,291.23,172.6Z"/><path d="M291.06,173l-.15,0-31.46-9.41a1,1,0,1,1,.57-1.88l31.45,9.4a1,1,0,0,1-.41,1.92Z"/><path d="M258.18,172.47a1,1,0,0,1-.86-1,1,1,0,0,1,1-1l32.82.94a1,1,0,0,1,1,1,1,1,0,0,1-1,.95l-32.81-.93Z"/><path d="M259.1,181.42a1,1,0,0,1-.84-.75,1,1,0,0,1,.73-1.19l31.95-7.58a1,1,0,0,1,.45,1.92l-31.94,7.58A1,1,0,0,1,259.1,181.42Z"/><path d="M262.3,189.83A1,1,0,0,1,262,188l28.89-15.59a1,1,0,0,1,.94,1.74l-28.9,15.58A1,1,0,0,1,262.3,189.83Z"/><path d="M267.57,197.12a1,1,0,0,1-.59-.3,1,1,0,0,1,0-1.4l23.87-22.53a1,1,0,1,1,1.36,1.43l-23.88,22.53A1,1,0,0,1,267.57,197.12Z"/><path d="M274.55,202.8a.92.92,0,0,1-.39-.14,1,1,0,0,1-.33-1.36l17.24-28a1,1,0,0,1,1.67,1l-17.23,28A1,1,0,0,1,274.55,202.8Z"/><path d="M282.76,206.47l-.16,0a1,1,0,0,1-.66-1.22l9.4-31.46a1,1,0,0,1,1.23-.66,1,1,0,0,1,.66,1.22l-9.4,31.46A1,1,0,0,1,282.76,206.47Z"/><path d="M197.93,160.89l1.54-1.82c1-1.18,2.39-3,4.47-5.09,1-1.06,2.11-2.27,3.37-3.51l4.18-3.9c1.52-1.35,3.22-2.71,5-4.19s3.78-2.78,5.8-4.28c2.12-1.35,4.29-2.82,6.63-4.19s4.78-2.77,7.4-4a115.19,115.19,0,0,1,16.82-6.74A123.48,123.48,0,0,1,272,119a128.28,128.28,0,0,1,20-.88,126.8,126.8,0,0,1,19.8,2.75,122,122,0,0,1,18.45,5.93,112.77,112.77,0,0,1,16.12,8.28c2.5,1.44,4.75,3.12,7,4.65s4.22,3.25,6.21,4.79,3.72,3.22,5.38,4.81,3.17,3.14,4.56,4.63,2.62,2.95,3.79,4.28,2.11,2.65,3,3.79c1.86,2.27,3.06,4.24,4,5.5l1.36,2a.57.57,0,0,1-.84.75l-.13-.11L379,168.57c-1.18-1.06-2.85-2.64-5.08-4.51-1.11-.92-2.3-2-3.65-3.06s-2.82-2.23-4.36-3.45-3.32-2.37-5.09-3.65l-5.68-3.82c-4.09-2.46-8.51-5-13.33-7.29a132.47,132.47,0,0,0-15.38-6.35,148.61,148.61,0,0,0-17-4.53,141.64,141.64,0,0,0-18.21-2.14l-4.22-.1c-1.51-.09-3,0-4.52.05-3,0-6,.28-9,.49a145.67,145.67,0,0,0-17.33,2.91A131,131,0,0,0,240.24,138c-5,1.84-9.66,3.94-14,6l-6,3.28c-1.88,1.1-3.72,2.12-5.4,3.15s-3.17,2.14-4.66,3-2.7,1.87-3.89,2.69c-2.37,1.61-4.25,3.12-5.52,4.05l-2,1.45-.1.07a.56.56,0,0,1-.8-.13A.58.58,0,0,1,197.93,160.89Z"/><path d="M374.38,225.56a5.28,5.28,0,0,0-.13,7.28,5.21,5.21,0,1,0,7.44-7.3A5.3,5.3,0,0,0,374.38,225.56Z"/><path d="M356.62,240a5.31,5.31,0,0,0-1.5,7.13,5.1,5.1,0,0,0,7.29,1.53,5.35,5.35,0,0,0,2.29-3.39,5.11,5.11,0,0,0-.91-3.92,5.26,5.26,0,0,0-3.36-2.08A5,5,0,0,0,356.62,240Z"/><path d="M336.44,250.89a5.08,5.08,0,0,0-2.71,2.79,5.22,5.22,0,0,0-.1,3.95,5.11,5.11,0,0,0,2.77,2.92,5.4,5.4,0,0,0,4.1-.05,5.1,5.1,0,0,0,2.72-6.93A5.33,5.33,0,0,0,336.44,250.89Z"/><path d="M314.58,257.76a5.31,5.31,0,0,0-4,6.09,5.21,5.21,0,1,0,10.19-2.19A5.31,5.31,0,0,0,314.58,257.76Z"/><path d="M291.82,260.39a5.21,5.21,0,1,0,5.3,5A5.24,5.24,0,0,0,291.82,260.39Z"/><path d="M269,258.61a5.31,5.31,0,0,0-6,4.14,5.21,5.21,0,1,0,10.26,1.81A5.32,5.32,0,0,0,269,258.61Z"/><path d="M246.87,252.57a5.35,5.35,0,0,0-6.68,2.94,5.1,5.1,0,0,0,3,6.82,5.37,5.37,0,0,0,4.1-.11,5.09,5.09,0,0,0,2.65-3,5.31,5.31,0,0,0-.25-3.95A5.06,5.06,0,0,0,246.87,252.57Z"/><path d="M226.3,242.48a5,5,0,0,0-3.84-.59,5.25,5.25,0,0,0-3.27,2.21,5.09,5.09,0,0,0-.77,4,5.4,5.4,0,0,0,2.42,3.31,5.11,5.11,0,0,0,7.23-1.81A5.34,5.34,0,0,0,226.3,242.48Z"/><path d="M208,228.68a5.31,5.31,0,0,0-7.31.26,5.21,5.21,0,1,0,7.71,7A5.3,5.3,0,0,0,208,228.68Z"/><path d="M374.38,204.43a5.28,5.28,0,0,0-.13,7.28,5.21,5.21,0,1,0,7.44-7.3A5.3,5.3,0,0,0,374.38,204.43Z"/><path d="M356.62,218.9a5.31,5.31,0,0,0-1.5,7.13,5.1,5.1,0,0,0,7.29,1.53,5.35,5.35,0,0,0,2.29-3.39,5.11,5.11,0,0,0-.91-3.92,5.26,5.26,0,0,0-3.36-2.08A5,5,0,0,0,356.62,218.9Z"/><path d="M336.44,229.76a5.08,5.08,0,0,0-2.71,2.79,5.22,5.22,0,0,0-.1,3.95,5.11,5.11,0,0,0,2.77,2.92,5.4,5.4,0,0,0,4.1,0,5.1,5.1,0,0,0,2.72-6.93A5.33,5.33,0,0,0,336.44,229.76Z"/><path d="M314.58,236.63a5.31,5.31,0,0,0-4,6.09,5.21,5.21,0,1,0,10.19-2.19A5.31,5.31,0,0,0,314.58,236.63Z"/><path d="M291.82,239.26a5.21,5.21,0,1,0,5.3,5A5.24,5.24,0,0,0,291.82,239.26Z"/><path d="M269,237.48a5.31,5.31,0,0,0-6,4.14,5.21,5.21,0,1,0,10.26,1.81A5.32,5.32,0,0,0,269,237.48Z"/><path d="M246.87,231.44a5.35,5.35,0,0,0-6.68,2.94,5.1,5.1,0,0,0,3,6.82,5.37,5.37,0,0,0,4.1-.11,5.09,5.09,0,0,0,2.65-3,5.31,5.31,0,0,0-.25-3.95A5.06,5.06,0,0,0,246.87,231.44Z"/><path d="M226.3,221.35a5,5,0,0,0-3.84-.59,5.25,5.25,0,0,0-3.27,2.21,5.09,5.09,0,0,0-.77,3.95,5.4,5.4,0,0,0,2.42,3.31,5.11,5.11,0,0,0,7.23-1.81A5.34,5.34,0,0,0,226.3,221.35Z"/><path d="M208,207.55a5.31,5.31,0,0,0-7.31.26,5.21,5.21,0,1,0,7.71,7A5.3,5.3,0,0,0,208,207.55Z"/></g></g></svg>