<svg xmlns="http://www.w3.org/2000/svg" viewBox="0 0 140.91 365.47"><defs><style>.cls-1{fill:#fff;stroke:#000;stroke-miterlimit:10;}</style></defs><title>saekey</title><g id="图层_2" data-name="图层 2"><g id="央铋_4" data-name="央铋 4"><path class="cls-1" d="M60.38,222.43c0,2.24.37,4.25-.65,6.12-.14.25.52,1.31,1,1.43a1.79,1.79,0,0,0,1.59-.76,35.17,35.17,0,0,0,1.4-4.76,1.66,1.66,0,0,0-.87-2.13A7.58,7.58,0,0,0,60.38,222.43Z"/><path class="cls-1" d="M15.37,85.18a21.25,21.25,0,0,0-3.19-1.34,2.33,2.33,0,0,0-2.79,3,2.11,2.11,0,0,0,3.17,1.34,3.9,3.9,0,0,0,.75-.66C13.86,86.91,14.4,86.29,15.37,85.18Z"/><path class="cls-1" d="M55.08,298.37a34.78,34.78,0,0,0-4.19-1,2,2,0,0,0-2.14,1.7,2,2,0,0,0,1.09,2.52,2.85,2.85,0,0,0,2.26-.07A21.39,21.39,0,0,0,55.08,298.37Z"/><path class="cls-1" d="M8.71,282.28c0,.62-.18,1.47.14,1.83a9.09,9.09,0,0,0,2.69,1.95c.29.14,1.29-.46,1.45-.91a2.75,2.75,0,0,0-2.85-3.62C9.71,281.55,9.29,282,8.71,282.28Z"/><path class="cls-1" d="M58.57,178.09a2.23,2.23,0,0,0-1.45-2.85,2.34,2.34,0,0,0-1.36,4.48A2.43,2.43,0,0,0,58.57,178.09Z"/><path class="cls-1" d="M62.64,333.94a1.73,1.73,0,0,0-.5-2.24c-1.13-1-2.42-1.25-3.16-.56a1.66,1.66,0,0,0-.47,1.31c.3,1.41,1.56,2.67,2.63,2.62.43,0,.85-.43,1.25-.7C62.51,334.28,62.56,334.09,62.64,333.94Z"/><path class="cls-1" d="M30.13,33.34A2.14,2.14,0,0,0,29,30.46a2.07,2.07,0,0,0-2.64.67,2.14,2.14,0,0,0,.78,3A2.21,2.21,0,0,0,30.13,33.34Z"/><path class="cls-1" d="M68.63,243.81c-2.87.53-3.75,1.28-3.15,2.55a2.89,2.89,0,0,0,1.76,1.52c1,.19,1.38-.73,1.41-1.66C68.67,245.56,68.64,244.9,68.63,243.81Z"/><path class="cls-1" d="M41.3,232a1.88,1.88,0,0,0-2.4,1.17A1.84,1.84,0,0,0,40,235.55,1.91,1.91,0,1,0,41.3,232Z"/><path class="cls-1" d="M40,223.68c-1.32,1-2.46,1.48-2.41,1.8a9.2,9.2,0,0,0,2.15,4.65c.42-.48.82-.73.81-.95C40.4,227.7,40.22,226.22,40,223.68Z"/><path class="cls-1" d="M36.68,264.69c-.89-.27-1.41.37-1.72,1.21a1.83,1.83,0,0,0,1.22,2.38,1.78,1.78,0,0,0,2.18-.81C38.9,266.53,38.15,265.22,36.68,264.69Z"/><path class="cls-1" d="M57.87,269.48c.36,2.57,2.14,3.06,3,4.21,1.4-.7,2-1.58.9-2.47A18.9,18.9,0,0,0,57.87,269.48Z"/><path class="cls-1" d="M76.81,228.66a11,11,0,0,0-1.72-2.57,1.85,1.85,0,0,0-2.52.8c-.54,1,.09,2.65,1.24,2.7C74.65,229.63,75.51,229.09,76.81,228.66Z"/><path class="cls-1" d="M62.56,349.8a5.13,5.13,0,0,0-1.79.76c-.7.65-.24,2.06.68,2.49a1.67,1.67,0,0,0,2.19-.54C64.27,351.68,63.92,350.48,62.56,349.8Z"/><path class="cls-1" d="M70.59,197.74c-.87.49-1.59.66-1.91,1.12a1.74,1.74,0,0,0,.89,2.47c.94.35,2-.08,2.07-.83S71.05,198.84,70.59,197.74Z"/><path class="cls-1" d="M19.13,250.68a2.9,2.9,0,0,0-3.35.32c-.18.18-.27.77-.15.87a4,4,0,0,0,1.6,1,1.58,1.58,0,0,0,2-.92C19.41,251.54,19.18,251,19.13,250.68Z"/><path class="cls-1" d="M57.17,196.88a6.29,6.29,0,0,0,.82,1.84c.46.55,1.82.12,2.17-.63a1.55,1.55,0,0,0-.64-2.16A1.66,1.66,0,0,0,57.17,196.88Z"/><path class="cls-1" d="M70.45,202.49c-1,.37-1.93.44-2.37.92a1.54,1.54,0,0,0,.42,2.21c.62.52,2.46.13,2.66-.67C71.32,204.34,70.79,203.56,70.45,202.49Z"/><path class="cls-1" d="M88.14,232.49c-.69-1-1.41-2-2.12-3.05-2,1.11-1,2-.23,2.9C86.46,233.1,87,234.09,88.14,232.49Z"/><path class="cls-1" d="M44.8,16.23l2.63,3.85c.43-.52,1-1,.94-1.18A9.15,9.15,0,0,0,47,16.23C46.82,16,46,16.21,44.8,16.23Z"/><path class="cls-1" d="M46.07,206c-.4.25-1.38.55-1.51,1.06a2.79,2.79,0,0,0,.75,2.08c.52.58,1.71.17,2.08-.54C47.88,207.61,47.48,206.54,46.07,206Z"/><path class="cls-1" d="M79.94,199.67c-1.09.6-1.91.83-2.3,1.37-.22.29.12,1.3.51,1.65a1.23,1.23,0,0,0,2-.4C80.44,201.7,80.09,200.88,79.94,199.67Z"/><path class="cls-1" d="M18.73,56.64a28.44,28.44,0,0,0,2,2.84c.62.68,1.87.51,2-.27a1.83,1.83,0,0,0-.58-1.61A18.15,18.15,0,0,0,18.73,56.64Z"/><path class="cls-1" d="M52.62,219.28c-.84.55-1.5.78-1.8,1.24-.45.68.31,1.94,1.1,1.82a2,2,0,0,0,1.42-1.07C53.49,220.84,53,220.19,52.62,219.28Z"/><path class="cls-1" d="M51.84,290c-1,.81-1.76,1.17-2.1,1.78a1.34,1.34,0,0,0,1.17,1.78c.56-.06,1.46-.5,1.53-.9C52.57,292,52.16,291.24,51.84,290Z"/><path class="cls-1" d="M9.64,251.44c-.81.77-1.39,1.1-1.63,1.59a1,1,0,0,0,.78,1.5,1.84,1.84,0,0,0,1.5-.85C10.46,253.24,10,252.56,9.64,251.44Z"/><path class="cls-1" d="M53.33,47.14c-.56-.82-.8-1.45-1.26-1.77s-1.85.37-1.74,1.11a1.9,1.9,0,0,0,1.06,1.29C51.83,47.9,52.44,47.46,53.33,47.14Z"/><path class="cls-1" d="M36.6,55.38c-.87.39-1.68.51-1.86.91A2.11,2.11,0,0,0,35,58.07a1.29,1.29,0,0,0,2.06-.51A7.17,7.17,0,0,0,36.6,55.38Z"/><path class="cls-1" d="M36.08,299.41c-.7.61-1.4.94-1.47,1.37a1.81,1.81,0,0,0,.7,1.5,1.16,1.16,0,0,0,1.73-1A7.91,7.91,0,0,0,36.08,299.41Z"/><path class="cls-1" d="M69.27,230.06c-.14-.43-.33-1-.51-1.5-.38.24-1.1.54-1.07.72a6.19,6.19,0,0,0,.72,1.58C68.62,230.66,68.84,230.45,69.27,230.06Z"/><path class="cls-1" d="M50.61,13a6,6,0,0,0-1.76.39,1,1,0,0,0,0,1.7A1.3,1.3,0,0,0,50.13,15,6.57,6.57,0,0,0,50.61,13Z"/><path class="cls-1" d="M52.55,146.24c-.67.48-1.25.72-1.51,1.16-.14.24.28.81.44,1.23a5.28,5.28,0,0,0,1.52-.76C53.15,147.73,52.79,147.06,52.55,146.24Z"/><path class="cls-1" d="M12.17,77.59a7,7,0,0,0-1.59,1c-.11.13.22,1,.54,1.16.73.47,2.11-.09,2-.76C13.07,78.58,12.61,78.21,12.17,77.59Z"/><path class="cls-1" d="M15.27,247a11.48,11.48,0,0,0-2-1.35c-.2-.08-.87.45-1,.81-.22.75.62,1.6,1.48,1.5C14.17,247.9,14.53,247.48,15.27,247Z"/><path class="cls-1" d="M64.32,230a9.25,9.25,0,0,0-1.7,1.54c-.08.13.47.89.86,1s1.2-.16,1.22-.35A8.52,8.52,0,0,0,64.32,230Z"/><path class="cls-1" d="M47.46,30.19c-.44-.75-.58-1.28-.91-1.48-.74-.44-1.3.05-1.44.74-.07.35.27,1.11.51,1.15A5.84,5.84,0,0,0,47.46,30.19Z"/><path class="cls-1" d="M87.36,226.93c.56,1,.74,1.59,1.16,1.87a1.52,1.52,0,0,0,1.28-.24,2,2,0,0,0-.26-1.61C89.25,226.68,88.5,226.91,87.36,226.93Z"/><path class="cls-1" d="M72.17,283.42c.49,1,.65,1.81,1.06,1.95s1.13-.34,1.53-.73c.14-.14-.15-1.1-.42-1.21A6.85,6.85,0,0,0,72.17,283.42Z"/><path class="cls-1" d="M19.71,248.74c.54.57.79,1.08,1.14,1.16a1.51,1.51,0,0,0,1.93-1c.21-.58-.37-1.53-.91-1.35A12.75,12.75,0,0,0,19.71,248.74Z"/><path class="cls-1" d="M45.23,220.47a6.87,6.87,0,0,0-2,.9,1.34,1.34,0,0,0,.19,1.19,5.91,5.91,0,0,0,1.74.08C45.21,222.08,45.22,221.53,45.23,220.47Z"/><path class="cls-1" d="M42.54,260.12c-.52.27-1.13.39-1.28.72a1.37,1.37,0,0,0,.35,1.24.92.92,0,0,0,1.52-.55A4.53,4.53,0,0,0,42.54,260.12Z"/><path class="cls-1" d="M46.09,264.66c.42.46.7,1,1,1a1.3,1.3,0,0,0,1-.71,1.21,1.21,0,0,0-.66-1C47.1,263.92,46.67,264.35,46.09,264.66Z"/><path class="cls-1" d="M42,312.21a9.82,9.82,0,0,0-1-1.22c-.48-.43-1.47-.15-1.47.42a1.55,1.55,0,0,0,.59,1.19C40.48,312.76,41,312.45,42,312.21Z"/><path class="cls-1" d="M72.12,256.69c-.49.4-1,.63-1.11.95a.89.89,0,0,0,1.74.37C72.82,257.68,72.4,257.24,72.12,256.69Z"/><path class="cls-1" d="M75.28,264.94c-.33-.57-.49-1.2-.82-1.32s-.89.24-1.35.39c.21.43.32,1.06.65,1.22S74.65,265.08,75.28,264.94Z"/><path class="cls-1" d="M66.27,283.15c-.5.35-1,.52-1.19.86a.88.88,0,0,0,.89,1.25,1.33,1.33,0,0,0,.91-.81C66.93,284.09,66.53,283.67,66.27,283.15Z"/><path class="cls-1" d="M78.53,207.09c-.13-.56-.24-1-.34-1.41l-1.57.61c.2.4.31,1,.63,1.14S78,207.24,78.53,207.09Z"/><path class="cls-1" d="M75.85,271.7c.49-1-.12-1.42-.67-1.68-.32-.15-.83.12-1.25.2a5.83,5.83,0,0,0,.76,1.61C74.85,272,75.51,271.75,75.85,271.7Z"/><path class="cls-1" d="M13.26,35.39c-.51.37-1,.55-1.19.89-.32.55.33,1.45.93,1.28a1.48,1.48,0,0,0,.89-.92C14,36.32,13.54,35.91,13.26,35.39Z"/><path class="cls-1" d="M48,65.68c-.5.44-1.05.7-1.12,1a1.22,1.22,0,0,0,.69,1,1.27,1.27,0,0,0,1-.65C48.72,66.73,48.31,66.27,48,65.68Z"/><path class="cls-1" d="M37.58,88.62c.56-.27,1.18-.37,1.3-.67a1.24,1.24,0,0,0-.46-1.14c-.35-.12-.86.21-1.31.34C37.25,87.58,37.39,88,37.58,88.62Z"/><path class="cls-1" d="M77.94,300c-.55.32-1.16.47-1.26.78s.26.83.42,1.25c.42-.19,1-.29,1.2-.62S78.11,300.63,77.94,300Z"/><path class="cls-1" d="M124.41,257.36l-.76-1-1,.86a5.78,5.78,0,0,0,1,.84C123.73,258.06,124.07,257.67,124.41,257.36Z"/><path class="cls-1" d="M63.29,358.16l1.1,1.11a4.82,4.82,0,0,0,.88-.93c.06-.1-.35-.67-.54-.67A4.83,4.83,0,0,0,63.29,358.16Z"/><path class="cls-1" d="M87.43,279.42c-.52.38-1.08.59-1.1.85s.35.74.55,1.11c.36-.21.88-.35,1-.66S87.67,280,87.43,279.42Z"/><path class="cls-1" d="M105.32,237.06c-.49.33-1,.48-1.15.8-.44.79.18,1.19.8,1.27a1.16,1.16,0,0,0,.91-.74C106,238.06,105.58,237.63,105.32,237.06Z"/><path class="cls-1" d="M67.43,322.44l-.93.15c.13.38.25.77.37,1.15.29-.13.75-.19.84-.41S67.54,322.74,67.43,322.44Z"/><path class="cls-1" d="M66.86,262.26c-1-1.23-1.22-1.8-1.52-1.84s-.77.38-1.16.6c.23.37.39.9.72,1.08A6.31,6.31,0,0,0,66.86,262.26Z"/><path class="cls-1" d="M60,263.72c-.48,0-1,0-1.07.06a2.7,2.7,0,0,0,0,1.2c0,.07.77.12.82,0A6,6,0,0,0,60,263.72Z"/><path class="cls-1" d="M74.08,220c-.63.39-1.23.57-1.25.82s.34.74.61,1a1,1,0,0,0,.71-.38A5.77,5.77,0,0,0,74.08,220Z"/><path class="cls-1" d="M51.46,268.29c-.46.42-1,.65-1,.95s.33.7.52,1.06c.36-.22.91-.36,1-.67S51.73,268.9,51.46,268.29Z"/><path class="cls-1" d="M47.65,269.52c0-.48-.09-.78-.12-1.09a4.41,4.41,0,0,0-1.19.26c-.12.07,0,.59,0,.9Z"/><path class="cls-1" d="M26.92,230.54a11.66,11.66,0,0,0-1.58.92.84.84,0,0,0-.06.83c.12.18.67.31.78.2a14.74,14.74,0,0,0,1.28-1.56Z"/><path class="cls-1" d="M61.38,144.25c-.51.41-1,.62-1.11.94a1.15,1.15,0,0,0,.57,1,1.13,1.13,0,0,0,1-.52C61.94,145.33,61.61,144.88,61.38,144.25Z"/><path class="cls-1" d="M4.49,276.94A5.5,5.5,0,0,0,4,275.59c-.09-.13-.74-.06-.79.05a4.7,4.7,0,0,0-.15,1.2Z"/><path class="cls-1" d="M12.69,241.32a6.28,6.28,0,0,0-.8,1c0,.07.54.61.63.56a4.75,4.75,0,0,0,.91-.83Z"/><path class="cls-1" d="M1.87,265.25c-.61.27-1.17.34-1.32.63A1.15,1.15,0,0,0,.83,267a1.14,1.14,0,0,0,1.1-.27C2.11,266.45,1.92,265.92,1.87,265.25Z"/><path class="cls-1" d="M33.19,70c.14.62.1,1.22.37,1.43a1.5,1.5,0,0,0,1.31.08c.54-.24.4-1.36-.2-1.56A4.77,4.77,0,0,0,33.19,70Z"/><path class="cls-1" d="M26.8,69.66c-.55.38-1.11.58-1.16.86a1.2,1.2,0,0,0,.6,1c.25.1.88-.25,1-.55S27,70.26,26.8,69.66Z"/><path class="cls-1" d="M35.66,51.57a5.35,5.35,0,0,0-.58-1.4,1,1,0,0,0-.84,0,4.93,4.93,0,0,0-.16,1.28Z"/><path class="cls-1" d="M35.32,41.47c.5.46.79,1,1.09,1s.62-.49.8-.83c.06-.1-.33-.63-.5-.62A5.7,5.7,0,0,0,35.32,41.47Z"/><path class="cls-1" d="M39.08,30.13c-.56.34-1,.49-1.28.82a1,1,0,0,0,.81,1.41,1.43,1.43,0,0,0,1-.83C39.7,31.19,39.33,30.73,39.08,30.13Z"/><path class="cls-1" d="M31.28,43.56c.28.6.37,1.14.65,1.28s.76-.11,1.16-.19c-.1-.4-.08-1-.33-1.13S32,43.52,31.28,43.56Z"/><path class="cls-1" d="M38.78,21.36l-1.08.1A5.64,5.64,0,0,0,38,22.64c0,.08.75,0,.78-.1A4.6,4.6,0,0,0,38.78,21.36Z"/><path class="cls-1" d="M124.43,269.51c-.09-.26-.18-.53-.26-.79l-1,.53c.17.23.32.61.52.65S124.17,269.65,124.43,269.51Z"/><path class="cls-1" d="M54.4,41.5l-.73.45c.28.31.57.61.86.92.19-.25.55-.51.53-.75S54.64,41.7,54.4,41.5Z"/><path class="cls-1" d="M26.83,241.78c-.15-.25-.29-.51-.44-.77l-1,.65c.22.2.42.54.65.56S26.58,241.94,26.83,241.78Z"/><path class="cls-1" d="M52.35,1.38l.74,1c.23-.19.69-.42.66-.56a4.06,4.06,0,0,0-.56-1Z"/><path class="cls-1" d="M56.12,170.72l-.73.61c.22.23.41.6.67.65s.6-.36.61-.57S56.32,171,56.12,170.72Z"/><path class="cls-1" d="M5.14,292.2l-.67.54.78.76c.17-.21.5-.46.46-.62S5.35,292.43,5.14,292.2Z"/><path class="cls-1" d="M35.34,278.24a5.25,5.25,0,0,0-.74-1c-.09-.07-.47.19-.71.29l.55,1.29Z"/><path class="cls-1" d="M82.85,198l-.75.4.64.95c.22-.2.61-.4.61-.6S83,198.22,82.85,198Z"/><path class="cls-1" d="M43.18,324.7c0-.51.06-.8.08-1.09l-1.22,0c0,.3-.09.76.07.88A2.73,2.73,0,0,0,43.18,324.7Z"/><path class="cls-1" d="M50.89,282.21c-.25.17-.62.29-.72.53s.09.57.16.87c.25-.18.61-.3.71-.53S51,282.5,50.89,282.21Z"/><path class="cls-1" d="M52,214.45c.06.24,0,.62.2.7a2.18,2.18,0,0,0,.85,0c-.06-.25-.06-.62-.21-.7S52.25,214.44,52,214.45Z"/><polygon class="cls-1" points="23.3 20.68 67.38 25.73 68.08 42.3 65.6 42.84 66.27 58.97 66.67 68.41 62.72 68.57 63.19 79.78 64.33 79.74 64.93 94.01 22.87 95.77 18.29 95.97 17.69 81.69 17.42 75.32 22.01 75.13 22.28 81.5 37.82 80.85 37.35 69.63 25.38 70.14 24.98 60.7 42.31 59.98 41.81 47.95 24.6 51.65 23.3 20.68"/><path class="cls-1" d="M22.44,19.75a1.28,1.28,0,0,1,1-.33l44.08,5a1.26,1.26,0,0,1,1.12,1.21l.7,16.57a1.28,1.28,0,0,1-1,1.29l-1.43.31,1,24.5a1.28,1.28,0,0,1-1.22,1.33L64,69.79l.37,8.68a1.27,1.27,0,0,1,1.2,1.21L66.2,94a1.21,1.21,0,0,1-.33.91,1.26,1.26,0,0,1-.88.41l-46.65,2a1.3,1.3,0,0,1-.92-.34A1.32,1.32,0,0,1,17,96l-.86-20.65a1.28,1.28,0,0,1,.33-.91,1.26,1.26,0,0,1,.89-.41L22,73.86a1.26,1.26,0,0,1,1.32,1.21l.21,5.11,13-.55L36.14,71l-10.71.45a1.3,1.3,0,0,1-.92-.34,1.32,1.32,0,0,1-.41-.88l-.39-9.43a1.26,1.26,0,0,1,1.22-1.33L41,58.76l-.39-9.25L24.87,52.9a1.28,1.28,0,0,1-1.05-.24,1.31,1.31,0,0,1-.49-.95l-1.3-31a1.2,1.2,0,0,1,.11-.56A1.39,1.39,0,0,1,22.44,19.75Zm19.1,27a1.26,1.26,0,0,1,1.54,1.19l.51,12a1.3,1.3,0,0,1-.34.92,1.26,1.26,0,0,1-.88.41l-16.07.67.29,6.89,10.71-.45a1.28,1.28,0,0,1,1.33,1.22L39.1,80.8a1.27,1.27,0,0,1-1.22,1.32l-15.55.65A1.27,1.27,0,0,1,21,81.55l-.22-5.1-2.05.09.76,18.1L63.61,92.8l-.49-11.75a1.25,1.25,0,0,1-1.2-1.21l-.47-11.22a1.24,1.24,0,0,1,.33-.91,1.26,1.26,0,0,1,.88-.41l2.68-.11-1-24.3a1.26,1.26,0,0,1,1-1.3l1.43-.31-.6-14.41L24.64,22.12l1.17,28Z"/><path class="cls-1" d="M25,60.15a1.3,1.3,0,0,0-.11.56,1.27,1.27,0,0,0,1.33,1.21l37.48-1.66a1.29,1.29,0,0,0,.88-.42,1.25,1.25,0,0,0,.33-.92L64,41.7a1.28,1.28,0,0,0-.52-1,1.26,1.26,0,0,0-1.08-.2L30.3,49.13A1.27,1.27,0,0,0,31,51.59L61.54,43.4l.78,14.37L26.13,59.38A1.27,1.27,0,0,0,25,60.15Z"/><path class="cls-1" d="M25.38,70.14,66.67,68.4Z"/><path class="cls-1" d="M24.21,69.63a1.3,1.3,0,0,0-.11.56,1.28,1.28,0,0,0,1.33,1.22l41.29-1.73a1.28,1.28,0,1,0-.11-2.55L25.32,68.86A1.29,1.29,0,0,0,24.21,69.63Z"/><path class="cls-1" d="M19,88.76,60.31,87Z"/><path class="cls-1" d="M17.85,88.25a1.3,1.3,0,0,0-.1.56A1.27,1.27,0,0,0,19.07,90l41.3-1.73a1.27,1.27,0,0,0-.11-2.54L19,87.49A1.27,1.27,0,0,0,17.85,88.25Z"/><path class="cls-1" d="M24.2,34.92l41.3-1.73Z"/><path class="cls-1" d="M23,34.42a1.27,1.27,0,0,0,1.23,1.77l41.29-1.73a1.27,1.27,0,1,0-.11-2.54L24.15,33.65A1.27,1.27,0,0,0,23,34.42Z"/><path class="cls-1" d="M79.59,328.93A18,18,0,1,1,62.33,347.7,18,18,0,0,1,79.59,328.93Zm.53,12.86a5.16,5.16,0,1,0,5.38,4.94A5.17,5.17,0,0,0,80.12,341.79Z"/><path class="cls-1" d="M42.59,303.54a5.12,5.12,0,0,0-.42,2.25,5.56,5.56,0,0,0,.08.7,35.24,35.24,0,0,0,67.08,7.65,34.87,34.87,0,0,0,2.7-10.57,5.16,5.16,0,0,0-10.27-1,24.75,24.75,0,0,1-1.91,7.48,24.92,24.92,0,0,1-47.44-5.41,5.17,5.17,0,0,0-6-4.17A5.18,5.18,0,0,0,42.59,303.54Z"/><path class="cls-1" d="M108.16,313.63a34,34,0,0,1-64.66-7.36,3.29,3.29,0,0,1,0-.54,3.72,3.72,0,0,1,.31-1.68,3.89,3.89,0,0,1,7.4.84A26.2,26.2,0,0,0,103,302.72a4,4,0,0,1,.3-1.18,3.89,3.89,0,0,1,7.44,1.91,33.49,33.49,0,0,1-2.61,10.18Zm2.34,1a36.09,36.09,0,0,0,2.8-10.95A6.43,6.43,0,0,0,101,300.54a6.22,6.22,0,0,0-.49,1.94,23.66,23.66,0,0,1-46.84,2,6.43,6.43,0,0,0-12.76,1.39c0,.29.05.58.1.88a36.51,36.51,0,0,0,69.5,7.92Z"/><path class="cls-1" d="M50.38,306.91a2.3,2.3,0,0,1-1.52,2.68,2.23,2.23,0,1,1-1.14-4.3A2.3,2.3,0,0,1,50.38,306.91Z"/><path class="cls-1" d="M47.64,304.76a2.84,2.84,0,0,1,3.26,2A2.9,2.9,0,0,1,49,310.1a2.66,2.66,0,0,1-2.15-.19,2.72,2.72,0,0,1-1.35-1.78,2.93,2.93,0,0,1,.15-1.83h0A2.56,2.56,0,0,1,47.64,304.76ZM49.85,307a1.75,1.75,0,0,0-2-1.2A1.71,1.71,0,0,0,47.4,309a1.6,1.6,0,0,0,1.28.12,1.83,1.83,0,0,0,1.08-1A1.73,1.73,0,0,0,49.85,307Z"/><path class="cls-1" d="M54.24,315.5a2.33,2.33,0,0,1-.54,3.05,2.15,2.15,0,0,1-3.16-.56,2.34,2.34,0,0,1-.37-1.75,2.16,2.16,0,0,1,1-1.38,2.25,2.25,0,0,1,1.66-.24A2.16,2.16,0,0,1,54.24,315.5Z"/><path class="cls-1" d="M51,314.39a2.75,2.75,0,0,1,2-.29,2.67,2.67,0,0,1,1.71,1.12A2.93,2.93,0,0,1,54,319a2.68,2.68,0,0,1-3.95-.68,2.88,2.88,0,0,1-.44-2.17,3.26,3.26,0,0,1,.15-.44h0A2.65,2.65,0,0,1,51,314.39Zm2.84,1.4a1.63,1.63,0,0,0-1-.65,1.76,1.76,0,0,0-1.27.18,1.71,1.71,0,0,0-.78,1,1.74,1.74,0,0,0,.3,1.35,1.58,1.58,0,0,0,1.1.75,1.56,1.56,0,0,0,1.26-.32,1.84,1.84,0,0,0,.54-.7A1.79,1.79,0,0,0,53.79,315.79Z"/><path class="cls-1" d="M60.75,322.32a2.12,2.12,0,0,1,.82,1.4,2.3,2.3,0,0,1-.32,1.65,2.19,2.19,0,0,1-1.43,1,2.34,2.34,0,0,1-1.73-.45,2.16,2.16,0,0,1-.41-3.19A2.34,2.34,0,0,1,60.75,322.32Z"/><path class="cls-1" d="M57.28,322.36a2.86,2.86,0,0,1,3.78-.48,2.62,2.62,0,0,1,1,1.74,2.76,2.76,0,0,1-2.18,3.26,2.92,2.92,0,0,1-2.12-.54,2.7,2.7,0,0,1-.95-3.29h0A2.61,2.61,0,0,1,57.28,322.36ZM61,323.81a1.64,1.64,0,0,0-.59-1.05,1.8,1.8,0,0,0-2.37.31,1.62,1.62,0,0,0,.33,2.39,1.78,1.78,0,0,0,1.31.36,1.65,1.65,0,0,0,1.08-.73,2,2,0,0,0,.13-.25A1.73,1.73,0,0,0,61,323.81Z"/><path class="cls-1" d="M69.15,326.58a2.33,2.33,0,0,1,1.5,2.72,2.16,2.16,0,0,1-2.81,1.54A2.15,2.15,0,0,1,66.4,328a2.3,2.3,0,0,1,1.15-1.24A2.37,2.37,0,0,1,69.15,326.58Z"/><path class="cls-1" d="M67.32,326.24a2.91,2.91,0,0,1,2-.17,2.85,2.85,0,0,1,1.87,3.34,2.79,2.79,0,0,1-5.19.51,2.62,2.62,0,0,1-.08-2.14l0-.09h0A2.91,2.91,0,0,1,67.32,326.24Zm2.8,2.95A1.78,1.78,0,0,0,69,327.1a1.77,1.77,0,0,0-2.11,1l-.49-.21.47.27a1.55,1.55,0,0,0,0,1.28,1.6,1.6,0,0,0,1,.88,1.67,1.67,0,0,0,2-.85A1.4,1.4,0,0,0,70.12,329.19Z"/><path class="cls-1" d="M78.5,327.81a2.24,2.24,0,0,1,2.32,2,2.23,2.23,0,1,1-2.32-2Z"/><path class="cls-1" d="M78.45,327.27a2.78,2.78,0,0,1,2.9,2.5,2.61,2.61,0,0,1-.19,1.35,2.91,2.91,0,0,1-2.47,1.68,3,3,0,0,1-2.13-.89,2.58,2.58,0,0,1-.73-1.91,2.89,2.89,0,0,1,.25-1.05h0A2.64,2.64,0,0,1,78.45,327.27Zm1.84,2.64a1.73,1.73,0,0,0-1.79-1.57,1.61,1.61,0,0,0-1.44,1h0a2,2,0,0,0-.16.68,1.58,1.58,0,0,0,.43,1.12,1.91,1.91,0,0,0,1.32.56,1.81,1.81,0,0,0,1.53-1A1.6,1.6,0,0,0,80.29,329.91Z"/><path class="cls-1" d="M87.72,325.8a2.34,2.34,0,0,1,1.61,0A2.31,2.31,0,0,1,90.58,327a2.16,2.16,0,0,1-1.2,3,2.16,2.16,0,0,1-2.92-1.3A2.33,2.33,0,0,1,87.72,325.8Z"/><path class="cls-1" d="M87.55,325.3a2.85,2.85,0,0,1,3.51,1.42,2.62,2.62,0,0,1,.1,2.14l0,.12a2.63,2.63,0,0,1-1.54,1.46,2.91,2.91,0,0,1-2.3-.08A2.53,2.53,0,0,1,86,328.79a3,3,0,0,1,.11-2.05h0A2.63,2.63,0,0,1,87.55,325.3Zm2.61,3.18a1.59,1.59,0,0,0-.06-1.28,1.76,1.76,0,0,0-1-.88,1.79,1.79,0,0,0-1.23,0,1.83,1.83,0,0,0-.94,2.17,1.46,1.46,0,0,0,.78.92,1.8,1.8,0,0,0,1.46,0,1.64,1.64,0,0,0,.94-.94Z"/><path class="cls-1" d="M95.74,320.85a2.33,2.33,0,0,1,3.09.14,2.16,2.16,0,0,1-.14,3.21,2.39,2.39,0,0,1-1.69.59,2.18,2.18,0,0,1-1.51-.85,2.28,2.28,0,0,1-.45-1.62A2.12,2.12,0,0,1,95.74,320.85Z"/><path class="cls-1" d="M95.4,320.44a2.86,2.86,0,0,1,3.8.16,2.68,2.68,0,0,1,.59,3,2.75,2.75,0,0,1-.75,1,2.88,2.88,0,0,1-2.1.72,2.7,2.7,0,0,1-1.88-1.06,2.77,2.77,0,0,1-.55-2,2.88,2.88,0,0,1,.22-.93A2.32,2.32,0,0,1,95.4,320.44Zm3.06.94a1.78,1.78,0,0,0-2.37-.12,1.59,1.59,0,0,0-.52,1.12,1.75,1.75,0,0,0,.35,1.23,1.61,1.61,0,0,0,1.12.65,1.86,1.86,0,0,0,1.31-.48,1.61,1.61,0,0,0,.11-2.4Z"/><path class="cls-1" d="M101.66,313.51a2.09,2.09,0,0,1,1.28-1,2.29,2.29,0,0,1,1.68.1,2.18,2.18,0,0,1,1.15,1.29,2.32,2.32,0,0,1-.22,1.77,2.14,2.14,0,0,1-3.1.82A2.32,2.32,0,0,1,101.66,313.51Z"/><path class="cls-1" d="M101.18,313.26a2.69,2.69,0,0,1,1.59-1.25,2.85,2.85,0,0,1,2.07.12,2.69,2.69,0,0,1,1.44,1.62,2.78,2.78,0,0,1-.13,1.92,2.1,2.1,0,0,1-.13.26,2.64,2.64,0,0,1-1.73,1.38,2.67,2.67,0,0,1-2.15-.36,2.9,2.9,0,0,1-1-3.52Zm4.08.82a1.61,1.61,0,0,0-.87-1,1.7,1.7,0,0,0-1.29-.07,1.6,1.6,0,0,0-1,.72l0,.09a1.78,1.78,0,0,0,.66,2.21,1.6,1.6,0,0,0,1.28.22,1.67,1.67,0,0,0,1-.85,1.42,1.42,0,0,0,.08-.18A1.66,1.66,0,0,0,105.26,314.08Z"/><path class="cls-1" d="M104.79,304.63a2.29,2.29,0,0,1,2.5-1.84,2.23,2.23,0,1,1-.77,4.39A2.29,2.29,0,0,1,104.79,304.63Z"/><path class="cls-1" d="M107.34,302.26a2.51,2.51,0,0,1,1.79,1,2.86,2.86,0,0,1,.58,2.23,2.75,2.75,0,0,1-3.32,2.25,2.86,2.86,0,0,1-2.14-3.15,2.38,2.38,0,0,1,.18-.63h0A2.91,2.91,0,0,1,107.34,302.26Zm1.31,3a1.83,1.83,0,0,0-.36-1.4,1.45,1.45,0,0,0-1-.56,1.69,1.69,0,0,0-.59,3.33,1.61,1.61,0,0,0,1.87-1A1.45,1.45,0,0,0,108.65,305.29Z"/><path class="cls-1" d="M63.2,130.73a6.64,6.64,0,0,1,6.35-6.91h0a6.64,6.64,0,0,1,6.91,6.35l1.18,28.3a6.62,6.62,0,0,1-6.35,6.9h0a6.63,6.63,0,0,1-6.9-6.35Z"/><path class="cls-1" d="M69.5,122.55a7.92,7.92,0,0,1,8.23,7.57l1.18,28.29a7.89,7.89,0,0,1-.63,3.46,7.91,7.91,0,0,1-15.16-2.8l-1.19-28.29a7.89,7.89,0,0,1,.64-3.46h0A8,8,0,0,1,69.5,122.55Zm6.87,36-1.18-28.29a5.36,5.36,0,0,0-5.59-5.14,5.42,5.42,0,0,0-4.7,3.24h0a5.35,5.35,0,0,0-.43,2.34L65.66,159a5.36,5.36,0,0,0,10.28,1.89A5.21,5.21,0,0,0,76.37,158.52Z"/><path class="cls-1" d="M64.94,172.28a6.64,6.64,0,0,1,6.35-6.91h0a6.64,6.64,0,0,1,6.91,6.35L79.38,200A6.64,6.64,0,0,1,73,206.92h0a6.63,6.63,0,0,1-6.9-6.35Z"/><path class="cls-1" d="M71.24,164.1a7.92,7.92,0,0,1,8.23,7.57L80.65,200a7.89,7.89,0,0,1-.63,3.46,8,8,0,0,1-6.93,4.77,7.89,7.89,0,0,1-8.23-7.57l-1.19-28.29a7.89,7.89,0,0,1,.64-3.46h0A7.93,7.93,0,0,1,71.24,164.1Zm6.87,36-1.18-28.3a5.36,5.36,0,0,0-10.72.45l1.19,28.3A5.36,5.36,0,0,0,73,205.65a5.41,5.41,0,0,0,4.7-3.24A5.21,5.21,0,0,0,78.11,200.07Z"/><path class="cls-1" d="M58.81,25.84a6.64,6.64,0,0,1,6.35-6.91h0a6.63,6.63,0,0,1,6.9,6.35l2.8,66.78A6.64,6.64,0,0,1,68.51,99h0a6.63,6.63,0,0,1-6.9-6.35Z"/><path class="cls-1" d="M65.1,17.66a7.91,7.91,0,0,1,8.23,7.57L76.13,92a7.75,7.75,0,0,1-.64,3.46,7.9,7.9,0,0,1-15.15-2.8l-2.8-66.78a7.89,7.89,0,0,1,.63-3.46h0A8,8,0,0,1,65.1,17.66Zm8.49,74.46-2.8-66.79a5.36,5.36,0,1,0-10.71.45l2.8,66.79a5.36,5.36,0,1,0,10.71-.45Z"/><path class="cls-1" d="M59.24,8.84a5.49,5.49,0,0,1,5.25-5.71h0a5.49,5.49,0,0,1,5.72,5.25l.2,4.84a5.49,5.49,0,0,1-5.25,5.71h0a5.47,5.47,0,0,1-5.71-5.25Z"/><path class="cls-1" d="M64.44,1.86a6.75,6.75,0,0,1,7,6.47l.2,4.84a6.63,6.63,0,0,1-.55,3,6.75,6.75,0,0,1-12.95-2.39L58,8.89a6.84,6.84,0,0,1,.55-3h0A6.81,6.81,0,0,1,64.44,1.86Zm4.7,11.41-.21-4.84a4.14,4.14,0,0,0-1.35-2.92,4.2,4.2,0,0,0-3-1.11,4.24,4.24,0,0,0-3.7,2.54,4.14,4.14,0,0,0-.33,1.85l.2,4.84a4.21,4.21,0,0,0,4.38,4,4.26,4.26,0,0,0,3.7-2.54A4.32,4.32,0,0,0,69.14,13.27Z"/><path class="cls-1" d="M57.67,108.49A11.23,11.23,0,0,1,68.42,96.8h0a11.23,11.23,0,0,1,11.69,10.75l.19,4.59a11.22,11.22,0,0,1-10.75,11.68h0a11.22,11.22,0,0,1-11.68-10.74Z"/><path class="cls-1" d="M68.37,95.53a12.51,12.51,0,0,1,13,12l.19,4.58a12.33,12.33,0,0,1-1,5.47,12.5,12.5,0,0,1-24-4.42l-.2-4.59a12.36,12.36,0,0,1,1-5.47h0A12.57,12.57,0,0,1,68.37,95.53ZM79,112.19l-.2-4.59a9.95,9.95,0,0,0-19.08-3.52h0a9.68,9.68,0,0,0-.8,4.35l.19,4.59A10,10,0,1,0,79,112.19Z"/><path class="cls-1" d="M62.31,124.76A2.68,2.68,0,0,1,64.88,122l9.17-.39a2.68,2.68,0,0,1,2.79,2.57h0a2.66,2.66,0,0,1-2.56,2.78l-9.18.39a2.69,2.69,0,0,1-2.79-2.57Z"/><path class="cls-1" d="M64.82,120.7l9.18-.38a4,4,0,0,1,3.8,5.51,4,4,0,0,1-3.47,2.38l-9.17.39A4,4,0,0,1,61,124.82a4.1,4.1,0,0,1,.32-1.73h0A4,4,0,0,1,64.82,120.7Zm10.75,3.51a1.41,1.41,0,0,0-1.46-1.35l-9.18.39a1.41,1.41,0,0,0-1.34,1.46,1.37,1.37,0,0,0,.45,1,1.42,1.42,0,0,0,1,.37l9.18-.39a1.4,1.4,0,0,0,1.34-1.46Z"/><path class="cls-1" d="M64,165.67a2.67,2.67,0,0,1,2.56-2.78l9.18-.39a2.68,2.68,0,0,1,2.79,2.57h0A2.68,2.68,0,0,1,76,167.85l-9.17.39A2.68,2.68,0,0,1,64,165.67Z"/><path class="cls-1" d="M66.54,161.62l9.18-.39A4,4,0,0,1,79.83,165a4.1,4.1,0,0,1-.32,1.73,4,4,0,0,1-3.46,2.39l-9.18.38a4,4,0,0,1-4.11-3.78,3.81,3.81,0,0,1,.32-1.73h0A3.94,3.94,0,0,1,66.54,161.62Zm10.75,3.5a1.42,1.42,0,0,0-1.47-1.35l-9.17.39a1.43,1.43,0,0,0-1.35,1.46A1.41,1.41,0,0,0,66.76,167l9.18-.39a1.37,1.37,0,0,0,1.23-.85A1.42,1.42,0,0,0,77.29,165.12Z"/><path class="cls-1" d="M60.65,98a2.68,2.68,0,0,1,2.56-2.79l9.18-.38a2.67,2.67,0,0,1,2.79,2.56h0a2.68,2.68,0,0,1-2.57,2.79l-9.17.38A2.67,2.67,0,0,1,60.65,98Z"/><path class="cls-1" d="M63.16,93.93l9.18-.38a4,4,0,0,1,4.11,3.78,3.81,3.81,0,0,1-.32,1.73,4,4,0,0,1-3.46,2.38l-9.18.39A3.95,3.95,0,0,1,59.38,98a3.81,3.81,0,0,1,.32-1.73h0A4,4,0,0,1,63.16,93.93Zm10.75,3.5a1.41,1.41,0,0,0-1.47-1.34l-9.17.38a1.43,1.43,0,0,0-1.35,1.47,1.4,1.4,0,0,0,1.46,1.34l9.18-.38a1.4,1.4,0,0,0,1.24-.85A1.43,1.43,0,0,0,73.91,97.43Z"/><path class="cls-1" d="M57.89,19.24a2.68,2.68,0,0,1,2.57-2.79l9.17-.39a2.68,2.68,0,0,1,2.79,2.57h0a2.69,2.69,0,0,1-2.56,2.79l-9.18.38a2.68,2.68,0,0,1-2.79-2.56Z"/><path class="cls-1" d="M60.4,15.18l9.18-.39a4,4,0,0,1,2.84,1,3.9,3.9,0,0,1,1.27,2.74,3.81,3.81,0,0,1-.32,1.73,4,4,0,0,1-3.46,2.39l-9.18.38a3.95,3.95,0,0,1-3.79-5.51h0A4,4,0,0,1,60.4,15.18Zm10.75,3.5a1.43,1.43,0,0,0-.45-1,1.45,1.45,0,0,0-1-.37l-9.18.39a1.43,1.43,0,0,0-1.35,1.46,1.42,1.42,0,0,0,1.47,1.35l9.17-.38a1.41,1.41,0,0,0,1.35-1.47Z"/><path class="cls-1" d="M72.72,199.57a18.16,18.16,0,0,0-19.6-2,5.33,5.33,0,0,0-.88.54l-.39.28a7.11,7.11,0,0,0-1.07,1,10.55,10.55,0,1,0,16,13.79,5,5,0,0,1-2.39,5.17l-.34.21a4,4,0,0,0-.43.28c-4.8,3.49-10,6.72-14.95,9.85-18.81,11.77-38.25,24-37.17,49.79A34.9,34.9,0,0,0,47.6,312a34.44,34.44,0,0,0,29.07-18.27,34.45,34.45,0,0,0,30.5,15.77,34.9,34.9,0,0,0,33.21-36.43c-1.09-25.83-21.48-36.34-41.21-46.5-5.23-2.7-10.65-5.49-15.72-8.56l-.45-.25-.27-.13a5.07,5.07,0,0,1-2.9-5,10.55,10.55,0,1,0,14.75-15.08,6.2,6.2,0,0,0-1.15-.89l-.41-.25a5.64,5.64,0,0,0-.92-.46A18.17,18.17,0,0,0,72.72,199.57Zm14.8,73.61.29-.14a3.48,3.48,0,0,1,4.54,1.83,1.43,1.43,0,0,1,0,1.12,1.4,1.4,0,0,1-.69.76A6.43,6.43,0,0,0,87.52,273.18Zm-23.69.87.31.11a6.45,6.45,0,0,0-3.83,3.91,1.49,1.49,0,0,1-.84-1.83A3.46,3.46,0,0,1,63.83,274.05Zm10.06-46.82A17.51,17.51,0,0,0,77,229.15c5.38,3.25,10.92,6.1,16.27,8.86,20.76,10.7,33.51,18.14,34.25,35.61a22,22,0,0,1-20.9,23,21.62,21.62,0,0,1-17.06-7.17,12.61,12.61,0,0,0,7-.86,14.34,14.34,0,0,0,7.58-18.8,16.34,16.34,0,0,0-21.4-8.62,18.6,18.6,0,0,0-7.24,5.45,18.79,18.79,0,0,0-7.68-4.83,16.34,16.34,0,0,0-20.6,10.38,14.33,14.33,0,0,0,9.12,18.11,12.75,12.75,0,0,0,7.08.27,21.66,21.66,0,0,1-16.4,8.57A22,22,0,0,1,24.31,278c-.73-17.48,11.36-26,31.15-38.35,5.1-3.2,10.38-6.51,15.47-10.19l0,0A17.06,17.06,0,0,0,73.89,227.23Z"/><path class="cls-1" d="M64.08,238a9.7,9.7,0,1,1,19.39-.81c.22,5.35-3.09,30.13-8.44,30.36S64.31,243.35,64.08,238Z"/><path class="cls-1" d="M73.32,226.61a11,11,0,0,1,11.42,10.51c.17,4-1.6,19.12-4.91,26.78-1.39,3.23-2.94,4.83-4.75,4.91-7.16.3-12.13-27.43-12.27-30.77a10.83,10.83,0,0,1,.89-4.8h0A11,11,0,0,1,73.32,226.61Zm8.88,10.62a8.43,8.43,0,1,0-16.85.71c.31,7.28,6.17,28.47,9.63,28.32.18,0,1.15-.2,2.52-3.37C80.54,255.84,82.37,241.24,82.2,237.23Z"/><path class="cls-1" d="M49.69,230.32c5-3.14,10.19-6.38,15-9.9l.3-.2.32-.19a6.94,6.94,0,0,0,2.87-3.22,7.65,7.65,0,0,0-1.56-8,4.55,4.55,0,0,1-.74,2.29,8.6,8.6,0,0,1-15.07-8.16h0a8.52,8.52,0,0,1,1.4-2.24A4.87,4.87,0,0,1,53,200l.39-.28a4,4,0,0,1,.62-.38,16.17,16.17,0,0,1,18.84,2.95,16.17,16.17,0,0,1,18.52-4.52,4,4,0,0,1,.65.33l.41.25a4,4,0,0,1,.8.62,8.57,8.57,0,0,1,2.25,8.63,8.88,8.88,0,0,1-.35.95,8.61,8.61,0,0,1-14.64,1.93,4.48,4.48,0,0,1-.93-2.2,7.51,7.51,0,0,0-1,1.71,7,7,0,0,0,3.35,9.39l.26.13.32.18c5.12,3.1,10.54,5.89,15.84,8.63,20.12,10.36,39.12,20.15,40.16,44.86a32.71,32.71,0,0,1-61.95,16.3l-.36.87a32.41,32.41,0,0,1-28.61,19.72A32.94,32.94,0,0,1,13.4,278.4a38.63,38.63,0,0,1,3-17.3C22.27,247.5,35.57,239.17,49.69,230.32Zm18.77,55.07a10.85,10.85,0,0,1-3.22,2.47,10.71,10.71,0,0,1-8.25.61,12.41,12.41,0,0,1-7.89-15.65c.14-.41.29-.81.46-1.19a14.46,14.46,0,0,1,17.69-7.95,16.69,16.69,0,0,1,8.42,6.19A16.81,16.81,0,0,1,83.54,263a14.39,14.39,0,0,1,18.85,7.6,12.27,12.27,0,0,1,.09,9.48l-.12.29a12.3,12.3,0,0,1-6.52,6.48,10.83,10.83,0,0,1-11.69-2.11,23.65,23.65,0,0,0,22.56,13.87,24,24,0,0,0,22.76-25.06c-.82-19.49-16.8-27.72-35.31-37.26-5.36-2.76-10.9-5.62-16.17-8.81l-.09,0a15.67,15.67,0,0,1-4.13-2.87A15.4,15.4,0,0,1,70,227.72l-.07,0c-5.06,3.67-10.34,7-15.47,10.19-13.37,8.38-24.92,15.61-29.74,26.78A29.58,29.58,0,0,0,22.37,278,24,24,0,0,0,47.14,301.1a23.57,23.57,0,0,0,20.78-14.36Q68.21,286.08,68.46,285.39Zm-6.34-6.61c0-.13.09-.25.14-.38a4.48,4.48,0,0,1,5.53-2.48,4.69,4.69,0,0,1,1.5.84c-.09-.21-.18-.42-.29-.63a7.81,7.81,0,0,0-4.56-3.93,5.42,5.42,0,0,0-6.64,3,4.13,4.13,0,0,0-.17.45A3.42,3.42,0,0,0,59.8,280a1.84,1.84,0,0,0,1.4-.11,1.79,1.79,0,0,0,.86-.9ZM84,275.24a4.5,4.5,0,0,1,5.89,2.38,1.78,1.78,0,0,0,1,1,1.82,1.82,0,0,0,1.41,0,3.39,3.39,0,0,0,1.82-1.86h0a3.38,3.38,0,0,0,0-2.61,5.41,5.41,0,0,0-7.08-2.86,7.85,7.85,0,0,0-4.13,4.12l-.08.18c-.09.21-.16.43-.23.65A4.51,4.51,0,0,1,84,275.24Z"/><path class="cls-1" d="M134.59,287.2A31.37,31.37,0,0,1,76.34,286,31.72,31.72,0,0,1,75,289.84a31.25,31.25,0,0,1-27.5,19,31.68,31.68,0,0,1-32.79-30.44,37.54,37.54,0,0,1,2.9-16.75c5.71-13.23,19-21.53,32.77-30.18,5-3.16,10.24-6.42,15.13-10a1.64,1.64,0,0,1,.22-.14l.3-.19a8.1,8.1,0,0,0,3.38-3.8A8.7,8.7,0,0,0,57.9,206a.91.91,0,0,0,0,.65.9.9,0,0,0,.75.56.88.88,0,0,0,.84-.39,3.21,3.21,0,0,1,5.63,3.05,2.78,2.78,0,0,1-.27.51,7.34,7.34,0,0,1-12.85-7,7.42,7.42,0,0,1,1.21-1.91,3.5,3.5,0,0,1,.53-.49l.39-.29a4,4,0,0,1,.44-.27,15,15,0,0,1,18.35,3.8,15,15,0,0,1,18-5.32l.46.23.41.26a3.06,3.06,0,0,1,.58.44,7.31,7.31,0,0,1,1.91,7.36,7.1,7.1,0,0,1-.3.81,7.32,7.32,0,0,1-12.47,1.64,3.2,3.2,0,0,1-.43-3.27,3.26,3.26,0,0,1,1-1.25,3.22,3.22,0,0,1,4.52.53.9.9,0,0,0,.87.32.92.92,0,0,0,.66-.53,1,1,0,0,0,0-.1.94.94,0,0,0,0-.64,8.56,8.56,0,0,0-10.66,4.65l0,.09a8.31,8.31,0,0,0,4,11l.27.13.22.13c5.17,3.13,10.64,5.94,15.92,8.67,19.78,10.19,38.46,19.81,39.46,43.78a31.71,31.71,0,0,1-2.57,14ZM81.75,274.86l-.09.21a9.06,9.06,0,0,0,.07,7l0,.14.29.78a25,25,0,0,0,46.61,1.68,25.43,25.43,0,0,0,2.06-11.17c-.85-20.23-17.13-28.62-36-38.34-5.34-2.75-10.87-5.6-16.19-8.82l-.11-.05a14.57,14.57,0,0,1-4.76-3.66,14.3,14.3,0,0,1-4.4,4l-.14.09c-5,3.65-10.31,7-15.4,10.14-13.3,8.33-25.27,15.82-30.24,27.36a31,31,0,0,0-2.41,13.85,25.24,25.24,0,0,0,26.09,24.29,24.88,24.88,0,0,0,21.9-15.13,25.14,25.14,0,0,0,1.31-3.84l.21-.74a.65.65,0,0,0,0-.13A9.14,9.14,0,0,0,64.84,271a6.68,6.68,0,0,0-8.21,3.69,5.37,5.37,0,0,0-.21.56,4.66,4.66,0,0,0,.26,3.57,4.71,4.71,0,0,0,2.72,2.35,3.11,3.11,0,0,0,3.83-1.72,2,2,0,0,0,.1-.26,2.15,2.15,0,0,1,.1-.27,3.22,3.22,0,0,1,6,2.28c-.09.28-.2.55-.31.81a9.54,9.54,0,0,1-11.74,5.26,11.11,11.11,0,0,1-7.08-14,10.23,10.23,0,0,1,.42-1.09,13.12,13.12,0,0,1,16.12-7.25,15.42,15.42,0,0,1,8.93,7.61l.07-.18A15.47,15.47,0,0,1,84,264.16a13.12,13.12,0,0,1,17.18,6.93,11.06,11.06,0,0,1,.08,8.51l-.1.25a11,11,0,0,1-5.86,5.82,9.54,9.54,0,0,1-12.51-5,3.23,3.23,0,0,1,1.7-4.22,3.21,3.21,0,0,1,4.21,1.7,3.11,3.11,0,0,0,4.08,1.65,4.68,4.68,0,0,0,2.47-2.46l0-.1a4.65,4.65,0,0,0,0-3.59,6.67,6.67,0,0,0-8.74-3.53,9.07,9.07,0,0,0-4.81,4.78Zm55.18,13.35a34.37,34.37,0,0,0,2.78-15.1c-1.07-25.44-21.29-35.86-40.84-45.93l-.06,0c-5.23-2.7-10.63-5.48-15.71-8.56-.14-.08-.27-.16-.4-.22l-.31-.15a5.73,5.73,0,0,1-3-7l.07.08a9.88,9.88,0,0,0,16.8-2.21,10.9,10.9,0,0,0,.39-1.09,9.81,9.81,0,0,0-2.57-9.91,5.28,5.28,0,0,0-1-.8l-.41-.25a6.27,6.27,0,0,0-.82-.41,17.44,17.44,0,0,0-19.09,3.88,17.44,17.44,0,0,0-19.34-2.27,5.09,5.09,0,0,0-.78.48l-.39.28a5.37,5.37,0,0,0-1,.88,9.61,9.61,0,0,0-1.62,2.57A9.88,9.88,0,0,0,67,211.79a.47.47,0,0,0,.06-.09,6,6,0,0,1,0,4.61A5.62,5.62,0,0,1,64.66,219l-.29.18a3.77,3.77,0,0,0-.39.26c-4.81,3.5-10,6.73-15,9.88-14.26,8.93-27.72,17.36-33.75,31.32a40,40,0,0,0-3.1,17.87,34.21,34.21,0,0,0,35.44,32.87,33.65,33.65,0,0,0,29-19,33.9,33.9,0,0,0,30.53,16.5,34.25,34.25,0,0,0,29.79-20.63l-2.34-1,2.34,1Zm-49.16.15a12,12,0,0,0,8.57-.35,13.56,13.56,0,0,0,7.19-7.15c0-.1.09-.21.13-.31a13.55,13.55,0,0,0-.1-10.46A15.67,15.67,0,0,0,83,261.82a18,18,0,0,0-7.46,5.89,17.92,17.92,0,0,0-7.93-5.24,15.76,15.76,0,0,0-19.26,8.65c-.18.43-.35.86-.5,1.3a13.68,13.68,0,0,0,8.7,17.26,12,12,0,0,0,8.56-.37,22.24,22.24,0,0,1-18.06,10.51A22.68,22.68,0,0,1,23.64,278a28.44,28.44,0,0,1,2.2-12.74c4.67-10.8,16.06-17.94,29.28-26.21,5.1-3.2,10.37-6.5,15.44-10.17l0,0a16.9,16.9,0,0,0,3.26-2.5,17,17,0,0,0,3.46,2.22h0c5.37,3.24,10.9,6.09,16.26,8.85,18.9,9.74,33.82,17.43,34.61,36.18a22.75,22.75,0,0,1-21.54,23.74,22.32,22.32,0,0,1-18.89-9ZM85.7,273.61a6.74,6.74,0,0,1,1.85-1.19A4.13,4.13,0,0,1,93,274.6a2.12,2.12,0,0,1,0,1.64l0,.05a2.1,2.1,0,0,1-1.13,1.12.52.52,0,0,1-.44,0,.55.55,0,0,1-.3-.3A5.72,5.72,0,0,0,87.94,274a5.78,5.78,0,0,0-2.24-.42ZM61.1,277.9c-.07.16-.13.32-.19.48l0,.05a.55.55,0,0,1-.26.28.54.54,0,0,1-.43,0A2.08,2.08,0,0,1,59,277.67a2.13,2.13,0,0,1-.13-1.64c0-.11.09-.23.14-.34A4.14,4.14,0,0,1,64,273.41a6.6,6.6,0,0,1,1.95,1,5.72,5.72,0,0,0-4.89,3.47Z"/><path class="cls-1" d="M87.52,203.88a2.3,2.3,0,0,1-1.36-1,3.49,3.49,0,0,1-.63-2,2.4,2.4,0,0,1,.92-1.9,2.74,2.74,0,0,1,2.3-.45A3.82,3.82,0,0,1,91,200.18a1.82,1.82,0,0,1-.58,2.16c-.59.48-1.25.73-1.64,1.08-.24.17-.27.37-.52.44A1.21,1.21,0,0,1,87.52,203.88Z"/><path class="cls-1" d="M79.92,205.34a2.32,2.32,0,0,1-1.66.33,3.54,3.54,0,0,1-1.88-.84,2.34,2.34,0,0,1-.81-1.94,2.88,2.88,0,0,1,3.53-2.47,2.34,2.34,0,0,1,1.55,1.42,3.4,3.4,0,0,1,.15,2A2.33,2.33,0,0,1,79.92,205.34Z"/><path class="cls-1" d="M76.29,211a2.33,2.33,0,0,1-1,1.4,3.53,3.53,0,0,1-1.92.73,2.37,2.37,0,0,1-2-.81,2.82,2.82,0,0,1-.57-2.29,2.76,2.76,0,0,1,1.34-1.95,2.35,2.35,0,0,1,2.1-.08,3.51,3.51,0,0,1,1.55,1.35A2.37,2.37,0,0,1,76.29,211Z"/><path class="cls-1" d="M78.23,218.42a2.35,2.35,0,0,1,.46,1.62A3.46,3.46,0,0,1,78,222a2.33,2.33,0,0,1-1.86,1,2.71,2.71,0,0,1-2.13-1,2.78,2.78,0,0,1-.64-2.28,2.4,2.4,0,0,1,1.3-1.66,3.6,3.6,0,0,1,2-.31A2.32,2.32,0,0,1,78.23,218.42Z"/><path class="cls-1" d="M85.92,223.48a2.71,2.71,0,0,1,1,3.66,2.63,2.63,0,1,1-4.59-2.57A2.71,2.71,0,0,1,85.92,223.48Z"/><path class="cls-1" d="M93.84,227.73a2.74,2.74,0,1,1-3.6,1.21A2.69,2.69,0,0,1,93.84,227.73Z"/><path class="cls-1" d="M103,232.46a2.67,2.67,0,0,1,1.05,3.65,2.63,2.63,0,1,1-1.05-3.65Z"/><path class="cls-1" d="M112.06,237.53a2.65,2.65,0,0,1,.83,3.72,2.63,2.63,0,1,1-4.51-2.71A2.66,2.66,0,0,1,112.06,237.53Z"/><path class="cls-1" d="M119.84,242.74a2.64,2.64,0,0,1,.41,3.81,2.63,2.63,0,1,1-4.19-3.18A2.64,2.64,0,0,1,119.84,242.74Z"/><path class="cls-1" d="M127.78,250.09a2.62,2.62,0,0,1-.43,3.84,2.63,2.63,0,1,1-3.42-4A2.61,2.61,0,0,1,127.78,250.09Z"/><path class="cls-1" d="M133.68,259.43a2.6,2.6,0,0,1-1.57,3.54,2.62,2.62,0,1,1-2.08-4.82A2.6,2.6,0,0,1,133.68,259.43Z"/><path class="cls-1" d="M136.3,268.85a2.62,2.62,0,0,1-2.43,3,2.63,2.63,0,1,1-.74-5.2A2.62,2.62,0,0,1,136.3,268.85Z"/><path class="cls-1" d="M136.2,279.93a2.59,2.59,0,0,1-3.27,2.08,2.63,2.63,0,0,1,.93-5.17A2.59,2.59,0,0,1,136.2,279.93Z"/><path class="cls-1" d="M132.29,290.41a2.59,2.59,0,0,1-3.8.79,2.63,2.63,0,0,1,2.69-4.51A2.6,2.6,0,0,1,132.29,290.41Z"/><path class="cls-1" d="M126,298a2.6,2.6,0,0,1-3.86-.43,2.63,2.63,0,0,1,4-3.45A2.59,2.59,0,0,1,126,298Z"/><path class="cls-1" d="M116.31,303.72a2.6,2.6,0,0,1-3.45-1.78,2.63,2.63,0,0,1,4.93-1.81A2.6,2.6,0,0,1,116.31,303.72Z"/><path class="cls-1" d="M105.27,305.59a2.6,2.6,0,0,1-2.59-2.89,2.63,2.63,0,0,1,5.25.07A2.59,2.59,0,0,1,105.27,305.59Z"/><path class="cls-1" d="M95.5,303.86A2.59,2.59,0,0,1,94,300.29a2.62,2.62,0,0,1,5,1.74A2.6,2.6,0,0,1,95.5,303.86Z"/><path class="cls-1" d="M85.79,298.28a2.59,2.59,0,0,1-.16-3.87,2.63,2.63,0,0,1,4,3.39A2.59,2.59,0,0,1,85.79,298.28Z"/><path class="cls-1" d="M78.68,289.65A2.59,2.59,0,0,1,79.89,286a2.63,2.63,0,0,1,2.57,4.58A2.59,2.59,0,0,1,78.68,289.65Z"/><path class="cls-1" d="M78.57,268.54a2.79,2.79,0,0,1,2.12-1,2.41,2.41,0,0,1,1.87,1,3.49,3.49,0,0,1,.68,1.95,2.3,2.3,0,0,1-.48,1.63,2.37,2.37,0,0,1-1.52.76,3.49,3.49,0,0,1-2-.34,2.37,2.37,0,0,1-1.27-1.67A2.76,2.76,0,0,1,78.57,268.54Z"/><path class="cls-1" d="M89.78,263.36a2.82,2.82,0,0,1,2.15,1.12,2.31,2.31,0,0,1,.29,2.1,3.65,3.65,0,0,1-1.2,1.66,2,2,0,0,1-3-.14,3.7,3.7,0,0,1-1-1.78,2.27,2.27,0,0,1,.49-2.05A2.81,2.81,0,0,1,89.78,263.36Z"/><path class="cls-1" d="M99.55,268.81a2.48,2.48,0,0,1-1.07,3.89,3.22,3.22,0,0,1-3.44-.79,2.34,2.34,0,0,1-.3-1.6,3.7,3.7,0,0,1,.79-1.89,2.3,2.3,0,0,1,1.93-.86A2.8,2.8,0,0,1,99.55,268.81Z"/><path class="cls-1" d="M99.49,281.58a2.85,2.85,0,0,1-2.24,1.19,2.2,2.2,0,0,1-1.85-1,4,4,0,0,1-.61-1.95,1.83,1.83,0,0,1,1.66-2.22,4,4,0,0,1,2,.05,2.18,2.18,0,0,1,1.5,1.49A2.84,2.84,0,0,1,99.49,281.58Z"/><path class="cls-1" d="M56.67,199.89a2.77,2.77,0,0,1,2.33.26A2.35,2.35,0,0,1,60.07,202a3.45,3.45,0,0,1-.45,2,2.35,2.35,0,0,1-1.27,1.13,1.16,1.16,0,0,1-.75,0c-.25,0-.3-.24-.55-.39-.42-.32-1.09-.52-1.72-.94a1.82,1.82,0,0,1-.77-2.11A3.85,3.85,0,0,1,56.67,199.89Z"/><path class="cls-1" d="M68.79,201.19a2.74,2.74,0,0,1,1.37,1.93,2.3,2.3,0,0,1-.64,2,3.52,3.52,0,0,1-1.8,1A2.11,2.11,0,0,1,65,204.55a3.4,3.4,0,0,1,0-2.05A2.35,2.35,0,0,1,66.45,201,2.77,2.77,0,0,1,68.79,201.19Z"/><path class="cls-1" d="M75.42,209.88a2.8,2.8,0,0,1-.38,2.33,2.37,2.37,0,0,1-1.87,1,3.45,3.45,0,0,1-2-.57,2.26,2.26,0,0,1-1-1.31,2.36,2.36,0,0,1,.25-1.68,3.5,3.5,0,0,1,1.43-1.48,2.36,2.36,0,0,1,2.1-.09A2.76,2.76,0,0,1,75.42,209.88Z"/><path class="cls-1" d="M73.31,221.94a2.78,2.78,0,0,1-2,1.22,2.4,2.4,0,0,1-1.94-.81,3.57,3.57,0,0,1-.84-1.88,2.43,2.43,0,0,1,.33-1.66,2.37,2.37,0,0,1,1.44-.88,3.48,3.48,0,0,1,2,.14,2.33,2.33,0,0,1,1.43,1.55A2.76,2.76,0,0,1,73.31,221.94Z"/><path class="cls-1" d="M64.65,229a2.67,2.67,0,0,1-3.72-.8,2.63,2.63,0,1,1,4.35-2.95A2.66,2.66,0,0,1,64.65,229Z"/><path class="cls-1" d="M57,234a2.73,2.73,0,1,1,.76-3.72A2.67,2.67,0,0,1,57,234Z"/><path class="cls-1" d="M48.29,239.48a2.74,2.74,0,1,1,.75-3.71A2.68,2.68,0,0,1,48.29,239.48Z"/><path class="cls-1" d="M39.9,245.12a2.71,2.71,0,0,1-3.71-.66,2.63,2.63,0,1,1,4.26-3.08A2.72,2.72,0,0,1,39.9,245.12Z"/><path class="cls-1" d="M33,250.59a2.73,2.73,0,0,1-3.74-.23,2.63,2.63,0,1,1,3.9-3.52A2.72,2.72,0,0,1,33,250.59Z"/><path class="cls-1" d="M26.52,257.72a2.77,2.77,0,0,1-3.68.58A2.63,2.63,0,1,1,25.91,254,2.76,2.76,0,0,1,26.52,257.72Z"/><path class="cls-1" d="M22.18,266.06a2.8,2.8,0,0,1-3.33,1.65,2.63,2.63,0,1,1,1.67-5A2.81,2.81,0,0,1,22.18,266.06Z"/><path class="cls-1" d="M20.63,274.23a2.75,2.75,0,0,1-2.79,2.47,2.63,2.63,0,1,1,.3-5.24A2.78,2.78,0,0,1,20.63,274.23Z"/><path class="cls-1" d="M21.48,283.54a2.82,2.82,0,0,1-1.85,3.22,2.63,2.63,0,1,1-1.36-5.07A2.8,2.8,0,0,1,21.48,283.54Z"/><path class="cls-1" d="M25.42,291.89a2.82,2.82,0,0,1-.6,3.66,2.64,2.64,0,1,1-3.06-4.27A2.82,2.82,0,0,1,25.42,291.89Z"/><path class="cls-1" d="M31.16,297.71a2.8,2.8,0,0,1,.57,3.66,2.63,2.63,0,1,1-4.23-3.11A2.8,2.8,0,0,1,31.16,297.71Z"/><path class="cls-1" d="M39.45,301.72a2.8,2.8,0,0,1,1.84,3.21,2.63,2.63,0,1,1-5.06-1.38A2.81,2.81,0,0,1,39.45,301.72Z"/><path class="cls-1" d="M48.63,302.5a2.8,2.8,0,0,1,2.87,2.34,2.64,2.64,0,1,1-5.23.51A2.81,2.81,0,0,1,48.63,302.5Z"/><path class="cls-1" d="M56.51,300.4A2.81,2.81,0,0,1,60,301.71a2.63,2.63,0,1,1-4.79,2.15A2.82,2.82,0,0,1,56.51,300.4Z"/><path class="cls-1" d="M64.09,295.16a2.81,2.81,0,0,1,3.7,0,2.64,2.64,0,1,1-3.71,3.72A2.81,2.81,0,0,1,64.09,295.16Z"/><path class="cls-1" d="M69.34,287.57a2.8,2.8,0,0,1,3.47-1.3A2.63,2.63,0,1,1,70.64,291,2.8,2.8,0,0,1,69.34,287.57Z"/><path class="cls-1" d="M71.57,279.88a2.34,2.34,0,0,1,.76-1.52,3.38,3.38,0,0,1,1.82-1,2.37,2.37,0,0,1,2,.56,2.86,2.86,0,0,1-.21,4.28,2.35,2.35,0,0,1-2.07.37,3.42,3.42,0,0,1-1.72-1.14A2.34,2.34,0,0,1,71.57,279.88Z"/><path class="cls-1" d="M68.79,272.64a2.39,2.39,0,0,1-.62-1.59,3.49,3.49,0,0,1,.52-2,2.38,2.38,0,0,1,1.78-1.11,2.76,2.76,0,0,1,2.2.84,2.72,2.72,0,0,1,.82,2.2,2.37,2.37,0,0,1-1.12,1.78,3.47,3.47,0,0,1-2,.5A2.3,2.3,0,0,1,68.79,272.64Z"/><path class="cls-1" d="M61.8,270a2.26,2.26,0,0,1-1.56-.46A3.64,3.64,0,0,1,58.9,268a2.34,2.34,0,0,1,.11-2.11,2.93,2.93,0,0,1,4.39-.58,2.28,2.28,0,0,1,.65,2,3.67,3.67,0,0,1-.87,1.86A2.29,2.29,0,0,1,61.8,270Z"/><path class="cls-1" d="M56.54,273.52a3.2,3.2,0,0,1-3.36,1.07,2.46,2.46,0,0,1-1.39-3.78,2.79,2.79,0,0,1,2-1.42,2.31,2.31,0,0,1,2,.69,3.79,3.79,0,0,1,.94,1.83A2.28,2.28,0,0,1,56.54,273.52Z"/><path class="cls-1" d="M57,279.89a2.17,2.17,0,0,1,.45,1.47,3.94,3.94,0,0,1-.45,2,2.18,2.18,0,0,1-1.75,1.18,3,3,0,0,1-3-3.42,2.18,2.18,0,0,1,1.37-1.61,4,4,0,0,1,2-.22A2.22,2.22,0,0,1,57,279.89Z"/><path class="cls-1" d="M81.06,280.4a5.3,5.3,0,1,1,5.52,5.08A5.31,5.31,0,0,1,81.06,280.4Z"/><path class="cls-1" d="M86.08,273.61A6.58,6.58,0,1,1,81.9,285a6.52,6.52,0,0,1-2.11-4.56,6.45,6.45,0,0,1,.53-2.88h0A6.62,6.62,0,0,1,86.08,273.61Zm4.3,6.4a4,4,0,0,0-7.73-1.42,3.91,3.91,0,0,0-.32,1.76,4,4,0,0,0,7.72,1.42A4.06,4.06,0,0,0,90.38,280Z"/><path class="cls-1" d="M60.1,281.28a5.3,5.3,0,1,1,5.52,5.07A5.31,5.31,0,0,1,60.1,281.28Z"/><path class="cls-1" d="M65.12,274.49a6.57,6.57,0,1,1,.55,13.13,6.57,6.57,0,0,1-6.31-9.16h0A6.63,6.63,0,0,1,65.12,274.49Zm4.3,6.4A4,4,0,1,0,62.67,284a4,4,0,0,0,2.9,1.06,4,4,0,0,0,3.53-2.43A3.94,3.94,0,0,0,69.42,280.89Z"/><path class="cls-1" d="M56.42,210.77a5.3,5.3,0,1,1,5.52,5.08A5.3,5.3,0,0,1,56.42,210.77Z"/><path class="cls-1" d="M61.44,204a6.56,6.56,0,1,1-5.76,4h0A6.62,6.62,0,0,1,61.44,204Zm4.3,6.39A4,4,0,0,0,58,209h0a3.94,3.94,0,0,0-.32,1.76,4,4,0,0,0,7.72,1.43A4,4,0,0,0,65.74,210.38Z"/><path class="cls-1" d="M80.59,209.76a5.3,5.3,0,1,1,5.52,5.08A5.31,5.31,0,0,1,80.59,209.76Z"/><path class="cls-1" d="M85.61,203a6.58,6.58,0,1,1-5.76,4h0A6.64,6.64,0,0,1,85.61,203Zm4.3,6.4A4,4,0,0,0,82.19,208a4,4,0,0,0,7.4,3.18A3.91,3.91,0,0,0,89.91,209.37Z"/><path class="cls-1" d="M64.08,238a9.7,9.7,0,1,1,19.39-.81c.22,5.35-3.09,30.13-8.44,30.36S64.31,243.35,64.08,238Z"/><path class="cls-1" d="M73.32,226.61a11,11,0,0,1,11.42,10.51c.17,4-1.6,19.12-4.91,26.78-1.39,3.23-2.94,4.83-4.75,4.91-7.16.3-12.13-27.43-12.27-30.77a10.83,10.83,0,0,1,.89-4.8h0A11,11,0,0,1,73.32,226.61Zm8.88,10.62a8.43,8.43,0,1,0-16.85.71c.31,7.28,6.17,28.47,9.63,28.32.18,0,1.15-.2,2.52-3.37C80.54,255.84,82.37,241.24,82.2,237.23Z"/><path class="cls-1" d="M83.27,235.65a20.66,20.66,0,0,0-19.25.8Z"/><path class="cls-1" d="M62.85,236a1.25,1.25,0,0,0,.07,1.14,1.26,1.26,0,0,0,1.74.46,19.37,19.37,0,0,1,18.07-.75,1.27,1.27,0,0,0,1.09-2.3,21.89,21.89,0,0,0-20.44.86A1.21,1.21,0,0,0,62.85,236Z"/><path class="cls-1" d="M82.34,240.89a19.16,19.16,0,0,0-17,.71Z"/><path class="cls-1" d="M64.21,241.1a1.22,1.22,0,0,0,0,1.07,1.27,1.27,0,0,0,1.7.56,18.53,18.53,0,0,1,15.91-.67,1.26,1.26,0,0,0,1.65-.7,1.28,1.28,0,0,0-.7-1.64,21.2,21.2,0,0,0-18,.75A1.25,1.25,0,0,0,64.21,241.1Z"/><path class="cls-1" d="M81.4,246.13a17.85,17.85,0,0,0-14.67.62Z"/><path class="cls-1" d="M65.57,246.24a1.23,1.23,0,0,0,0,1,1.26,1.26,0,0,0,1.66.65A17.81,17.81,0,0,1,81,247.32a1.25,1.25,0,0,0,1.6-.79,1.28,1.28,0,0,0-.79-1.59,20.48,20.48,0,0,0-15.58.65A1.31,1.31,0,0,0,65.57,246.24Z"/><path class="cls-1" d="M80.47,251.37a16.92,16.92,0,0,0-12.38.52Z"/><path class="cls-1" d="M66.92,251.39a1.27,1.27,0,0,0,0,.94,1.26,1.26,0,0,0,1.62.75,17.22,17.22,0,0,1,11.61-.5,1.23,1.23,0,0,0,1.54-.88,1.29,1.29,0,0,0-.88-1.55,20,20,0,0,0-13.14.56A1.31,1.31,0,0,0,66.92,251.39Z"/><path class="cls-1" d="M79.53,256.61a16.85,16.85,0,0,0-10.08.43Z"/><path class="cls-1" d="M68.28,256.54a1.28,1.28,0,0,0,1.54,1.71,17.29,17.29,0,0,1,9.46-.4,1.25,1.25,0,0,0,1.49-1,1.28,1.28,0,0,0-1-1.5,19.86,19.86,0,0,0-10.7.46A1.3,1.3,0,0,0,68.28,256.54Z"/><path class="cls-1" d="M78.6,261.85a20.64,20.64,0,0,0-7.79.34Z"/><path class="cls-1" d="M69.64,261.68a1.36,1.36,0,0,0-.07.8,1.27,1.27,0,0,0,1.53.94,19.35,19.35,0,0,1,7.31-.31,1.27,1.27,0,0,0,.38-2.52,21.71,21.71,0,0,0-8.27.36A1.28,1.28,0,0,0,69.64,261.68Z"/><path class="cls-1" d="M56.05,234.39a20.68,20.68,0,0,0-19.26.81"/><path class="cls-1" d="M55.58,237a19.92,19.92,0,0,0-18.11.76"/><path class="cls-1" d="M55.12,239.63a19.19,19.19,0,0,0-17,.72"/><path class="cls-1" d="M54.65,242.25a18.51,18.51,0,0,0-15.82.67"/><path class="cls-1" d="M54.18,244.87a17.88,17.88,0,0,0-14.67.62"/><path class="cls-1" d="M53.71,247.49a17.31,17.31,0,0,0-13.52.58"/><path class="cls-1" d="M53.25,250.11a16.88,16.88,0,0,0-12.38.53"/><path class="cls-1" d="M52.78,252.73a16.73,16.73,0,0,0-11.23.48"/><path class="cls-1" d="M52.31,255.35a16.85,16.85,0,0,0-10.08.43"/><path class="cls-1" d="M51.84,258a17.79,17.79,0,0,0-8.93.39"/><path class="cls-1" d="M51.38,260.59a20.84,20.84,0,0,0-7.79.34"/></g></g></svg>