<svg id="sunmoon" xmlns="http://www.w3.org/2000/svg" viewBox="0 0 557.65 584.57"><title>sunmoon</title><g id="图层_2" data-name="图层 2"><g id="element"><path d="M141.27,283.36l14.49,3.81,36.78.09L152.37,276.7a.83.83,0,0,1-.56-.49.82.82,0,0,1,.07-.73l7.75-12.5-15.26,15.38Z"/><path d="M141.27,292.18l2.6,4.2,15.06,15.05-7.05-11.36a.82.82,0,0,1,.49-1.23l39.06-10.27-36.07-.09Z"/><path d="M138.72,294.3,135.24,311v40.55l9.68-46.42a.8.8,0,0,1,.48-.59.83.83,0,0,1,.75.06l13.28,8.24L144.37,297.8Z"/><path d="M125.58,297.31l-14.74,14.86L123,304.62a.83.83,0,0,1,.43-.13,1,1,0,0,1,.33.07.85.85,0,0,1,.48.59l9.68,46.42V311l-3.49-16.72Z"/><path d="M245.12,190.62A291.38,291.38,0,0,1,405.65,23c-3.86-1.62-7.76-3.18-11.72-4.65-151.3-56.14-319.47,21-375.6,172.32s21,319.47,172.32,375.6a291.17,291.17,0,0,0,215.08-4.69C262.2,501.27,190.46,338,245.12,190.62Zm84.17,365.76a3.26,3.26,0,1,1-1.45,4.38A3.27,3.27,0,0,1,329.29,556.38Zm51-537.66a3.45,3.45,0,1,1-3.41,3.48A3.46,3.46,0,0,1,380.29,18.72Zm-9.6-2.92a3.45,3.45,0,1,1-3.28,3.6A3.46,3.46,0,0,1,370.69,15.8Zm-3.17,13.48a3.26,3.26,0,1,1-3.11,3.41A3.27,3.27,0,0,1,367.52,29.28ZM361,13.22a3.45,3.45,0,1,1-3.16,3.71A3.45,3.45,0,0,1,361,13.22Zm-2.69,13.63a3.26,3.26,0,1,1-3,3.51A3.26,3.26,0,0,1,358.31,26.85ZM351.22,11a3.45,3.45,0,1,1-3,3.82A3.44,3.44,0,0,1,351.22,11ZM349,24.74a3.26,3.26,0,1,1-2.87,3.62A3.27,3.27,0,0,1,349,24.74ZM341.37,9.07a3.45,3.45,0,1,1-2.9,3.92A3.44,3.44,0,0,1,341.37,9.07ZM339.66,23a3.26,3.26,0,1,1-2.74,3.72A3.26,3.26,0,0,1,339.66,23ZM331.45,7.52a3.44,3.44,0,1,1-2.75,4A3.44,3.44,0,0,1,331.45,7.52Zm-1.21,14a3.26,3.26,0,1,1-2.61,3.81A3.27,3.27,0,0,1,330.24,21.5ZM321.49,6.31a3.44,3.44,0,1,1-2.61,4.11A3.45,3.45,0,0,1,321.49,6.31Zm-.72,14.06a3.26,3.26,0,1,1-2.47,3.9A3.26,3.26,0,0,1,320.77,20.37ZM311.5,5.44A3.45,3.45,0,1,1,309,9.64,3.45,3.45,0,0,1,311.5,5.44Zm-.22,14.13a3.26,3.26,0,1,1-2.34,4A3.28,3.28,0,0,1,311.28,19.57Zm-7.64,5.79a3.26,3.26,0,1,1,2.19-4.06A3.28,3.28,0,0,1,303.64,25.36ZM301.48,4.93a3.45,3.45,0,1,1-2.32,4.29A3.45,3.45,0,0,1,301.48,4.93Zm-7.15,20.23A3.26,3.26,0,1,1,296.38,21,3.28,3.28,0,0,1,294.33,25.16ZM291.45,4.77a3.44,3.44,0,1,1-2.17,4.36A3.45,3.45,0,0,1,291.45,4.77Zm-4.53,16.31a3.27,3.27,0,1,1-4.22-1.9A3.25,3.25,0,0,1,286.92,21.08ZM281.41,5a3.44,3.44,0,1,1-2,4.43A3.45,3.45,0,0,1,281.41,5Zm-3.94,16.5a3.27,3.27,0,1,1-4.28-1.75A3.25,3.25,0,0,1,277.47,21.46Zm-6.08-16a3.45,3.45,0,1,1-1.86,4.5A3.45,3.45,0,0,1,271.39,5.5ZM268,22.18a3.27,3.27,0,1,1-4.34-1.6A3.27,3.27,0,0,1,268,22.18ZM261.4,6.38A3.45,3.45,0,1,1,259.7,11,3.45,3.45,0,0,1,261.4,6.38Zm-2.76,16.84a3.27,3.27,0,1,1-4.4-1.45A3.26,3.26,0,0,1,258.64,23.22Zm-7.2-15.6a3.44,3.44,0,1,1-1.54,4.62A3.45,3.45,0,0,1,251.44,7.62Zm-2.16,17a3.27,3.27,0,1,1-4.44-1.3A3.26,3.26,0,0,1,249.28,24.6ZM241.53,9.2a3.45,3.45,0,1,1-1.38,4.67A3.45,3.45,0,0,1,241.53,9.2ZM240,26.29a3.27,3.27,0,1,1-4.48-1.14A3.26,3.26,0,0,1,240,26.29Zm-8.28-15.16a3.44,3.44,0,1,1-1.22,4.72A3.45,3.45,0,0,1,231.69,11.13Zm-1,17.18a3.25,3.25,0,0,1-1,4.51,3.26,3.26,0,1,1,1-4.51ZM221.91,13.4a3.45,3.45,0,1,1-1,4.76A3.44,3.44,0,0,1,221.91,13.4Zm.79,225.08-7.41,4.29-.24-.43,7.41-4.29ZM221.57,30.66a3.27,3.27,0,1,1-4.56-.83A3.26,3.26,0,0,1,221.57,30.66ZM212.23,16a3.44,3.44,0,1,1-.89,4.79A3.44,3.44,0,0,1,212.23,16Zm.26,17.31a3.27,3.27,0,1,1-4.58-.67A3.25,3.25,0,0,1,212.49,33.32ZM209.1,245.77l.25.43-32.18,18.6-.25-.43Zm-33.7-38.86-.45-.21,1.7-3.61.45.21Zm32.54,124.25,3.34,2.09-.27.42-3.34-2.09ZM202.63,19a3.45,3.45,0,1,1-.71,4.82A3.45,3.45,0,0,1,202.63,19Zm.88,17.34a3.27,3.27,0,1,1-4.6-.5A3.26,3.26,0,0,1,203.51,36.29ZM193.15,22.23a3.44,3.44,0,1,1-.55,4.84A3.45,3.45,0,0,1,193.15,22.23Zm1.49,17.35a3.27,3.27,0,1,1-4.61-.35A3.25,3.25,0,0,1,194.64,39.58ZM183.79,25.84a3.45,3.45,0,1,1-.38,4.86A3.44,3.44,0,0,1,183.79,25.84Zm2.1,17.33a3.27,3.27,0,1,1-4.62-.18A3.26,3.26,0,0,1,185.89,43.17Zm-11.33-13.4a3.45,3.45,0,1,1-.21,4.87A3.44,3.44,0,0,1,174.56,29.77Zm-1.91,17.28a3.27,3.27,0,1,1,0,4.61A3.27,3.27,0,0,1,172.65,47.05Zm2.19,161-.85,1.82-.45-.21.86-1.82ZM173.46,211,173,212l-.45-.22.44-.92Zm-6.74,14.33-.45-.21,5.45-11.58.45.22Zm5.22,42.46-7.41,4.29-.25-.43,7.41-4.29ZM165.47,34a3.44,3.44,0,1,1,0,4.88A3.45,3.45,0,0,1,165.47,34Zm-1.3,17.39a3.26,3.26,0,1,1,.14,4.61A3.27,3.27,0,0,1,164.17,51.41ZM165,227.82l.45.21-1.81,3.86-.45-.21ZM156.54,38.59a3.44,3.44,0,1,1,.13,4.87A3.44,3.44,0,0,1,156.54,38.59Zm-.69,17.47a3.27,3.27,0,1,1,.3,4.6A3.28,3.28,0,0,1,155.85,56.06Zm5.89,178.72.45.21-7.88,16.76-.45-.22Zm-14-191.31a3.44,3.44,0,1,1,.3,4.86A3.44,3.44,0,0,1,147.77,43.47Zm5,21.66a3.27,3.27,0,1,1-.46-4.59A3.28,3.28,0,0,1,152.77,65.13ZM153,254.47l-1.82,3.86-.45-.22,1.82-3.85Zm8.54,5a1,1,0,0,1,1.21.14,1,1,0,0,1,.14,1.21l-9.07,14.62,43.44,11.42a1,1,0,0,1,0,1.9l-43.44,11.43,9.07,14.61a1,1,0,0,1-.14,1.21,1,1,0,0,1-1.21.14l-15.29-9.48-10.74,51.49a1,1,0,0,1-1.92,0l-10.74-51.49-15.29,9.48a1,1,0,0,1-1.21-.14,1,1,0,0,1-.14-1.21l9.07-14.61L71.87,288.72a1,1,0,0,1,0-1.9l43.44-11.42-9.07-14.62a1,1,0,0,1,.14-1.21,1,1,0,0,1,1.21-.14l15.29,9.49,10.74-51.5a1,1,0,0,1,1.92,0l10.74,51.5Zm44,70.25-.26.43L190.82,321l.27-.42ZM182.76,315.4l-.27.42-10-6.26.26-.42Zm-13.15,38-.44.23-2.49-4.7.44-.23Zm-2.06-46.88.26-.43,1.58,1-.26.42Zm-1-.65-3.12-1.95.26-.42,3.12,2ZM167,527.08a3.26,3.26,0,1,1-3.76,2.69A3.27,3.27,0,0,1,167,527.08ZM152.53,321.17l-.44.24-2.49-4.7.44-.24ZM130.11,505.75a3.27,3.27,0,1,1-2-4.16A3.28,3.28,0,0,1,130.11,505.75ZM119.47,316.38l-4.1,7.51-.44-.24,4.1-7.51Zm-24.8,45.44-.43-.24L112,329l.44.24Zm14,125.7a3.27,3.27,0,1,1-1.56-4.34A3.28,3.28,0,0,1,108.66,487.52Zm-11-220.06,4.72,2.46-.23.44-4.72-2.46Zm-.43-57.16.45-.2.39.86-.46.2Zm1.15,2.58.45-.21,4.82,10.79-.45.2Zm3.68-107a3.27,3.27,0,1,1-1.56-4.34A3.28,3.28,0,0,1,102.06,105.85ZM97.22,209.06l-.45.21-.76-1.7.45-.2Zm-1.54-96.42A3.27,3.27,0,1,1,94,108.35,3.28,3.28,0,0,1,95.68,112.64Zm-1.35,153.1-.23.43L73.6,255.52l.23-.44Zm-4.79-146.1a3.27,3.27,0,1,1-1.86-4.22A3.27,3.27,0,0,1,89.54,119.64Zm-5.89,7.21a3.27,3.27,0,1,1-2-4.15A3.27,3.27,0,0,1,83.65,126.85ZM78,134.27a3.27,3.27,0,1,1-2.15-4.08A3.27,3.27,0,0,1,78,134.27Zm-5.37,7.61a3.27,3.27,0,1,1-2.29-4A3.27,3.27,0,0,1,72.64,141.88ZM60.05,317.61l-.15-.47L88,308.43l.15.47Zm30.9,50,.43.24-4.1,7.51-.43-.24ZM47.67,242.05l.23-.44L62.06,249l-.23.44ZM55.59,319l-2.23.7-.15-.48,2.23-.69Zm-4.93,1.53-4.42,1.37-.14-.47,4.41-1.37Zm19.16-67L65.1,251.1l.23-.44,4.72,2.46ZM67.53,149.67a3.27,3.27,0,1,1-2.43-3.93A3.26,3.26,0,0,1,67.53,149.67Zm-4.83,8a3.27,3.27,0,1,1-2.56-3.84A3.26,3.26,0,0,1,62.7,157.63Zm-4.54,8.13a3.27,3.27,0,1,1-2.7-3.75A3.28,3.28,0,0,1,58.16,165.76ZM53.9,174a3.28,3.28,0,1,1-2.83-3.65A3.28,3.28,0,0,1,53.9,174Zm-4,8.43a3.27,3.27,0,1,1-3-3.55A3.27,3.27,0,0,1,49.93,182.47ZM46.25,191a3.27,3.27,0,1,1-3.08-3.44A3.26,3.26,0,0,1,46.25,191Zm-.6,49.42-.23.43-1.12-.58.22-.44Zm-2.77-40.73a3.28,3.28,0,1,1-3.2-3.34A3.26,3.26,0,0,1,42.88,199.71Zm-6.38,5.57a3.26,3.26,0,1,1-3.24,3.3A3.26,3.26,0,0,1,36.5,205.28Zm-2.87,9a3.26,3.26,0,1,1-3.12,3.41A3.28,3.28,0,0,1,33.63,214.29Zm-2.56,9.11a3.26,3.26,0,1,1-3,3.52A3.27,3.27,0,0,1,31.07,223.4Zm-2.23,9.19A3.26,3.26,0,1,1,26,236.21,3.27,3.27,0,0,1,28.84,232.59Zm-1.91,9.26a3.26,3.26,0,1,1-2.74,3.72A3.28,3.28,0,0,1,26.93,241.85Zm-1.59,9.33A3.26,3.26,0,1,1,22.73,255,3.27,3.27,0,0,1,25.34,251.18Zm-1.26,9.37a3.26,3.26,0,1,1-2.48,3.9A3.28,3.28,0,0,1,24.08,260.55ZM23.14,270a3.26,3.26,0,1,1-2.33,4A3.29,3.29,0,0,1,23.14,270Zm-.6,9.44a3.26,3.26,0,1,1-2.2,4.07A3.28,3.28,0,0,1,22.54,279.4Zm-.28,9.46A3.26,3.26,0,1,1,20.21,293,3.27,3.27,0,0,1,22.26,288.86Zm.06,9.46a3.26,3.26,0,1,1-1.91,4.2A3.27,3.27,0,0,1,22.32,298.32Zm.39,9.45A3.26,3.26,0,1,1,21,312,3.28,3.28,0,0,1,22.71,307.77Zm.71,9.43a3.26,3.26,0,1,1-1.61,4.33A3.28,3.28,0,0,1,23.42,317.2Zm1,9.4A3.26,3.26,0,1,1,23,331,3.28,3.28,0,0,1,24.46,326.6ZM25.84,336a3.26,3.26,0,1,1-1.3,4.43A3.27,3.27,0,0,1,25.84,336Zm1.69,9.3a3.26,3.26,0,1,1-1.14,4.47A3.28,3.28,0,0,1,27.53,345.26Zm2,9.24a3.27,3.27,0,1,1-1,4.51A3.28,3.28,0,0,1,29.55,354.5Zm2.35,9.17a3.26,3.26,0,1,1-.83,4.54A3.27,3.27,0,0,1,31.9,363.67Zm2.66,9.07a3.27,3.27,0,1,1-.67,4.57A3.28,3.28,0,0,1,34.56,372.74Zm3,9a3.27,3.27,0,1,1-.51,4.59A3.28,3.28,0,0,1,37.53,381.72Zm3.29,8.87a3.27,3.27,0,1,1-.35,4.6A3.27,3.27,0,0,1,40.82,390.59Zm3.59,8.75a3.27,3.27,0,1,1-.18,4.61A3.28,3.28,0,0,1,44.41,399.34Zm3.9,8.62a3.27,3.27,0,1,1,0,4.61A3.25,3.25,0,0,1,48.31,408Zm4.2,8.48a3.26,3.26,0,1,1,.13,4.61A3.27,3.27,0,0,1,52.51,416.44ZM57,424.76a3.27,3.27,0,1,1,.29,4.61A3.27,3.27,0,0,1,57,424.76Zm4.77,8.17a3.27,3.27,0,1,1,.46,4.59A3.28,3.28,0,0,1,61.77,432.93Zm5.06,8a3.27,3.27,0,1,1,.62,4.57A3.28,3.28,0,0,1,66.83,440.92Zm5.34,7.81a3.27,3.27,0,1,1,.78,4.54A3.24,3.24,0,0,1,72.17,448.73Zm5.6,7.62a3.27,3.27,0,1,1,.94,4.51A3.27,3.27,0,0,1,77.77,456.35Zm5.87,7.42a3.27,3.27,0,1,1,1.09,4.48A3.26,3.26,0,0,1,83.64,463.77ZM89.76,471A3.27,3.27,0,1,1,91,475.42,3.29,3.29,0,0,1,89.76,471Zm4.68-164.56,9.35-2.9.15.47-9.35,2.9Zm9.87-80.27.45-.2,1.61,3.6-.46.2ZM115.51,93a3.27,3.27,0,1,1-1.25-4.44A3.27,3.27,0,0,1,115.51,93Zm1.86,161.21-.46.2-1.6-3.6.45-.2Zm-2.74-6.13-.45.2-7-15.62.46-.2ZM144.94,70.17a3.27,3.27,0,1,1-.62-4.57A3.29,3.29,0,0,1,144.94,70.17Zm-5.77-21.52a3.44,3.44,0,1,1,.47,4.84A3.45,3.45,0,0,1,139.17,48.65Zm-1.89,26.83a3.27,3.27,0,1,1-.78-4.55A3.28,3.28,0,0,1,137.28,75.48Zm-6.52-21.36a3.45,3.45,0,1,1,.65,4.83A3.44,3.44,0,0,1,130.76,54.12Zm-.94,26.93a3.27,3.27,0,1,1-.93-4.51A3.24,3.24,0,0,1,129.82,81.05Zm-7.27-21.16a3.45,3.45,0,1,1,.81,4.8A3.46,3.46,0,0,1,122.55,59.89Zm0,27A3.29,3.29,0,0,1,118.07,88,3.25,3.25,0,0,1,117,83.5a3.27,3.27,0,1,1,5.59,3.39Zm-8-21a3.44,3.44,0,1,1,1,4.77A3.44,3.44,0,0,1,114.55,65.94Zm-7.79,6.32A3.44,3.44,0,1,1,107.9,77,3.44,3.44,0,0,1,106.76,72.26Zm.5,22.64a3.26,3.26,0,1,1-4.41,1.4A3.25,3.25,0,0,1,107.26,94.9ZM99.2,78.85a3.44,3.44,0,1,1,1.3,4.7A3.44,3.44,0,0,1,99.2,78.85Zm-7.34,6.86a3.45,3.45,0,1,1,1.47,4.64A3.45,3.45,0,0,1,91.86,85.71Zm-7.08,7.1a3.44,3.44,0,1,1,1.63,4.59A3.44,3.44,0,0,1,84.78,92.81ZM78,100.16a3.44,3.44,0,1,1,1.79,4.53A3.43,3.43,0,0,1,78,100.16Zm-6.58,7.58a3.45,3.45,0,1,1,1.95,4.46A3.45,3.45,0,0,1,71.37,107.74Zm-6.3,7.8a3.45,3.45,0,1,1,2.1,4.4A3.44,3.44,0,0,1,65.07,115.54Zm-6,8a3.44,3.44,0,1,1,2.25,4.32A3.45,3.45,0,0,1,59,123.56Zm-5.74,8.23A3.45,3.45,0,1,1,55.7,136,3.43,3.43,0,0,1,53.3,131.79Zm-5.46,8.42a3.44,3.44,0,1,1,2.55,4.15A3.45,3.45,0,0,1,47.84,140.21Zm-5.15,8.61a3.44,3.44,0,1,1,2.69,4.06A3.43,3.43,0,0,1,42.69,148.82Zm-.89,6a3.44,3.44,0,1,1-4,2.83A3.45,3.45,0,0,1,41.8,154.77Zm-4.65,8.81a3.44,3.44,0,1,1-3.86,3A3.43,3.43,0,0,1,37.15,163.58Zm-4.33,9a3.45,3.45,0,1,1-3.76,3.11A3.45,3.45,0,0,1,32.82,172.54Zm-4,9.12a3.44,3.44,0,1,1-3.65,3.23A3.44,3.44,0,0,1,28.8,181.66Zm-3.7,9.24a3.45,3.45,0,1,1-3.53,3.36A3.46,3.46,0,0,1,25.1,190.9Zm-3.37,9.37a3.45,3.45,0,1,1-3.42,3.48A3.44,3.44,0,0,1,21.73,200.27Zm-3.05,9.48a3.45,3.45,0,1,1-3.29,3.6A3.46,3.46,0,0,1,18.68,209.75ZM16,219.34a3.44,3.44,0,1,1-3.16,3.7A3.45,3.45,0,0,1,16,219.34ZM13.59,229a3.44,3.44,0,1,1-3,3.81A3.45,3.45,0,0,1,13.59,229Zm-2,9.75a3.44,3.44,0,1,1-2.9,3.91A3.44,3.44,0,0,1,11.56,238.76Zm-1.7,9.81a3.44,3.44,0,1,1-2.75,4A3.44,3.44,0,0,1,9.86,248.57Zm-1.35,9.87a3.44,3.44,0,1,1-2.61,4.11A3.43,3.43,0,0,1,8.51,258.44Zm-1,9.9A3.45,3.45,0,1,1,5,272.54,3.45,3.45,0,0,1,7.5,268.34Zm-.66,9.94a3.44,3.44,0,1,1-2.32,4.28A3.46,3.46,0,0,1,6.84,278.28Zm-.31,10a3.45,3.45,0,1,1-2.17,4.37A3.45,3.45,0,0,1,6.53,288.23Zm0,10a3.44,3.44,0,1,1-2,4.44A3.46,3.46,0,0,1,6.56,298.19Zm.39,10a3.44,3.44,0,1,1-1.86,4.5A3.44,3.44,0,0,1,7,308.15ZM6,322.64a3.45,3.45,0,1,1,4.57,1.7A3.44,3.44,0,0,1,6,322.64Zm1.24,10a3.44,3.44,0,1,1,4.62,1.54A3.45,3.45,0,0,1,7.21,332.6Zm1.58,9.91a3.45,3.45,0,1,1,4.67,1.38A3.45,3.45,0,0,1,8.79,342.51Zm1.93,9.84a3.44,3.44,0,1,1,4.71,1.22A3.44,3.44,0,0,1,10.72,352.35ZM13,362.13a3.45,3.45,0,1,1,4.76,1.05A3.44,3.44,0,0,1,13,362.13Zm2.61,9.69a3.44,3.44,0,1,1,4.79.88A3.44,3.44,0,0,1,15.6,371.82Zm2.94,9.59a3.45,3.45,0,1,1,4.82.71A3.45,3.45,0,0,1,18.54,381.41Zm3.28,9.48a3.44,3.44,0,1,1,4.84.55A3.45,3.45,0,0,1,21.82,390.89Zm3.61,9.36a3.44,3.44,0,1,1,4.86.38A3.43,3.43,0,0,1,25.43,400.25Zm3.93,9.23a3.45,3.45,0,1,1,4.87.21A3.44,3.44,0,0,1,29.36,409.48Zm4.25,9.09a3.44,3.44,0,1,1,4.88,0A3.45,3.45,0,0,1,33.61,418.57Zm4.57,8.94a3.45,3.45,0,1,1,4.87-.14A3.44,3.44,0,0,1,38.18,427.51Zm4.88,8.77a3.45,3.45,0,1,1,4.86-.31A3.45,3.45,0,0,1,43.06,436.28Zm5.18,8.59a3.44,3.44,0,1,1,4.84-.47A3.45,3.45,0,0,1,48.24,444.87Zm5.47,8.41a3.45,3.45,0,1,1,4.83-.64A3.44,3.44,0,0,1,53.71,453.28Zm5.77,8.21a3.44,3.44,0,1,1,4.8-.81A3.45,3.45,0,0,1,59.48,461.49Zm6.05,8a3.44,3.44,0,1,1,4.77-1A3.44,3.44,0,0,1,65.53,469.49Zm6.32,7.79a3.44,3.44,0,1,1,4.74-1.14A3.44,3.44,0,0,1,71.85,477.28Zm6.59,7.57a3.45,3.45,0,1,1,4.7-1.31A3.45,3.45,0,0,1,78.44,484.85Zm11.5,5.86a3.45,3.45,0,1,1-1.47-4.65A3.46,3.46,0,0,1,89.94,490.71Zm7,6.92A3.44,3.44,0,1,1,95.36,493,3.44,3.44,0,0,1,97,497.63ZM96.13,478a3.27,3.27,0,1,1,1.41,4.39A3.27,3.27,0,0,1,96.13,478Zm8.15,26.34a3.45,3.45,0,1,1-1.79-4.54A3.46,3.46,0,0,1,104.28,504.31Zm7.51,6.41a3.44,3.44,0,1,1-1.94-4.46A3.44,3.44,0,0,1,111.79,510.72Zm-.49-15.17a3.26,3.26,0,1,1,4.29-1.71A3.27,3.27,0,0,1,111.3,495.55Zm8.23,21.32a3.45,3.45,0,1,1-2.1-4.39A3.44,3.44,0,0,1,119.53,516.87Zm-1-15.09a3.26,3.26,0,1,1,4.24-1.86A3.27,3.27,0,0,1,118.51,501.78Zm9,21a3.44,3.44,0,1,1-2.25-4.32A3.45,3.45,0,0,1,127.47,522.75Zm8.15,5.59a3.44,3.44,0,1,1-2.41-4.24A3.44,3.44,0,0,1,135.62,528.34Zm-2.05-14.89a3.26,3.26,0,1,1,4.1-2.14A3.25,3.25,0,0,1,133.57,513.45ZM144,533.65a3.44,3.44,0,1,1-2.55-4.15A3.44,3.44,0,0,1,144,533.65Zm1.47-17a3.27,3.27,0,1,1-2.29-4A3.27,3.27,0,0,1,145.42,516.6Zm7.05,22.06a3.44,3.44,0,1,1-2.69-4.06A3.46,3.46,0,0,1,152.47,538.66Zm.88-17a3.27,3.27,0,1,1-2.43-3.93A3.27,3.27,0,0,1,153.35,521.63Zm.94-197.14,10.83,20.4-.44.23-10.83-20.4Zm2.9,221.72a3.45,3.45,0,1,1,4-2.83A3.43,3.43,0,0,1,157.19,546.21Zm.41-17.28a3.26,3.26,0,1,1,3.85-2.56A3.25,3.25,0,0,1,157.6,528.93Zm8.54,21.82a3.44,3.44,0,1,1,3.86-3A3.43,3.43,0,0,1,166.14,550.75Zm4-242.69.26-.42.8.5-.26.42Zm1.25,48.55,7.48,14.1-.44.23-7.48-14.1Zm3.95,174.73a3.26,3.26,0,1,1-3.66,2.82A3.27,3.27,0,0,1,175.29,531.34ZM175.23,555a3.45,3.45,0,1,1,3.76-3.1A3.45,3.45,0,0,1,175.23,555ZM180,373l.59,1.12-.44.23-.59-1.12Zm.14,165.31a3.27,3.27,0,1,1,3,3.55A3.27,3.27,0,0,1,180.15,538.26Zm4.33,20.63a3.45,3.45,0,1,1,3.64-3.23A3.45,3.45,0,0,1,184.48,558.89Zm3.67-239.53-3.34-2.09.26-.42,3.34,2.09Zm.66,222.69a3.28,3.28,0,1,1,3.08,3.45A3.27,3.27,0,0,1,188.81,542.05Zm5,20.42a3.44,3.44,0,1,1,3.53-3.35A3.44,3.44,0,0,1,193.85,562.47Zm3.76-16.92a3.27,3.27,0,1,1,3.19,3.33A3.27,3.27,0,0,1,197.61,545.55Zm5.73,20.18a3.45,3.45,0,1,1,3.41-3.48A3.45,3.45,0,0,1,203.34,565.73Zm3.17-17a3.28,3.28,0,1,1,3.31,3.22A3.27,3.27,0,0,1,206.51,548.73Zm6.43,19.92a3.44,3.44,0,1,1,3.29-3.6A3.46,3.46,0,0,1,212.94,568.65Zm2.59-17a3.27,3.27,0,1,1,3.42,3.1A3.26,3.26,0,0,1,215.53,551.6Zm7.1,19.63a3.44,3.44,0,1,1,3.16-3.7A3.44,3.44,0,0,1,222.63,571.23Zm2-17.08a3.28,3.28,0,1,1,3.53,3A3.28,3.28,0,0,1,224.63,554.15Zm7.78,19.33a3.45,3.45,0,1,1,3-3.82A3.44,3.44,0,0,1,232.41,573.48Zm1.41-17.09a3.27,3.27,0,1,1,3.63,2.86A3.27,3.27,0,0,1,233.82,556.39Zm8.44,19a3.44,3.44,0,1,1,2.9-3.92A3.44,3.44,0,0,1,242.26,575.38Zm.83-17.08a3.27,3.27,0,1,1,3.73,2.73A3.26,3.26,0,0,1,243.09,558.3Zm9.09,18.64a3.45,3.45,0,1,1,2.75-4A3.46,3.46,0,0,1,252.18,576.94Zm.23-17.05a3.27,3.27,0,1,1,3.82,2.6A3.26,3.26,0,0,1,252.41,559.89Zm9.73,18.26a3.45,3.45,0,1,1,2.61-4.12A3.44,3.44,0,0,1,262.14,578.15Zm3.56-14.54a3.26,3.26,0,1,1,2.47-3.9A3.26,3.26,0,0,1,265.7,563.61Zm6.43,15.4a3.45,3.45,0,1,1,2.47-4.2A3.45,3.45,0,0,1,272.13,579Zm3.06-14.6a3.26,3.26,0,1,1,2.34-4A3.27,3.27,0,0,1,275.19,564.41Zm7,15.11a3.44,3.44,0,1,1,2.32-4.28A3.45,3.45,0,0,1,282.15,579.52Zm2.56-14.65a3.26,3.26,0,1,1,2.2-4.06A3.27,3.27,0,0,1,284.71,564.87Zm7.48,14.81a3.45,3.45,0,1,1,2.17-4.36A3.44,3.44,0,0,1,292.19,579.68ZM294.24,565a3.26,3.26,0,1,1,2.05-4.13A3.27,3.27,0,0,1,294.24,565Zm8,14.49a3.44,3.44,0,1,1,2-4.43A3.45,3.45,0,0,1,302.22,579.49Zm1.55-14.69a3.26,3.26,0,1,1,1.9-4.2A3.27,3.27,0,0,1,303.77,564.8ZM312.24,579a3.45,3.45,0,1,1,1.86-4.51A3.46,3.46,0,0,1,312.24,579Zm1-14.69A3.26,3.26,0,1,1,315,560,3.28,3.28,0,0,1,313.28,564.27Zm9,13.8a3.45,3.45,0,1,1,1.7-4.57A3.44,3.44,0,0,1,322.23,578.07Zm.54-14.67a3.26,3.26,0,1,1,1.61-4.32A3.27,3.27,0,0,1,322.77,563.4Zm9.42,13.43a3.44,3.44,0,1,1,1.54-4.62A3.45,3.45,0,0,1,332.19,576.83Zm6.3-21.87a3.27,3.27,0,1,1-1.3,4.43A3.27,3.27,0,0,1,338.49,555Zm3.61,20.29a3.45,3.45,0,1,1,1.38-4.67A3.45,3.45,0,0,1,342.1,575.25Zm5.54-22a3.26,3.26,0,1,1-1.14,4.47A3.28,3.28,0,0,1,347.64,553.22Zm4.3,20.1a3.44,3.44,0,1,1,1.22-4.71A3.43,3.43,0,0,1,351.94,573.32Zm4.79-22.16a3.26,3.26,0,1,1-1,4.51A3.29,3.29,0,0,1,356.73,551.16Zm5,19.89a3.44,3.44,0,1,1,1-4.75A3.44,3.44,0,0,1,361.72,571.05Zm4-22.26a3.27,3.27,0,1,1-.82,4.54A3.28,3.28,0,0,1,365.73,548.79Zm5.68,19.65a3.44,3.44,0,1,1,.88-4.79A3.45,3.45,0,0,1,371.41,568.44ZM381,565.5a3.45,3.45,0,1,1,.71-4.82A3.45,3.45,0,0,1,381,565.5Zm4.64-3.83a3.44,3.44,0,1,1,4.84.55A3.44,3.44,0,0,1,385.64,561.67Z"/><path d="M135.24,264.52l3.48,16.73,4.86-3,14.74-14.86-12.17,7.56a.8.8,0,0,1-.75.05.79.79,0,0,1-.48-.58L135.24,224Z"/><path d="M123.77,271a.82.82,0,0,1-.76-.05l-12.09-7.51L126,278.48l4.46,2.77,3.49-16.73V224l-9.68,46.43A.83.83,0,0,1,123.77,271Z"/><path d="M127.89,292.18l-14.49-3.81-36.77-.09,40.17,10.56a.82.82,0,0,1,.48,1.23l-7.75,12.5,15.26-15.39Z"/><path d="M127.89,283.36,124.55,278l-15.06-15.06,7.79,12.56a.82.82,0,0,1,.07.73.84.84,0,0,1-.55.49L77.73,287l36.07.09Z"/><path d="M474.82,182.42s-45.51-22.55-78-25.81c-19.47-2-41.43,4.24-62.55,11.27-17.85,6-7.23,19.2,4.67,16.75,1.72-.35,23.21-8.42,43.2-10.25C417.1,171.19,474.22,185,474.82,182.42Z"/><path d="M478,175.17a2.46,2.46,0,1,0,2.46,2.46A2.46,2.46,0,0,0,478,175.17Z"/><path d="M484.41,177.63a2.36,2.36,0,1,0,2.36,2.36A2.36,2.36,0,0,0,484.41,177.63Z"/><path d="M492.34,179.72A2.26,2.26,0,1,0,494.6,182,2.26,2.26,0,0,0,492.34,179.72Z"/><path d="M500.27,181.36a2.17,2.17,0,1,0,2.16,2.17A2.17,2.17,0,0,0,500.27,181.36Z"/><path d="M506.58,183.82a2.07,2.07,0,1,0,3.22,2.59,2.07,2.07,0,0,0-3.22-2.59Z"/><path d="M516.12,184.63a2,2,0,1,0,2,2A2,2,0,0,0,516.12,184.63Z"/><path d="M524.05,185.69a1.87,1.87,0,1,0,1.87,1.87A1.87,1.87,0,0,0,524.05,185.69Z"/><path d="M532,186.79a1.77,1.77,0,1,0,1.77,1.77A1.77,1.77,0,0,0,532,186.79Z"/><path d="M328.54,154.63a5.32,5.32,0,1,0,5.31,5.32A5.32,5.32,0,0,0,328.54,154.63Z"/><path d="M341.64,150.17a5.12,5.12,0,1,0,5.12,5.12A5.12,5.12,0,0,0,341.64,150.17Z"/><path d="M354.05,146.9a4.92,4.92,0,1,0,4.92,4.92A4.92,4.92,0,0,0,354.05,146.9Z"/><path d="M378.73,142.77a4.53,4.53,0,1,0,4.53,4.52A4.52,4.52,0,0,0,378.73,142.77Z"/><path d="M366.35,144.14a4.73,4.73,0,1,0,4.72,4.72A4.72,4.72,0,0,0,366.35,144.14Z"/><path d="M391.05,143a4.33,4.33,0,1,0,4.33,4.33A4.33,4.33,0,0,0,391.05,143Z"/><path d="M402.81,144.73a4.14,4.14,0,1,0,4.13,4.13A4.13,4.13,0,0,0,402.81,144.73Z"/><circle cx="413.75" cy="151.23" r="3.94"/><path d="M423.48,150a3.74,3.74,0,1,0,3.74,3.74A3.74,3.74,0,0,0,423.48,150Z"/><path d="M441.84,157.49a3.35,3.35,0,1,0,3.34,3.34A3.34,3.34,0,0,0,441.84,157.49Z"/><path d="M432.59,153.94a3.55,3.55,0,1,0,3.54,3.55A3.55,3.55,0,0,0,432.59,153.94Z"/><path d="M457.7,164.37a3,3,0,1,0,3,2.95A2.95,2.95,0,0,0,457.7,164.37Z"/><path d="M450.16,161a3.15,3.15,0,1,0,3.15,3.15A3.15,3.15,0,0,0,450.16,161Z"/><path d="M471.13,171.71a2.56,2.56,0,1,0,2.56,2.56A2.56,2.56,0,0,0,471.13,171.71Z"/><path d="M464.65,167.93a2.76,2.76,0,1,0,2.75,2.75A2.76,2.76,0,0,0,464.65,167.93Z"/><path d="M538.43,187.85a1.58,1.58,0,0,0,0,3.15,1.58,1.58,0,1,0,0-3.15Z"/><path d="M544.17,188.76a1.38,1.38,0,1,0,1.38,1.38A1.38,1.38,0,0,0,544.17,188.76Z"/><path d="M494.07,218.07a2.46,2.46,0,1,0,3.42.67A2.46,2.46,0,0,0,494.07,218.07Z"/><path d="M500.73,216.55a2.36,2.36,0,1,0,3.27.64A2.36,2.36,0,0,0,500.73,216.55Z"/><path d="M508.47,213.85a2.26,2.26,0,1,0,3.14.61A2.26,2.26,0,0,0,508.47,213.85Z"/><path d="M516,210.78a2.16,2.16,0,1,0,3,.58A2.17,2.17,0,0,0,516,210.78Z"/><path d="M524.8,207.4a2.07,2.07,0,1,0,1.89,2.23A2.08,2.08,0,0,0,524.8,207.4Z"/><path d="M530.93,204.62a2,2,0,1,0,2.73.53A2,2,0,0,0,530.93,204.62Z"/><path d="M538.09,201.07a1.87,1.87,0,1,0,2.6.5A1.87,1.87,0,0,0,538.09,201.07Z"/><path d="M545.28,197.55a1.77,1.77,0,1,0,2,2.93,1.77,1.77,0,1,0-2-2.93Z"/><path d="M550.31,194.17a1.57,1.57,0,1,0,2.18.42A1.57,1.57,0,0,0,550.31,194.17Z"/><path d="M557.41,191.38a1.38,1.38,0,1,0-.37,1.91A1.37,1.37,0,0,0,557.41,191.38Z"/><path d="M486.41,219.07a2.56,2.56,0,1,0,3.55.69A2.57,2.57,0,0,0,486.41,219.07Z"/><path d="M478.92,219.57a2.75,2.75,0,1,0,3.82.74A2.75,2.75,0,0,0,478.92,219.57Z"/><path d="M334.82,258.26a3.08,3.08,0,1,0,3.08,3.07A3.08,3.08,0,0,0,334.82,258.26Z"/><path d="M475.29,221.2c-1.75-1.27-43.36-31.19-85.34-24.83-49.1,7.43-53.08,57.75-53.11,58.25a4.25,4.25,0,0,0,1.52,3.57,4.33,4.33,0,0,0,2.74,1,4.19,4.19,0,0,0,1-.13c.21-.06,21.83-5.4,57.35-2.61,35.92,2.8,74.31-27.17,75.92-28.44a4.27,4.27,0,0,0-.13-6.8Zm-67.92-8.32a3.61,3.61,0,1,1,4.93-1.33A3.62,3.62,0,0,1,407.37,212.88ZM411,245a3.61,3.61,0,1,1,1.32-4.93A3.6,3.6,0,0,1,411,245Zm-3.46-19.19a7.62,7.62,0,1,1-7.62-7.62A7.62,7.62,0,0,1,407.52,225.82ZM393.75,208a3.61,3.61,0,1,1-4.93-1.32A3.62,3.62,0,0,1,393.75,208ZM387,218.35a3.61,3.61,0,1,1-1.32-4.93A3.62,3.62,0,0,1,387,218.35Zm.54,21.73a3.61,3.61,0,1,1,1.32,4.93A3.62,3.62,0,0,1,387.5,240.08Zm12.4-29.21a3.61,3.61,0,0,1-3.61-3.61,3.57,3.57,0,0,1,1.88-3.1c1.1,0,2.19-.11,3.29-.12a3.59,3.59,0,0,1-1.56,6.83Zm-18.55,11.34a3.61,3.61,0,1,1-3.61,3.61A3.61,3.61,0,0,1,381.35,222.21ZM382,232a3.61,3.61,0,1,1-1.32,4.93A3.62,3.62,0,0,1,382,232Zm14.26,12.4a3.61,3.61,0,1,1,3.87,3.56l-.78-.06A3.56,3.56,0,0,1,396.29,244.37Zm17.87-6.15a3.61,3.61,0,1,1,4.93-1.32A3.62,3.62,0,0,1,414.16,238.22Zm4.29-8.79a3.61,3.61,0,1,1,3.61-3.61A3.61,3.61,0,0,1,418.45,229.43Zm-.68-9.76a3.61,3.61,0,1,1,1.32-4.93A3.62,3.62,0,0,1,417.77,219.67Zm-71.59,29.88c2.07-10.35,9.11-31.94,32-41.18a27.84,27.84,0,0,0,3.74,38.73A205.66,205.66,0,0,0,346.18,249.55Zm72.43-3.09a27.82,27.82,0,0,0,.8-40.55c20.09,4.07,37.64,13.78,45.87,18.91C456.81,230.69,438.32,242.21,418.61,246.46Z"/><path d="M303.94,322.8a1.43,1.43,0,1,0,1.3,1.54A1.43,1.43,0,0,0,303.94,322.8Z"/><path d="M303.94,326.66a1.38,1.38,0,0,0-1.49,1.26,1.37,1.37,0,0,0,2.74.23A1.39,1.39,0,0,0,303.94,326.66Z"/><path d="M303.93,331.42a1.31,1.31,0,1,0,1.2,1.42A1.31,1.31,0,0,0,303.93,331.42Z"/><path d="M303.93,336.15a1.26,1.26,0,1,0,1.14,1.37A1.27,1.27,0,0,0,303.93,336.15Z"/><path d="M303.15,341.09a1.2,1.2,0,1,0,1.67.32A1.19,1.19,0,0,0,303.15,341.09Z"/><path d="M303.92,345.61a1.15,1.15,0,1,0,1,1.24A1.15,1.15,0,0,0,303.92,345.61Z"/><path d="M303.91,350.32a1.09,1.09,0,1,0,1,1.18A1.09,1.09,0,0,0,303.91,350.32Z"/><path d="M303.91,355a1,1,0,1,0,.94,1.12A1,1,0,0,0,303.91,355Z"/><path d="M303.55,239.7a3.09,3.09,0,1,0-2.81-3.35A3.11,3.11,0,0,0,303.55,239.7Z"/><path d="M304.07,241a3,3,0,1,0,2.72,3.22A3,3,0,0,0,304.07,241Z"/><path d="M304.06,248.16a2.86,2.86,0,1,0,2.61,3.1A2.87,2.87,0,0,0,304.06,248.16Z"/><path d="M304,262.47a2.63,2.63,0,1,0,2.4,2.85A2.64,2.64,0,0,0,304,262.47Z"/><path d="M304.05,255.26a2.75,2.75,0,1,0,2.51,3A2.75,2.75,0,0,0,304.05,255.26Z"/><path d="M304,269.73a2.52,2.52,0,1,0,2.3,2.73A2.52,2.52,0,0,0,304,269.73Z"/><path d="M304,276.75a2.4,2.4,0,1,0,2.19,2.6A2.39,2.39,0,0,0,304,276.75Z"/><path d="M304,283.33a2.29,2.29,0,1,0,2.09,2.48A2.27,2.27,0,0,0,304,283.33Z"/><path d="M304,289.21a2.18,2.18,0,1,0,2,2.36A2.18,2.18,0,0,0,304,289.21Z"/><path d="M304,300.44a1.95,1.95,0,1,0,1.78,2.11A1.94,1.94,0,0,0,304,300.44Z"/><path d="M304,294.8a2.06,2.06,0,1,0,1.87,2.23A2.06,2.06,0,0,0,304,294.8Z"/><path d="M304,310.2a1.72,1.72,0,1,0,1.56,1.86A1.72,1.72,0,0,0,304,310.2Z"/><path d="M304,305.55a1.83,1.83,0,1,0,1.66,2A1.84,1.84,0,0,0,304,305.55Z"/><path d="M304,318.56a1.49,1.49,0,1,0,1.35,1.61A1.48,1.48,0,0,0,304,318.56Z"/><path d="M304,314.51a1.6,1.6,0,1,0,1.46,1.73A1.6,1.6,0,0,0,304,314.51Z"/><path d="M360.49,445.57c-12.12-6.51-26.54-14.68-38.19-10.11-6,2.33-12.87,7.64-16.21,7.82-3.35-.18-10.21-5.49-16.22-7.82-11.65-4.57-26.07,3.6-38.18,10.11-7.05,3.78-16.08,5.51-16.08,7.73,0,3,10.51,7.06,23.1,14.2s27.11,17.33,47.38,17.4,34.84-10.29,47.38-17.4,23.1-11.16,23.1-14.2C376.57,451.08,367.54,449.35,360.49,445.57Z"/><path d="M339.36,383.59c-3.66-.85-10.75.65-12.58,1a2,2,0,0,1-.33.07c-3.12.62-5.54,2.26-7.87,3.85-3.22,2.19-6.55,4.46-12.07,4.46s-8.93-2.2-12.3-4.33a25,25,0,0,0-8.51-3.93.74.74,0,0,0-.31-.12c-1.82-.38-8.91-1.88-12.58-1-5.67,1.32-7.28,6.26-3.53,6.23,1.14,0,2.63-1.16,5.13-2.15a23,23,0,0,1,9.48-1.7c.45.06.89.12,1.34.21,3.18.61,5.61,2.14,8.17,3.77,3.55,2.24,7.22,4.56,13.11,4.56s9.67-2.51,12.92-4.72c2.31-1.57,4.49-3.05,7.31-3.61.38-.08.75-.13,1.13-.19a22.73,22.73,0,0,1,9.89,1.68c2.51,1,4,2.14,5.13,2.15C346.64,389.85,345,384.91,339.36,383.59Z"/><path d="M335.13,415.15a4.81,4.81,0,1,0,4.81,4.8A4.8,4.8,0,0,0,335.13,415.15Z"/><path d="M478.6,354.56a36.1,36.1,0,1,0,36.1,36.1A36.11,36.11,0,0,0,478.6,354.56Zm18.52,20a4.68,4.68,0,1,1-1.71,6.4A4.69,4.69,0,0,1,497.12,374.55Zm-10.53-7.11a4.68,4.68,0,1,1,1.71,6.4A4.69,4.69,0,0,1,486.59,367.44Zm.23,28a2.55,2.55,0,1,1,.93,3.49A2.55,2.55,0,0,1,486.82,395.4Zm.93-13a2.55,2.55,0,1,1-.93,3.49A2.55,2.55,0,0,1,487.75,382.42Zm2.89,10.79a2.56,2.56,0,1,1,2.56-2.55A2.55,2.55,0,0,1,490.64,393.21ZM485.9,378a2.55,2.55,0,1,1-3.49.93A2.55,2.55,0,0,1,485.9,378Zm-7.3-16.14a4.69,4.69,0,1,1-4.69,4.69A4.69,4.69,0,0,1,478.6,361.87Zm0,38.28A2.56,2.56,0,1,1,476,402.7,2.55,2.55,0,0,1,478.6,400.15Zm-1.28-11.71a2.56,2.56,0,1,1-.94,3.49A2.56,2.56,0,0,1,477.32,388.44Zm1.28-7.28a2.56,2.56,0,1,1,2.55-2.55A2.55,2.55,0,0,1,478.6,381.16Zm-3.82-2.22a2.55,2.55,0,1,1-3.49-.93A2.55,2.55,0,0,1,474.78,378.94Zm-7.9,15.53A2.55,2.55,0,1,1,466,398,2.55,2.55,0,0,1,466.88,394.47ZM464,390.66a2.56,2.56,0,1,1,2.56,2.55A2.56,2.56,0,0,1,464,390.66Zm6.38-4.75a2.55,2.55,0,1,1-.93-3.49A2.55,2.55,0,0,1,470.37,385.91Zm-6.17-20.18a4.68,4.68,0,1,1-1.71,6.4A4.69,4.69,0,0,1,464.2,365.73Zm-10.53,10.53a4.68,4.68,0,1,1,1.71,6.4A4.69,4.69,0,0,1,453.67,376.26Zm-3.86,14.4a4.69,4.69,0,1,1,4.69,4.68A4.69,4.69,0,0,1,449.81,390.66Zm10.26,16.1a4.68,4.68,0,1,1,1.71-6.4A4.68,4.68,0,0,1,460.07,406.76Zm10.53,7.11a4.68,4.68,0,1,1-1.71-6.4A4.68,4.68,0,0,1,470.6,413.87Zm.69-10.57a2.55,2.55,0,1,1,3.49-.93A2.55,2.55,0,0,1,471.29,403.3Zm7.31,16.14a4.69,4.69,0,1,1,4.68-4.69A4.69,4.69,0,0,1,478.6,419.44Zm3.81-17.07a2.55,2.55,0,1,1,3.49.93A2.55,2.55,0,0,1,482.41,402.37ZM493,415.58a4.68,4.68,0,1,1,1.71-6.4A4.68,4.68,0,0,1,493,415.58Zm10.53-10.53a4.68,4.68,0,1,1-1.71-6.4A4.68,4.68,0,0,1,503.52,405.05Zm-.83-9.71a4.69,4.69,0,1,1,4.69-4.68A4.68,4.68,0,0,1,502.69,395.34Z"/></g></g></svg>