<svg xmlns="http://www.w3.org/2000/svg" viewBox="0 0 330.26 216.11"><defs><style>.cls-1{fill:#fff;stroke:#000;stroke-miterlimit:10;}</style></defs><title>sekey</title><g id="图层_2" data-name="图层 2"><g id="央铋_4" data-name="央铋 4"><path class="cls-1" d="M124.94,97.51c-2.06-.86-3.75-2-5.86-1.82-.3,0-1-1-.94-1.45a1.79,1.79,0,0,1,1.33-1.16,35.53,35.53,0,0,1,4.92.6c.88.15,1.7.7,1.61,1.64A6.94,6.94,0,0,1,124.94,97.51Z"/><path class="cls-1" d="M233.14,193.21a21.29,21.29,0,0,1,0,3.46,2.32,2.32,0,0,1-3.86,1.37,2.11,2.11,0,0,1,0-3.44,4,4,0,0,1,.91-.42C231,193.91,231.74,193.66,233.14,193.21Z"/><path class="cls-1" d="M53.12,72.3a36.89,36.89,0,0,1-.76,4.24A2,2,0,0,1,50,77.83a2,2,0,0,1-1.88-2,2.83,2.83,0,0,1,1-2A21.2,21.2,0,0,1,53.12,72.3Z"/><path class="cls-1" d="M49.53,121.25c-.56-.27-1.43-.42-1.63-.86a9,9,0,0,1-.72-3.24c0-.32.93-1,1.41-1a2.75,2.75,0,0,1,2.19,4C50.59,120.62,50.05,120.84,49.53,121.25Z"/><path class="cls-1" d="M165,116.74a2.23,2.23,0,0,1,2,2.46,2.34,2.34,0,0,1-4.65-.53A2.41,2.41,0,0,1,165,116.74Z"/><path class="cls-1" d="M23.45,51.26a1.76,1.76,0,0,1,1.87,1.36c.43,1.42.18,2.71-.74,3.12a1.68,1.68,0,0,1-1.39-.09c-1.18-.83-1.83-2.49-1.36-3.46.18-.38.73-.6,1.13-.86A1.29,1.29,0,0,1,23.45,51.26Z"/><path class="cls-1" d="M286.59,200.19a2.15,2.15,0,0,1,2.19,2.19,2.09,2.09,0,0,1-1.66,2.16,2.15,2.15,0,0,1-2.45-1.9A2.22,2.22,0,0,1,286.59,200.19Z"/><path class="cls-1" d="M108.59,81.47c-1.62,2.42-2.67,2.94-3.59,1.89a2.94,2.94,0,0,1-.71-2.23c.23-1,1.23-1,2.09-.63C107,80.74,107.59,81,108.59,81.47Z"/><path class="cls-1" d="M108.64,111.26a1.91,1.91,0,0,1-3.81-.25,2,2,0,0,1,2-1.78A2,2,0,0,1,108.64,111.26Z"/><path class="cls-1" d="M115.71,115.77c-1.41.84-2.33,1.68-2.61,1.5a9.18,9.18,0,0,1-3.42-3.81c.61-.2,1-.46,1.2-.36C112.2,113.77,113.48,114.52,115.71,115.77Z"/><path class="cls-1" d="M76.76,102.54c-.11.92-.9,1.14-1.79,1.09a1.83,1.83,0,0,1-1.71-2.06,1.79,1.79,0,0,1,1.61-1.68C76,99.77,76.86,101,76.76,102.54Z"/><path class="cls-1" d="M80.76,81.18c-2.23-1.35-2-3.18-2.67-4.46,1.2-1,2.26-1.24,2.62.16A18.69,18.69,0,0,1,80.76,81.18Z"/><path class="cls-1" d="M125.74,80a10.62,10.62,0,0,1,1.67,2.59c.24,1-.77,1.94-1.72,2-1.16.08-2.41-1.14-2-2.21C124,81.56,124.83,81,125.74,80Z"/><path class="cls-1" d="M8.86,45.06c-.32.32-.76,1.06-1.4,1.34-.88.39-2-.59-2-1.61A1.68,1.68,0,0,1,6.8,43C7.81,42.74,8.77,43.54,8.86,45.06Z"/><path class="cls-1" d="M151.67,97.92c-.8.61-1.25,1.2-1.79,1.31a1.75,1.75,0,0,1-1.92-1.8c.06-1,.86-1.77,1.58-1.56S150.84,97.07,151.67,97.92Z"/><path class="cls-1" d="M82.67,124.2a2.86,2.86,0,0,1-1.62,2.94c-.24.1-.82,0-.86-.2a4.15,4.15,0,0,1-.27-1.85c.16-.83.66-1.6,1.66-1.52C82,123.61,82.37,124,82.67,124.2Z"/><path class="cls-1" d="M147.13,110.58a6.2,6.2,0,0,1-1.36-1.48c-.32-.64.62-1.72,1.44-1.74a1.55,1.55,0,0,1,1.73,1.44A1.66,1.66,0,0,1,147.13,110.58Z"/><path class="cls-1" d="M147.24,96.17c-.74.78-1.16,1.59-1.78,1.8-.88.3-1.6-.4-1.86-1.25s.86-2.31,1.67-2.18C145.89,94.63,146.4,95.44,147.24,96.17Z"/><path class="cls-1" d="M126.71,68l2,3.16c-1.82,1.43-2.23.17-2.75-.93C125.49,69.34,124.8,68.41,126.71,68Z"/><path class="cls-1" d="M308.11,193.5l-2.5-3.94c.65-.19,1.29-.55,1.47-.4a8.9,8.9,0,0,1,1.91,2.29C309.16,191.75,308.58,192.46,308.11,193.5Z"/><path class="cls-1" d="M134.41,117.18c-.39.27-1,1-1.57,1a2.79,2.79,0,0,1-1.61-1.51c-.33-.71.52-1.64,1.32-1.7C133.61,114.86,134.43,115.65,134.41,117.18Z"/><path class="cls-1" d="M153.59,88.57c-1,.76-1.51,1.42-2.16,1.57-.36.09-1.15-.62-1.32-1.12a1.23,1.23,0,0,1,1.18-1.72C151.92,87.31,152.54,88,153.59,88.57Z"/><path class="cls-1" d="M260.68,201.43a28.77,28.77,0,0,1-1.82-3c-.37-.84.28-1.92,1.06-1.76a1.81,1.81,0,0,1,1.25,1.16A17.8,17.8,0,0,1,260.68,201.43Z"/><path class="cls-1" d="M124.77,105.89c-.84.55-1.31,1.07-1.86,1.16-.8.14-1.65-1-1.23-1.73a2.06,2.06,0,0,1,1.54-.89C123.68,104.47,124.08,105.2,124.77,105.89Z"/><path class="cls-1" d="M59.52,78.59a9.49,9.49,0,0,1-2.46,1.23A1.35,1.35,0,0,1,55.88,78c.29-.5,1-1.15,1.44-1.06C58,77.12,58.51,77.81,59.52,78.59Z"/><path class="cls-1" d="M78.21,132.61a8,8,0,0,1-2.1.87A1,1,0,0,1,75,132.16a1.87,1.87,0,0,1,1.39-1C76.88,131.15,77.33,131.84,78.21,132.61Z"/><path class="cls-1" d="M283.1,173.43c.54.83,1,1.3,1.13,1.85.15.72-1.07,1.56-1.7,1.16a1.89,1.89,0,0,1-.77-1.48C281.81,174.5,282.46,174.11,283.1,173.43Z"/><path class="cls-1" d="M268.92,185.52c-.71.64-1.14,1.35-1.58,1.35a2.11,2.11,0,0,1-1.53-1c-.41-.68.5-1.87,1.29-1.68C267.65,184.37,268.1,184.92,268.92,185.52Z"/><path class="cls-1" d="M44.64,89.33c-.84.4-1.41.92-1.84.81a1.82,1.82,0,0,1-1.11-1.24,1.17,1.17,0,0,1,1.59-1.2A7.91,7.91,0,0,1,44.64,89.33Z"/><path class="cls-1" d="M121.47,86.33l1.17,1.06c-.37.25-.93.8-1.08.7a6.26,6.26,0,0,1-1.17-1.28Z"/><path class="cls-1" d="M313.34,189.43c-.5.71-.69,1.23-1.06,1.46a1,1,0,0,1-1.56-.67,1.31,1.31,0,0,1,.61-1.14A6.71,6.71,0,0,1,313.34,189.43Z"/><path class="cls-1" d="M191.8,134.88c-.7.43-1.15.87-1.66.93-.27,0-.63-.57-.95-.89a5.23,5.23,0,0,1,1.29-1.09C190.68,133.75,191.15,134.34,191.8,134.88Z"/><path class="cls-1" d="M238.84,199.15a7.18,7.18,0,0,1-1.56,1.06c-.17,0-.79-.58-.85-1-.15-.85.91-1.9,1.49-1.54C238.29,197.94,238.45,198.51,238.84,199.15Z"/><path class="cls-1" d="M84.53,129.21a11.8,11.8,0,0,1,.45,2.36c0,.22-.76.62-1.13.58a1.33,1.33,0,0,1-.79-2C83.26,129.85,83.78,129.69,84.53,129.21Z"/><path class="cls-1" d="M119.52,90.88a9,9,0,0,1-2.08,1c-.16,0-.63-.79-.61-1.19s.62-1,.8-1A8.27,8.27,0,0,1,119.52,90.88Z"/><path class="cls-1" d="M296.34,185.53c.51.7,1,1,1,1.42.11.85-.56,1.17-1.25,1-.35-.07-.91-.69-.85-.92C295.37,186.57,295.85,186.18,296.34,185.53Z"/><path class="cls-1" d="M131.51,71c-.66-.89-1.17-1.31-1.26-1.81-.07-.32.55-1.11.72-1.07.52.11,1.23.44,1.38.87S132,69.92,131.51,71Z"/><path class="cls-1" d="M73.62,62.53c-.7-.83-1.4-1.31-1.37-1.74s.75-.91,1.27-1.12c.19-.07,1,.57,1,.87A7,7,0,0,1,73.62,62.53Z"/><path class="cls-1" d="M84.68,124.44c-.31-.72-.68-1.16-.61-1.51a1.5,1.5,0,0,1,1.66-1.38c.62,0,1.26.94.89,1.36A13.54,13.54,0,0,1,84.68,124.44Z"/><path class="cls-1" d="M120.74,112.2c-.77.74-1.12,1.26-1.59,1.45-.24.09-1-.45-1-.65a5.78,5.78,0,0,1,.61-1.63Z"/><path class="cls-1" d="M83.28,99c-.46.38-.81.88-1.17.89a1.38,1.38,0,0,1-1-.81c-.24-.68.52-1.46,1.12-1.18C82.61,98,82.86,98.51,83.28,99Z"/><path class="cls-1" d="M80.51,93.91c-.25-.57-.66-1-.55-1.34A1.28,1.28,0,0,1,81,91.89a1.23,1.23,0,0,1,.68,1C81.59,93.27,81,93.5,80.51,93.91Z"/><path class="cls-1" d="M35.23,78.82A8.31,8.31,0,0,1,36,80.18c.21.62-.44,1.42-1,1.18a1.53,1.53,0,0,1-.86-1C34.13,80,34.63,79.63,35.23,78.82Z"/><path class="cls-1" d="M98.14,73.16c-.55.29-1,.71-1.31.64a1.16,1.16,0,0,1-.62-1,1.23,1.23,0,0,1,1-.73C97.51,72.13,97.75,72.69,98.14,73.16Z"/><path class="cls-1" d="M91.82,67c.39.53.91.92.88,1.28s-.57.72-.88,1.08c-.32-.36-.85-.7-.87-1.08S91.44,67.52,91.82,67Z"/><path class="cls-1" d="M71.53,68.05c-.52.32-.87.7-1.26.76a.89.89,0,0,1-.8-1.32A1.36,1.36,0,0,1,70.58,67C70.92,67.08,71.15,67.61,71.53,68.05Z"/><path class="cls-1" d="M146.23,86.92l1.15.88L146.2,89c-.28-.34-.77-.66-.8-1S145.89,87.33,146.23,86.92Z"/><path class="cls-1" d="M85.83,63.79c1.11-.06,1.27.67,1.28,1.29,0,.35-.43.71-.68,1.06a6,6,0,0,1-1.17-1.33C85.16,64.58,85.65,64.08,85.83,63.79Z"/><path class="cls-1" d="M278,214.87c-.55.32-.9.69-1.3.74a.93.93,0,0,1-.8-1.36,1.44,1.44,0,0,1,1.19-.46C277.44,213.86,277.66,214.4,278,214.87Z"/><path class="cls-1" d="M264,171c-.6.28-1.05.68-1.4.61a1.22,1.22,0,0,1-.66-1,1.25,1.25,0,0,1,1-.72C263.29,169.9,263.55,170.45,264,171Z"/><path class="cls-1" d="M238.79,171.46c.46-.41.8-.94,1.12-.94s.88.59.86.88-.53.71-.82,1.06Z"/><path class="cls-1" d="M60.65,50.66c-.51.38-.89.88-1.21.84s-.66-.57-1-.88c.35-.31.67-.82,1-.86S60.17,50.26,60.65,50.66Z"/><path class="cls-1" d="M118.24,24.88l.65,1.12-1.17.54a6.09,6.09,0,0,1-.39-1.21C117.32,25.24,117.82,25.08,118.24,24.88Z"/><path class="cls-1" d="M1.48,41.08.89,39.63a4.64,4.64,0,0,1,1.21-.44c.11,0,.47.58.4.76C2.35,40.31,2,40.56,1.48,41.08Z"/><path class="cls-1" d="M83.34,50.1c-.56.33-1,.76-1.22.68s-.54-.62-.8-1c.34-.25.67-.67,1-.68S82.88,49.64,83.34,50.1Z"/><path class="cls-1" d="M129.32,50.45c-.5.33-.83.71-1.19.74-.9.1-1-.63-.85-1.23a1.17,1.17,0,0,1,1-.55C128.65,49.48,128.9,50,129.32,50.45Z"/><path class="cls-1" d="M35.91,51.42l-.5.79-.91-.78c.23-.22.47-.62.7-.62S35.68,51.2,35.91,51.42Z"/><path class="cls-1" d="M91,75.79c.73,1.38,1.16,1.83,1.08,2.12s-.65.56-1,.83c-.25-.36-.67-.71-.7-1.09S90.59,76.77,91,75.79Z"/><path class="cls-1" d="M86.89,81.52c-.21.43-.39,1-.48,1A2.74,2.74,0,0,1,85.3,82c-.06,0,.2-.75.31-.75A5.24,5.24,0,0,1,86.89,81.52Z"/><path class="cls-1" d="M132.58,85.88c-.61.43-1,.91-1.25.83s-.54-.6-.71-1c0-.07.43-.52.62-.49A5.44,5.44,0,0,1,132.58,85.88Z"/><path class="cls-1" d="M79.31,87.54c-.57.26-1,.61-1.27.53s-.51-.58-.77-.89c.34-.25.7-.7,1-.68S78.85,87.05,79.31,87.54Z"/><path class="cls-1" d="M76.67,90.55l1,.54a4.31,4.31,0,0,1-.71,1c-.11.09-.54-.23-.82-.37C76.28,91.33,76.48,91,76.67,90.55Z"/><path class="cls-1" d="M104.25,125a11.64,11.64,0,0,1-1.48,1.08.84.84,0,0,1-.78-.27c-.11-.18,0-.74.13-.8a15.32,15.32,0,0,1,1.93-.56C104.12,124.66,104.18,124.85,104.25,125Z"/><path class="cls-1" d="M197.13,127.56c-.58.31-1,.71-1.3.65a1.17,1.17,0,0,1-.68-.92,1.14,1.14,0,0,1,.88-.71C196.36,126.62,196.65,127.1,197.13,127.56Z"/><path class="cls-1" d="M52.76,127.24a5.8,5.8,0,0,1,1,1c.08.13-.24.71-.37.7a4.06,4.06,0,0,1-1.15-.33C52.4,128.25,52.54,127.86,52.76,127.24Z"/><path class="cls-1" d="M88.71,133.82a6.61,6.61,0,0,1-1.25.33c-.07,0-.34-.74-.26-.8a4.78,4.78,0,0,1,1.12-.51Z"/><path class="cls-1" d="M62.46,134.28c-.49.45-.78.93-1.1,1a1.14,1.14,0,0,1-.91-.69,1.11,1.11,0,0,1,.68-.91C61.45,133.58,61.85,134,62.46,134.28Z"/><path class="cls-1" d="M254.14,182.86c-.51-.37-1.08-.58-1.17-.91a1.54,1.54,0,0,1,.45-1.24c.43-.39,1.4.18,1.35.81A4.73,4.73,0,0,1,254.14,182.86Z"/><path class="cls-1" d="M251.92,188.87c-.57.35-1,.79-1.25.71a1.18,1.18,0,0,1-.7-1c0-.27.58-.7.91-.7S251.46,188.42,251.92,188.87Z"/><path class="cls-1" d="M272,187.89A5.48,5.48,0,0,1,273.1,189c.08.16-.25.77-.37.76a5.28,5.28,0,0,1-1.24-.36C271.64,189,271.79,188.55,272,187.89Z"/><path class="cls-1" d="M281.18,192.2c-.23-.64-.57-1.1-.45-1.38s.69-.37,1.08-.41c.11,0,.45.56.37.71A5.38,5.38,0,0,1,281.18,192.2Z"/><path class="cls-1" d="M293.08,193.25c-.54.38-.87.76-1.26.85a1,1,0,0,1-1-1.31,1.43,1.43,0,0,1,1.15-.59C292.35,192.25,292.63,192.78,293.08,193.25Z"/><path class="cls-1" d="M277.66,195.09c-.44-.5-.9-.79-.92-1.11s.41-.65.64-1c.32.24.84.45.9.75S278,194.47,277.66,195.09Z"/><path class="cls-1" d="M301,197l-.52.95a5.81,5.81,0,0,1-1-.72c-.06-.06.29-.69.4-.67A4.3,4.3,0,0,1,301,197Z"/><path class="cls-1" d="M107.09,20.06l.62.55-.88.72c-.15-.25-.44-.53-.4-.73S106.86,20.23,107.09,20.06Z"/><path class="cls-1" d="M288.71,174.67l-.71.5c-.16-.39-.33-.77-.5-1.15.31-.08.69-.31.9-.2S288.62,174.37,288.71,174.67Z"/><path class="cls-1" d="M93.89,120.65c.18.24.35.48.53.71l-1,.64c-.09-.28-.33-.6-.25-.82S93.64,120.82,93.89,120.65Z"/><path class="cls-1" d="M324.73,192.45c-.19-.36-.39-.71-.59-1.06.27-.14.67-.46.78-.38a3.53,3.53,0,0,1,.73.92Z"/><path class="cls-1" d="M170.74,121.91l-.85.43c-.13-.3-.38-.62-.33-.87a.84.84,0,0,1,.77-.34C170.54,121.21,170.61,121.64,170.74,121.91Z"/><path class="cls-1" d="M39,120.6l-.75.4-.4-1c.26-.07.62-.28.76-.18S38.88,120.32,39,120.6Z"/><path class="cls-1" d="M63.78,98.39a5.24,5.24,0,0,1,.61,1.07c0,.12-.35.36-.55.55l-1-1Z"/><path class="cls-1" d="M156.31,86.57l-.67.54c-.2-.33-.41-.65-.61-1,.27-.12.6-.4.79-.33S156.15,86.3,156.31,86.57Z"/><path class="cls-1" d="M24.23,72.8l1,.35-.46,1.14c-.27-.14-.73-.23-.78-.41A2.79,2.79,0,0,1,24.23,72.8Z"/><path class="cls-1" d="M66.3,82.55c-.26.16-.52.45-.77.45s-.49-.31-.74-.49c.26-.16.52-.45.77-.44S66.06,82.38,66.3,82.55Z"/><path class="cls-1" d="M128.94,108.41c-.2-.16-.55-.3-.56-.46s.2-.53.32-.79c.2.15.54.29.56.46S129.06,108.14,128.94,108.41Z"/><polygon class="cls-1" points="295.5 211.47 308.33 169 293.39 161.8 291.92 163.87 277.37 156.85 268.87 152.75 267.15 156.31 257.04 151.44 257.54 150.41 244.66 144.2 226.39 182.12 224.39 186.26 237.26 192.46 243.01 195.23 245 191.1 239.26 188.33 246.01 174.31 256.13 179.18 250.92 189.98 259.42 194.08 266.96 178.45 277.8 183.68 267.58 198.01 295.5 211.47"/><path class="cls-1" d="M295.5,212.74a1.33,1.33,0,0,1-.55-.12L267,199.16a1.26,1.26,0,0,1-.48-1.88l9.34-13.11-8.34-4-7,14.48a1.26,1.26,0,0,1-.73.65,1.31,1.31,0,0,1-1-.05l-8.5-4.1a1.26,1.26,0,0,1-.65-.73,1.3,1.3,0,0,1,.05-1l4.66-9.65L246.61,176,241,187.73l4.59,2.22a1.27,1.27,0,0,1,.6,1.7l-2,4.14a1.23,1.23,0,0,1-.72.64,1.21,1.21,0,0,1-1-.05l-18.62-9a1.3,1.3,0,0,1-.65-.73,1.26,1.26,0,0,1,.06-1l20.27-42.06a1.31,1.31,0,0,1,.72-.65,1.28,1.28,0,0,1,1,.06l12.87,6.2a1.28,1.28,0,0,1,.64,1.58l7.82,3.78,1.17-2.42a1.27,1.27,0,0,1,1.7-.59l22.09,10.64.85-1.19a1.28,1.28,0,0,1,1.58-.41l14.94,7.21a1.26,1.26,0,0,1,.67,1.51l-12.83,42.47a1.27,1.27,0,0,1-.7.8A1.34,1.34,0,0,1,295.5,212.74Zm-26-15.22,25.23,12.16,12.08-40-13-6.26L293,164.6a1.27,1.27,0,0,1-1.59.41l-21.91-10.56-1.17,2.42a1.28,1.28,0,0,1-.72.65,1.26,1.26,0,0,1-1-.06l-10.12-4.87a1.29,1.29,0,0,1-.64-1.59l-10.58-5.1-19.17,39.77,16.32,7.87.89-1.85-4.59-2.22a1.27,1.27,0,0,1-.6-1.7l6.76-14a1.27,1.27,0,0,1,1.7-.6L256.68,178a1.25,1.25,0,0,1,.59,1.69l-4.65,9.66,6.21,3,7-14.48a1.3,1.3,0,0,1,.73-.65,1.26,1.26,0,0,1,1,.06l10.84,5.22a1.27,1.27,0,0,1,.48,1.89Z"/><path class="cls-1" d="M260,194.27a1.24,1.24,0,0,1-.56-.13,1.28,1.28,0,0,1-.59-1.7l16.38-33.75a1.23,1.23,0,0,1,.73-.65,1.29,1.29,0,0,1,1,.07l15.44,7.67a1.27,1.27,0,0,1,.67.86,1.24,1.24,0,0,1-.24,1.07l-20.6,26.07a1.27,1.27,0,0,1-2-1.57l19.63-24.85L276.9,161l-15.81,32.59A1.28,1.28,0,0,1,260,194.27Z"/><path class="cls-1" d="M250.92,190l17.94-37.23Z"/><path class="cls-1" d="M250.92,191.25a1.33,1.33,0,0,1-.55-.12,1.28,1.28,0,0,1-.6-1.7l18-37.23a1.27,1.27,0,0,1,2.29,1.1l-17.94,37.24A1.28,1.28,0,0,1,250.92,191.25Z"/><path class="cls-1" d="M231.3,188.44l17.95-37.23Z"/><path class="cls-1" d="M231.3,189.71a1.37,1.37,0,0,1-.55-.12,1.27,1.27,0,0,1-.59-1.7l17.94-37.23a1.27,1.27,0,1,1,2.29,1.1L232.45,189A1.26,1.26,0,0,1,231.3,189.71Z"/><path class="cls-1" d="M282.79,205l17.94-37.23Z"/><path class="cls-1" d="M282.79,206.28a1.3,1.3,0,0,1-.55-.12,1.28,1.28,0,0,1-.6-1.7l17.95-37.23a1.27,1.27,0,1,1,2.29,1.1l-17.95,37.23A1.25,1.25,0,0,1,282.79,206.28Z"/><path class="cls-1" d="M10.7,46.1a18,18,0,1,1,24.06-8.41A18,18,0,0,1,10.7,46.1ZM20.77,25.21a5.17,5.17,0,1,0,2.41,6.9A5.17,5.17,0,0,0,20.77,25.21Z"/><path class="cls-1" d="M43.42,81.72a5,5,0,0,1-2.22-.51,5.45,5.45,0,0,1-.62-.35A35.24,35.24,0,0,1,60.13,16.24,34.92,34.92,0,0,1,70.91,18,5.15,5.15,0,0,1,69.32,28a5,5,0,0,1-1.59-.25,24.74,24.74,0,0,0-7.63-1.21A24.93,24.93,0,0,0,46.28,72.26a5.16,5.16,0,0,1-2.86,9.46Z"/><path class="cls-1" d="M60.13,17.51a33.87,33.87,0,0,1,10.38,1.64,3.89,3.89,0,0,1-1.19,7.59,3.77,3.77,0,0,1-1.2-.19,26,26,0,0,0-8-1.27,26.2,26.2,0,0,0-14.52,48,3.89,3.89,0,0,1-3.83,6.75,4.39,4.39,0,0,1-.47-.27A34,34,0,0,1,60.13,17.51Zm0-2.54a36.51,36.51,0,0,0-20.25,67,6.49,6.49,0,0,0,.76.44A6.43,6.43,0,0,0,47,71.2,23.65,23.65,0,0,1,60.1,27.83,23.48,23.48,0,0,1,67.33,29a6.57,6.57,0,0,0,2,.32,6.43,6.43,0,0,0,2-12.55A36,36,0,0,0,60.13,15Z"/><path class="cls-1" d="M43.42,73.24a2.29,2.29,0,0,0-3.07.33,2.23,2.23,0,1,0,3.51,2.74A2.3,2.3,0,0,0,43.42,73.24Z"/><path class="cls-1" d="M42.12,77.78h0a2.88,2.88,0,0,1-1.74-.59,2.71,2.71,0,0,1-1.1-1.94,2.66,2.66,0,0,1,.68-2,2.88,2.88,0,0,1,3.78-.39,2.84,2.84,0,0,1,.57,3.79A2.6,2.6,0,0,1,42.12,77.78Zm0-4.45a1.76,1.76,0,0,0-1.33.6,1.53,1.53,0,0,0-.4,1.22A1.66,1.66,0,0,0,41,76.33a1.68,1.68,0,0,0,2.4-.31,1.75,1.75,0,0,0-.31-2.35A1.71,1.71,0,0,0,42.08,73.33Z"/><path class="cls-1" d="M37.06,66.29a2.35,2.35,0,0,0-3-.72,2.16,2.16,0,0,0-.74,3.13,2.3,2.3,0,0,0,1.46,1,2.17,2.17,0,0,0,1.68-.41,2.29,2.29,0,0,0,.88-1.43A2.13,2.13,0,0,0,37.06,66.29Z"/><path class="cls-1" d="M35.14,70.29h0a3.55,3.55,0,0,1-.46,0A2.91,2.91,0,0,1,32.86,69a2.68,2.68,0,0,1,.94-3.89,2.92,2.92,0,0,1,3.7.88,2.67,2.67,0,0,1,.35,2,2.79,2.79,0,0,1-1.08,1.76A2.64,2.64,0,0,1,35.14,70.29Zm0-4.46a1.85,1.85,0,0,0-.85.22,1.58,1.58,0,0,0-.8,1,1.61,1.61,0,0,0,.25,1.31,1.77,1.77,0,0,0,1.12.81,1.68,1.68,0,0,0,1.26-.31,1.75,1.75,0,0,0,.67-1.09,1.64,1.64,0,0,0-.19-1.22A1.8,1.8,0,0,0,35.15,65.83Z"/><path class="cls-1" d="M33.38,57.61a2.14,2.14,0,0,0-1-1.31,2.29,2.29,0,0,0-1.64-.36,2.15,2.15,0,0,0-1.46.92A2.33,2.33,0,0,0,29,58.63a2.15,2.15,0,0,0,2.76,1.64A2.34,2.34,0,0,0,33.38,57.61Z"/><path class="cls-1" d="M31.15,60.91h0a2.71,2.71,0,0,1-2.64-2.17,2.91,2.91,0,0,1,.35-2.17,2.69,2.69,0,0,1,1.83-1.16,2.74,2.74,0,0,1,2,.45,2.62,2.62,0,0,1,1.19,1.63,2.84,2.84,0,0,1-2.75,3.42Zm0-4.47-.28,0a1.65,1.65,0,0,0-1.1.7,1.78,1.78,0,0,0-.19,1.34,1.63,1.63,0,0,0,2.07,1.25,1.79,1.79,0,0,0,1.22-2,1.57,1.57,0,0,0-.73-1A1.76,1.76,0,0,0,31.13,56.44Z"/><path class="cls-1" d="M32.79,48.2a2.33,2.33,0,0,0-1.9-2.45,2.25,2.25,0,0,0-2,3.69,2.09,2.09,0,0,0,1.54.74,2.3,2.3,0,0,0,2.37-2Z"/><path class="cls-1" d="M30.5,50.72h-.09A2.76,2.76,0,1,1,31,45.23a2.84,2.84,0,0,1,2.33,3,2.89,2.89,0,0,1-1,1.75A2.85,2.85,0,0,1,30.5,50.72Zm0-4.47a1.67,1.67,0,0,0-1.59,1.54,1.61,1.61,0,0,0,.39,1.3,1.63,1.63,0,0,0,1.16.56l.06.53v-.53a1.69,1.69,0,0,0,.28-3.37A1.53,1.53,0,0,0,30.48,46.25Z"/><path class="cls-1" d="M35.37,39.13a2.24,2.24,0,0,0-.95-2.93,2.23,2.23,0,1,0-1.93,4A2.23,2.23,0,0,0,35.37,39.13Z"/><path class="cls-1" d="M33.36,40.91h0a3.2,3.2,0,0,1-1.06-.19,2.58,2.58,0,0,1-1.47-1.43,3,3,0,0,1,0-2.31,2.9,2.9,0,0,1,2.52-1.6,2.67,2.67,0,0,1,1.32.36,2.79,2.79,0,0,1,1.14,3.65A2.66,2.66,0,0,1,33.36,40.91Zm0-4.46a1.79,1.79,0,0,0-1.55,1,1.86,1.86,0,0,0,0,1.43,1.49,1.49,0,0,0,.86.83,1.79,1.79,0,0,0,.68.13h0a1.61,1.61,0,0,0,1.52-.92,1.73,1.73,0,0,0-.73-2.26A1.49,1.49,0,0,0,33.38,36.45Z"/><path class="cls-1" d="M40.86,31.46A2.38,2.38,0,0,0,41.49,30a2.34,2.34,0,0,0-.56-1.6,2.17,2.17,0,0,0-3.21-.08,2.16,2.16,0,0,0,0,3.2A2.32,2.32,0,0,0,40.86,31.46Z"/><path class="cls-1" d="M39.34,32.61h0a3,3,0,0,1-1.93-.7,2.56,2.56,0,0,1-.91-1.84,2.86,2.86,0,0,1,.84-2.14,2.63,2.63,0,0,1,1.95-.84h.12a2.66,2.66,0,0,1,1.93.94A2.84,2.84,0,0,1,42,30a2.88,2.88,0,0,1-.76,1.82A2.64,2.64,0,0,1,39.34,32.61Zm0-4.45a1.59,1.59,0,0,0-1.24.5A1.77,1.77,0,0,0,37.57,30a1.52,1.52,0,0,0,.53,1.08A1.67,1.67,0,0,0,41,30a1.78,1.78,0,0,0-.43-1.24,1.59,1.59,0,0,0-1.15-.56Z"/><path class="cls-1" d="M48.58,26.06a2.33,2.33,0,0,0,1.1-2.89,2.16,2.16,0,0,0-3-1.14,2.3,2.3,0,0,0-1.21,1.31,2.18,2.18,0,0,0,.18,1.73A2.31,2.31,0,0,0,47,26.12,2.12,2.12,0,0,0,48.58,26.06Z"/><path class="cls-1" d="M47.73,26.79a3,3,0,0,1-2.54-1.46A2.72,2.72,0,0,1,45,23.19a2.9,2.9,0,0,1,1.5-1.64,2.56,2.56,0,0,1,1.22-.3A2.68,2.68,0,0,1,50.18,23a2.86,2.86,0,0,1-1.35,3.55A2.49,2.49,0,0,1,47.73,26.79Zm-.06-4.47a1.6,1.6,0,0,0-.74.19,1.82,1.82,0,0,0-1,1,1.6,1.6,0,0,0,.15,1.28,1.71,1.71,0,0,0,1,.81,1.58,1.58,0,0,0,1.23,0,1.79,1.79,0,0,0,.83-2.22A1.64,1.64,0,0,0,47.67,22.32Z"/><path class="cls-1" d="M57.66,23.54a2.11,2.11,0,0,0,1.42-.79,2.23,2.23,0,0,0,.58-1.58,2.18,2.18,0,0,0-.73-1.57,2.3,2.3,0,0,0-1.72-.5,2.16,2.16,0,0,0-2,2.53A2.35,2.35,0,0,0,57.66,23.54Z"/><path class="cls-1" d="M57.52,24.08a2.88,2.88,0,0,1-2.81-2.35,2.68,2.68,0,0,1,2.47-3.16l.28,0a2.8,2.8,0,0,1,1.82.64,2.74,2.74,0,0,1,.92,2,2.86,2.86,0,0,1-.72,1.95,2.67,2.67,0,0,1-1.77,1Zm-.06-4.45h-.2a1.6,1.6,0,0,0-1.19.62,1.62,1.62,0,0,0-.31,1.27A1.78,1.78,0,0,0,57.52,23h.11a1.57,1.57,0,0,0,1-.6,1.67,1.67,0,0,0,.45-1.22A1.61,1.61,0,0,0,58.57,20,1.69,1.69,0,0,0,57.46,19.63Z"/><path class="cls-1" d="M67.06,24.18a2.29,2.29,0,0,0,2.68-1.57,2.23,2.23,0,1,0-4.33-1A2.29,2.29,0,0,0,67.06,24.18Z"/><path class="cls-1" d="M67.57,24.79h0a2.37,2.37,0,0,1-.65-.09,2.85,2.85,0,0,1-2-3.2,2.75,2.75,0,0,1,3.38-2.17,2.92,2.92,0,0,1,1.82,1.42,2.52,2.52,0,0,1,.17,2A2.91,2.91,0,0,1,67.57,24.79Zm0-4.48a1.63,1.63,0,0,0-1.61,1.35,1.75,1.75,0,0,0,1.26,2,1.77,1.77,0,0,0,2-1.22,1.54,1.54,0,0,0-.1-1.19A1.87,1.87,0,0,0,68,20.37,1.54,1.54,0,0,0,67.55,20.31Z"/><path class="cls-1" d="M210.27,131.25a6.63,6.63,0,0,0,8.85-3.1h0A6.63,6.63,0,0,0,216,119.3L190.52,107a6.64,6.64,0,0,0-8.86,3.1h0a6.63,6.63,0,0,0,3.1,8.85Z"/><path class="cls-1" d="M213.14,133.18h0a7.9,7.9,0,0,1-3.43-.79l-25.5-12.29a7.91,7.91,0,0,1,3.43-15,7.7,7.7,0,0,1,3.43.79l25.51,12.29a7.91,7.91,0,0,1-3.44,15Zm-25.5-25.56a5.36,5.36,0,0,0-2.33,10.19l25.51,12.29a5.22,5.22,0,0,0,2.32.53h0a5.36,5.36,0,0,0,5.07-7.13,5.34,5.34,0,0,0-2.73-3.06L190,108.15A5.26,5.26,0,0,0,187.64,107.62Z"/><path class="cls-1" d="M172.81,113.19a6.63,6.63,0,0,0,8.85-3.09h0a6.64,6.64,0,0,0-3.09-8.86L153.06,89A6.64,6.64,0,0,0,144.2,92h0a6.64,6.64,0,0,0,3.1,8.86Z"/><path class="cls-1" d="M175.68,115.12h0a7.82,7.82,0,0,1-3.42-.78L146.75,102a7.9,7.9,0,0,1-3.69-10.55A7.94,7.94,0,0,1,150.18,87a7.84,7.84,0,0,1,3.43.79l25.51,12.29a7.91,7.91,0,0,1-3.44,15Zm-25.5-25.56a5.36,5.36,0,0,0-5.06,7.13,5.31,5.31,0,0,0,2.73,3.06l25.51,12.3a5.36,5.36,0,0,0,4.66-9.66l-25.51-12.3A5.4,5.4,0,0,0,150.18,89.56Z"/><path class="cls-1" d="M304.84,176.83a6.63,6.63,0,0,0,8.85-3.09h0a6.64,6.64,0,0,0-3.09-8.86l-60.21-29a6.64,6.64,0,0,0-8.86,3.09h0a6.64,6.64,0,0,0,3.1,8.86Z"/><path class="cls-1" d="M307.71,178.76h0a7.89,7.89,0,0,1-3.43-.78l-60.21-29a7.91,7.91,0,0,1,6.87-14.25l60.21,29a7.9,7.9,0,0,1-3.44,15Zm-60.2-42.29a5.36,5.36,0,0,0-2.33,10.19l60.21,29a5.33,5.33,0,0,0,2.32.53A5.36,5.36,0,0,0,310.05,166l-60.22-29A5.2,5.2,0,0,0,247.51,136.47Z"/><path class="cls-1" d="M320.62,183.16a5.48,5.48,0,0,0,7.32-2.55h0a5.49,5.49,0,0,0-2.56-7.33l-4.36-2.1a5.49,5.49,0,0,0-7.33,2.56h0a5.48,5.48,0,0,0,2.56,7.32Z"/><path class="cls-1" d="M323,185h0a6.76,6.76,0,0,1-2.93-.67l-4.37-2.1A6.76,6.76,0,0,1,321.57,170l4.36,2.11a6.75,6.75,0,0,1,3.16,9A6.8,6.8,0,0,1,323,185Zm-4.36-13.08a4.22,4.22,0,0,0-1.84,8l4.37,2.11a4.16,4.16,0,0,0,1.83.42,4.22,4.22,0,0,0,4-5.61,4.2,4.2,0,0,0-2.15-2.4l-4.37-2.11A4.12,4.12,0,0,0,318.64,171.9Z"/><path class="cls-1" d="M228.5,145.13a11.21,11.21,0,0,0,15-5.23h0a11.22,11.22,0,0,0-5.23-15l-4.14-2a11.23,11.23,0,0,0-15,5.24h0a11.23,11.23,0,0,0,5.24,15Z"/><path class="cls-1" d="M233.37,147.52h0a12.42,12.42,0,0,1-5.41-1.24l-4.14-2a12.49,12.49,0,1,1,10.85-22.51l4.14,2a12.51,12.51,0,0,1,5.83,16.69A12.56,12.56,0,0,1,233.37,147.52Zm-4.13-24.45A10,10,0,0,0,224.91,142l4.14,2a9.93,9.93,0,0,0,4.31,1h0a10,10,0,0,0,9-5.64,9.94,9.94,0,0,0-4.65-13.28l-4.13-2A9.86,9.86,0,0,0,229.24,123.07Z"/><path class="cls-1" d="M215.39,134.42a2.68,2.68,0,0,0,3.58-1.24l4-8.28a2.68,2.68,0,0,0-1.25-3.57h0a2.67,2.67,0,0,0-3.58,1.25l-4,8.27a2.68,2.68,0,0,0,1.25,3.57Z"/><path class="cls-1" d="M216.55,136h0A3.95,3.95,0,0,1,213,130.3l4-8.28a4,4,0,0,1,3.57-2.23,4,4,0,0,1,3.55,5.67l-4,8.27A4,4,0,0,1,216.55,136Zm4-13.63a1.45,1.45,0,0,0-1.28.8l-4,8.27a1.35,1.35,0,0,0-.06,1.08,1.4,1.4,0,0,0,.71.8,1.43,1.43,0,0,0,1.88-.66l4-8.27a1.41,1.41,0,0,0-.66-1.88A1.39,1.39,0,0,0,220.55,122.33Z"/><path class="cls-1" d="M178.51,116.65a2.68,2.68,0,0,0,3.57-1.25l4-8.28a2.68,2.68,0,0,0-1.25-3.57h0a2.68,2.68,0,0,0-3.58,1.25l-4,8.27a2.67,2.67,0,0,0,1.25,3.58Z"/><path class="cls-1" d="M179.67,118.18h0a3.94,3.94,0,0,1-3.56-5.66l4-8.28a4,4,0,0,1,3.56-2.23,3.89,3.89,0,0,1,1.71.39,4,4,0,0,1,1.85,5.28l-4,8.27A4,4,0,0,1,179.67,118.18Zm4-13.63a1.4,1.4,0,0,0-1.27.8l-4,8.27a1.41,1.41,0,1,0,2.54,1.22l4-8.27a1.4,1.4,0,0,0-.65-1.88A1.43,1.43,0,0,0,183.66,104.55Z"/><path class="cls-1" d="M239.32,146.56a2.68,2.68,0,0,0,3.57-1.25l4-8.27a2.68,2.68,0,0,0-1.25-3.58h0a2.69,2.69,0,0,0-3.58,1.25l-4,8.27a2.67,2.67,0,0,0,1.25,3.58Z"/><path class="cls-1" d="M240.48,148.1h0a3.81,3.81,0,0,1-1.72-.4,3.95,3.95,0,0,1-1.84-5.27l4-8.27a4,4,0,0,1,3.56-2.24,3.89,3.89,0,0,1,1.71.39,4,4,0,0,1,1.85,5.28l-4,8.27A4,4,0,0,1,240.48,148.1Zm4-13.64a1.4,1.4,0,0,0-1.27.8l-4,8.28a1.41,1.41,0,0,0,.66,1.87,1.42,1.42,0,0,0,1.88-.65l4-8.28a1.39,1.39,0,0,0-.65-1.87A1.34,1.34,0,0,0,244.47,134.46Z"/><path class="cls-1" d="M310.54,180.29a2.68,2.68,0,0,0,3.57-1.25l4-8.28a2.68,2.68,0,0,0-1.25-3.57h0a2.68,2.68,0,0,0-3.58,1.25l-4,8.27a2.67,2.67,0,0,0,1.25,3.58Z"/><path class="cls-1" d="M311.7,181.83h0a4,4,0,0,1-3.56-5.67l4-8.28a4,4,0,0,1,3.56-2.23,3.89,3.89,0,0,1,1.71.39,3.95,3.95,0,0,1,1.85,5.27l-4,8.28A4,4,0,0,1,311.7,181.83Zm4-13.64a1.4,1.4,0,0,0-1.27.8l-4,8.27a1.41,1.41,0,0,0,.66,1.88,1.44,1.44,0,0,0,1.88-.66l4-8.27a1.33,1.33,0,0,0,.06-1.07,1.38,1.38,0,0,0-.71-.81A1.47,1.47,0,0,0,315.69,168.19Z"/><path class="cls-1" d="M161.81,78.87a5.82,5.82,0,0,0-.06-1l-.06-.48a6.23,6.23,0,0,0-.37-1.41,10.54,10.54,0,1,0-19.68,7.57,5.07,5.07,0,0,1-3.44-4.64v-.3c0-.17,0-.34-.05-.51-.81-5.88-1.23-12-1.63-17.83C135,38.11,133.42,15.22,110.13,4A34.9,34.9,0,0,0,63.52,20.06a34.43,34.43,0,0,0,2.41,34.25A34.44,34.44,0,0,0,37.64,73.77,34.89,34.89,0,0,0,54.1,120.23c23.29,11.23,42.18-1.81,60.44-14.41,4.85-3.34,9.86-6.8,15-9.83a3.18,3.18,0,0,0,.43-.28l.33-.23a5,5,0,0,1,5.69-.15,10.55,10.55,0,1,0,6.34,20.12,5.79,5.79,0,0,0,1.32-.59l.42-.25a5.51,5.51,0,0,0,.84-.59,18.19,18.19,0,0,0,6-18.79A18.16,18.16,0,0,0,161.81,78.87ZM87.46,47.27a1.49,1.49,0,0,1,2,.12,3.46,3.46,0,0,1-.12,4.88l-.24.22A6.41,6.41,0,0,0,87.46,47.27ZM75.18,77a1.43,1.43,0,0,1-1-.52,1.37,1.37,0,0,1-.34-1,6.41,6.41,0,0,0,5.1-2c0,.11,0,.22,0,.33A3.46,3.46,0,0,1,75.18,77Zm47.58,8,0,0c-5.4,3.22-10.53,6.75-15.49,10.18-19.21,13.26-31.79,21-47.55,13.4A22,22,0,0,1,49.22,79.35,21.66,21.66,0,0,1,63.58,67.69,12.72,12.72,0,0,0,61,74.29,14.33,14.33,0,0,0,74,89.84,16.32,16.32,0,0,0,91.73,75a18.65,18.65,0,0,0-1.39-9,18.77,18.77,0,0,0,7.88-4.49,16.34,16.34,0,0,0,.55-23.07A14.33,14.33,0,0,0,78.51,38a12.72,12.72,0,0,0-3.58,6.11,21.62,21.62,0,0,1,.18-18.49,22,22,0,0,1,29.43-10.07c15.76,7.6,17.53,22.26,19.13,45.55.42,6,.84,12.22,1.69,18.45a18.06,18.06,0,0,0,.54,3.63A16.9,16.9,0,0,0,122.76,85Z"/><path class="cls-1" d="M112.13,88a9.7,9.7,0,1,0,8.42-17.48c-4.83-2.33-28.89-9.1-31.21-4.28S107.3,85.62,112.13,88Z"/><path class="cls-1" d="M116.34,90.19h0a10.92,10.92,0,0,1-4.76-1.09c-3-1.45-26.5-17-23.39-23.46.78-1.62,2.87-2.41,6.39-2.41,8.34,0,22.88,4.34,26.53,6.1a11,11,0,0,1-4.77,20.86ZM94.58,65.77c-3.45,0-4,.81-4.1,1-1.5,3.11,15.63,16.89,22.2,20.06A8.43,8.43,0,1,0,120,71.62C116.38,69.87,102.26,65.77,94.58,65.77Z"/><path class="cls-1" d="M72,122.58a38.7,38.7,0,0,1-17.08-4.1A33,33,0,0,1,39.39,74.61,32.44,32.44,0,0,1,68.83,56.15l.94,0A32.76,32.76,0,0,1,109.28,5.75C131.55,16.48,133,37.81,134.57,60.38c.41,5.95.83,12,1.64,18,0,.12,0,.24,0,.36V79a7,7,0,0,0,7.3,6.8,7.65,7.65,0,0,0,2-.28,4.39,4.39,0,0,1-1.66-1.73,8.6,8.6,0,1,1,15.62-7.13,4,4,0,0,1,.25,1l.07.47a4.35,4.35,0,0,1,0,.72,16.18,16.18,0,0,1-11.48,15.23,16.2,16.2,0,0,1-4.76,18.47,4.78,4.78,0,0,1-.59.41l-.41.25a4.54,4.54,0,0,1-.93.41,8.62,8.62,0,0,1-2.61.41h0a8.6,8.6,0,0,1-1.53-17.07,4.26,4.26,0,0,1,.8-.08,4.5,4.5,0,0,1,1.6.3,7.5,7.5,0,0,0-1-1.67,7.34,7.34,0,0,0-5.76-2.94,6.88,6.88,0,0,0-4.09,1.36l-.31.21a2.23,2.23,0,0,1-.3.2c-5.15,3.05-10.18,6.53-15,9.88C99.75,113.66,86.83,122.58,72,122.58ZM68.89,65.12A23.58,23.58,0,0,0,47.47,78.51a24,24,0,0,0,11.37,31.88A29.69,29.69,0,0,0,72,113.54c12.16,0,23.38-7.74,36.37-16.7,5-3.44,10.11-7,15.48-10.17l.06,0a15.5,15.5,0,0,1,4.42-2.25,15.79,15.79,0,0,1-1-4.92v-.1C126.45,73.25,126,67,125.61,61,124.19,40.24,123,22.3,105.39,13.83a24,24,0,0,0-32,11A23.64,23.64,0,0,0,77.16,51a10.58,10.58,0,0,1-.66-4,10.74,10.74,0,0,1,3.35-7.57A12.3,12.3,0,0,1,88.39,36h.31a12.3,12.3,0,0,1,8.67,3.84,14.4,14.4,0,0,1-.49,20.32,16.68,16.68,0,0,1-9.44,4.5A16.71,16.71,0,0,1,89.8,74.87,14.47,14.47,0,0,1,75.49,88c-.42,0-.85,0-1.28,0A12.38,12.38,0,0,1,63,74.46a10.8,10.8,0,0,1,7.37-9.3C69.85,65.13,69.37,65.12,68.89,65.12Zm4.84,8.47a1.8,1.8,0,0,0-1.17.43,1.77,1.77,0,0,0-.65,1.24A3.41,3.41,0,0,0,75,79l.48,0a5.44,5.44,0,0,0,5.37-4.92,7.87,7.87,0,0,0-1.8-5.74c-.15-.18-.31-.35-.47-.52a4.64,4.64,0,0,1,.18,1.71,4.47,4.47,0,0,1-4.47,4.09,2.68,2.68,0,0,1-.4,0ZM84.38,55.8c.23,0,.46,0,.69.05h.2a7.79,7.79,0,0,0,5.41-2.17,5.4,5.4,0,0,0,.19-7.63,3.38,3.38,0,0,0-2.39-1h0a3.44,3.44,0,0,0-2.44.94,1.83,1.83,0,0,0-.57,1.28A1.86,1.86,0,0,0,86,48.54a4.49,4.49,0,0,1-.15,6.34A4.63,4.63,0,0,1,84.38,55.8Z"/><path class="cls-1" d="M94.87,3.72a31.91,31.91,0,0,1,13.86,3.17c21.61,10.42,23,31.38,24.57,53.58.41,5.93.83,12.06,1.65,18l0,.26,0,.3a8.31,8.31,0,0,0,8.56,8h.1a8.56,8.56,0,0,0,8.49-7.94.87.87,0,0,0-.57-.3h-.11a.9.9,0,0,0-.79,1.33,3.22,3.22,0,0,1-5.67,3,7.34,7.34,0,0,1,6.45-10.8,8.27,8.27,0,0,1,.86,0,7.28,7.28,0,0,1,6,4.67,2.77,2.77,0,0,1,.18.7l.07.48a4.36,4.36,0,0,1,0,.51,15,15,0,0,1-12,14.4,15,15,0,0,1-3.78,18.35,3.52,3.52,0,0,1-.42.29l-.42.25a3.93,3.93,0,0,1-.66.3,7.52,7.52,0,0,1-2.23.35,7.33,7.33,0,0,1-1.31-14.55,2.93,2.93,0,0,1,.58-.06,3.22,3.22,0,0,1,.57,6.38.9.9,0,0,0-.47,1.53.89.89,0,0,0,.59.26,8.71,8.71,0,0,0-5.85-15,8.13,8.13,0,0,0-4.83,1.6l-.29.21-.21.14c-5.2,3.08-10.26,6.57-15.16,10C99.3,112.43,86.44,121.31,72,121.31a37.54,37.54,0,0,1-16.52-4,31.68,31.68,0,0,1-15-42.17,31.25,31.25,0,0,1,28.3-17.73,31.57,31.57,0,0,1,4.1.26,31.36,31.36,0,0,1,21.94-54Zm-9.6,53.4a9.07,9.07,0,0,0,6.29-2.52,6.68,6.68,0,0,0,.23-9.43,4.68,4.68,0,0,0-3.28-1.45H88.4A4.67,4.67,0,0,0,85.16,45a3.1,3.1,0,0,0-.1,4.39,3.22,3.22,0,1,1-4.66,4.44,9.54,9.54,0,0,1,.33-13.49,11,11,0,0,1,7.66-3.07h.28a11.1,11.1,0,0,1,7.78,3.45A13.12,13.12,0,0,1,96,59.26a15.44,15.44,0,0,1-10.72,4.29h-.19a15.45,15.45,0,0,1,3.44,11.2,13.13,13.13,0,0,1-13,11.94c-.39,0-.78,0-1.17,0A11.12,11.12,0,0,1,64.23,74.58a9.55,9.55,0,0,1,9.49-8.7,8.25,8.25,0,0,1,.86,0,3.22,3.22,0,0,1-.28,6.42h-.57a3.1,3.1,0,0,0-2,.72,3.05,3.05,0,0,0-1.1,2.11,4.66,4.66,0,0,0,1.07,3.42,4.73,4.73,0,0,0,3.18,1.67l.6,0a6.66,6.66,0,0,0,6.63-6.08,9.12,9.12,0,0,0-8.28-9.9l-.15,0-.76-.1a26.49,26.49,0,0,0-4-.32A24.88,24.88,0,0,0,46.33,78a25.23,25.23,0,0,0,12,33.58A31,31,0,0,0,72,114.81c12.55,0,24.17-8,37.09-16.93,5-3.41,10.07-6.94,15.41-10.12l.14-.1A14.56,14.56,0,0,1,130,85.22a14.72,14.72,0,0,1-1.47-5.83v-.11c-.85-6.17-1.28-12.37-1.69-18.37-1.45-21.16-2.7-39.43-20.94-48.22a25.39,25.39,0,0,0-11.08-2.54A25,25,0,0,0,77.94,53.61l.61.58.1.1A9.05,9.05,0,0,0,85,57.12Zm9.6-55.95v0A34.25,34.25,0,0,0,64.13,20.35a33.9,33.9,0,0,0,3.06,34.57A33.67,33.67,0,0,0,38.24,74.06a34.22,34.22,0,0,0,16.15,45.56A39.84,39.84,0,0,0,72,123.85c15.21,0,28.29-9,42.14-18.58,4.88-3.36,9.89-6.82,15-9.86a3.34,3.34,0,0,0,.4-.25l.28-.2a5.68,5.68,0,0,1,3.37-1.14,6,6,0,0,1,4.23,1.84l-.11,0a9.88,9.88,0,1,0,4.76,19.13,6,6,0,0,0,1.19-.53l.41-.25a5.57,5.57,0,0,0,.75-.52A17.45,17.45,0,0,0,150,94.84a17.44,17.44,0,0,0,11.13-16,5.74,5.74,0,0,0,0-.92l-.07-.48a6.13,6.13,0,0,0-.32-1.26,9.86,9.86,0,0,0-8.08-6.29,11.27,11.27,0,0,0-1.16-.06,9.87,9.87,0,0,0-8.69,14.54l0,.1A5.71,5.71,0,0,1,137.54,79l0-.34c0-.15,0-.3-.05-.45-.81-5.89-1.23-12-1.63-17.82V60.3c-1.51-21.95-3.07-44.64-26-55.7a34.33,34.33,0,0,0-15-3.43ZM75.27,46.25a22.3,22.3,0,0,1-.76-20.9A22.73,22.73,0,0,1,104.83,15c16.91,8.15,18.06,24.9,19.51,46.11.42,6,.84,12.22,1.69,18.43v0a16.89,16.89,0,0,0,.67,4.06,16.9,16.9,0,0,0-3.59,2h0c-5.38,3.21-10.5,6.74-15.45,10.16C94.8,104.63,83.73,112.27,72,112.27a28.52,28.52,0,0,1-12.58-3A22.69,22.69,0,0,1,48.62,79.06,22.24,22.24,0,0,1,65.43,66.64a12,12,0,0,0-3.73,7.71A13.66,13.66,0,0,0,74.1,89.17a12.94,12.94,0,0,0,1.39.07A15.75,15.75,0,0,0,91.06,75a17.85,17.85,0,0,0-1.67-9.36,18,18,0,0,0,8.37-4.52A15.66,15.66,0,0,0,98.29,39a13.55,13.55,0,0,0-9.56-4.24h-.34A13.61,13.61,0,0,0,79,38.52a12,12,0,0,0-3.7,7.73ZM88,54a5.68,5.68,0,0,0,.51-2.23,5.74,5.74,0,0,0-1.59-4.11.56.56,0,0,1-.16-.41.59.59,0,0,1,.18-.39,2.1,2.1,0,0,1,1.48-.59h0a2.08,2.08,0,0,1,1.5.66,4.13,4.13,0,0,1-.14,5.83A6.8,6.8,0,0,1,88,54ZM74.3,74.88a5.71,5.71,0,0,0,5.12-3.11A6.4,6.4,0,0,1,79.59,74a4.15,4.15,0,0,1-4.1,3.76l-.37,0a2.14,2.14,0,0,1-2-2.33.57.57,0,0,1,.2-.38.55.55,0,0,1,.36-.13h0a4.61,4.61,0,0,0,.52,0Z"/><path class="cls-1" d="M152.73,80a2.36,2.36,0,0,0,.4,1.65A3.45,3.45,0,0,0,154.68,83a2.38,2.38,0,0,0,2.1-.09,2.74,2.74,0,0,0,1.33-1.94,3.81,3.81,0,0,0-.6-2.71,1.83,1.83,0,0,0-2.22-.32c-.67.36-1.16.86-1.64,1.08-.25.15-.45.1-.6.3A1.2,1.2,0,0,0,152.73,80Z"/><path class="cls-1" d="M148.38,86.35a2.34,2.34,0,0,0-1,1.38,3.45,3.45,0,0,0,0,2.06,2.33,2.33,0,0,0,1.46,1.52,2.79,2.79,0,0,0,2.34-.31,2.73,2.73,0,0,0,1.32-2,2.36,2.36,0,0,0-.69-2,3.36,3.36,0,0,0-1.82-1A2.27,2.27,0,0,0,148.38,86.35Z"/><path class="cls-1" d="M141.71,87.42a2.34,2.34,0,0,0-1.66.31,3.47,3.47,0,0,0-1.43,1.48,2.34,2.34,0,0,0,0,2.11,2.88,2.88,0,0,0,4.2,1,2.35,2.35,0,0,0,.9-1.9,3.42,3.42,0,0,0-.63-2A2.33,2.33,0,0,0,141.71,87.42Z"/><path class="cls-1" d="M135.7,82.72a2.34,2.34,0,0,0-1.3-1.07,3.55,3.55,0,0,0-2.06-.15,2.36,2.36,0,0,0-1.63,1.33,2.88,2.88,0,0,0,2,3.85,2.35,2.35,0,0,0,2-.53,3.45,3.45,0,0,0,1.09-1.75A2.29,2.29,0,0,0,135.7,82.72Z"/><path class="cls-1" d="M134.1,73.65a2.69,2.69,0,0,0-3-2.33,2.63,2.63,0,1,0,.55,5.23A2.71,2.71,0,0,0,134.1,73.65Z"/><path class="cls-1" d="M133.33,64.7a2.73,2.73,0,1,0-2.53,2.81A2.68,2.68,0,0,0,133.33,64.7Z"/><path class="cls-1" d="M132.61,54.45a2.74,2.74,0,0,0-5.46.42,2.74,2.74,0,0,0,5.46-.42Z"/><path class="cls-1" d="M131.56,44.08a2.65,2.65,0,0,0-3.1-2.23,2.63,2.63,0,1,0,.71,5.21A2.67,2.67,0,0,0,131.56,44.08Z"/><path class="cls-1" d="M129.86,34.87A2.64,2.64,0,0,0,126.52,33a2.63,2.63,0,1,0,1.26,5.1A2.65,2.65,0,0,0,129.86,34.87Z"/><path class="cls-1" d="M126.25,24.67a2.61,2.61,0,0,0-3.7-1.12,2.78,2.78,0,0,0-1.22,3.52,2.77,2.77,0,0,0,3.53,1.2A2.62,2.62,0,0,0,126.25,24.67Z"/><path class="cls-1" d="M120,15.56a2.6,2.6,0,0,0-3.87,0A2.79,2.79,0,0,0,116,19.3a2.77,2.77,0,0,0,3.71.11A2.59,2.59,0,0,0,120,15.56Z"/><path class="cls-1" d="M112.4,9.42a2.61,2.61,0,0,0-3.71,1,2.77,2.77,0,0,0,.86,3.63,2.78,2.78,0,0,0,3.62-.89A2.61,2.61,0,0,0,112.4,9.42Z"/><path class="cls-1" d="M102.18,5.12A2.58,2.58,0,0,0,99,7.3a2.62,2.62,0,0,0,5.11,1.19A2.58,2.58,0,0,0,102.18,5.12Z"/><path class="cls-1" d="M91,4.56a2.59,2.59,0,0,0-2.23,3.17A2.63,2.63,0,0,0,94,7.05,2.59,2.59,0,0,0,91,4.56Z"/><path class="cls-1" d="M81.52,7.37a2.59,2.59,0,0,0-1.13,3.71,2.81,2.81,0,0,0,3.5,1.23,2.81,2.81,0,0,0,1.23-3.5A2.59,2.59,0,0,0,81.52,7.37Z"/><path class="cls-1" d="M72.47,14a2.58,2.58,0,0,0,.27,3.87,2.79,2.79,0,0,0,3.7-.11,2.82,2.82,0,0,0-.09-3.7A2.59,2.59,0,0,0,72.47,14Z"/><path class="cls-1" d="M66.37,23.36A2.59,2.59,0,0,0,68,26.88a2.8,2.8,0,0,0,3.41-1.43A2.8,2.8,0,0,0,70,22,2.59,2.59,0,0,0,66.37,23.36Z"/><path class="cls-1" d="M64.1,33a2.59,2.59,0,0,0,2.67,2.82,2.81,2.81,0,0,0,2.78-2.44,2.8,2.8,0,0,0-2.42-2.8A2.58,2.58,0,0,0,64.1,33Z"/><path class="cls-1" d="M65.37,44.13a2.58,2.58,0,0,0,3.49,1.68,2.62,2.62,0,0,0-1.52-5A2.59,2.59,0,0,0,65.37,44.13Z"/><path class="cls-1" d="M70.47,54.08a2.6,2.6,0,0,0,3.87.35,2.63,2.63,0,0,0-3.19-4.17A2.59,2.59,0,0,0,70.47,54.08Z"/><path class="cls-1" d="M89.82,62.55A2.77,2.77,0,0,0,91.6,61a2.39,2.39,0,0,0-.14-2.1,3.56,3.56,0,0,0-1.52-1.4,2.14,2.14,0,0,0-3,.9,3.45,3.45,0,0,0-.49,2,2.34,2.34,0,0,0,1,1.83A2.77,2.77,0,0,0,89.82,62.55Z"/><path class="cls-1" d="M99,54.31a2.82,2.82,0,0,0-.18-2.43A2.32,2.32,0,0,0,97,50.79a3.71,3.71,0,0,0-2,.44,2.33,2.33,0,0,0-1.14,1.16A2.3,2.3,0,0,0,94,54a3.7,3.7,0,0,0,1.23,1.65,2.27,2.27,0,0,0,2.07.37A2.83,2.83,0,0,0,99,54.31Z"/><path class="cls-1" d="M97.88,43.18a2.48,2.48,0,0,0-4-.56,3.21,3.21,0,0,0-.63,3.47,2.33,2.33,0,0,0,1.34.91,3.68,3.68,0,0,0,2.06,0,2.29,2.29,0,0,0,1.55-1.43A2.78,2.78,0,0,0,97.88,43.18Z"/><path class="cls-1" d="M86.13,38.18a2.81,2.81,0,0,0-2,1.58,2.19,2.19,0,0,0,.21,2.1,4,4,0,0,0,1.55,1.34,1.82,1.82,0,0,0,2.7-.65,4.13,4.13,0,0,0,.77-1.9,2.23,2.23,0,0,0-.78-2A2.82,2.82,0,0,0,86.13,38.18Z"/><path class="cls-1" d="M144.17,109.85a2.78,2.78,0,0,0,.69-2.25,2.4,2.4,0,0,0-1.24-1.7,3.56,3.56,0,0,0-2-.38,2.41,2.41,0,0,0-1.54.73,1.15,1.15,0,0,0-.33.66c-.06.25.1.37.15.66.12.51,0,1.22.17,2a1.85,1.85,0,0,0,1.64,1.54A3.83,3.83,0,0,0,144.17,109.85Z"/><path class="cls-1" d="M147.78,98.21a2.74,2.74,0,0,0-1.22-2,2.36,2.36,0,0,0-2.1-.2,3.53,3.53,0,0,0-1.62,1.26,2.11,2.11,0,0,0,.37,3.08,3.42,3.42,0,0,0,1.88.83,2.37,2.37,0,0,0,2-.7A2.75,2.75,0,0,0,147.78,98.21Z"/><path class="cls-1" d="M142.43,88.68a2.77,2.77,0,0,0-2.29-.58,2.34,2.34,0,0,0-1.63,1.34,3.52,3.52,0,0,0-.27,2,2.12,2.12,0,0,0,2.43,1.92,3.45,3.45,0,0,0,1.93-.73,2.39,2.39,0,0,0,.92-1.89A2.76,2.76,0,0,0,142.43,88.68Z"/><path class="cls-1" d="M130.51,85.84a2.71,2.71,0,0,0-1.91,1.39,2.35,2.35,0,0,0,0,2.1,3.44,3.44,0,0,0,1.4,1.51,2.08,2.08,0,0,0,3-.62,3.49,3.49,0,0,0,.69-1.94,2.35,2.35,0,0,0-.86-1.92A2.78,2.78,0,0,0,130.51,85.84Z"/><path class="cls-1" d="M120.57,91a2.74,2.74,0,1,0,3.7.91A2.68,2.68,0,0,0,120.57,91Z"/><path class="cls-1" d="M113,96.06a2.74,2.74,0,1,0,3.72.78A2.67,2.67,0,0,0,113,96.06Z"/><path class="cls-1" d="M104.5,101.86a2.74,2.74,0,1,0,3.71.78A2.7,2.7,0,0,0,104.5,101.86Z"/><path class="cls-1" d="M96,107.33a2.72,2.72,0,0,0-.87,3.67,2.63,2.63,0,1,0,4.52-2.69A2.71,2.71,0,0,0,96,107.33Z"/><path class="cls-1" d="M88.26,111.46A2.74,2.74,0,0,0,87,115a2.63,2.63,0,1,0,4.78-2.19A2.74,2.74,0,0,0,88.26,111.46Z"/><path class="cls-1" d="M79.13,114.62a2.78,2.78,0,0,0-2,3.15,2.63,2.63,0,1,0,5.13-1.13A2.78,2.78,0,0,0,79.13,114.62Z"/><path class="cls-1" d="M69.75,115.31a2.79,2.79,0,0,0-2.83,2.4,2.63,2.63,0,1,0,5.23.44A2.8,2.8,0,0,0,69.75,115.31Z"/><path class="cls-1" d="M61.64,113.49a2.77,2.77,0,0,0-3.38,1.59,2.63,2.63,0,1,0,4.94,1.79A2.78,2.78,0,0,0,61.64,113.49Z"/><path class="cls-1" d="M53.42,109a2.8,2.8,0,0,0-3.68.42,2.64,2.64,0,1,0,4.12,3.26A2.8,2.8,0,0,0,53.42,109Z"/><path class="cls-1" d="M47.32,102.1a2.81,2.81,0,0,0-3.6-.89,2.63,2.63,0,1,0,2.72,4.49A2.81,2.81,0,0,0,47.32,102.1Z"/><path class="cls-1" d="M44.26,94.53a2.82,2.82,0,0,0-3.14-2,2.64,2.64,0,1,0,1.17,5.12A2.81,2.81,0,0,0,44.26,94.53Z"/><path class="cls-1" d="M43.85,85.32a2.8,2.8,0,0,0-2.22-3,2.64,2.64,0,1,0-.73,5.2A2.82,2.82,0,0,0,43.85,85.32Z"/><path class="cls-1" d="M46.78,76.59a2.81,2.81,0,0,0-1-3.56,2.63,2.63,0,1,0-2.54,4.59A2.81,2.81,0,0,0,46.78,76.59Z"/><path class="cls-1" d="M51.82,70.18A2.81,2.81,0,0,0,52,66.49,2.63,2.63,0,1,0,48.12,70,2.8,2.8,0,0,0,51.82,70.18Z"/><path class="cls-1" d="M59.63,65.3a2.81,2.81,0,0,0,1.48-3.4,2.64,2.64,0,1,0-4.88,1.94A2.8,2.8,0,0,0,59.63,65.3Z"/><path class="cls-1" d="M68.68,63.48a2.82,2.82,0,0,0,2.58-2.67,2.63,2.63,0,1,0-5.25.1A2.81,2.81,0,0,0,68.68,63.48Z"/><path class="cls-1" d="M76.63,64.48a2.4,2.4,0,0,0,1.7-.09,3.48,3.48,0,0,0,1.6-1.3A2.37,2.37,0,0,0,80.22,61a2.87,2.87,0,0,0-4-1.5,2.36,2.36,0,0,0-1.15,1.75,3.38,3.38,0,0,0,.36,2A2.28,2.28,0,0,0,76.63,64.48Z"/><path class="cls-1" d="M82.18,69.91a2.34,2.34,0,0,0,1.21,1.19,3.45,3.45,0,0,0,2,.31,2.38,2.38,0,0,0,1.73-1.19,2.77,2.77,0,0,0,.09-2.35,2.74,2.74,0,0,0-1.69-1.63,2.36,2.36,0,0,0-2.07.33,3.46,3.46,0,0,0-1.26,1.64A2.33,2.33,0,0,0,82.18,69.91Z"/><path class="cls-1" d="M81.84,77.38a2.26,2.26,0,0,0-.2,1.61,3.71,3.71,0,0,0,.91,1.84,2.27,2.27,0,0,0,2,.73,2.92,2.92,0,0,0,2.27-3.79,2.31,2.31,0,0,0-1.58-1.4,3.81,3.81,0,0,0-2,.07A2.34,2.34,0,0,0,81.84,77.38Z"/><path class="cls-1" d="M76.51,80.8a3.22,3.22,0,0,0-2.31,2.66,2.48,2.48,0,0,0,2.93,2.78A2.8,2.8,0,0,0,79.21,85a2.29,2.29,0,0,0,.15-2.11,3.7,3.7,0,0,0-1.3-1.59A2.36,2.36,0,0,0,76.51,80.8Z"/><path class="cls-1" d="M70.85,77.85a2.26,2.26,0,0,0-1.17-1,4,4,0,0,0-2-.38,2.2,2.2,0,0,0-1.78,1.15,3,3,0,0,0,1.94,4.16,2.2,2.2,0,0,0,2-.63,4,4,0,0,0,1-1.78A2.28,2.28,0,0,0,70.85,77.85Z"/><path class="cls-1" d="M79.91,55.56a5.3,5.3,0,1,0-2.47-7.07A5.29,5.29,0,0,0,79.91,55.56Z"/><path class="cls-1" d="M82.21,57.36h0a6.58,6.58,0,0,1-5.92-9.43,6.61,6.61,0,0,1,5.92-3.71,6.5,6.5,0,0,1,2.85.65,6.57,6.57,0,0,1-2.85,12.49Zm0-10.6A4.06,4.06,0,0,0,78.58,49a4,4,0,0,0,1.88,5.38,4,4,0,1,0,1.75-7.66Z"/><path class="cls-1" d="M70.8,74.46a5.3,5.3,0,1,0-2.47-7.08A5.3,5.3,0,0,0,70.8,74.46Z"/><path class="cls-1" d="M73.1,76.26h0a6.44,6.44,0,0,1-2.85-.66,6.57,6.57,0,0,1-3.07-8.77,6.57,6.57,0,1,1,5.92,9.43Zm0-10.61a4,4,0,0,0-1.76,7.66,4,4,0,0,0,1.75.4,4,4,0,0,0,0-8.06Z"/><path class="cls-1" d="M134.08,105.76a5.3,5.3,0,1,0-2.47-7.07A5.3,5.3,0,0,0,134.08,105.76Z"/><path class="cls-1" d="M136.38,107.56h0a6.57,6.57,0,1,1,0-13.14,6.43,6.43,0,0,1,2.85.65,6.57,6.57,0,0,1-2.86,12.49Zm0-10.6a4,4,0,0,0,0,8.06h0a4,4,0,0,0,1.75-7.66A3.89,3.89,0,0,0,136.39,97Z"/><path class="cls-1" d="M144.59,84a5.3,5.3,0,1,0-2.48-7.07A5.29,5.29,0,0,0,144.59,84Z"/><path class="cls-1" d="M146.88,85.77h0a6.58,6.58,0,0,1,0-13.15,6.44,6.44,0,0,1,2.85.66,6.57,6.57,0,0,1-2.86,12.49Zm0-10.6a4,4,0,1,0,1.75.4A3.94,3.94,0,0,0,146.89,75.17Z"/><path class="cls-1" d="M112.13,88a9.7,9.7,0,1,0,8.42-17.48c-4.83-2.33-28.89-9.1-31.21-4.28S107.3,85.62,112.13,88Z"/><path class="cls-1" d="M116.34,90.19h0a10.92,10.92,0,0,1-4.76-1.09c-3-1.45-26.5-17-23.39-23.46.78-1.62,2.87-2.41,6.39-2.41,8.34,0,22.88,4.34,26.53,6.1a11,11,0,0,1-4.77,20.86ZM94.58,65.77c-3.45,0-4,.81-4.1,1-1.5,3.11,15.63,16.89,22.2,20.06A8.43,8.43,0,1,0,120,71.62C116.38,69.87,102.26,65.77,94.58,65.77Z"/><path class="cls-1" d="M121.88,71.26a20.66,20.66,0,0,1-8.37,17.36Z"/><path class="cls-1" d="M113.51,89.89a1.27,1.27,0,0,1-.75-2.29,19.42,19.42,0,0,0,7.85-16.3A1.26,1.26,0,0,1,121.83,70a1.27,1.27,0,0,1,1.32,1.22,21.92,21.92,0,0,1-8.88,18.43A1.26,1.26,0,0,1,113.51,89.89Z"/><path class="cls-1" d="M113.24,69.23a18.25,18.25,0,0,1-6.71,13.91Z"/><path class="cls-1" d="M106.53,84.41a1.23,1.23,0,0,1-.93-.42,1.25,1.25,0,0,1,.09-1.78A18.06,18.06,0,0,0,112,69.15,1.25,1.25,0,0,1,113.32,68a1.28,1.28,0,0,1,1.18,1.34,20.7,20.7,0,0,1-7.12,14.77A1.31,1.31,0,0,1,106.53,84.41Z"/><path class="cls-1" d="M104.61,67.2a16.72,16.72,0,0,1-5.06,10.47Z"/><path class="cls-1" d="M99.55,78.94a1.23,1.23,0,0,1-.84-.34,1.26,1.26,0,0,1-.09-1.78A17.13,17.13,0,0,0,103.36,67a1.25,1.25,0,0,1,1.45-1,1.27,1.27,0,0,1,1,1.44,19.78,19.78,0,0,1-5.36,11.11A1.31,1.31,0,0,1,99.55,78.94Z"/><path class="cls-1" d="M96,65.17a20.68,20.68,0,0,1-3.39,7Z"/><path class="cls-1" d="M92.57,73.46a1.23,1.23,0,0,1-.75-.25,1.27,1.27,0,0,1-.26-1.78,19.45,19.45,0,0,0,3.18-6.59,1.27,1.27,0,1,1,2.46.66A21.82,21.82,0,0,1,93.6,73,1.27,1.27,0,0,1,92.57,73.46Z"/><path class="cls-1" d="M112.25,96.75a20.69,20.69,0,0,1-8.37,17.36"/><path class="cls-1" d="M105.77,95.23A18.83,18.83,0,0,1,98.65,110"/><path class="cls-1" d="M99.29,93.71a17.28,17.28,0,0,1-5.88,12.19"/><path class="cls-1" d="M92.82,92.19a16.76,16.76,0,0,1-4.64,9.6"/><path class="cls-1" d="M86.34,90.66a20.61,20.61,0,0,1-3.4,7"/></g></g></svg>